<?xml version="1.0" encoding="utf-8"?>
<!-- Generator: Adobe Illustrator 24.2.1, SVG Export Plug-In . SVG Version: 6.00 Build 0)  -->
<svg version="1.1" id="a706cf1c-1654-439b-8fcf-310eb7aa0e00"
	 xmlns="http://www.w3.org/2000/svg" xmlns:xlink="http://www.w3.org/1999/xlink" x="0px" y="0px" viewBox="0 0 1150 800"
	 style="enable-background:new 0 0 1150 800;" xml:space="preserve">
<style type="text/css">
	.st0{fill:#F9A826;}
	.st1{fill:#F2F2F2;}
	.st2{fill:#3F3D56;}
	.st3{fill:#F95858;}
	.st4{fill:#E29627;}
	.st5{fill:#DB3E3E;}
	.st6{fill:#DECBAF;}
	.st7{fill:#9D816B;}
	.st8{fill:#B19482;}
	.st9{fill:#85664F;}
	.st10{fill:#FEFEFE;}
	.st11{fill:#433020;}
</style>
<g>
	<circle class="st0" cx="227.3" cy="141.4" r="64"/>
	<path class="st1" d="M538.7,381.5c0,151-89.8,203.7-200.5,203.7s-200.5-52.7-200.5-203.7S338.2,38.4,338.2,38.4
		S538.7,230.5,538.7,381.5z"/>
	<path class="st1" d="M1135.3,443.4c0,123.6-73.5,166.8-164.1,166.8S807,567,807,443.4s164.1-280.9,164.1-280.9
		S1135.3,319.8,1135.3,443.4z"/>
	<ellipse class="st2" cx="907.1" cy="765.2" rx="95" ry="4.8"/>
	<ellipse class="st2" cx="607.2" cy="795.2" rx="95" ry="4.8"/>
	<ellipse class="st2" cx="302.6" cy="772.7" rx="217" ry="11"/>
	<path class="st3" d="M232.3,648.7c0,55.1-32.7,74.3-73.1,74.3c-0.9,0-1.9,0-2.8,0c-1.9,0-3.7-0.1-5.6-0.3
		c-36.5-2.6-64.8-22.8-64.8-74c0-53,67.7-119.9,72.8-124.8l0,0c0.2-0.2,0.3-0.3,0.3-0.3S232.3,593.7,232.3,648.7z"/>
	<path class="st4" d="M586.3,638.7c0,50.6-30.1,68.2-67.1,68.2c-0.9,0-1.7,0-2.6,0c-1.7,0-3.4-0.1-5.1-0.2
		c-33.5-2.4-59.5-20.9-59.5-67.9c0-48.7,62.2-110.1,66.9-114.6l0,0c0.2-0.2,0.3-0.3,0.3-0.3S586.3,588.1,586.3,638.7z"/>
	<path class="st0" d="M850.3,659.7c0,55.1-32.7,74.3-73.1,74.3c-0.9,0-1.9,0-2.8,0c-1.9,0-3.7-0.1-5.6-0.3
		c-36.5-2.6-64.8-22.8-64.8-74c0-53,67.7-119.9,72.8-124.8l0,0c0.2-0.2,0.3-0.3,0.3-0.3S850.3,604.7,850.3,659.7z"/>
	<path class="st5" d="M631.2,679.4c0,25.5-15.2,34.4-33.9,34.4c-0.4,0-0.9,0-1.3,0c-0.9,0-1.7-0.1-2.6-0.1
		c-16.9-1.2-30-10.6-30-34.3c0-24.6,31.4-55.5,33.7-57.8l0,0c0.1-0.1,0.1-0.1,0.1-0.1S631.2,653.9,631.2,679.4z"/>
	<path class="st0" d="M107.3,696.6c0,25.5-15.2,34.4-33.9,34.4c-0.4,0-0.9,0-1.3,0c-0.9,0-1.7-0.1-2.6-0.1
		c-16.9-1.2-30-10.6-30-34.3c0-24.6,31.4-55.5,33.7-57.8l0,0c0.1-0.1,0.1-0.1,0.1-0.1S107.3,671,107.3,696.6z"/>
	<path class="st6" d="M430.3,653.5c0-0.1,0-0.2,0.1-0.3l0.1,0.1C430.4,653.4,430.4,653.4,430.3,653.5L430.3,653.5z"/>
	<path class="st6" d="M335.4,653.5c-0.1-0.1-0.1-0.1-0.2-0.2l0.1-0.1C335.3,653.3,335.3,653.4,335.4,653.5L335.4,653.5z"/>
	<polygon class="st6" points="430.1,662.8 430.2,662.8 430.2,662.9 	"/>
	<polygon class="st6" points="335.5,662.9 335.5,662.8 335.5,662.8 	"/>
	<path class="st0" d="M411.2,697.6c0,20.4-12.2,27.7-27.1,27.7c-0.3,0-0.7,0-1,0c-0.7,0-1.4,0-2.1-0.1c-13.5-1-24-8.5-24-27.6
		c0-19.7,25.1-44.6,27-46.4l0,0c0.1-0.1,0.1-0.1,0.1-0.1S411.2,677.2,411.2,697.6z"/>
	<path class="st2" d="M158.9,523.9v-0.3V523.9z"/>
	<path class="st2" d="M213.8,703.7c-5,5.1-10.9,9.1-17.4,12.1c-0.1,0.1-0.2,0.1-0.4,0.2c-0.9,0.4-1.9,0.8-2.9,1.2
		c-0.2,0.1-0.4,0.2-0.6,0.2c-0.9,0.3-1.8,0.7-2.7,1c-0.3,0.1-0.6,0.2-0.8,0.3c-0.8,0.3-1.7,0.5-2.5,0.8c-0.3,0.1-0.7,0.2-1,0.3
		c-0.8,0.2-1.6,0.4-2.5,0.6c-0.4,0.1-0.8,0.2-1.1,0.3c-0.8,0.2-1.6,0.3-2.4,0.5c-0.4,0.1-0.8,0.2-1.2,0.2c-0.8,0.1-1.6,0.3-2.4,0.4
		c-0.4,0.1-0.9,0.1-1.3,0.2c-0.8,0.1-1.6,0.2-2.4,0.3c-0.5,0.1-0.9,0.1-1.4,0.2c-0.8,0.1-1.6,0.1-2.5,0.2c-0.5,0-0.9,0.1-1.4,0.1
		c-0.9,0.1-1.8,0.1-2.7,0.1c-0.4,0-0.8,0-1.2,0.1c-1.3,0-2.6,0.1-3.9,0.1c-0.9,0-1.9,0-2.8,0l0.1-4.3l26.8-41.5l-26.7,37.4l0.7-46.1
		l31.2-57l-31.1,49.8l0.3-20.7l21.5-41.3l-21.4,35.8l0.6-37.3l23-32.8l-22.9,27l0.4-67.9c0-0.1,0-0.2,0-0.2l0,0l-2.3,86.3
		l-23.3-35.7l23,43l-2.2,41.6l-0.1-1.1l-27-37.7l26.9,41.6l-0.3,5.2v0.1v0.4l-2.9,55.1c-17.3-1.2-32.8-6.5-44.3-17.1
		C103,724.3,89.5,731,73.2,731c-0.4,0-0.9,0-1.3,0v-2l12.4-19.2l-12.4,17.3l0.3-21.4l14.4-26.4l-14.1,23.1l0.2-9.6l9.9-19.1
		l-9.9,16.5l0.3-17.3l10.7-15.1l-10.6,12.5l0.2-31.5v-0.1v0.1l-1.1,40l-10.8-16.5l10.7,19.9l-1,19.3V701l-12.6-17.6L71,702.7
		l-0.1,2.4l0,0v0.2l-1.3,25.5c-13.1-0.9-24-6.8-28.2-20.6c-17.4,2.8-26.7,5.7-26.7,8.7c0,15.5,248.3,28,554.6,28
		s554.6-12.6,554.6-28c0-7.7-61.3-14.7-160.5-19.7l1.6-98.7l60.2-93.1l-60,83.9l1.7-103.5l70-128l-69.7,111.8l0.8-46.5l48.2-92.6
		l-48,80.3l1.4-83.7l51.6-73.7l-51.5,60.5l0.9-153.4l-5.1,194.4l-52.3-80l51.7,96.4l-4.9,93.4l-0.1-2.5l-60.5-84.6l60.3,93.3
		l-0.6,11.7l-0.1,0.2v1l-11.3,212.6c-31.2-1.5-65.8-2.8-103.2-3.8c-11.1,28.7-37.1,39.5-67.4,39.5c-0.9,0-1.9,0-2.8,0l0.1-4.3
		l26.8-41.5l-26.7,37.4l0.7-46.1l31.2-57l-31.1,49.8l0.3-20.7l21.5-41.3l-21.4,35.8l0.6-37.3l23-32.8l-22.9,27l0.4-68.1v-0.3v0.3
		l-2.3,86.3l-23.3-35.7l23,43l-2.2,41.6l-0.1-1.1l-27-37.7l26.9,41.6l-0.3,5.2v0.1v0.4l-2.9,55.1l0,0c-27.6-2-50.5-14-60-42
		c-25.6-0.3-52-0.6-78.9-0.7c-4,16.6-17.1,22.8-32.6,22.8c-0.4,0-0.9,0-1.3,0v-2l12.4-19.2L595.8,710l0.3-21.4l14.4-26.4l-14.4,23.1
		l0.2-9.6l9.9-19.1l-9.9,16.6l0.3-17.3l10.7-15.2l-10.6,12.5l0.2-31.5v-0.3v0.1l-1.1,40L585,645l10.7,19.9l-1,19.3v-0.5l-12.5-17.5
		l12.5,19.3l-0.1,2.4l0,0v0.2l-1.3,25.5c-13.2-0.9-24.1-6.9-28.2-20.7c-12,9.9-28.2,14-46,14c-0.9,0-1.7,0-2.6,0l0.1-3.9l24.6-38.1
		l-24.5,34.2l0.7-42.3l28.6-52.3l-28.5,45.7l0.3-19l19.7-37.9l-19.6,32.8l0.6-34.2l21.1-30.2l-21,24.8l0.3-62.5v-0.3v0.3l-2.1,79.2
		l-21.4-32.7l21.1,39.4l-2,38.2l-0.1-1l-24.7-34.5l24.7,38.2l-0.2,4.8v0.1v0.4l-2.6,50.6c-15.7-1.1-29.8-5.8-40.3-15.3
		c-20.6,0.2-40.9,0.4-60.7,0.7c0.4,1.9,0.6,3.7,0.6,5.5c0,20.4-12.2,27.6-27.1,27.6c-0.3,0-0.7,0-1,0v-1.6l10-15.4l-9.9,13.9
		l0.3-17.1l11.6-21.2l-11.5,18.5l0.1-7.7l8-15.3l-7.9,13.3l0.2-13.8l8.5-12.2l-8.5,10l0.1-25.3v-0.1v0.1l-0.8,32l-8.6-13.2l8.5,16
		l-0.8,15.5v-0.4l-10-14l10,15.4l-0.1,1.9l0,0v0.2l-1.1,20.5c-13.5-1-24-8.5-24-27.5c0-1.5,0.2-3,0.4-4.6
		c-9.7,0.2-19.2,0.4-28.6,0.6l2-120.2l73.5-113.7l-73.3,102.5l2.1-126.4l85.1-156.5l-85.1,136.5l0.9-56.8L393.1,246l-58.7,98.1
		l1.7-102.2l63.1-90.1l-62.8,74l1-187.4l-6.2,237.5l-63.9-97.8l63.1,117.8l-6,114.1l-0.2-3l-73.9-103.3l73.7,114l-0.7,14.3l-0.1,0.2
		l0.1,1.2l-13.6,260.7"/>
	<path class="st2" d="M240.7,712.2"/>
	<path class="st6" d="M347.1,674.7c-1-1.3-2.3-2.3-3.5-3.2c-0.2-0.2-0.4-0.4-0.6-0.9c2.2,1.1,4.2,2.4,6.5,3c-1.5-1-2.9-2.3-4.2-3.6
		c-1.7-1.7-3.6-3.3-4.7-5.5l0,0c0.9,0.4,1.5,1.2,2.3,1.8c1.3,0.9,2.6,2,4.2,2.6c0.1,0.1,0.1,0.1,0.2,0.2c0,0,0-0.1,0.1-0.1
		c-0.1,0-0.2,0-0.3-0.1c-0.9-1.2-1.8-2.4-2.6-3.6c-0.4-0.6-0.8-1.2-1.1-1.9c1,0.5,1.8,1.2,2.6,1.8c0.9,0.6,1.7,1.5,3.1,1.7
		c-1.9-2.2-3.5-4.3-4.6-6.7c2.1,1.4,3.9,3,6.5,4.1c-0.4-1.2-1.5-1.9-1.4-3.2c1.3,0.1,2.2,1.3,3.6,1.3c0.1-0.1,0.1-0.3,0-0.4
		c-1.7-1.6-2.9-3.6-4.1-5.5c-0.5-0.7-0.7-1.6-1.1-2.4c-0.1-0.2-0.1-0.3,0-0.5c0.2-0.2,0.4,0,0.5,0.2c1.3,1.3,2.7,2.5,4.2,3.7
		c0.7,0.6,1.5,1.2,2.5,1.9c-0.6-1.7-2.1-2.7-2.3-4.4c0.6-0.1,0.8,0.3,1.1,0.5c1.2,0.9,2.2,2,3.8,2.2c0,0.1,0,0.2,0,0.3
		c0,0,0.1,0,0.1-0.1c-0.1-0.1-0.1-0.1-0.2-0.2c-0.9-1.8-1.6-3.7-1.9-5.7c-0.1-0.9-0.3-1.9-0.4-3c1.4,2.3,3,4.3,4.8,6.1
		c-1.1-3.3-1.9-6.7-2.5-10.2c0.6,1,1.2,2.1,1.8,3.1c0.8,1.3,1.7,2.6,2.6,3.9c0.1,0.1,0.2,0.1,0.4,0.1c0,0.1,0.1,0.2,0.1,0.3l0.1-0.1
		c-0.1-0.1-0.1-0.1-0.2-0.2c-0.7-2.3-1.5-4.6-1.8-7c1.4,2.1,2.6,4.3,4.3,6.5c-0.3-1.2-0.5-2.1-0.6-3.2c0.6,0.6,1.1,1,1.6,1.5
		c0,0.2,0.1,0.3,0.1,0.5c0,0,0.1,0,0.1-0.1c0.1-0.2,0-0.3-0.2-0.4c-0.6-2-1.6-3.8-2.6-5.6c-0.1-0.2-0.5-0.3-0.2-0.6
		c0.2-0.2,0.4,0.1,0.6,0.2c1.1,0.8,1.9,1.8,2.9,2.7c-0.6-2-1.8-3.6-2.8-5.3l0,0c1.6,0.4,2.7,1.7,3.7,2.8c0.3,0.3,0.5,0.6,0.9,0.9
		c-0.6-2.9-0.5-5.8,0.3-8.8c0.4,1.5,0.6,2.7,1.2,3.9c0.5,1.2,1,2.4,1.8,3.6c0.4-2.1,0.4-4,0.7-6c0.6,1.7,1.2,3.5,1.9,5.4
		c0.8-1.4,0.9-2.7,0.7-4.3c1.3,0.7,1.5,1.9,1.9,3c0.7-1.4,0.7-2.8,0.2-4.1c-0.1-0.3-0.3-0.5,0-0.7s0.4,0.2,0.5,0.3
		c1,0.9,1.1,2.2,1.5,3.3c0.1,0.5,0.2,0.9,0.3,1.5c0.8-2.5,1.3-5.1,2.4-7.6c0.1,2.2,0.4,4.1,0.8,6c0.1-1.2,0.1-2.5,0.3-3.7
		c0.1-0.5,0.2-1.1,0.2-1.6c0-0.2,0-0.5,0.3-0.5s0.3,0.2,0.3,0.5c0.1,1.2,0.3,2.4,0.4,3.6c0.1,0.6,0,1.2,0.1,1.8
		c0.5-1.9,0.7-3.9,0.8-6c1.1,2.5,1.5,5,2.3,7.5c0.2-1,0.5-1.9,0.7-2.8c0.3-1,0.7-1.9,1.9-2.6c-0.8,1.8-0.9,3.4-0.2,5.2
		c0.5-1.1,0.6-2.4,1.9-3.1c-0.2,1.6-0.1,2.9,0.7,4.3c0.8-1.9,1.4-3.7,2-5.5c0.4,2,0.2,4,0.7,6.1c1.5-2.4,2.4-4.8,3-7.6
		c0.7,3.1,1,5.9,0.3,8.9c1-1.1,1.9-2.3,3.1-3.1c0.5-0.3,0.8-0.8,1.5-0.7l0,0c-1.1,1.7-2.2,3.4-2.8,5.3c1.1-0.7,1.6-1.9,2.7-2.6
		c0.3-0.2,0.5-0.6,0.8-0.3c0.4,0.3-0.1,0.5-0.3,0.7c-1,1.7-2,3.5-2.5,5.4c-0.2,0.1-0.2,0.2-0.2,0.4c0,0,0,0,0.1,0.1
		c0-0.2,0.1-0.3,0.1-0.5c0.5-0.5,1-0.9,1.6-1.5c-0.1,0.9-0.2,1.7-0.3,2.4c1.7-1.6,2.7-3.7,4-5.8c-0.3,2.5-1.1,4.7-1.7,7.1
		c1.9-2.2,3.4-4.6,4.8-7c-0.7,3.4-1.4,6.8-2.6,10.2c1.8-1.8,3.4-3.8,4.7-6.1c-0.2,3.1-1,6-2.3,8.7c-0.1,0.1-0.1,0.1-0.2,0.2
		c0,0,0.1,0,0.1,0.1c0-0.1,0-0.2,0-0.3c1.5-0.2,2.5-1.3,3.7-2.1c0.3-0.2,0.6-0.6,1.1-0.7c-0.2,1.7-1.7,2.7-2.3,4.4
		c2.4-1.7,4.4-3.5,6.3-5.3c0.2-0.2,0.4-0.7,0.8-0.4s-0.1,0.6-0.2,0.9c-0.8,2.2-2.2,4-3.5,5.9c-0.4,0.7-1.2,1-1.7,1.9
		c1-0.1,1.7-0.5,2.4-0.9c0.3-0.2,0.8-0.6,1.1-0.3c0.3,0.3,0.1,0.8-0.2,1.2c-0.4,0.5-0.7,1-0.9,1.6c2.4-0.8,4.2-2.5,6.5-4.1
		c-1.2,2.6-2.8,4.7-4.4,6.8c2.1-0.8,3.6-2.3,5.6-3.7c-0.6,1.4-1.5,2.4-2.2,3.5c-0.5,0.8-1.3,1.2-1.6,2.1c-0.1,0-0.2,0-0.3,0.1
		c0,0,0,0.1,0.1,0.1c0.1-0.1,0.1-0.1,0.2-0.2c1.5-0.6,2.8-1.6,4.2-2.6c0.8-0.6,1.4-1.4,2.3-1.8l0,0c-0.5,1-1.2,1.9-2,2.7
		c-1.4,1.4-2.7,2.8-4.1,4.1c-0.5,0.5-1.1,1-1.7,1.3c-0.2,0.1-0.5,0.3-0.5,0.7c2.1-0.5,3.9-1.8,5.8-2.7c-1.2,1.5-2.9,2.5-4,4
		c-0.2-0.4-0.5-0.1-0.7-0.1c-1.5,0.5-3,1-4.4,1.5c-0.7,0.2-1.5,0.6-2.4,0.4c2.5-1.4,4.2-3.4,5.8-5.7c-1.3,0.5-2.3,1.3-3.2,2.3
		c-1,1.2-2.3,2.1-3.6,3c-2.1,1.5-4.5,2.5-6.8,3.8c-1,0.1-1.7,0.8-2.7,0.8c-0.2-0.9-0.8-1.7-0.6-2.6c0.5,0.3,0.9,0.1,1.4,0
		c2.4-0.7,4.8-1.8,6.9-3.1c2.4-1.4,4-3.7,5.3-6.1c0,0,0-0.1-0.1-0.3c-1,0.8-2,1.5-3,2.2s-2.1,1.4-3.3,1.7c0.9-0.8,1.7-1.7,2.3-2.9
		c-3.8,2.2-6.7,5.2-10.3,7.1c-0.5-0.6-1.1-1.2-1-2.1c0.9-0.5,1.7-0.9,2.6-1.4c1.4-0.8,2.6-1.9,4-2.7c2.3-1.4,3.5-3.3,3.9-6.2
		c-1.5,1.9-3,3.6-4.7,4.9c-0.1-0.1-0.1-0.1-0.2-0.2c0.7-1.1,1.4-2.3,1.6-3.6c-0.7,0.6-1.5,1-2.1,1.7c-1.7,2.4-3.8,4.5-6,6.5
		c-0.5-0.6-1-1.1-1.5-1.7c1.1-1,2.3-2,3.4-3c0.6-0.6,1.1-1.4,1.8-2c1-0.8,1.8-1.8,2.5-2.8c0.7-0.9,0.7-2.1,0.8-3.3
		c-0.8,1.5-2.1,2.6-3.1,3.9c-0.3,0.4-0.6,0.4-0.9,0.3c0.6-1.2,1.6-2.2,1.4-3.7c-0.8,0.9-1.5,1.6-2.2,2.3c-0.1-0.1-0.1-0.1-0.2-0.2
		c1-2.1,1.9-4.1,2.3-6.4c-1.7,2-1.9,4.7-3.2,6.8c-1.3,2.2-2.7,4.3-4.3,6.3c-0.1,0-0.3,0-0.4,0l0,0c-0.1-0.1-0.3-0.2-0.4-0.3
		c-0.2-0.5-1-0.4-1.1-1c1.8-2.1,3.6-4.2,5-6.5c0-0.1,0-0.2,0-0.2c-0.1,0-0.1,0.1-0.2,0.1c-0.8,0.5-0.7-0.1-0.6-0.5
		c0.4-1.2,0.5-2.5,0.7-3.8c-1,1.3-1.7,2.7-2.7,3.9c-0.1-0.1-0.1-0.1-0.2-0.2c0.9-3.2,1.5-6.5,1.4-9.9c-0.7,1.3-1.1,2.8-1.7,4.2
		c-0.3,0.7-0.2,1.5-0.4,2.2c-0.6,3.5-1.9,6.7-3.5,9.8c-0.8-0.1-1.5-0.5-2.1-1.1c0.8-1.5,1.9-2.9,2.4-4.5c0.5-1.5,1-2.9,1.5-4.4
		c1.2-3.6,0-6.8-0.6-10.2c-0.3,2.8-0.8,5.5-1.4,8.2c-0.2-0.1-0.4-0.1-0.6-0.2c-0.2-1.6-0.3-3.2-0.5-4.8c-0.3,0.5-0.5,1-0.5,1.7
		c0.1,0.8,0.2,1.6,0.3,2.4c0.2,3.8-0.4,7.5-1.8,11c-0.9,0-1.4-0.5-1.9-1c1.2-3.1,1.9-6.2,2.1-9.6c-0.2,0.3-0.4,0.6-0.6,0.9
		c0.1-1.9-0.4-3.7-0.5-5.7c-0.2,0.4-0.6,0.7-0.6,1c0.1,1.6-0.6,3.1-0.3,4.8c0.4,2.7-0.1,5.4-0.6,8c-1-0.2-1.5-0.9-1.9-1.7
		c0.3-1.8,0.5-3.6,0.8-5.3c0.3-1.9,0.1-3.4-1.1-4.8c-0.8,1.2-1.4,2.3-1.2,3.9c0.2,2.1,0.5,4.2,0.9,6.2c-0.4,0.8-0.9,1.5-1.9,1.7
		c0-1-0.3-2-0.5-3.1c-0.6-3,0.5-6.2-0.5-9.2c-0.1-0.5-0.2-0.9-0.5-1.5c-0.2,2-0.6,3.8-0.4,5.8c-0.5-0.4-0.4-1-1-1.1
		c0.5,3.3,1.2,6.5,2.4,9.6c-0.6,0.5-1.1,1.1-1.9,1c-0.5-1.1-0.9-2.3-1.2-3.5c-0.7-3.2-1-6.5-0.4-9.8c0.1-0.7,0-1.3-0.3-1.8
		c-0.6,1.9-0.5,3.9-0.6,5.8c-0.1,0-0.2,0-0.3,0c-0.8-3-1.2-6-1.5-9.2c-0.6,1.4-0.7,2.8-0.9,4.1c-0.3,1.9-0.6,3.8,0,5.7
		c1.1,3.3,2.2,6.5,4.1,9.4c-0.6,0.6-1.3,0.9-2.1,1.1c-0.6-1.2-1.1-2.5-1.7-3.8c-0.7-1.7-1.3-3.4-1.6-5.2c-0.3-1.6-0.4-3.3-1.3-4.8
		c-0.5-0.8-0.5-1.7-1-2.7c-0.2,3.6,0.5,6.8,1.5,10.1c-0.1,0.1-0.1,0.1-0.2,0.2c-1-1.2-1.7-2.5-2.7-3.7c0.4,1.2,0.1,2.5,0.7,3.7
		c0.3,0.5,0,0.8-0.6,0.4c-0.1,0-0.1-0.1-0.2-0.1c0,0.1,0,0.2,0,0.2c1.5,2.3,3.1,4.5,5,6.5c-0.1,0.6-0.9,0.5-1.1,1
		c-0.1,0.1-0.3,0.2-0.4,0.3l0,0c-0.1,0-0.3,0-0.4,0c-2.9-3.4-5.2-7.1-6.3-11.6c-0.2-0.6-0.6-1.1-1.2-1.5c0.5,2.2,1.3,4.3,2.3,6.4
		c-0.1,0.1-0.1,0.1-0.2,0.2c-0.7-0.8-1.4-1.5-2.2-2.4c-0.1,1.3,0.6,2.1,1,3.1c0.1,0.2,0.7,0.4,0.2,0.7c-0.4,0.3-0.6-0.1-0.8-0.4
		c-0.9-1.4-2.2-2.3-3-3.8c0.2,1.2,0.2,2.3,0.9,3.4c1,1.5,2.4,2.7,3.5,4c1.2,1.4,2.6,2.6,4.1,3.7c-0.4,0.6-0.9,1.2-1.5,1.7
		c-2.1-1.8-4-3.8-5.7-6c-0.7-0.9-1.5-1.5-2.6-2.3c0.4,1.5,1,2.7,1.7,3.8c-0.1,0.1-0.1,0.1-0.2,0.2c-1.8-1.3-3.1-3.1-4.7-4.7
		c0.2,2.6,1.7,4.8,3.8,5.9c0.1,0.1,0.3,0.1,0.5,0.2c1.8,1.7,4,2.9,6.2,4c0,0.9-0.6,1.4-1,2.1c-3.7-2-6.7-5-10.5-7.2
		c0.7,1.2,1.5,2.1,2.3,3c-2.4-0.8-4.3-2.5-6.3-3.9c1.7,3.4,4.1,6.1,7.7,7.7c1.6,0.7,3.1,1.3,4.7,1.9c0.5,0.2,0.8,0.2,1.2-0.1
		c0.1,1-0.4,1.8-0.6,2.6c-1-0.1-1.7-0.8-2.7-0.8c-0.2-0.1-0.4-0.3-0.6-0.4c-4-1.9-7.8-4.1-10.8-7.4c-0.6-0.6-1.5-1-2.2-1.5
		c1.5,2.3,3.3,4.4,5.7,5.8c-0.4,0.2-0.6,0.1-0.8,0c-1.9-0.5-3.8-1.1-5.7-1.8C347.8,674.6,347.4,674.2,347.1,674.7z M417.7,667.3
		L417.7,667.3c0,0.1,0.1,0.1,0.1,0.1C417.9,667.3,417.9,667.3,417.7,667.3C417.8,667.2,417.7,667.3,417.7,667.3z M349.5,667.4
		C349.5,667.3,349.5,667.3,349.5,667.4C349.6,667.3,349.5,667.3,349.5,667.4C349.5,667.3,349.4,667.3,349.5,667.4
		C349.4,667.3,349.5,667.4,349.5,667.4z"/>
	<path class="st6" d="M419.6,675.6c2.3-0.4,4.3-1.4,6.4-2.4c-1,2.5-2.8,4.2-5.3,5.9c1.4-0.2,2.6-0.4,4-0.7c-1.7,1.4-3.6,1.9-5.5,2.9
		c1.7,0.2,3.1-0.2,4.4-0.8c1.2-0.6,2.4-1.3,3.6-1.9c0.1-0.1,0.2-0.4,0.4-0.1c0.1,0.1,0.1,0.3,0,0.5c-0.9,1-1.6,2.2-2.6,3.1
		c-2.8,0.8-5.6,1.4-8.4,1.5c-1.6,0.1-3.2,0-4.8,0c1.2-0.5,2.4-0.8,3.5-1.3c1.1-0.6,2.3-1,3.1-2.1c-3.1,0.8-5.9,2.3-9,3.1
		c-2.2,0.3-4.3,0.9-6.6,0.9c-0.1-0.8-0.3-1.5-0.4-2.3c0.5,0,1.1,0,1.6-0.1c0.9-0.2,1.9,0.1,2.7-0.5c0.4,0.1,0.8,0.1,1.2,0
		c1.9-0.4,3.9-0.8,5.8-1.3s3.2-1.9,4.5-3.2C418.6,676.3,419,675.8,419.6,675.6z"/>
	<path class="st6" d="M342,682c-0.6-1-1.3-1.8-2-2.6c-0.2-0.2-0.7-0.6-0.3-1c0.2-0.2,0.6,0.2,0.8,0.4c1.8,1.2,3.7,2.2,5.9,2.5
		c0.6,0.1,0.6,0.1,1.5-0.1c-1.7-0.9-3.6-1.4-5.3-2.8c1.4,0.2,2.5,0.4,3.9,0.7c-2.3-1.6-4.2-3.4-5.2-5.8c2.1,0.9,4.1,2,6.4,2.4
		c0.6,0.2,0.9,0.6,1.3,1.1c1.3,1.5,2.6,2.9,4.6,3.4c1.9,0.5,3.9,1,5.9,1.3c0.4,0.1,0.8,0.1,1.1,0c0.2,0.4,0.5,0.3,0.8,0.3
		c1.2,0.1,2.4,0.2,3.6,0.2c-0.1,0.8-0.3,1.5-0.4,2.3c-0.7,0-1.4-0.1-2.1-0.1c-1.6-0.1-3.2-0.7-4.8-0.7c-3-1-5.8-2.4-8.9-3.1
		c2,1.5,4.3,2.7,6.7,3.4c-2.9,0.2-5.7,0.1-8.5-0.3C345.3,682.9,343.7,682.3,342,682z"/>
	<path class="st6" d="M351.4,694.4c-0.7,2.1-1.5,4.2-1.8,6.4c-0.1,0.7-0.2,1.4-0.3,2.2c0.7-0.2,0.8-1.1,1.6-1.3
		c0,2.7,0.3,5.3,0.6,7.9c-0.3-0.1-0.7-0.2-1-0.3c-0.2-0.1-0.5-0.2-0.4-0.4c0.7-0.9-0.1-0.7-0.6-0.7c-0.4,0-1-0.1-1.1-0.5
		c-0.1-0.5,0.5-0.3,0.7-0.5s0.6-0.3,0.6-0.7c0.1,0,0.2,0,0.3-0.1c0,0,0-0.1-0.1-0.1c-0.1,0.1-0.1,0.1-0.2,0.2c-0.7,0-1.4,0-2.1-0.2
		c-0.2-0.1-0.5,0.1-0.6-0.2c-0.1-0.4,0.3-0.5,0.5-0.6c0.8-0.3,1.5-0.6,2.3-1.3c-1.9,0-3.5,0.8-5.2,0.4c1.2-0.5,2.3-0.9,3.3-1.7
		c-1.7,0.3-3.3,0.4-5,0.1c1.8-0.6,3.4-1.5,5.1-2.7c-1.6,0.2-2.9,0.5-4.3,0.2c1.5-0.6,3-1.2,4.4-2.2c-1.4,0.2-2.7,0.1-4.1-0.5
		c1.3-0.6,2.6-0.7,3.8-1.4c-1.3-0.1-2.4-0.2-3.6-0.8c1.5-0.5,3-0.6,4.3-1.2c-1.5-0.4-3.1-0.2-4.5-0.9c1.6-0.2,3.1-0.6,4.6-1.1
		c-1.8-0.2-3.7-0.4-5.3-1.3c2.5-0.2,5,0,7.6-0.6c-3.4-0.6-6.6-1.1-9.6-2.8c1.1-0.3,1.9,0.1,2.7,0.2c0.9,0.1,1.7,0.4,2.7,0.3
		c1.8,0.4,3.7,0.9,5.6,1.1c0,0.8-0.6,1.4-0.9,2.2c-0.5,1.2-0.9,2.4-1.2,3.8c0.5-0.4,0.8-0.6,1.1-0.9
		C351.3,694.3,351.4,694.4,351.4,694.4z"/>
	<path class="st6" d="M415.7,709.6c0.3-2.6,0.7-5.2,0.6-7.9c0.8,0.2,0.9,1,1.6,1.3c-0.1-3-1-5.8-2-8.6l0.1-0.1
		c0.3,0.2,0.6,0.5,1,0.8c-0.3-1.8-1-3.4-1.7-4.9c-0.2-0.3-0.5-0.6-0.4-1.1c1.9-0.1,3.7-0.7,5.6-1.1c1.8,0,3.4-0.7,5.5-0.6
		c-3.1,1.8-6.4,2.2-9.7,2.9c2.7,0.5,5.1,0.4,7.6,0.5c-1.6,0.9-3.5,1.1-5.3,1.4c1.5,0.4,3,0.8,4.9,0.9c-1.7,1-3.3,0.5-4.8,1.1
		c1.3,0.6,2.7,0.8,4.3,1.2c-1.2,0.6-2.3,0.7-3.5,0.8c1.1,0.8,2.5,0.8,3.7,1.5c-1.4,0.5-2.7,0.7-4.1,0.4c1.3,1.1,2.8,1.7,4.3,2.3
		c-1.3,0.2-2.7,0-4.3-0.3c1.7,1.2,3.3,2.1,5.1,2.7c-1.7,0.4-3.3,0.2-5-0.1c1,0.8,2.1,1.2,3.3,1.7c-1.7,0.4-3.3-0.3-5-0.4
		c0.5,0.9,1.2,1,1.9,1.3c0.3,0.1,0.8,0.2,0.7,0.6c0,0.4-0.5,0.1-0.7,0.2c-0.6,0.3-1.3,0.2-2,0.2c-0.1-0.1-0.1-0.1-0.2-0.2
		c0,0,0,0.1-0.1,0.1c0.1,0,0.2,0,0.3,0.1c0.1,0.5,0.6,0.6,1,0.8c0.2,0.1,0.4,0.1,0.4,0.3c0,0.3-0.2,0.3-0.4,0.4
		c-0.3,0.2-0.7,0.1-1,0.1c-0.2,0-0.6,0.1-0.5,0.2C417.4,709.7,416.1,709.2,415.7,709.6z"/>
	<path class="st6" d="M421.5,687.2c-0.9,0-1.8,0.1-2.7-0.1c0.2-0.4,0.6-0.4,0.9-0.6c1.5-0.8,3-1.7,4.3-2.8c0.4,0.6,0.9,0.2,1.4,0
		c1-0.4,1.9-0.9,3-1.5c-0.3,0.8-0.9,1.1-1.3,1.4c-1.2,0.9-2.4,1.9-3.9,2.5C422.6,686.4,422,686.8,421.5,687.2z"/>
	<path class="st6" d="M343.6,684.1c1.6,0.9,3,2.2,5,2.8c-1,0.5-2,0.1-2.8,0.4c-0.2-0.6-0.7-0.8-1.2-1c-2.2-0.9-4-2.3-5.9-4
		c0.7,0,1,0.3,1.4,0.4c0.4,0.2,0.8,0.4,1.2,0.6C342,683.8,342.7,684.3,343.6,684.1z"/>
	<path class="st6" d="M406.3,688.4c-0.8,0-1.6-0.2-2.5-0.1c-0.9,0.1-1.2-0.2-1-1.1c0-0.2,0-0.5,0-0.7c0.2-0.1,0.4-0.2,0.3-0.5
		c3,0.3,6,0.4,9,0c1.9-0.2,3.9-0.3,5.8-0.9c1-0.3,2.2-0.3,3.3-0.5c-1.1,0.8-2.3,1.4-3.6,1.9c-1.3,0.4-2.7,0.8-4.1,1.2
		C411.1,688.1,408.7,688.3,406.3,688.4z"/>
	<path class="st6" d="M364.4,686.5c0,0.5,0.1,0.9,0.1,1.4c0,0.1,0,0.1,0,0.2c-1.2,0.3-2.4,0.1-3.5,0.3c-2.5-0.1-5-0.2-7.5-0.7
		c-1.4-0.6-3-0.8-4.4-1.4c-1.1-0.4-2-1-3-1.6c3,0.4,6,1.3,9,1.4c2.7,0.3,5.3,0.4,8,0.1c0.4,0,0.7,0,1,0.2
		C364.2,686.3,364.3,686.4,364.4,686.5z"/>
	<path class="st6" d="M391.2,656.1c-0.2,0.5-0.1,1.1-0.6,1.6c0-0.7,0-1.3,0-1.8C390.8,656,391,656,391.2,656.1z"/>
	<path class="st7" d="M415.7,709.6c-0.1,1.9-0.1,1.9-2,1.9c-20.1,0-40.1,0-60.2,0c-1.9,0-1.9,0-2-1.9c-0.3-2.6-0.7-5.2-0.6-7.9
		c-0.8,0.2-0.9,1.1-1.6,1.3c0.1-0.8,0.2-1.5,0.3-2.2c0.3-2.2,1.1-4.3,1.8-6.4c0.1-0.1,0.2-0.2,0.1-0.3s-0.1,0.1-0.2,0.2
		c-0.3,0.2-0.6,0.5-1.1,0.9c0.4-1.4,0.8-2.6,1.2-3.8c0.3-0.7,0.9-1.3,0.9-2.2c0.7-0.3,0.9-0.9,1.1-1.5c2.5,0.5,5,0.6,7.5,0.7
		c0,0.6,0.4,0.5,0.8,0.5c0.7,0,1.5,0,2.2,0c0,0.4-0.2,0.4-0.3,0.6c-0.4,0.4-1,0.9-0.9,1.3c0.2,0.5,0.9,0.1,1.4,0.2
		c0.3,0.1,0.6,0,0.9,0.1s0.8,0.2,0.5,0.7c-0.5,0.8,0,0.7,0.5,0.6c1.2-0.3,2.4,0,3.5,0.4c1.3,0.5,2.4,1.5,3.5,2.3
		c1.6,1.1,3.2,2.4,5.3,2.1c0,0.5,0.1,0.9,0.4,1.3c1.5,2.2,1.2,4.7,1,7.2s0.9,4.2,3.3,4.5s4.6-1.8,4.2-4.3c-0.3-1.8-0.3-3.6,0.1-5.5
		c0.3-1.1,1.2-2,1.2-3.2c0.8,0,1.5,0.1,2.2-0.3c1.5-0.7,2.9-1.7,4.2-2.7c1.8-1.4,3.7-2.4,6.1-1.9c0.2,0,0.7,0.1,0.5-0.3
		c-0.5-1.2,0.4-0.9,1-1.1c0.6-0.2,1.5,0.3,1.7-0.2c0.1-0.4-0.6-1.1-1.1-1.5c0,0,0-0.1-0.1-0.4c0.8,0,1.5,0,2.3,0
		c0.4,0,0.8,0.1,0.8-0.5c2.4-0.1,4.9-0.2,7.3-0.7c0.5,0.4,0.5,1.3,1.3,1.5c-0.1,0.4,0.2,0.7,0.4,1.1c0.8,1.5,1.4,3.1,1.7,4.9
		c-0.4-0.4-0.7-0.6-1-0.8c-0.1-0.1-0.1-0.3-0.2-0.2s0,0.2,0.1,0.3c1,2.8,2,5.6,2,8.6c-0.7-0.2-0.8-1.1-1.6-1.3
		C416.4,704.4,416,707,415.7,709.6z"/>
	<path class="st7" d="M365.1,680.8c-0.1,0.4-0.2,0.7-0.2,1.1c-1.2-0.1-2.4-0.2-3.6-0.2c-0.3,0-0.6,0.1-0.8-0.3
		c0.5-0.7,1.3-1,1.9-1.4C363.4,680,364.2,680.7,365.1,680.8z"/>
	<path class="st7" d="M402.3,681.9c-0.1-0.4-0.2-0.7-0.2-1.1c1-0.1,1.7-0.8,2.7-0.8c0.7,0.4,1.5,0.7,1.9,1.4
		c-0.8,0.5-1.8,0.3-2.7,0.5C403.4,681.9,402.9,681.8,402.3,681.9z"/>
	<path class="st7" d="M412.1,686c-3,0.4-6,0.3-9,0c-0.1,0-0.3,0-0.4,0c0-0.6,0-1.3,0-1.9c2.2,0,4.4-0.6,6.6-0.9
		C410.3,684.1,411.3,684.9,412.1,686z"/>
	<path class="st7" d="M364.1,686.2c-0.3-0.2-0.6-0.2-1-0.2c-2.7,0.3-5.3,0.3-8-0.1c0.8-0.9,1.5-2,2.6-2.7c1.6,0,3.2,0.6,4.8,0.7
		c0.7,0.1,1.4,0.2,2.1,0.1c0,0.6,0,1.1,0,1.7C364.2,685.8,364.1,685.9,364.1,686.2z"/>
	<path class="st7" d="M387.3,695.6c-0.2,0.2-0.4,0.2-0.6,0.1c-2-1.1-4-1.1-6.1,0c-0.2,0.1-0.5,0.1-0.6-0.1l0,0
		c0.1-0.1,0.1-0.1,0.2-0.2l0,0c0.6-0.3,1.2-0.6,1.9-0.8c1.6-0.5,3.2-0.2,4.6,0.7c0.1,0.1,0.3,0.1,0.4,0.1l0,0
		C387.1,695.5,387.2,695.5,387.3,695.6L387.3,695.6z"/>
	<path class="st8" d="M381.5,664.5c1-0.2,1.5-0.9,1.9-1.7c0.2,0,0.4,0,0.6,0c0.4,0.8,0.9,1.5,1.9,1.7c0,0.3,0.2,0.5,0.5,0.6
		c0.6,0.5,1.1,1.1,1.9,1c0.2,0.5,0.6,0.9,1.2,0.8c0.6,0.6,1.2,1,2.1,1.1c0.7,0.4,1.3,0.9,2.1,1c0.1,0.6,0.9,0.5,1.1,1
		c0.1,0.2,0.2,0.3,0.4,0.3l0,0c0,0.3,0,0.6,0.5,0.6l0,0c-0.1,0.3,0.1,0.6,0.3,0.9c1.4,1.7,2.1,3.7,2.5,5.9c0.2,1.2,0.2,2.3-1.2,3
		c-0.5,0.2-0.9,0.7-1.2,1.2c-0.2,0.4-0.8,0.9-0.6,1.2c0.6,0.9-0.2,1.2-0.6,1.7c-1.1,1.2-2.6,0.9-3.9,1.1c-2.4,0.4-4.6,2.3-5,4.4
		c0,0.3,0.1,0.6-0.2,0.8c-0.4,0.2-0.3-0.5-0.7-0.4c-0.2,0.3-0.1,0.6-0.1,0.9c0.3,1.6,1.2,2.8,2.2,4c-0.1,0-0.3,0-0.4-0.1
		c-1.4-0.9-3-1.2-4.6-0.7c-0.6,0.2-1.3,0.5-1.9,0.8c0-0.3,0.3-0.4,0.5-0.6c1.1-1.2,1.7-2.6,1.8-4.3c-0.5,0-0.4,0.7-0.8,0.5
		c-0.3-0.2-0.2-0.5-0.2-0.8c-0.2-0.9-0.5-1.6-1.1-2.3c-1.4-1.6-3.3-2.2-5.4-2.3c-1.3,0-2.3-0.7-3-1.7c-0.1-0.2-0.3-0.4-0.2-0.5
		c0.5-0.5,0.1-0.8-0.1-1.2c-0.4-0.9-1.2-1.5-2-2c-0.4-0.3-0.7-0.5-0.7-1.1c0-1.8,0.5-3.5,1.2-5.1c0.5-1.1,1.4-1.9,1.7-3.1l0,0
		c0.5,0,0.5-0.3,0.5-0.6l0,0c0.2,0,0.4-0.1,0.4-0.3c0.2-0.5,1-0.4,1.1-1c0.8-0.1,1.4-0.6,2.1-1c0.8-0.2,1.5-0.5,2.1-1.1
		c0.6,0,0.9-0.3,1.2-0.8c0.9,0,1.4-0.5,1.9-1C381.3,665,381.4,664.8,381.5,664.5z"/>
	<path class="st8" d="M378.5,697.3c0.4-0.6,0.7-1.3,1.4-1.7c0.2,0.2,0.4,0.2,0.6,0.1c2-1.1,4-1.1,6.1,0c0.2,0.1,0.5,0.1,0.6-0.1
		c0.7,0.4,1,1.1,1.4,1.7c0,1.2-0.9,2-1.2,3.2c-0.4,1.8-0.4,3.7-0.1,5.5c0.4,2.5-1.8,4.6-4.2,4.3c-2.4-0.3-3.5-2-3.3-4.5
		c0.2-2.4,0.5-4.9-1-7.2C378.6,698.2,378.5,697.7,378.5,697.3z M383.6,704.6c-1.8,0-3.1,1.1-3,2.6c0,1.4,1.5,2.7,3.1,2.6
		c1.6,0,3-1.3,3-2.7C386.7,705.6,385.4,704.6,383.6,704.6z"/>
	<path class="st7" d="M390.1,692.1c-1.2,0-2-0.6-1.9-1.7c0-0.9,1-1.7,2.1-1.6c1,0,1.7,0.6,1.7,1.7
		C391.9,691.5,391.2,692.1,390.1,692.1z M389.6,689.2c0,0.4,0.7,0.6,0.4,1.1c-0.3,0.5-0.8,0.3-1.3,0.2c0.3,1,0.9,1.4,1.8,1.1
		c0.8-0.2,1.1-0.8,0.9-1.5C391.2,689.2,390.5,689,389.6,689.2z"/>
	<path class="st7" d="M377.1,692.1c-1.1,0-1.8-0.6-1.8-1.7c0-1,0.6-1.6,1.7-1.6s2,0.8,2,1.7C379.1,691.5,378.4,692.1,377.1,692.1z
		 M377.6,689.3c-1-0.2-1.7,0.1-1.8,0.8c-0.1,0.7,0.1,1.3,0.9,1.5c0.8,0.3,1.4-0.1,1.8-1.1c-0.5,0-1,0.3-1.3-0.2
		S377.5,689.6,377.6,689.3z"/>
	<path class="st9" d="M387.1,695.4c-1.1-1.2-2-2.4-2.2-4c0-0.3-0.2-0.6,0.1-0.9c0.4-0.1,0.3,0.7,0.7,0.4c0.3-0.2,0.2-0.5,0.2-0.8
		c0.4-2.1,2.6-4.1,5-4.4c1.3-0.2,2.8,0.1,3.9-1.1c0.4-0.4,1.2-0.7,0.6-1.7c-0.2-0.4,0.4-0.8,0.6-1.2c0.3-0.5,0.7-0.9,1.2-1.2
		c1.4-0.6,1.4-1.7,1.2-3c-0.4-2.1-1.1-4.1-2.5-5.9c-0.2-0.2-0.4-0.5-0.3-0.9c0.7,0.2,1,0.8,1.6,1.1c0.5,0.6,1,1.1,1.5,1.7
		c0.2,0.5,0.4,0.9,1,1c0,0.9,0.6,1.4,1,2.1c0,0.6,0.5,0.9,0.8,1.3c-0.1,1,0.4,1.8,0.6,2.6c0.1,0.4,0.2,0.7,0.2,1.1
		c0.1,0.8,0.3,1.5,0.4,2.3c0,0.6,0,1.3,0,1.9c0,0.2,0,0.3,0.1,0.5c0,0.2,0,0.5,0,0.7c-0.2,0.8,0.2,1.1,1,1.1
		c0.8-0.1,1.6,0.1,2.5,0.1c0,0.6-0.4,0.5-0.8,0.5c-0.7,0-1.5,0-2.3,0c0.1,0.2,0.1,0.3,0.1,0.4c0.5,0.4,1.2,1.1,1.1,1.5
		c-0.2,0.6-1.1,0.1-1.7,0.2c-0.5,0.1-1.5-0.1-1,1.1c0.2,0.4-0.3,0.4-0.5,0.3c-2.4-0.5-4.3,0.5-6.1,1.9c-1.3,1-2.6,2-4.2,2.7
		c-0.7,0.3-1.5,0.2-2.2,0.3c-0.4-0.6-0.7-1.3-1.4-1.7l0,0C387.2,695.5,387.1,695.5,387.1,695.4L387.1,695.4z M390.1,692.1
		c1.2,0,1.8-0.6,1.8-1.7c0-1-0.6-1.7-1.7-1.7s-2,0.8-2.1,1.6C388.1,691.4,388.8,692.1,390.1,692.1z"/>
	<path class="st9" d="M371.8,670.9c-0.3,1.2-1.2,2-1.7,3.1c-0.7,1.6-1.2,3.3-1.2,5.1c0,0.5,0.3,0.8,0.7,1.1c0.8,0.5,1.6,1.1,2,2
		c0.2,0.4,0.7,0.7,0.1,1.2c-0.2,0.2,0,0.4,0.2,0.5c0.7,1.1,1.7,1.7,3,1.7c2.1,0.1,3.9,0.6,5.4,2.3c0.6,0.7,0.9,1.4,1.1,2.3
		c0.1,0.3-0.1,0.6,0.2,0.8c0.4,0.2,0.3-0.5,0.8-0.5c-0.1,1.7-0.6,3.1-1.8,4.3c-0.2,0.2-0.5,0.3-0.5,0.6l0,0
		c-0.1,0.1-0.1,0.1-0.2,0.2l0,0c-0.7,0.4-1,1.1-1.4,1.7c-2.2,0.3-3.7-1-5.3-2.1c-1.1-0.8-2.2-1.8-3.5-2.3c-1.1-0.4-2.3-0.7-3.5-0.4
		c-0.4,0.1-0.9,0.2-0.5-0.6c0.3-0.5-0.2-0.6-0.5-0.7c-0.3-0.1-0.6-0.1-0.9-0.1c-0.5-0.1-1.3,0.3-1.4-0.2c-0.1-0.4,0.5-0.9,0.9-1.3
		c0.1-0.1,0.3-0.2,0.3-0.6c-0.7,0-1.5,0-2.2,0c-0.4,0-0.8,0.1-0.8-0.5c1.2-0.2,2.4,0,3.5-0.3c0.2-0.1,0.2-0.1,0-0.2
		c0-0.5-0.1-0.9-0.1-1.4c0-0.2,0-0.4,0-0.7c0-0.6,0-1.1,0-1.7c0.1-0.8,0.3-1.5,0.4-2.3c0.1-0.4,0.2-0.7,0.2-1.1
		c0.2-0.9,0.8-1.7,0.6-2.6c0.3-0.4,0.9-0.7,0.8-1.3c0.5-0.6,1.1-1.2,1-2.1c0.6-0.1,0.9-0.5,1-1c0.6-0.5,1.1-1.1,1.5-1.7
		C370.7,671.7,371.1,671.1,371.8,670.9z M377.1,692.1c1.2,0,2-0.6,2-1.7c0-0.9-1-1.7-2-1.7c-1.1,0-1.7,0.6-1.7,1.6
		C375.4,691.4,376,692,377.1,692.1z"/>
	<path class="st9" d="M383.6,704.6c1.8,0,3.1,1.1,3.1,2.5s-1.4,2.7-3,2.7s-3-1.2-3.1-2.6C380.5,705.6,381.8,704.6,383.6,704.6z
		 M385.4,708.2c-0.2-0.3-0.3-0.7-0.8-0.6c-0.4,0-0.6,0.3-0.6,0.7s0.3,0.7,0.6,0.7C385,708.9,385.3,708.7,385.4,708.2z M383.3,708.2
		c-0.1-0.4-0.3-0.7-0.8-0.7c-0.4,0-0.6,0.3-0.7,0.7c0,0.5,0.4,0.6,0.8,0.7C383,708.9,383.2,708.6,383.3,708.2z"/>
	<path class="st6" d="M426.5,664.5c0-0.1,0-0.2,0.1-0.3c0,0,0.1,0,0.1,0.1C426.6,664.4,426.6,664.4,426.5,664.5L426.5,664.5z"/>
	<path class="st6" d="M340.7,664.5c-0.1-0.1-0.1-0.1-0.2-0.2c0,0,0.1,0,0.1-0.1C340.7,664.3,340.7,664.4,340.7,664.5L340.7,664.5z"
		/>
	<path class="st6" d="M403.1,641.5c0-0.1,0-0.2,0.1-0.3C403.4,641.4,403.2,641.4,403.1,641.5L403.1,641.5z"/>
	<path class="st6" d="M364.1,641.5c-0.1-0.1-0.1-0.2-0.2-0.2C364.2,641.2,364,641.4,364.1,641.5L364.1,641.5z"/>
	<polygon class="st6" points="426.4,672.9 426.4,672.9 426.4,673 	"/>
	<polygon class="st6" points="340.8,673 340.8,672.9 340.8,672.9 	"/>
	<path class="st9" d="M371.8,670.9c0-0.2,0-0.4,0.1-0.6c0.1,0,0.3,0,0.4,0C372.2,670.6,372.3,671,371.8,670.9z"/>
	<path class="st9" d="M395.4,670.3c0,0.2,0,0.4,0.1,0.6c-0.5,0-0.5-0.3-0.5-0.6C395.1,670.3,395.3,670.3,395.4,670.3z"/>
	<path class="st6" d="M376.5,656.9c0,0.2,0,0.4,0.1,0.8c-0.3-0.2-0.4-0.4-0.4-0.7C376.3,657,376.4,656.9,376.5,656.9z"/>
	<path class="st10" d="M366.2,650.1c0.2,0.1,0.2,0.2,0.2,0.4c0,0,0,0-0.1,0.1C366.2,650.4,366.2,650.3,366.2,650.1
		C366.1,650.1,366.2,650.1,366.2,650.1z"/>
	<path class="st10" d="M401.1,650.1c0,0.2-0.1,0.3-0.1,0.5c0,0-0.1,0-0.1-0.1C400.8,650.3,400.9,650.2,401.1,650.1
		C401,650.1,401.1,650.1,401.1,650.1z"/>
	<path class="st10" d="M420.1,668.9c-0.1,0.1-0.1,0.1-0.2,0.2c0,0,0-0.1-0.1-0.1C419.9,668.9,420,668.9,420.1,668.9L420.1,668.9z"/>
	<path class="st10" d="M347.2,668.9c0.1,0,0.2,0,0.3,0.1c0,0,0,0.1-0.1,0.1C347.3,669,347.2,668.9,347.2,668.9L347.2,668.9z"/>
	<path class="st10" d="M417.7,667.3C417.7,667.3,417.8,667.2,417.7,667.3c0.2,0,0.2,0,0.1,0.1C417.8,667.4,417.7,667.4,417.7,667.3
		L417.7,667.3z"/>
	<path class="st10" d="M349.5,667.4C349.5,667.4,349.4,667.3,349.5,667.4C349.4,667.3,349.5,667.3,349.5,667.4
		C349.5,667.2,349.5,667.3,349.5,667.4C349.5,667.3,349.5,667.3,349.5,667.4z"/>
	<path class="st9" d="M395,670.3c-0.2,0-0.4-0.1-0.4-0.3C394.7,670.1,394.9,670.2,395,670.3z"/>
	<path class="st10" d="M409.4,658c0,0.1,0,0.2,0,0.3c0,0-0.1,0-0.1-0.1S409.4,658.1,409.4,658L409.4,658z"/>
	<path class="st10" d="M357.8,658c0.1,0.1,0.1,0.1,0.2,0.2c0,0-0.1,0-0.1,0.1C357.9,658.2,357.8,658.1,357.8,658L357.8,658z"/>
	<path class="st10" d="M362.6,652.4c0.1,0.1,0.1,0.1,0.2,0.2l-0.1,0.1C362.7,652.6,362.6,652.5,362.6,652.4L362.6,652.4z"/>
	<path class="st9" d="M372.7,670c-0.1,0.2-0.2,0.3-0.4,0.3C372.4,670.2,372.5,670.1,372.7,670z"/>
	<path class="st11" d="M398.3,662.4c0.1,0,0.1-0.1,0.2-0.1c0,0.1,0,0.2,0,0.2C398.4,662.5,398.4,662.4,398.3,662.4z"/>
	<path class="st11" d="M368.7,662.5c0-0.1,0-0.2,0-0.2c0.1,0,0.1,0.1,0.2,0.1C368.9,662.4,368.8,662.5,368.7,662.5z"/>
	<path class="st6" d="M351.3,694.3c0.1-0.1,0.1-0.3,0.2-0.2s0,0.2-0.1,0.3L351.3,694.3z"/>
	<path class="st6" d="M415.8,694.4c-0.1-0.1-0.2-0.2-0.1-0.3c0.2-0.1,0.1,0.1,0.2,0.2C415.9,694.3,415.9,694.4,415.8,694.4z"/>
	<path class="st10" d="M349.9,706.5c0.1-0.1,0.1-0.1,0.2-0.2c0,0,0,0.1,0.1,0.1C350.1,706.4,350,706.5,349.9,706.5L349.9,706.5z"/>
	<path class="st10" d="M417.3,706.5c-0.1,0-0.2,0-0.3-0.1c0,0,0-0.1,0.1-0.1C417.2,706.3,417.3,706.4,417.3,706.5L417.3,706.5z"/>
	<path class="st8" d="M402.7,686c0.1,0,0.3,0,0.4,0c0,0.2-0.1,0.4-0.3,0.5C402.8,686.3,402.8,686.2,402.7,686z"/>
	<path class="st8" d="M387.3,695.6c-0.1-0.1-0.1-0.1-0.2-0.2C387.1,695.5,387.2,695.5,387.3,695.6z"/>
	<path class="st8" d="M364.1,686.2c0-0.3,0.1-0.4,0.4-0.4c0,0.2,0,0.4,0,0.7C364.3,686.4,364.2,686.3,364.1,686.2z"/>
	<path class="st8" d="M380.2,695.4c-0.1,0.1-0.1,0.1-0.2,0.2C380,695.5,380.1,695.5,380.2,695.4z"/>
	<path class="st8" d="M364.5,688.1c0-0.1,0-0.1,0-0.2C364.7,688,364.7,688,364.5,688.1z"/>
	<path class="st6" d="M371.7,661.7c0.2,0.2,0.3,0.4,0.1,0.6c-0.1-0.1-0.2-0.3-0.3-0.4C371.5,661.9,371.6,661.8,371.7,661.7z"/>
	<path class="st6" d="M395.8,661.9c-0.1,0.1-0.2,0.1-0.3,0.2c-0.1-0.2,0-0.3,0.1-0.4C395.6,661.8,395.7,661.9,395.8,661.9z"/>
	<path class="st6" d="M366.6,663.6c0.1,0.1,0.2,0.2,0.1,0.3s-0.2-0.1-0.3-0.2C366.5,663.7,366.6,663.7,366.6,663.6z"/>
	<path class="st6" d="M400.8,663.8c-0.1,0.1-0.2,0.3-0.4,0.2c-0.2-0.2,0.1-0.3,0.2-0.4C400.6,663.7,400.7,663.7,400.8,663.8z"/>
	<path class="st6" d="M405.3,669.4c-0.1,0-0.2,0.1-0.2,0.1c-0.2-0.1,0-0.2,0-0.3C405.2,669.2,405.2,669.3,405.3,669.4z"/>
	<path class="st6" d="M362.1,669.2c0.1,0.1,0.2,0.2,0,0.3c0,0-0.1-0.1-0.2-0.1C362,669.3,362.1,669.2,362.1,669.2z"/>
	<path class="st11" d="M419.6,675.6c-0.6,0.2-1,0.7-1.5,1.3c-1.2,1.4-2.5,2.7-4.5,3.2c-1.9,0.5-3.8,0.9-5.8,1.3
		c-0.4,0.1-0.8,0.1-1.2,0c-0.5-0.7-1.3-1-1.9-1.4c2.3-1.3,4.7-2.3,6.8-3.8c1.3-0.9,2.6-1.8,3.6-3c0.9-1,1.9-1.8,3.2-2.3
		c-1.6,2.2-3.3,4.3-5.8,5.7c0.9,0.2,1.6-0.2,2.4-0.4c1.5-0.4,3-1,4.4-1.5c0.2-0.1,0.5-0.4,0.7,0.1
		C419.8,674.9,419.6,675.2,419.6,675.6z"/>
	<path class="st11" d="M360.5,681.3c-0.4,0.1-0.7,0.1-1.1,0c-2-0.4-3.9-0.8-5.9-1.3c-2-0.6-3.3-2-4.6-3.4c-0.4-0.5-0.8-0.8-1.3-1.1
		c0.1-0.4-0.2-0.6-0.5-0.9c0.3-0.5,0.6-0.1,0.9,0c1.9,0.7,3.8,1.2,5.7,1.8c0.2,0.1,0.5,0.1,0.8,0c-2.4-1.5-4.2-3.5-5.7-5.8
		c0.8,0.5,1.6,0.8,2.2,1.5c3,3.3,6.8,5.5,10.8,7.4c0.2,0.1,0.4,0.2,0.6,0.4C361.8,680.4,361,680.6,360.5,681.3z"/>
	<path class="st11" d="M420.5,688.1c-1.9,0.4-3.7,1-5.6,1.1c-0.8-0.2-0.8-1.1-1.3-1.5c1.4-0.4,2.7-0.8,4.1-1.2
		c1.3-0.4,2.5-1,3.6-1.9c-1.1,0.2-2.3,0.2-3.3,0.5c-1.9,0.6-3.8,0.7-5.8,0.9c-0.8-1-1.8-1.9-2.8-2.7c3.1-0.8,5.9-2.2,9-3.1
		c-0.8,1-2,1.5-3.1,2.1s-2.3,0.8-3.5,1.3c1.6,0,3.2,0.1,4.8,0c2.9-0.1,5.7-0.7,8.4-1.5c-0.1,0.7-0.7,1.1-1.1,1.7
		c-1.3,1.1-2.8,2-4.3,2.8c-0.3,0.2-0.7,0.2-0.9,0.6c0.9,0.3,1.8,0.1,2.7,0.1C421.4,687.8,420.6,687.5,420.5,688.1z"/>
	<path class="st11" d="M352.4,689.2c-1.9-0.1-3.7-0.6-5.6-1.1c-0.1-0.5-0.8-0.3-1-0.7c0.8-0.4,1.8,0.1,2.8-0.4c-2-0.7-3.3-2-5-2.8
		c-0.5-0.7-1.2-1.3-1.7-2.1c1.7,0.2,3.3,0.9,5,1.2c2.8,0.4,5.6,0.6,8.5,0.3c-2.5-0.7-4.7-1.8-6.7-3.4c3.1,0.7,5.9,2.1,8.9,3.1
		c-1,0.7-1.8,1.7-2.6,2.7c-3.1-0.1-6-0.9-9-1.4c1,0.7,2,1.2,3,1.6c1.4,0.6,3,0.9,4.4,1.4C353.2,688.2,353.1,688.9,352.4,689.2z"/>
	<path class="st11" d="M366.6,676.8c0,0.6-0.5,0.9-0.8,1.3c-0.4,0.3-0.8,0.2-1.2,0.1c-1.6-0.6-3.2-1.2-4.7-1.9
		c-3.6-1.5-6-4.2-7.7-7.7c2,1.4,3.9,3.1,6.3,3.9c-0.8-0.9-1.6-1.8-2.3-3C359.9,671.8,362.9,674.8,366.6,676.8z"/>
	<path class="st11" d="M401.5,678.1c-0.3-0.4-0.9-0.7-0.8-1.3c3.6-2,6.6-4.9,10.3-7.1c-0.6,1.3-1.4,2.1-2.3,2.9
		c1.3-0.2,2.3-1,3.3-1.7s2-1.5,3-2.2c0,0.1,0.1,0.2,0.1,0.3c-1.3,2.5-2.9,4.7-5.3,6.1c-2.2,1.3-4.5,2.4-6.9,3.1
		C402.4,678.3,401.9,678.4,401.5,678.1z"/>
	<path class="st11" d="M375.8,668c-0.7,0.4-1.3,0.9-2.1,1c-1.9-2-3.5-4.2-5-6.5c0.1,0,0.1-0.1,0.2-0.1c0.6,0.4,0.8,0.1,0.6-0.4
		c-0.6-1.2-0.3-2.5-0.7-3.7c1,1.2,1.7,2.5,2.7,3.7c0.1,0.1,0.2,0.3,0.3,0.4c0.2-0.2,0.1-0.4-0.1-0.6c-0.9-3.2-1.7-6.5-1.5-10.1
		c0.6,0.9,0.6,1.9,1,2.7c0.9,1.5,1,3.2,1.3,4.8c0.3,1.8,0.9,3.5,1.6,5.2C374.7,665.5,375.2,666.8,375.8,668z"/>
	<path class="st11" d="M379.1,666.2c-0.2,0.5-0.6,0.9-1.2,0.8c-2-2.9-3.1-6.2-4.1-9.4c-0.6-1.9-0.2-3.8,0-5.7
		c0.2-1.3,0.3-2.7,0.9-4.1c0.4,3.2,0.7,6.2,1.5,9.2c0,0.3,0.1,0.5,0.4,0.7c0-0.3-0.1-0.5-0.1-0.8c0.1-2,0-3.9,0.6-5.8
		c0.3,0.5,0.4,1.2,0.3,1.8c-0.6,3.3-0.3,6.5,0.4,9.8C378.2,663.9,378.5,665,379.1,666.2z"/>
	<path class="st11" d="M389.3,667c-0.6,0-0.9-0.3-1.2-0.8c1.5-3.5,2-7.2,1.8-11c0-0.8-0.2-1.6-0.3-2.4c-0.1-0.6,0.1-1.1,0.5-1.7
		c0.2,1.6,0.3,3.2,0.5,4.8c0,0.6,0,1.1,0,1.8c0.5-0.5,0.4-1.1,0.6-1.6c0.6-2.7,1.1-5.4,1.4-8.2c0.6,3.4,1.9,6.7,0.6,10.2
		c-0.5,1.4-1,2.9-1.5,4.4C391.3,664.1,390.2,665.5,389.3,667z"/>
	<path class="st11" d="M393.5,669c-0.8-0.1-1.4-0.6-2.1-1c1.6-3.1,2.9-6.3,3.5-9.8c0.1-0.7,0.1-1.6,0.4-2.2c0.6-1.4,1-2.8,1.7-4.2
		c0.1,3.4-0.5,6.7-1.4,9.9c-0.1,0.1-0.2,0.2-0.1,0.4c0.1-0.1,0.2-0.1,0.3-0.2c1-1.2,1.7-2.6,2.7-3.9c-0.2,1.3-0.3,2.5-0.7,3.8
		c-0.1,0.4-0.3,1,0.6,0.5c0.1,0,0.1,0.1,0.2,0.1C397.1,664.9,395.3,667,393.5,669z"/>
	<path class="st11" d="M371.8,670.9c-0.7,0.2-1,0.8-1.6,1.1c-1.5-1.1-2.9-2.3-4.1-3.7c-1.2-1.3-2.5-2.5-3.5-4
		c-0.7-1-0.7-2.2-0.9-3.4c0.8,1.5,2.1,2.4,3,3.8c0.2,0.3,0.4,0.7,0.8,0.4c0.5-0.3-0.1-0.5-0.2-0.7c-0.4-0.9-1.1-1.8-1-3.1
		c0.8,0.9,1.5,1.6,2.2,2.4c0.1,0.1,0.1,0.3,0.3,0.2c0.1-0.1,0-0.2-0.1-0.3c-1-2.1-1.8-4.1-2.3-6.4c0.5,0.4,1,0.9,1.2,1.5
		c1.1,4.4,3.5,8.1,6.3,11.6C371.8,670.5,371.8,670.7,371.8,670.9L371.8,670.9z"/>
	<path class="st11" d="M397.1,672c-0.6-0.3-1-0.9-1.6-1.1l0,0c0-0.2,0-0.4-0.1-0.6c1.6-2,3-4.1,4.3-6.3s1.5-4.9,3.2-6.8
		c-0.4,2.3-1.3,4.3-2.3,6.4c-0.1,0.1-0.4,0.2-0.2,0.4c0.1,0.1,0.3-0.1,0.4-0.2c0.7-0.7,1.4-1.5,2.2-2.3c0.2,1.6-0.8,2.6-1.4,3.7
		c0.4,0.1,0.7,0.1,0.9-0.3c0.9-1.4,2.2-2.5,3.1-3.9c-0.1,1.1-0.1,2.3-0.8,3.3c-0.7,1-1.5,2-2.5,2.8c-0.7,0.6-1.1,1.4-1.8,2
		C399.4,670,398.2,671,397.1,672z"/>
	<path class="st11" d="M399.6,674.7c-0.6-0.1-0.9-0.5-1-1c2.2-1.9,4.3-4,6-6.5c0.5-0.8,1.4-1.1,2.1-1.7c-0.2,1.4-0.9,2.5-1.6,3.6
		c-0.1,0.1-0.2,0.2,0,0.3c0,0,0.1-0.1,0.2-0.1c1.8-1.3,3.2-3,4.7-4.9c-0.4,2.8-1.6,4.8-3.9,6.2c-1.4,0.8-2.6,1.9-4,2.7
		C401.3,673.9,400.5,674.3,399.6,674.7z"/>
	<path class="st11" d="M368.7,673.7c-0.2,0.5-0.4,0.9-1,1c-2.2-1.1-4.4-2.2-6.2-4c-0.1-0.1-0.3-0.1-0.5-0.2
		c-2.1-1.1-3.5-3.3-3.8-5.9c1.5,1.7,2.9,3.5,4.7,4.7c0.1,0,0.2,0.1,0.2,0.1c0.2-0.1,0-0.2,0-0.3c-0.7-1.1-1.3-2.3-1.7-3.8
		c1,0.8,1.9,1.4,2.6,2.3C364.6,669.9,366.5,671.9,368.7,673.7z"/>
	<path class="st11" d="M381.5,664.5c0,0.3-0.2,0.5-0.5,0.6c-1.2-3.1-1.9-6.3-2.4-9.6c0.6,0.1,0.5,0.6,1,1.1c-0.2-2,0.2-3.8,0.4-5.8
		c0.3,0.6,0.4,1,0.5,1.5c1,3-0.1,6.1,0.5,9.2C381.1,662.4,381.4,663.4,381.5,664.5z"/>
	<path class="st11" d="M386.2,665.1c-0.3-0.1-0.4-0.3-0.5-0.6c0.5-2.7,1-5.4,0.6-8c-0.2-1.7,0.4-3.2,0.3-4.8c0-0.3,0.3-0.5,0.6-1
		c0.2,2,0.6,3.8,0.5,5.7c0.2-0.3,0.4-0.6,0.6-0.9C388.2,658.9,387.4,662.1,386.2,665.1z"/>
	<path class="st11" d="M383.9,662.8c-0.2,0-0.4,0-0.6,0c-0.4-2.1-0.7-4.1-0.9-6.2c-0.2-1.6,0.4-2.8,1.2-3.9c1.2,1.4,1.4,3,1.1,4.8
		C384.4,659.2,384.2,661,383.9,662.8z"/>
	<path class="st11" d="M389.6,689.2c0.9-0.2,1.6,0,1.8,0.9c0.2,0.7-0.1,1.3-0.9,1.5c-0.9,0.3-1.5-0.1-1.8-1.1c0.5,0.1,1,0.4,1.3-0.2
		C390.4,689.8,389.7,689.6,389.6,689.2z"/>
	<path class="st11" d="M377.6,689.3c-0.1,0.4-0.7,0.5-0.4,1c0.3,0.5,0.8,0.2,1.3,0.2c-0.4,1-1,1.4-1.8,1.1c-0.7-0.2-1-0.8-0.9-1.5
		S376.6,689,377.6,689.3z"/>
	<path class="st11" d="M385.4,708.2c-0.1,0.5-0.4,0.7-0.8,0.7s-0.6-0.3-0.6-0.7s0.3-0.6,0.6-0.7
		C385.1,707.5,385.2,707.9,385.4,708.2z"/>
	<path class="st11" d="M383.3,708.2c-0.1,0.4-0.3,0.7-0.7,0.7c-0.4,0-0.8-0.2-0.8-0.7c0-0.4,0.3-0.7,0.7-0.7
		C383,707.5,383.2,707.8,383.3,708.2z"/>
	<path class="st0" d="M411.2,697.6c0,20.4-12.2,27.7-27.1,27.7c-0.3,0-0.7,0-1,0c-0.7,0-1.4,0-2.1-0.1c-13.5-1-24-8.5-24-27.6
		c0-19.7,25.1-44.6,27-46.4l0,0c0.1-0.1,0.1-0.1,0.1-0.1S411.2,677.2,411.2,697.6z"/>
	<path class="st2" d="M383.2,725.2h-0.1v-1.6l10-15.4l-9.9,13.9l0.3-17.1l11.6-21.2l-11.5,18.5l0.1-7.7l8-15.3l-7.9,13.3l0.2-13.8
		l8.5-12.2l-8.5,10l0.1-25.3l-0.8,32l-8.6-13.2l8.5,16l-0.8,15.5v-0.4l-10-14l10,15.4l-0.1,1.9v0.2l-1.1,20.5l1.9,0.1
		C383.2,725.3,383.2,725.2,383.2,725.2z"/>
</g>
</svg>
