<?xml version="1.0" encoding="utf-8"?>
<!-- Generator: Adobe Illustrator 24.2.1, SVG Export Plug-In . SVG Version: 6.00 Build 0)  -->
<svg version="1.1" id="a706cf1c-1654-439b-8fcf-310eb7aa0e00"
	 xmlns="http://www.w3.org/2000/svg" xmlns:xlink="http://www.w3.org/1999/xlink" x="0px" y="0px" viewBox="0 0 1120.6 777.9"
	 style="enable-background:new 0 0 1120.6 777.9;" xml:space="preserve">
<style type="text/css">
	.st0{fill:#3F3D56;}
	.st1{fill:#F2F2F2;}
	.st2{fill:#F95858;}
	.st3{fill:#F9A826;}
	.st4{fill:#E29627;}
	.st5{fill:#F4B056;}
	.st6{fill:#DECBAF;}
	.st7{fill:#9D816B;}
	.st8{fill:#B19482;}
	.st9{fill:#85664F;}
	.st10{fill:#FEFEFE;}
	.st11{fill:#433020;}
</style>
<path class="st0" d="M1064.6,777.9H56c-30.8,0-56-25.2-56-56V56C0,25.2,25.2,0,56,0h1008.6c30.8,0,56,25.2,56,56v665.9
	C1120.6,752.7,1095.4,777.9,1064.6,777.9z"/>
<circle class="st1" cx="212.6" cy="103" r="64"/>
<path class="st2" d="M524,343.1c0,151-89.8,203.7-200.5,203.7S123,494.1,123,343.1S323.5,0,323.5,0S524,192.1,524,343.1z"/>
<path class="st2" d="M1120.6,405c0,123.6-73.5,166.8-164.1,166.8S792.3,528.6,792.3,405s164.1-280.9,164.1-280.9
	S1120.6,281.4,1120.6,405z"/>
<ellipse class="st1" cx="892.4" cy="726.8" rx="95" ry="4.8"/>
<ellipse class="st1" cx="592.5" cy="756.8" rx="95" ry="4.8"/>
<ellipse class="st1" cx="287.9" cy="734.3" rx="217" ry="11"/>
<path class="st3" d="M217.6,610.3c0,55.1-32.7,74.3-73.1,74.3c-0.9,0-1.9,0-2.8,0c-1.9,0-3.7-0.1-5.6-0.3
	c-36.5-2.6-64.8-22.8-64.8-74c0-53,67.7-119.9,72.8-124.8l0,0c0.2-0.2,0.3-0.3,0.3-0.3S217.6,555.3,217.6,610.3z"/>
<path class="st4" d="M571.6,600.3c0,50.6-30.1,68.2-67.1,68.2c-0.9,0-1.7,0-2.6,0c-1.7,0-3.4-0.1-5.1-0.2
	c-33.5-2.4-59.5-20.9-59.5-67.9c0-48.7,62.2-110.1,66.9-114.6l0,0c0.2-0.2,0.3-0.3,0.3-0.3S571.6,549.7,571.6,600.3z"/>
<path class="st3" d="M835.6,621.3c0,55.1-32.7,74.3-73.1,74.3c-0.9,0-1.9,0-2.8,0c-1.9,0-3.7-0.1-5.6-0.3
	c-36.5-2.6-64.8-22.8-64.8-74c0-53,67.7-119.9,72.8-124.8l0,0c0.2-0.2,0.3-0.3,0.3-0.3S835.6,566.3,835.6,621.3z"/>
<path class="st5" d="M616.5,641c0,25.5-15.2,34.4-33.9,34.4c-0.4,0-0.9,0-1.3,0c-0.9,0-1.7-0.1-2.6-0.1c-16.9-1.2-30-10.6-30-34.3
	c0-24.6,31.4-55.5,33.7-57.8l0,0c0.1-0.1,0.1-0.1,0.1-0.1S616.5,615.5,616.5,641z"/>
<path class="st4" d="M92.6,658.2c0,25.5-15.2,34.4-33.9,34.4c-0.4,0-0.9,0-1.3,0c-0.9,0-1.7-0.1-2.6-0.1c-16.9-1.2-30-10.6-30-34.3
	c0-24.6,31.4-55.5,33.7-57.8l0,0c0.1-0.1,0.1-0.1,0.1-0.1S92.6,632.6,92.6,658.2z"/>
<path class="st6" d="M415.6,615.1c0-0.1,0-0.2,0.1-0.3l0.1,0.1C415.7,615,415.7,615,415.6,615.1L415.6,615.1z"/>
<path class="st6" d="M320.7,615.1c-0.1-0.1-0.1-0.1-0.2-0.2l0.1-0.1C320.6,614.9,320.6,615,320.7,615.1L320.7,615.1z"/>
<polygon class="st6" points="415.4,624.4 415.5,624.4 415.5,624.5 "/>
<polygon class="st6" points="320.8,624.5 320.8,624.4 320.8,624.4 "/>
<path class="st3" d="M396.5,659.2c0,20.4-12.2,27.7-27.1,27.7c-0.3,0-0.7,0-1,0c-0.7,0-1.4,0-2.1-0.1c-13.5-1-24-8.5-24-27.6
	c0-19.7,25.1-44.6,27-46.4l0,0c0.1-0.1,0.1-0.1,0.1-0.1S396.5,638.8,396.5,659.2z"/>
<path class="st0" d="M144.2,485.5v-0.3V485.5z"/>
<path class="st1" d="M199.1,665.3c-5,5.1-10.9,9.1-17.4,12.1c-0.1,0.1-0.2,0.1-0.4,0.2c-0.9,0.4-1.9,0.8-2.9,1.2
	c-0.2,0.1-0.4,0.2-0.6,0.2c-0.9,0.3-1.8,0.7-2.7,1c-0.3,0.1-0.6,0.2-0.8,0.3c-0.8,0.3-1.7,0.5-2.5,0.8c-0.3,0.1-0.7,0.2-1,0.3
	c-0.8,0.2-1.6,0.4-2.5,0.6c-0.4,0.1-0.8,0.2-1.1,0.3c-0.8,0.2-1.6,0.3-2.4,0.5c-0.4,0.1-0.8,0.2-1.2,0.2c-0.8,0.1-1.6,0.3-2.4,0.4
	c-0.4,0.1-0.9,0.1-1.3,0.2c-0.8,0.1-1.6,0.2-2.4,0.3c-0.5,0.1-0.9,0.1-1.4,0.2c-0.8,0.1-1.6,0.1-2.5,0.2c-0.5,0-0.9,0.1-1.4,0.1
	c-0.9,0.1-1.8,0.1-2.7,0.1c-0.4,0-0.8,0-1.2,0.1c-1.3,0-2.6,0.1-3.9,0.1c-0.9,0-1.9,0-2.8,0l0.1-4.3l26.8-41.5l-26.7,37.4l0.7-46.1
	l31.2-57L142.6,623l0.3-20.7l21.5-41.3L143,596.8l0.6-37.3l23-32.8l-22.9,27l0.4-67.9c0-0.1,0-0.2,0-0.2l0,0l-2.3,86.3l-23.3-35.7
	l23,43l-2.2,41.6l-0.1-1.1l-27-37.7l26.9,41.6l-0.3,5.2v0.1v0.4l-2.9,55.1c-17.3-1.2-32.8-6.5-44.3-17.1
	c-3.3,18.6-16.8,25.3-33.1,25.3c-0.4,0-0.9,0-1.3,0v-2l12.4-19.2l-12.4,17.3l0.3-21.4l14.4-26.4L57.8,664l0.2-9.6l9.9-19.1L58,651.8
	l0.3-17.3L69,619.4l-10.6,12.5l0.2-31.5v-0.1v0.1l-1.1,40l-10.8-16.5l10.7,19.9l-1,19.3v-0.5L43.8,645l12.5,19.3l-0.1,2.4l0,0v0.2
	l-1.3,25.5c-13.1-0.9-24-6.8-28.2-20.6C9.3,674.6,0,677.5,0,680.5c0,15.5,248.3,28,554.6,28s554.6-12.6,554.6-28
	c0-7.7-61.3-14.7-160.5-19.7l1.6-98.7l60.2-93.1l-60,83.9l1.7-103.5l70-128l-69.7,111.8l0.8-46.5l48.2-92.6l-48,80.3l1.4-83.7
	l51.6-73.7L955,277.5l0.9-153.4l-5.1,194.4l-52.3-80l51.7,96.4l-4.9,93.4l-0.1-2.5l-60.5-84.6l60.3,93.3l-0.6,11.7l-0.1,0.2v1
	L933,660c-31.2-1.5-65.8-2.8-103.2-3.8c-11.1,28.7-37.1,39.5-67.4,39.5c-0.9,0-1.9,0-2.8,0l0.1-4.3l26.8-41.5l-26.7,37.4l0.7-46.1
	l31.2-57L760.6,634l0.3-20.7l21.5-41.3L761,607.8l0.6-37.3l23-32.8l-22.9,27l0.4-68.1v-0.3v0.3l-2.3,86.3l-23.3-35.7l23,43
	l-2.2,41.6l-0.1-1.1l-27-37.7l26.9,41.6l-0.3,5.2v0.1v0.4l-2.9,55.1l0,0c-27.6-2-50.5-14-60-42c-25.6-0.3-52-0.6-78.9-0.7
	c-4,16.6-17.1,22.8-32.6,22.8c-0.4,0-0.9,0-1.3,0v-2l12.4-19.2l-12.4,17.3l0.3-21.4l14.4-26.4l-14.4,23.1l0.2-9.6l9.9-19.1
	l-9.9,16.6l0.3-17.3l10.7-15.2L582,614.8l0.2-31.5V583v0.1l-1.1,40l-10.8-16.5l10.7,19.9l-1,19.3v-0.5l-12.5-17.5l12.5,19.3
	l-0.1,2.4l0,0v0.2l-1.3,25.5c-13.2-0.9-24.1-6.9-28.2-20.7c-12,9.9-28.2,14-46,14c-0.9,0-1.7,0-2.6,0l0.1-3.9l24.6-38.1L502,660.7
	l0.7-42.3l28.6-52.3l-28.5,45.7l0.3-19l19.7-37.9l-19.6,32.8l0.6-34.2l21.1-30.2l-21,24.8l0.3-62.5v-0.3v0.3l-2.1,79.2l-21.4-32.7
	l21.1,39.4l-2,38.2l-0.1-1L475,574.2l24.7,38.2l-0.2,4.8v0.1v0.4l-2.6,50.6c-15.7-1.1-29.8-5.8-40.3-15.3
	c-20.6,0.2-40.9,0.4-60.7,0.7c0.4,1.9,0.6,3.7,0.6,5.5c0,20.4-12.2,27.6-27.1,27.6c-0.3,0-0.7,0-1,0v-1.6l10-15.4l-9.9,13.9
	l0.3-17.1l11.6-21.2l-11.5,18.5l0.1-7.7l8-15.3l-7.9,13.3l0.2-13.8l8.5-12.2l-8.5,10l0.1-25.3v-0.1v0.1l-0.8,32l-8.6-13.2l8.5,16
	l-0.8,15.5v-0.4l-10-14l10,15.4l-0.1,1.9l0,0v0.2l-1.1,20.5c-13.5-1-24-8.5-24-27.5c0-1.5,0.2-3,0.4-4.6c-9.7,0.2-19.2,0.4-28.6,0.6
	l2-120.2l73.5-113.7l-73.3,102.5l2.1-126.4L403.7,241l-85.1,136.5l0.9-56.8l58.9-113.1l-58.7,98.1l1.7-102.2l63.1-90.1l-62.8,74
	l1-187.4l-6.2,237.5l-63.9-97.8l63.1,117.8l-6,114.1l-0.2-3l-73.9-103.3l73.7,114l-0.7,14.3l-0.1,0.2l0.1,1.2L295,655.7"/>
<path class="st0" d="M226,673.8"/>
<path class="st6" d="M332.4,636.3c-1-1.3-2.3-2.3-3.5-3.2c-0.2-0.2-0.4-0.4-0.6-0.9c2.2,1.1,4.2,2.4,6.5,3c-1.5-1-2.9-2.3-4.2-3.6
	c-1.7-1.7-3.6-3.3-4.7-5.5l0,0c0.9,0.4,1.5,1.2,2.3,1.8c1.3,0.9,2.6,2,4.2,2.6c0.1,0.1,0.1,0.1,0.2,0.2c0,0,0-0.1,0.1-0.1
	c-0.1,0-0.2,0-0.3-0.1c-0.9-1.2-1.8-2.4-2.6-3.6c-0.4-0.6-0.8-1.2-1.1-1.9c1,0.5,1.8,1.2,2.6,1.8c0.9,0.6,1.7,1.5,3.1,1.7
	c-1.9-2.2-3.5-4.3-4.6-6.7c2.1,1.4,3.9,3,6.5,4.1c-0.4-1.2-1.5-1.9-1.4-3.2c1.3,0.1,2.2,1.3,3.6,1.3c0.1-0.1,0.1-0.3,0-0.4
	c-1.7-1.6-2.9-3.6-4.1-5.5c-0.5-0.7-0.7-1.6-1.1-2.4c-0.1-0.2-0.1-0.3,0-0.5c0.2-0.2,0.4,0,0.5,0.2c1.3,1.3,2.7,2.5,4.2,3.7
	c0.7,0.6,1.5,1.2,2.5,1.9c-0.6-1.7-2.1-2.7-2.3-4.4c0.6-0.1,0.8,0.3,1.1,0.5c1.2,0.9,2.2,2,3.8,2.2c0,0.1,0,0.2,0,0.3
	c0,0,0.1,0,0.1-0.1c-0.1-0.1-0.1-0.1-0.2-0.2c-0.9-1.8-1.6-3.7-1.9-5.7c-0.1-0.9-0.3-1.9-0.4-3c1.4,2.3,3,4.3,4.8,6.1
	c-1.1-3.3-1.9-6.7-2.5-10.2c0.6,1,1.2,2.1,1.8,3.1c0.8,1.3,1.7,2.6,2.6,3.9c0.1,0.1,0.2,0.1,0.4,0.1c0,0.1,0.1,0.2,0.1,0.3l0.1-0.1
	c-0.1-0.1-0.1-0.1-0.2-0.2c-0.7-2.3-1.5-4.6-1.8-7c1.4,2.1,2.6,4.3,4.3,6.5c-0.3-1.2-0.5-2.1-0.6-3.2c0.6,0.6,1.1,1,1.6,1.5
	c0,0.2,0.1,0.3,0.1,0.5c0,0,0.1,0,0.1-0.1c0.1-0.2,0-0.3-0.2-0.4c-0.6-2-1.6-3.8-2.6-5.6c-0.1-0.2-0.5-0.3-0.2-0.6
	c0.2-0.2,0.4,0.1,0.6,0.2c1.1,0.8,1.9,1.8,2.9,2.7c-0.6-2-1.8-3.6-2.8-5.3l0,0c1.6,0.4,2.7,1.7,3.7,2.8c0.3,0.3,0.5,0.6,0.9,0.9
	c-0.6-2.9-0.5-5.8,0.3-8.8c0.4,1.5,0.6,2.7,1.2,3.9c0.5,1.2,1,2.4,1.8,3.6c0.4-2.1,0.4-4,0.7-6c0.6,1.7,1.2,3.5,1.9,5.4
	c0.8-1.4,0.9-2.7,0.7-4.3c1.3,0.7,1.5,1.9,1.9,3c0.7-1.4,0.7-2.8,0.2-4.1c-0.1-0.3-0.3-0.5,0-0.7s0.4,0.2,0.5,0.3
	c1,0.9,1.1,2.2,1.5,3.3c0.1,0.5,0.2,0.9,0.3,1.5c0.8-2.5,1.3-5.1,2.4-7.6c0.1,2.2,0.4,4.1,0.8,6c0.1-1.2,0.1-2.5,0.3-3.7
	c0.1-0.5,0.2-1.1,0.2-1.6c0-0.2,0-0.5,0.3-0.5s0.3,0.2,0.3,0.5c0.1,1.2,0.3,2.4,0.4,3.6c0.1,0.6,0,1.2,0.1,1.8
	c0.5-1.9,0.7-3.9,0.8-6c1.1,2.5,1.5,5,2.3,7.5c0.2-1,0.5-1.9,0.7-2.8c0.3-1,0.7-1.9,1.9-2.6c-0.8,1.8-0.9,3.4-0.2,5.2
	c0.5-1.1,0.6-2.4,1.9-3.1c-0.2,1.6-0.1,2.9,0.7,4.3c0.8-1.9,1.4-3.7,2-5.5c0.4,2,0.2,4,0.7,6.1c1.5-2.4,2.4-4.8,3-7.6
	c0.7,3.1,1,5.9,0.3,8.9c1-1.1,1.9-2.3,3.1-3.1c0.5-0.3,0.8-0.8,1.5-0.7l0,0c-1.1,1.7-2.2,3.4-2.8,5.3c1.1-0.7,1.6-1.9,2.7-2.6
	c0.3-0.2,0.5-0.6,0.8-0.3c0.4,0.3-0.1,0.5-0.3,0.7c-1,1.7-2,3.5-2.5,5.4c-0.2,0.1-0.2,0.2-0.2,0.4c0,0,0,0,0.1,0.1
	c0-0.2,0.1-0.3,0.1-0.5c0.5-0.5,1-0.9,1.6-1.5c-0.1,0.9-0.2,1.7-0.3,2.4c1.7-1.6,2.7-3.7,4-5.8c-0.3,2.5-1.1,4.7-1.7,7.1
	c1.9-2.2,3.4-4.6,4.8-7c-0.7,3.4-1.4,6.8-2.6,10.2c1.8-1.8,3.4-3.8,4.7-6.1c-0.2,3.1-1,6-2.3,8.7c-0.1,0.1-0.1,0.1-0.2,0.2
	c0,0,0.1,0,0.1,0.1c0-0.1,0-0.2,0-0.3c1.5-0.2,2.5-1.3,3.7-2.1c0.3-0.2,0.6-0.6,1.1-0.7c-0.2,1.7-1.7,2.7-2.3,4.4
	c2.4-1.7,4.4-3.5,6.3-5.3c0.2-0.2,0.4-0.7,0.8-0.4s-0.1,0.6-0.2,0.9c-0.8,2.2-2.2,4-3.5,5.9c-0.4,0.7-1.2,1-1.7,1.9
	c1-0.1,1.7-0.5,2.4-0.9c0.3-0.2,0.8-0.6,1.1-0.3c0.3,0.3,0.1,0.8-0.2,1.2c-0.4,0.5-0.7,1-0.9,1.6c2.4-0.8,4.2-2.5,6.5-4.1
	c-1.2,2.6-2.8,4.7-4.4,6.8c2.1-0.8,3.6-2.3,5.6-3.7c-0.6,1.4-1.5,2.4-2.2,3.5c-0.5,0.8-1.3,1.2-1.6,2.1c-0.1,0-0.2,0-0.3,0.1
	c0,0,0,0.1,0.1,0.1c0.1-0.1,0.1-0.1,0.2-0.2c1.5-0.6,2.8-1.6,4.2-2.6c0.8-0.6,1.4-1.4,2.3-1.8l0,0c-0.5,1-1.2,1.9-2,2.7
	c-1.4,1.4-2.7,2.8-4.1,4.1c-0.5,0.5-1.1,1-1.7,1.3c-0.2,0.1-0.5,0.3-0.5,0.7c2.1-0.5,3.9-1.8,5.8-2.7c-1.2,1.5-2.9,2.5-4,4
	c-0.2-0.4-0.5-0.1-0.7-0.1c-1.5,0.5-3,1-4.4,1.5c-0.7,0.2-1.5,0.6-2.4,0.4c2.5-1.4,4.2-3.4,5.8-5.7c-1.3,0.5-2.3,1.3-3.2,2.3
	c-1,1.2-2.3,2.1-3.6,3c-2.1,1.5-4.5,2.5-6.8,3.8c-1,0.1-1.7,0.8-2.7,0.8c-0.2-0.9-0.8-1.7-0.6-2.6c0.5,0.3,0.9,0.1,1.4,0
	c2.4-0.7,4.8-1.8,6.9-3.1c2.4-1.4,4-3.7,5.3-6.1c0,0,0-0.1-0.1-0.3c-1,0.8-2,1.5-3,2.2s-2.1,1.4-3.3,1.7c0.9-0.8,1.7-1.7,2.3-2.9
	c-3.8,2.2-6.7,5.2-10.3,7.1c-0.5-0.6-1.1-1.2-1-2.1c0.9-0.5,1.7-0.9,2.6-1.4c1.4-0.8,2.6-1.9,4-2.7c2.3-1.4,3.5-3.3,3.9-6.2
	c-1.5,1.9-3,3.6-4.7,4.9c-0.1-0.1-0.1-0.1-0.2-0.2c0.7-1.1,1.4-2.3,1.6-3.6c-0.7,0.6-1.5,1-2.1,1.7c-1.7,2.4-3.8,4.5-6,6.5
	c-0.5-0.6-1-1.1-1.5-1.7c1.1-1,2.3-2,3.4-3c0.6-0.6,1.1-1.4,1.8-2c1-0.8,1.8-1.8,2.5-2.8c0.7-0.9,0.7-2.1,0.8-3.3
	c-0.8,1.5-2.1,2.6-3.1,3.9c-0.3,0.4-0.6,0.4-0.9,0.3c0.6-1.2,1.6-2.2,1.4-3.7c-0.8,0.9-1.5,1.6-2.2,2.3c-0.1-0.1-0.1-0.1-0.2-0.2
	c1-2.1,1.9-4.1,2.3-6.4c-1.7,2-1.9,4.7-3.2,6.8c-1.3,2.2-2.7,4.3-4.3,6.3c-0.1,0-0.3,0-0.4,0l0,0c-0.1-0.1-0.3-0.2-0.4-0.3
	c-0.2-0.5-1-0.4-1.1-1c1.8-2.1,3.6-4.2,5-6.5c0-0.1,0-0.2,0-0.2c-0.1,0-0.1,0.1-0.2,0.1c-0.8,0.5-0.7-0.1-0.6-0.5
	c0.4-1.2,0.5-2.5,0.7-3.8c-1,1.3-1.7,2.7-2.7,3.9c-0.1-0.1-0.1-0.1-0.2-0.2c0.9-3.2,1.5-6.5,1.4-9.9c-0.7,1.3-1.1,2.8-1.7,4.2
	c-0.3,0.7-0.2,1.5-0.4,2.2c-0.6,3.5-1.9,6.7-3.5,9.8c-0.8-0.1-1.5-0.5-2.1-1.1c0.8-1.5,1.9-2.9,2.4-4.5c0.5-1.5,1-2.9,1.5-4.4
	c1.2-3.6,0-6.8-0.6-10.2c-0.3,2.8-0.8,5.5-1.4,8.2c-0.2-0.1-0.4-0.1-0.6-0.2c-0.2-1.6-0.3-3.2-0.5-4.8c-0.3,0.5-0.5,1-0.5,1.7
	c0.1,0.8,0.2,1.6,0.3,2.4c0.2,3.8-0.4,7.5-1.8,11c-0.9,0-1.4-0.5-1.9-1c1.2-3.1,1.9-6.2,2.1-9.6c-0.2,0.3-0.4,0.6-0.6,0.9
	c0.1-1.9-0.4-3.7-0.5-5.7c-0.2,0.4-0.6,0.7-0.6,1c0.1,1.6-0.6,3.1-0.3,4.8c0.4,2.7-0.1,5.4-0.6,8c-1-0.2-1.5-0.9-1.9-1.7
	c0.3-1.8,0.5-3.6,0.8-5.3c0.3-1.9,0.1-3.4-1.1-4.8c-0.8,1.2-1.4,2.3-1.2,3.9c0.2,2.1,0.5,4.2,0.9,6.2c-0.4,0.8-0.9,1.5-1.9,1.7
	c0-1-0.3-2-0.5-3.1c-0.6-3,0.5-6.2-0.5-9.2c-0.1-0.5-0.2-0.9-0.5-1.5c-0.2,2-0.6,3.8-0.4,5.8c-0.5-0.4-0.4-1-1-1.1
	c0.5,3.3,1.2,6.5,2.4,9.6c-0.6,0.5-1.1,1.1-1.9,1c-0.5-1.1-0.9-2.3-1.2-3.5c-0.7-3.2-1-6.5-0.4-9.8c0.1-0.7,0-1.3-0.3-1.8
	c-0.6,1.9-0.5,3.9-0.6,5.8c-0.1,0-0.2,0-0.3,0c-0.8-3-1.2-6-1.5-9.2c-0.6,1.4-0.7,2.8-0.9,4.1c-0.3,1.9-0.6,3.8,0,5.7
	c1.1,3.3,2.2,6.5,4.1,9.4c-0.6,0.6-1.3,0.9-2.1,1.1c-0.6-1.2-1.1-2.5-1.7-3.8c-0.7-1.7-1.3-3.4-1.6-5.2c-0.3-1.6-0.4-3.3-1.3-4.8
	c-0.5-0.8-0.5-1.7-1-2.7c-0.2,3.6,0.5,6.8,1.5,10.1c-0.1,0.1-0.1,0.1-0.2,0.2c-1-1.2-1.7-2.5-2.7-3.7c0.4,1.2,0.1,2.5,0.7,3.7
	c0.3,0.5,0,0.8-0.6,0.4c-0.1,0-0.1-0.1-0.2-0.1c0,0.1,0,0.2,0,0.2c1.5,2.3,3.1,4.5,5,6.5c-0.1,0.6-0.9,0.5-1.1,1
	c-0.1,0.1-0.3,0.2-0.4,0.3l0,0c-0.1,0-0.3,0-0.4,0c-2.9-3.4-5.2-7.1-6.3-11.6c-0.2-0.6-0.6-1.1-1.2-1.5c0.5,2.2,1.3,4.3,2.3,6.4
	c-0.1,0.1-0.1,0.1-0.2,0.2c-0.7-0.8-1.4-1.5-2.2-2.4c-0.1,1.3,0.6,2.1,1,3.1c0.1,0.2,0.7,0.4,0.2,0.7c-0.4,0.3-0.6-0.1-0.8-0.4
	c-0.9-1.4-2.2-2.3-3-3.8c0.2,1.2,0.2,2.3,0.9,3.4c1,1.5,2.4,2.7,3.5,4c1.2,1.4,2.6,2.6,4.1,3.7c-0.4,0.6-0.9,1.2-1.5,1.7
	c-2.1-1.8-4-3.8-5.7-6c-0.7-0.9-1.5-1.5-2.6-2.3c0.4,1.5,1,2.7,1.7,3.8c-0.1,0.1-0.1,0.1-0.2,0.2c-1.8-1.3-3.1-3.1-4.7-4.7
	c0.2,2.6,1.7,4.8,3.8,5.9c0.1,0.1,0.3,0.1,0.5,0.2c1.8,1.7,4,2.9,6.2,4c0,0.9-0.6,1.4-1,2.1c-3.7-2-6.7-5-10.5-7.2
	c0.7,1.2,1.5,2.1,2.3,3c-2.4-0.8-4.3-2.5-6.3-3.9c1.7,3.4,4.1,6.1,7.7,7.7c1.6,0.7,3.1,1.3,4.7,1.9c0.5,0.2,0.8,0.2,1.2-0.1
	c0.1,1-0.4,1.8-0.6,2.6c-1-0.1-1.7-0.8-2.7-0.8c-0.2-0.1-0.4-0.3-0.6-0.4c-4-1.9-7.8-4.1-10.8-7.4c-0.6-0.6-1.5-1-2.2-1.5
	c1.5,2.3,3.3,4.4,5.7,5.8c-0.4,0.2-0.6,0.1-0.8,0c-1.9-0.5-3.8-1.1-5.7-1.8C333.1,636.2,332.7,635.8,332.4,636.3z M403,628.9
	L403,628.9c0,0.1,0.1,0.1,0.1,0.1C403.2,628.9,403.2,628.9,403,628.9C403.1,628.8,403,628.9,403,628.9z M334.8,629
	C334.8,628.9,334.8,628.9,334.8,629C334.9,628.9,334.8,628.9,334.8,629C334.8,628.9,334.7,628.9,334.8,629
	C334.7,628.9,334.8,629,334.8,629z"/>
<path class="st6" d="M404.9,637.2c2.3-0.4,4.3-1.4,6.4-2.4c-1,2.5-2.8,4.2-5.3,5.9c1.4-0.2,2.6-0.4,4-0.7c-1.7,1.4-3.6,1.9-5.5,2.9
	c1.7,0.2,3.1-0.2,4.4-0.8c1.2-0.6,2.4-1.3,3.6-1.9c0.1-0.1,0.2-0.4,0.4-0.1c0.1,0.1,0.1,0.3,0,0.5c-0.9,1-1.6,2.2-2.6,3.1
	c-2.8,0.8-5.6,1.4-8.4,1.5c-1.6,0.1-3.2,0-4.8,0c1.2-0.5,2.4-0.8,3.5-1.3c1.1-0.6,2.3-1,3.1-2.1c-3.1,0.8-5.9,2.3-9,3.1
	c-2.2,0.3-4.3,0.9-6.6,0.9c-0.1-0.8-0.3-1.5-0.4-2.3c0.5,0,1.1,0,1.6-0.1c0.9-0.2,1.9,0.1,2.7-0.5c0.4,0.1,0.8,0.1,1.2,0
	c1.9-0.4,3.9-0.8,5.8-1.3s3.2-1.9,4.5-3.2C403.9,637.9,404.3,637.4,404.9,637.2z"/>
<path class="st6" d="M327.3,643.6c-0.6-1-1.3-1.8-2-2.6c-0.2-0.2-0.7-0.6-0.3-1c0.2-0.2,0.6,0.2,0.8,0.4c1.8,1.2,3.7,2.2,5.9,2.5
	c0.6,0.1,0.6,0.1,1.5-0.1c-1.7-0.9-3.6-1.4-5.3-2.8c1.4,0.2,2.5,0.4,3.9,0.7c-2.3-1.6-4.2-3.4-5.2-5.8c2.1,0.9,4.1,2,6.4,2.4
	c0.6,0.2,0.9,0.6,1.3,1.1c1.3,1.5,2.6,2.9,4.6,3.4c1.9,0.5,3.9,1,5.9,1.3c0.4,0.1,0.8,0.1,1.1,0c0.2,0.4,0.5,0.3,0.8,0.3
	c1.2,0.1,2.4,0.2,3.6,0.2c-0.1,0.8-0.3,1.5-0.4,2.3c-0.7,0-1.4-0.1-2.1-0.1c-1.6-0.1-3.2-0.7-4.8-0.7c-3-1-5.8-2.4-8.9-3.1
	c2,1.5,4.3,2.7,6.7,3.4c-2.9,0.2-5.7,0.1-8.5-0.3C330.6,644.5,329,643.9,327.3,643.6z"/>
<path class="st6" d="M336.7,656c-0.7,2.1-1.5,4.2-1.8,6.4c-0.1,0.7-0.2,1.4-0.3,2.2c0.7-0.2,0.8-1.1,1.6-1.3c0,2.7,0.3,5.3,0.6,7.9
	c-0.3-0.1-0.7-0.2-1-0.3c-0.2-0.1-0.5-0.2-0.4-0.4c0.7-0.9-0.1-0.7-0.6-0.7c-0.4,0-1-0.1-1.1-0.5c-0.1-0.5,0.5-0.3,0.7-0.5
	s0.6-0.3,0.6-0.7c0.1,0,0.2,0,0.3-0.1c0,0,0-0.1-0.1-0.1c-0.1,0.1-0.1,0.1-0.2,0.2c-0.7,0-1.4,0-2.1-0.2c-0.2-0.1-0.5,0.1-0.6-0.2
	c-0.1-0.4,0.3-0.5,0.5-0.6c0.8-0.3,1.5-0.6,2.3-1.3c-1.9,0-3.5,0.8-5.2,0.4c1.2-0.5,2.3-0.9,3.3-1.7c-1.7,0.3-3.3,0.4-5,0.1
	c1.8-0.6,3.4-1.5,5.1-2.7c-1.6,0.2-2.9,0.5-4.3,0.2c1.5-0.6,3-1.2,4.4-2.2c-1.4,0.2-2.7,0.1-4.1-0.5c1.3-0.6,2.6-0.7,3.8-1.4
	c-1.3-0.1-2.4-0.2-3.6-0.8c1.5-0.5,3-0.6,4.3-1.2c-1.5-0.4-3.1-0.2-4.5-0.9c1.6-0.2,3.1-0.6,4.6-1.1c-1.8-0.2-3.7-0.4-5.3-1.3
	c2.5-0.2,5,0,7.6-0.6c-3.4-0.6-6.6-1.1-9.6-2.8c1.1-0.3,1.9,0.1,2.7,0.2c0.9,0.1,1.7,0.4,2.7,0.3c1.8,0.4,3.7,0.9,5.6,1.1
	c0,0.8-0.6,1.4-0.9,2.2c-0.5,1.2-0.9,2.4-1.2,3.8c0.5-0.4,0.8-0.6,1.1-0.9C336.6,655.9,336.7,656,336.7,656z"/>
<path class="st6" d="M401,671.2c0.3-2.6,0.7-5.2,0.6-7.9c0.8,0.2,0.9,1,1.6,1.3c-0.1-3-1-5.8-2-8.6l0.1-0.1c0.3,0.2,0.6,0.5,1,0.8
	c-0.3-1.8-1-3.4-1.7-4.9c-0.2-0.3-0.5-0.6-0.4-1.1c1.9-0.1,3.7-0.7,5.6-1.1c1.8,0,3.4-0.7,5.5-0.6c-3.1,1.8-6.4,2.2-9.7,2.9
	c2.7,0.5,5.1,0.4,7.6,0.5c-1.6,0.9-3.5,1.1-5.3,1.4c1.5,0.4,3,0.8,4.9,0.9c-1.7,1-3.3,0.5-4.8,1.1c1.3,0.6,2.7,0.8,4.3,1.2
	c-1.2,0.6-2.3,0.7-3.5,0.8c1.1,0.8,2.5,0.8,3.7,1.5c-1.4,0.5-2.7,0.7-4.1,0.4c1.3,1.1,2.8,1.7,4.3,2.3c-1.3,0.2-2.7,0-4.3-0.3
	c1.7,1.2,3.3,2.1,5.1,2.7c-1.7,0.4-3.3,0.2-5-0.1c1,0.8,2.1,1.2,3.3,1.7c-1.7,0.4-3.3-0.3-5-0.4c0.5,0.9,1.2,1,1.9,1.3
	c0.3,0.1,0.8,0.2,0.7,0.6c0,0.4-0.5,0.1-0.7,0.2c-0.6,0.3-1.3,0.2-2,0.2c-0.1-0.1-0.1-0.1-0.2-0.2c0,0,0,0.1-0.1,0.1
	c0.1,0,0.2,0,0.3,0.1c0.1,0.5,0.6,0.6,1,0.8c0.2,0.1,0.4,0.1,0.4,0.3c0,0.3-0.2,0.3-0.4,0.4c-0.3,0.2-0.7,0.1-1,0.1
	c-0.2,0-0.6,0.1-0.5,0.2C402.7,671.3,401.4,670.8,401,671.2z"/>
<path class="st6" d="M406.8,648.8c-0.9,0-1.8,0.1-2.7-0.1c0.2-0.4,0.6-0.4,0.9-0.6c1.5-0.8,3-1.7,4.3-2.8c0.4,0.6,0.9,0.2,1.4,0
	c1-0.4,1.9-0.9,3-1.5c-0.3,0.8-0.9,1.1-1.3,1.4c-1.2,0.9-2.4,1.9-3.9,2.5C407.9,648,407.3,648.4,406.8,648.8z"/>
<path class="st6" d="M328.9,645.7c1.6,0.9,3,2.2,5,2.8c-1,0.5-2,0.1-2.8,0.4c-0.2-0.6-0.7-0.8-1.2-1c-2.2-0.9-4-2.3-5.9-4
	c0.7,0,1,0.3,1.4,0.4c0.4,0.2,0.8,0.4,1.2,0.6C327.3,645.4,328,645.9,328.9,645.7z"/>
<path class="st6" d="M391.6,650c-0.8,0-1.6-0.2-2.5-0.1c-0.9,0.1-1.2-0.2-1-1.1c0-0.2,0-0.5,0-0.7c0.2-0.1,0.4-0.2,0.3-0.5
	c3,0.3,6,0.4,9,0c1.9-0.2,3.9-0.3,5.8-0.9c1-0.3,2.2-0.3,3.3-0.5c-1.1,0.8-2.3,1.4-3.6,1.9c-1.3,0.4-2.7,0.8-4.1,1.2
	C396.4,649.7,394,649.9,391.6,650z"/>
<path class="st6" d="M349.7,648.1c0,0.5,0.1,0.9,0.1,1.4c0,0.1,0,0.1,0,0.2c-1.2,0.3-2.4,0.1-3.5,0.3c-2.5-0.1-5-0.2-7.5-0.7
	c-1.4-0.6-3-0.8-4.4-1.4c-1.1-0.4-2-1-3-1.6c3,0.4,6,1.3,9,1.4c2.7,0.3,5.3,0.4,8,0.1c0.4,0,0.7,0,1,0.2
	C349.5,647.9,349.6,648,349.7,648.1z"/>
<path class="st6" d="M376.5,617.7c-0.2,0.5-0.1,1.1-0.6,1.6c0-0.7,0-1.3,0-1.8C376.1,617.6,376.3,617.6,376.5,617.7z"/>
<path class="st7" d="M401,671.2c-0.1,1.9-0.1,1.9-2,1.9c-20.1,0-40.1,0-60.2,0c-1.9,0-1.9,0-2-1.9c-0.3-2.6-0.7-5.2-0.6-7.9
	c-0.8,0.2-0.9,1.1-1.6,1.3c0.1-0.8,0.2-1.5,0.3-2.2c0.3-2.2,1.1-4.3,1.8-6.4c0.1-0.1,0.2-0.2,0.1-0.3s-0.1,0.1-0.2,0.2
	c-0.3,0.2-0.6,0.5-1.1,0.9c0.4-1.4,0.8-2.6,1.2-3.8c0.3-0.7,0.9-1.3,0.9-2.2c0.7-0.3,0.9-0.9,1.1-1.5c2.5,0.5,5,0.6,7.5,0.7
	c0,0.6,0.4,0.5,0.8,0.5c0.7,0,1.5,0,2.2,0c0,0.4-0.2,0.4-0.3,0.6c-0.4,0.4-1,0.9-0.9,1.3c0.2,0.5,0.9,0.1,1.4,0.2
	c0.3,0.1,0.6,0,0.9,0.1s0.8,0.2,0.5,0.7c-0.5,0.8,0,0.7,0.5,0.6c1.2-0.3,2.4,0,3.5,0.4c1.3,0.5,2.4,1.5,3.5,2.3
	c1.6,1.1,3.2,2.4,5.3,2.1c0,0.5,0.1,0.9,0.4,1.3c1.5,2.2,1.2,4.7,1,7.2s0.9,4.2,3.3,4.5s4.6-1.8,4.2-4.3c-0.3-1.8-0.3-3.6,0.1-5.5
	c0.3-1.1,1.2-2,1.2-3.2c0.8,0,1.5,0.1,2.2-0.3c1.5-0.7,2.9-1.7,4.2-2.7c1.8-1.4,3.7-2.4,6.1-1.9c0.2,0,0.7,0.1,0.5-0.3
	c-0.5-1.2,0.4-0.9,1-1.1c0.6-0.2,1.5,0.3,1.7-0.2c0.1-0.4-0.6-1.1-1.1-1.5c0,0,0-0.1-0.1-0.4c0.8,0,1.5,0,2.3,0
	c0.4,0,0.8,0.1,0.8-0.5c2.4-0.1,4.9-0.2,7.3-0.7c0.5,0.4,0.5,1.3,1.3,1.5c-0.1,0.4,0.2,0.7,0.4,1.1c0.8,1.5,1.4,3.1,1.7,4.9
	c-0.4-0.4-0.7-0.6-1-0.8c-0.1-0.1-0.1-0.3-0.2-0.2s0,0.2,0.1,0.3c1,2.8,2,5.6,2,8.6c-0.7-0.2-0.8-1.1-1.6-1.3
	C401.7,666,401.3,668.6,401,671.2z"/>
<path class="st7" d="M350.4,642.4c-0.1,0.4-0.2,0.7-0.2,1.1c-1.2-0.1-2.4-0.2-3.6-0.2c-0.3,0-0.6,0.1-0.8-0.3c0.5-0.7,1.3-1,1.9-1.4
	C348.7,641.6,349.5,642.3,350.4,642.4z"/>
<path class="st7" d="M387.6,643.5c-0.1-0.4-0.2-0.7-0.2-1.1c1-0.1,1.7-0.8,2.7-0.8c0.7,0.4,1.5,0.7,1.9,1.4
	c-0.8,0.5-1.8,0.3-2.7,0.5C388.7,643.5,388.2,643.4,387.6,643.5z"/>
<path class="st7" d="M397.4,647.6c-3,0.4-6,0.3-9,0c-0.1,0-0.3,0-0.4,0c0-0.6,0-1.3,0-1.9c2.2,0,4.4-0.6,6.6-0.9
	C395.6,645.7,396.6,646.5,397.4,647.6z"/>
<path class="st7" d="M349.4,647.8c-0.3-0.2-0.6-0.2-1-0.2c-2.7,0.3-5.3,0.3-8-0.1c0.8-0.9,1.5-2,2.6-2.7c1.6,0,3.2,0.6,4.8,0.7
	c0.7,0.1,1.4,0.2,2.1,0.1c0,0.6,0,1.1,0,1.7C349.5,647.4,349.4,647.5,349.4,647.8z"/>
<path class="st7" d="M372.6,657.2c-0.2,0.2-0.4,0.2-0.6,0.1c-2-1.1-4-1.1-6.1,0c-0.2,0.1-0.5,0.1-0.6-0.1l0,0
	c0.1-0.1,0.1-0.1,0.2-0.2l0,0c0.6-0.3,1.2-0.6,1.9-0.8c1.6-0.5,3.2-0.2,4.6,0.7c0.1,0.1,0.3,0.1,0.4,0.1l0,0
	C372.4,657.1,372.5,657.1,372.6,657.2L372.6,657.2z"/>
<path class="st8" d="M366.8,626.1c1-0.2,1.5-0.9,1.9-1.7c0.2,0,0.4,0,0.6,0c0.4,0.8,0.9,1.5,1.9,1.7c0,0.3,0.2,0.5,0.5,0.6
	c0.6,0.5,1.1,1.1,1.9,1c0.2,0.5,0.6,0.9,1.2,0.8c0.6,0.6,1.2,1,2.1,1.1c0.7,0.4,1.3,0.9,2.1,1c0.1,0.6,0.9,0.5,1.1,1
	c0.1,0.2,0.2,0.3,0.4,0.3l0,0c0,0.3,0,0.6,0.5,0.6l0,0c-0.1,0.3,0.1,0.6,0.3,0.9c1.4,1.7,2.1,3.7,2.5,5.9c0.2,1.2,0.2,2.3-1.2,3
	c-0.5,0.2-0.9,0.7-1.2,1.2c-0.2,0.4-0.8,0.9-0.6,1.2c0.6,0.9-0.2,1.2-0.6,1.7c-1.1,1.2-2.6,0.9-3.9,1.1c-2.4,0.4-4.6,2.3-5,4.4
	c0,0.3,0.1,0.6-0.2,0.8c-0.4,0.2-0.3-0.5-0.7-0.4c-0.2,0.3-0.1,0.6-0.1,0.9c0.3,1.6,1.2,2.8,2.2,4c-0.1,0-0.3,0-0.4-0.1
	c-1.4-0.9-3-1.2-4.6-0.7c-0.6,0.2-1.3,0.5-1.9,0.8c0-0.3,0.3-0.4,0.5-0.6c1.1-1.2,1.7-2.6,1.8-4.3c-0.5,0-0.4,0.7-0.8,0.5
	c-0.3-0.2-0.2-0.5-0.2-0.8c-0.2-0.9-0.5-1.6-1.1-2.3c-1.4-1.6-3.3-2.2-5.4-2.3c-1.3,0-2.3-0.7-3-1.7c-0.1-0.2-0.3-0.4-0.2-0.5
	c0.5-0.5,0.1-0.8-0.1-1.2c-0.4-0.9-1.2-1.5-2-2c-0.4-0.3-0.7-0.5-0.7-1.1c0-1.8,0.5-3.5,1.2-5.1c0.5-1.1,1.4-1.9,1.7-3.1l0,0
	c0.5,0,0.5-0.3,0.5-0.6l0,0c0.2,0,0.4-0.1,0.4-0.3c0.2-0.5,1-0.4,1.1-1c0.8-0.1,1.4-0.6,2.1-1c0.8-0.2,1.5-0.5,2.1-1.1
	c0.6,0,0.9-0.3,1.2-0.8c0.9,0,1.4-0.5,1.9-1C366.6,626.6,366.7,626.4,366.8,626.1z"/>
<path class="st8" d="M363.8,658.9c0.4-0.6,0.7-1.3,1.4-1.7c0.2,0.2,0.4,0.2,0.6,0.1c2-1.1,4-1.1,6.1,0c0.2,0.1,0.5,0.1,0.6-0.1
	c0.7,0.4,1,1.1,1.4,1.7c0,1.2-0.9,2-1.2,3.2c-0.4,1.8-0.4,3.7-0.1,5.5c0.4,2.5-1.8,4.6-4.2,4.3c-2.4-0.3-3.5-2-3.3-4.5
	c0.2-2.4,0.5-4.9-1-7.2C363.9,659.8,363.8,659.3,363.8,658.9z M368.9,666.2c-1.8,0-3.1,1.1-3,2.6c0,1.4,1.5,2.7,3.1,2.6
	c1.6,0,3-1.3,3-2.7C372,667.2,370.7,666.2,368.9,666.2z"/>
<path class="st7" d="M375.4,653.7c-1.2,0-2-0.6-1.9-1.7c0-0.9,1-1.7,2.1-1.6c1,0,1.7,0.6,1.7,1.7
	C377.2,653.1,376.5,653.7,375.4,653.7z M374.9,650.8c0,0.4,0.7,0.6,0.4,1.1c-0.3,0.5-0.8,0.3-1.3,0.2c0.3,1,0.9,1.4,1.8,1.1
	c0.8-0.2,1.1-0.8,0.9-1.5C376.5,650.8,375.8,650.6,374.9,650.8z"/>
<path class="st7" d="M362.4,653.7c-1.1,0-1.8-0.6-1.8-1.7c0-1,0.6-1.6,1.7-1.6s2,0.8,2,1.7C364.4,653.1,363.7,653.7,362.4,653.7z
	 M362.9,650.9c-1-0.2-1.7,0.1-1.8,0.8c-0.1,0.7,0.1,1.3,0.9,1.5c0.8,0.3,1.4-0.1,1.8-1.1c-0.5,0-1,0.3-1.3-0.2
	S362.8,651.2,362.9,650.9z"/>
<path class="st9" d="M372.4,657c-1.1-1.2-2-2.4-2.2-4c0-0.3-0.2-0.6,0.1-0.9c0.4-0.1,0.3,0.7,0.7,0.4c0.3-0.2,0.2-0.5,0.2-0.8
	c0.4-2.1,2.6-4.1,5-4.4c1.3-0.2,2.8,0.1,3.9-1.1c0.4-0.4,1.2-0.7,0.6-1.7c-0.2-0.4,0.4-0.8,0.6-1.2c0.3-0.5,0.7-0.9,1.2-1.2
	c1.4-0.6,1.4-1.7,1.2-3c-0.4-2.1-1.1-4.1-2.5-5.9c-0.2-0.2-0.4-0.5-0.3-0.9c0.7,0.2,1,0.8,1.6,1.1c0.5,0.6,1,1.1,1.5,1.7
	c0.2,0.5,0.4,0.9,1,1c0,0.9,0.6,1.4,1,2.1c0,0.6,0.5,0.9,0.8,1.3c-0.1,1,0.4,1.8,0.6,2.6c0.1,0.4,0.2,0.7,0.2,1.1
	c0.1,0.8,0.3,1.5,0.4,2.3c0,0.6,0,1.3,0,1.9c0,0.2,0,0.3,0.1,0.5c0,0.2,0,0.5,0,0.7c-0.2,0.8,0.2,1.1,1,1.1c0.8-0.1,1.6,0.1,2.5,0.1
	c0,0.6-0.4,0.5-0.8,0.5c-0.7,0-1.5,0-2.3,0c0.1,0.2,0.1,0.3,0.1,0.4c0.5,0.4,1.2,1.1,1.1,1.5c-0.2,0.6-1.1,0.1-1.7,0.2
	c-0.5,0.1-1.5-0.1-1,1.1c0.2,0.4-0.3,0.4-0.5,0.3c-2.4-0.5-4.3,0.5-6.1,1.9c-1.3,1-2.6,2-4.2,2.7c-0.7,0.3-1.5,0.2-2.2,0.3
	c-0.4-0.6-0.7-1.3-1.4-1.7l0,0C372.5,657.1,372.4,657.1,372.4,657L372.4,657z M375.4,653.7c1.2,0,1.8-0.6,1.8-1.7
	c0-1-0.6-1.7-1.7-1.7s-2,0.8-2.1,1.6C373.4,653,374.1,653.7,375.4,653.7z"/>
<path class="st9" d="M357.1,632.5c-0.3,1.2-1.2,2-1.7,3.1c-0.7,1.6-1.2,3.3-1.2,5.1c0,0.5,0.3,0.8,0.7,1.1c0.8,0.5,1.6,1.1,2,2
	c0.2,0.4,0.7,0.7,0.1,1.2c-0.2,0.2,0,0.4,0.2,0.5c0.7,1.1,1.7,1.7,3,1.7c2.1,0.1,3.9,0.6,5.4,2.3c0.6,0.7,0.9,1.4,1.1,2.3
	c0.1,0.3-0.1,0.6,0.2,0.8c0.4,0.2,0.3-0.5,0.8-0.5c-0.1,1.7-0.6,3.1-1.8,4.3c-0.2,0.2-0.5,0.3-0.5,0.6l0,0c-0.1,0.1-0.1,0.1-0.2,0.2
	l0,0c-0.7,0.4-1,1.1-1.4,1.7c-2.2,0.3-3.7-1-5.3-2.1c-1.1-0.8-2.2-1.8-3.5-2.3c-1.1-0.4-2.3-0.7-3.5-0.4c-0.4,0.1-0.9,0.2-0.5-0.6
	c0.3-0.5-0.2-0.6-0.5-0.7c-0.3-0.1-0.6-0.1-0.9-0.1c-0.5-0.1-1.3,0.3-1.4-0.2c-0.1-0.4,0.5-0.9,0.9-1.3c0.1-0.1,0.3-0.2,0.3-0.6
	c-0.7,0-1.5,0-2.2,0c-0.4,0-0.8,0.1-0.8-0.5c1.2-0.2,2.4,0,3.5-0.3c0.2-0.1,0.2-0.1,0-0.2c0-0.5-0.1-0.9-0.1-1.4c0-0.2,0-0.4,0-0.7
	c0-0.6,0-1.1,0-1.7c0.1-0.8,0.3-1.5,0.4-2.3c0.1-0.4,0.2-0.7,0.2-1.1c0.2-0.9,0.8-1.7,0.6-2.6c0.3-0.4,0.9-0.7,0.8-1.3
	c0.5-0.6,1.1-1.2,1-2.1c0.6-0.1,0.9-0.5,1-1c0.6-0.5,1.1-1.1,1.5-1.7C356,633.3,356.4,632.7,357.1,632.5z M362.4,653.7
	c1.2,0,2-0.6,2-1.7c0-0.9-1-1.7-2-1.7c-1.1,0-1.7,0.6-1.7,1.6C360.7,653,361.3,653.6,362.4,653.7z"/>
<path class="st9" d="M368.9,666.2c1.8,0,3.1,1.1,3.1,2.5s-1.4,2.7-3,2.7s-3-1.2-3.1-2.6C365.8,667.2,367.1,666.2,368.9,666.2z
	 M370.7,669.8c-0.2-0.3-0.3-0.7-0.8-0.6c-0.4,0-0.6,0.3-0.6,0.7s0.3,0.7,0.6,0.7C370.3,670.5,370.6,670.3,370.7,669.8z M368.6,669.8
	c-0.1-0.4-0.3-0.7-0.8-0.7c-0.4,0-0.6,0.3-0.7,0.7c0,0.5,0.4,0.6,0.8,0.7C368.3,670.5,368.5,670.2,368.6,669.8z"/>
<path class="st6" d="M411.8,626.1c0-0.1,0-0.2,0.1-0.3c0,0,0.1,0,0.1,0.1C411.9,626,411.9,626,411.8,626.1L411.8,626.1z"/>
<path class="st6" d="M326,626.1c-0.1-0.1-0.1-0.1-0.2-0.2c0,0,0.1,0,0.1-0.1C326,625.9,326,626,326,626.1L326,626.1z"/>
<path class="st6" d="M388.4,603.1c0-0.1,0-0.2,0.1-0.3C388.7,603,388.5,603,388.4,603.1L388.4,603.1z"/>
<path class="st6" d="M349.4,603.1c-0.1-0.1-0.1-0.2-0.2-0.2C349.5,602.8,349.3,603,349.4,603.1L349.4,603.1z"/>
<polygon class="st6" points="411.7,634.5 411.7,634.5 411.7,634.6 "/>
<polygon class="st6" points="326.1,634.6 326.1,634.5 326.1,634.5 "/>
<path class="st9" d="M357.1,632.5c0-0.2,0-0.4,0.1-0.6c0.1,0,0.3,0,0.4,0C357.5,632.2,357.6,632.6,357.1,632.5z"/>
<path class="st9" d="M380.7,631.9c0,0.2,0,0.4,0.1,0.6c-0.5,0-0.5-0.3-0.5-0.6C380.4,631.9,380.6,631.9,380.7,631.9z"/>
<path class="st6" d="M361.8,618.5c0,0.2,0,0.4,0.1,0.8c-0.3-0.2-0.4-0.4-0.4-0.7C361.6,618.6,361.7,618.5,361.8,618.5z"/>
<path class="st10" d="M351.5,611.7c0.2,0.1,0.2,0.2,0.2,0.4c0,0,0,0-0.1,0.1C351.5,612,351.5,611.9,351.5,611.7
	C351.4,611.7,351.5,611.7,351.5,611.7z"/>
<path class="st10" d="M386.4,611.7c0,0.2-0.1,0.3-0.1,0.5c0,0-0.1,0-0.1-0.1C386.1,611.9,386.2,611.8,386.4,611.7
	C386.3,611.7,386.4,611.7,386.4,611.7z"/>
<path class="st10" d="M405.4,630.5c-0.1,0.1-0.1,0.1-0.2,0.2c0,0,0-0.1-0.1-0.1C405.2,630.5,405.3,630.5,405.4,630.5L405.4,630.5z"
	/>
<path class="st10" d="M332.5,630.5c0.1,0,0.2,0,0.3,0.1c0,0,0,0.1-0.1,0.1C332.6,630.6,332.5,630.5,332.5,630.5L332.5,630.5z"/>
<path class="st10" d="M403,628.9C403,628.9,403.1,628.8,403,628.9c0.2,0,0.2,0,0.1,0.1C403.1,629,403,629,403,628.9L403,628.9z"/>
<path class="st10" d="M334.8,629C334.8,629,334.7,628.9,334.8,629C334.7,628.9,334.8,628.9,334.8,629
	C334.8,628.8,334.8,628.9,334.8,629C334.8,628.9,334.8,628.9,334.8,629z"/>
<path class="st9" d="M380.3,631.9c-0.2,0-0.4-0.1-0.4-0.3C380,631.7,380.2,631.8,380.3,631.9z"/>
<path class="st10" d="M394.7,619.6c0,0.1,0,0.2,0,0.3c0,0-0.1,0-0.1-0.1S394.7,619.7,394.7,619.6L394.7,619.6z"/>
<path class="st10" d="M343.1,619.6c0.1,0.1,0.1,0.1,0.2,0.2c0,0-0.1,0-0.1,0.1C343.2,619.8,343.1,619.7,343.1,619.6L343.1,619.6z"/>
<path class="st10" d="M347.9,614c0.1,0.1,0.1,0.1,0.2,0.2l-0.1,0.1C348,614.2,347.9,614.1,347.9,614L347.9,614z"/>
<path class="st9" d="M358,631.6c-0.1,0.2-0.2,0.3-0.4,0.3C357.7,631.8,357.8,631.7,358,631.6z"/>
<path class="st11" d="M383.6,624c0.1,0,0.1-0.1,0.2-0.1c0,0.1,0,0.2,0,0.2C383.7,624.1,383.7,624,383.6,624z"/>
<path class="st11" d="M354,624.1c0-0.1,0-0.2,0-0.2c0.1,0,0.1,0.1,0.2,0.1C354.2,624,354.1,624.1,354,624.1z"/>
<path class="st6" d="M336.6,655.9c0.1-0.1,0.1-0.3,0.2-0.2s0,0.2-0.1,0.3L336.6,655.9z"/>
<path class="st6" d="M401.1,656c-0.1-0.1-0.2-0.2-0.1-0.3c0.2-0.1,0.1,0.1,0.2,0.2C401.2,655.9,401.2,656,401.1,656z"/>
<path class="st10" d="M335.2,668.1c0.1-0.1,0.1-0.1,0.2-0.2c0,0,0,0.1,0.1,0.1C335.4,668,335.3,668.1,335.2,668.1L335.2,668.1z"/>
<path class="st10" d="M402.6,668.1c-0.1,0-0.2,0-0.3-0.1c0,0,0-0.1,0.1-0.1C402.5,667.9,402.6,668,402.6,668.1L402.6,668.1z"/>
<path class="st8" d="M388,647.6c0.1,0,0.3,0,0.4,0c0,0.2-0.1,0.4-0.3,0.5C388.1,647.9,388.1,647.8,388,647.6z"/>
<path class="st8" d="M372.6,657.2c-0.1-0.1-0.1-0.1-0.2-0.2C372.4,657.1,372.5,657.1,372.6,657.2z"/>
<path class="st8" d="M349.4,647.8c0-0.3,0.1-0.4,0.4-0.4c0,0.2,0,0.4,0,0.7C349.6,648,349.5,647.9,349.4,647.8z"/>
<path class="st8" d="M365.5,657c-0.1,0.1-0.1,0.1-0.2,0.2C365.3,657.1,365.4,657.1,365.5,657z"/>
<path class="st8" d="M349.8,649.7c0-0.1,0-0.1,0-0.2C350,649.6,350,649.6,349.8,649.7z"/>
<path class="st6" d="M357,623.3c0.2,0.2,0.3,0.4,0.1,0.6c-0.1-0.1-0.2-0.3-0.3-0.4C356.8,623.5,356.9,623.4,357,623.3z"/>
<path class="st6" d="M381.1,623.5c-0.1,0.1-0.2,0.1-0.3,0.2c-0.1-0.2,0-0.3,0.1-0.4C380.9,623.4,381,623.5,381.1,623.5z"/>
<path class="st6" d="M351.9,625.2c0.1,0.1,0.2,0.2,0.1,0.3s-0.2-0.1-0.3-0.2C351.8,625.3,351.9,625.3,351.9,625.2z"/>
<path class="st6" d="M386.1,625.4c-0.1,0.1-0.2,0.3-0.4,0.2c-0.2-0.2,0.1-0.3,0.2-0.4C385.9,625.3,386,625.3,386.1,625.4z"/>
<path class="st6" d="M390.6,631c-0.1,0-0.2,0.1-0.2,0.1c-0.2-0.1,0-0.2,0-0.3C390.5,630.8,390.5,630.9,390.6,631z"/>
<path class="st6" d="M347.4,630.8c0.1,0.1,0.2,0.2,0,0.3c0,0-0.1-0.1-0.2-0.1C347.3,630.9,347.4,630.8,347.4,630.8z"/>
<path class="st11" d="M404.9,637.2c-0.6,0.2-1,0.7-1.5,1.3c-1.2,1.4-2.5,2.7-4.5,3.2c-1.9,0.5-3.8,0.9-5.8,1.3
	c-0.4,0.1-0.8,0.1-1.2,0c-0.5-0.7-1.3-1-1.9-1.4c2.3-1.3,4.7-2.3,6.8-3.8c1.3-0.9,2.6-1.8,3.6-3c0.9-1,1.9-1.8,3.2-2.3
	c-1.6,2.2-3.3,4.3-5.8,5.7c0.9,0.2,1.6-0.2,2.4-0.4c1.5-0.4,3-1,4.4-1.5c0.2-0.1,0.5-0.4,0.7,0.1
	C405.1,636.5,404.9,636.8,404.9,637.2z"/>
<path class="st11" d="M345.8,642.9c-0.4,0.1-0.7,0.1-1.1,0c-2-0.4-3.9-0.8-5.9-1.3c-2-0.6-3.3-2-4.6-3.4c-0.4-0.5-0.8-0.8-1.3-1.1
	c0.1-0.4-0.2-0.6-0.5-0.9c0.3-0.5,0.6-0.1,0.9,0c1.9,0.7,3.8,1.2,5.7,1.8c0.2,0.1,0.5,0.1,0.8,0c-2.4-1.5-4.2-3.5-5.7-5.8
	c0.8,0.5,1.6,0.8,2.2,1.5c3,3.3,6.8,5.5,10.8,7.4c0.2,0.1,0.4,0.2,0.6,0.4C347.1,642,346.3,642.2,345.8,642.9z"/>
<path class="st11" d="M405.8,649.7c-1.9,0.4-3.7,1-5.6,1.1c-0.8-0.2-0.8-1.1-1.3-1.5c1.4-0.4,2.7-0.8,4.1-1.2c1.3-0.4,2.5-1,3.6-1.9
	c-1.1,0.2-2.3,0.2-3.3,0.5c-1.9,0.6-3.8,0.7-5.8,0.9c-0.8-1-1.8-1.9-2.8-2.7c3.1-0.8,5.9-2.2,9-3.1c-0.8,1-2,1.5-3.1,2.1
	s-2.3,0.8-3.5,1.3c1.6,0,3.2,0.1,4.8,0c2.9-0.1,5.7-0.7,8.4-1.5c-0.1,0.7-0.7,1.1-1.1,1.7c-1.3,1.1-2.8,2-4.3,2.8
	c-0.3,0.2-0.7,0.2-0.9,0.6c0.9,0.3,1.8,0.1,2.7,0.1C406.7,649.4,405.9,649.1,405.8,649.7z"/>
<path class="st11" d="M337.7,650.8c-1.9-0.1-3.7-0.6-5.6-1.1c-0.1-0.5-0.8-0.3-1-0.7c0.8-0.4,1.8,0.1,2.8-0.4c-2-0.7-3.3-2-5-2.8
	c-0.5-0.7-1.2-1.3-1.7-2.1c1.7,0.2,3.3,0.9,5,1.2c2.8,0.4,5.6,0.6,8.5,0.3c-2.5-0.7-4.7-1.8-6.7-3.4c3.1,0.7,5.9,2.1,8.9,3.1
	c-1,0.7-1.8,1.7-2.6,2.7c-3.1-0.1-6-0.9-9-1.4c1,0.7,2,1.2,3,1.6c1.4,0.6,3,0.9,4.4,1.4C338.5,649.8,338.4,650.5,337.7,650.8z"/>
<path class="st11" d="M351.9,638.4c0,0.6-0.5,0.9-0.8,1.3c-0.4,0.3-0.8,0.2-1.2,0.1c-1.6-0.6-3.2-1.2-4.7-1.9
	c-3.6-1.5-6-4.2-7.7-7.7c2,1.4,3.9,3.1,6.3,3.9c-0.8-0.9-1.6-1.8-2.3-3C345.2,633.4,348.2,636.4,351.9,638.4z"/>
<path class="st11" d="M386.8,639.7c-0.3-0.4-0.9-0.7-0.8-1.3c3.6-2,6.6-4.9,10.3-7.1c-0.6,1.3-1.4,2.1-2.3,2.9
	c1.3-0.2,2.3-1,3.3-1.7s2-1.5,3-2.2c0,0.1,0.1,0.2,0.1,0.3c-1.3,2.5-2.9,4.7-5.3,6.1c-2.2,1.3-4.5,2.4-6.9,3.1
	C387.7,639.9,387.2,640,386.8,639.7z"/>
<path class="st11" d="M361.1,629.6c-0.7,0.4-1.3,0.9-2.1,1c-1.9-2-3.5-4.2-5-6.5c0.1,0,0.1-0.1,0.2-0.1c0.6,0.4,0.8,0.1,0.6-0.4
	c-0.6-1.2-0.3-2.5-0.7-3.7c1,1.2,1.7,2.5,2.7,3.7c0.1,0.1,0.2,0.3,0.3,0.4c0.2-0.2,0.1-0.4-0.1-0.6c-0.9-3.2-1.7-6.5-1.5-10.1
	c0.6,0.9,0.6,1.9,1,2.7c0.9,1.5,1,3.2,1.3,4.8c0.3,1.8,0.9,3.5,1.6,5.2C360,627.1,360.5,628.4,361.1,629.6z"/>
<path class="st11" d="M364.4,627.8c-0.2,0.5-0.6,0.9-1.2,0.8c-2-2.9-3.1-6.2-4.1-9.4c-0.6-1.9-0.2-3.8,0-5.7
	c0.2-1.3,0.3-2.7,0.9-4.1c0.4,3.2,0.7,6.2,1.5,9.2c0,0.3,0.1,0.5,0.4,0.7c0-0.3-0.1-0.5-0.1-0.8c0.1-2,0-3.9,0.6-5.8
	c0.3,0.5,0.4,1.2,0.3,1.8c-0.6,3.3-0.3,6.5,0.4,9.8C363.5,625.5,363.8,626.6,364.4,627.8z"/>
<path class="st11" d="M374.6,628.6c-0.6,0-0.9-0.3-1.2-0.8c1.5-3.5,2-7.2,1.8-11c0-0.8-0.2-1.6-0.3-2.4c-0.1-0.6,0.1-1.1,0.5-1.7
	c0.2,1.6,0.3,3.2,0.5,4.8c0,0.6,0,1.1,0,1.8c0.5-0.5,0.4-1.1,0.6-1.6c0.6-2.7,1.1-5.4,1.4-8.2c0.6,3.4,1.9,6.7,0.6,10.2
	c-0.5,1.4-1,2.9-1.5,4.4C376.6,625.7,375.5,627.1,374.6,628.6z"/>
<path class="st11" d="M378.8,630.6c-0.8-0.1-1.4-0.6-2.1-1c1.6-3.1,2.9-6.3,3.5-9.8c0.1-0.7,0.1-1.6,0.4-2.2c0.6-1.4,1-2.8,1.7-4.2
	c0.1,3.4-0.5,6.7-1.4,9.9c-0.1,0.1-0.2,0.2-0.1,0.4c0.1-0.1,0.2-0.1,0.3-0.2c1-1.2,1.7-2.6,2.7-3.9c-0.2,1.3-0.3,2.5-0.7,3.8
	c-0.1,0.4-0.3,1,0.6,0.5c0.1,0,0.1,0.1,0.2,0.1C382.4,626.5,380.6,628.6,378.8,630.6z"/>
<path class="st11" d="M357.1,632.5c-0.7,0.2-1,0.8-1.6,1.1c-1.5-1.1-2.9-2.3-4.1-3.7c-1.2-1.3-2.5-2.5-3.5-4c-0.7-1-0.7-2.2-0.9-3.4
	c0.8,1.5,2.1,2.4,3,3.8c0.2,0.3,0.4,0.7,0.8,0.4c0.5-0.3-0.1-0.5-0.2-0.7c-0.4-0.9-1.1-1.8-1-3.1c0.8,0.9,1.5,1.6,2.2,2.4
	c0.1,0.1,0.1,0.3,0.3,0.2c0.1-0.1,0-0.2-0.1-0.3c-1-2.1-1.8-4.1-2.3-6.4c0.5,0.4,1,0.9,1.2,1.5c1.1,4.4,3.5,8.1,6.3,11.6
	C357.1,632.1,357.1,632.3,357.1,632.5L357.1,632.5z"/>
<path class="st11" d="M382.4,633.6c-0.6-0.3-1-0.9-1.6-1.1l0,0c0-0.2,0-0.4-0.1-0.6c1.6-2,3-4.1,4.3-6.3s1.5-4.9,3.2-6.8
	c-0.4,2.3-1.3,4.3-2.3,6.4c-0.1,0.1-0.4,0.2-0.2,0.4c0.1,0.1,0.3-0.1,0.4-0.2c0.7-0.7,1.4-1.5,2.2-2.3c0.2,1.6-0.8,2.6-1.4,3.7
	c0.4,0.1,0.7,0.1,0.9-0.3c0.9-1.4,2.2-2.5,3.1-3.9c-0.1,1.1-0.1,2.3-0.8,3.3c-0.7,1-1.5,2-2.5,2.8c-0.7,0.6-1.1,1.4-1.8,2
	C384.7,631.6,383.5,632.6,382.4,633.6z"/>
<path class="st11" d="M384.9,636.3c-0.6-0.1-0.9-0.5-1-1c2.2-1.9,4.3-4,6-6.5c0.5-0.8,1.4-1.1,2.1-1.7c-0.2,1.4-0.9,2.5-1.6,3.6
	c-0.1,0.1-0.2,0.2,0,0.3c0,0,0.1-0.1,0.2-0.1c1.8-1.3,3.2-3,4.7-4.9c-0.4,2.8-1.6,4.8-3.9,6.2c-1.4,0.8-2.6,1.9-4,2.7
	C386.6,635.5,385.8,635.9,384.9,636.3z"/>
<path class="st11" d="M354,635.3c-0.2,0.5-0.4,0.9-1,1c-2.2-1.1-4.4-2.2-6.2-4c-0.1-0.1-0.3-0.1-0.5-0.2c-2.1-1.1-3.5-3.3-3.8-5.9
	c1.5,1.7,2.9,3.5,4.7,4.7c0.1,0,0.2,0.1,0.2,0.1c0.2-0.1,0-0.2,0-0.3c-0.7-1.1-1.3-2.3-1.7-3.8c1,0.8,1.9,1.4,2.6,2.3
	C349.9,631.5,351.8,633.5,354,635.3z"/>
<path class="st11" d="M366.8,626.1c0,0.3-0.2,0.5-0.5,0.6c-1.2-3.1-1.9-6.3-2.4-9.6c0.6,0.1,0.5,0.6,1,1.1c-0.2-2,0.2-3.8,0.4-5.8
	c0.3,0.6,0.4,1,0.5,1.5c1,3-0.1,6.1,0.5,9.2C366.4,624,366.7,625,366.8,626.1z"/>
<path class="st11" d="M371.5,626.7c-0.3-0.1-0.4-0.3-0.5-0.6c0.5-2.7,1-5.4,0.6-8c-0.2-1.7,0.4-3.2,0.3-4.8c0-0.3,0.3-0.5,0.6-1
	c0.2,2,0.6,3.8,0.5,5.7c0.2-0.3,0.4-0.6,0.6-0.9C373.5,620.5,372.7,623.7,371.5,626.7z"/>
<path class="st11" d="M369.2,624.4c-0.2,0-0.4,0-0.6,0c-0.4-2.1-0.7-4.1-0.9-6.2c-0.2-1.6,0.4-2.8,1.2-3.9c1.2,1.4,1.4,3,1.1,4.8
	C369.7,620.8,369.5,622.6,369.2,624.4z"/>
<path class="st11" d="M374.9,650.8c0.9-0.2,1.6,0,1.8,0.9c0.2,0.7-0.1,1.3-0.9,1.5c-0.9,0.3-1.5-0.1-1.8-1.1c0.5,0.1,1,0.4,1.3-0.2
	C375.7,651.4,375,651.2,374.9,650.8z"/>
<path class="st11" d="M362.9,650.9c-0.1,0.4-0.7,0.5-0.4,1c0.3,0.5,0.8,0.2,1.3,0.2c-0.4,1-1,1.4-1.8,1.1c-0.7-0.2-1-0.8-0.9-1.5
	S361.9,650.6,362.9,650.9z"/>
<path class="st11" d="M370.7,669.8c-0.1,0.5-0.4,0.7-0.8,0.7s-0.6-0.3-0.6-0.7s0.3-0.6,0.6-0.7C370.4,669.1,370.5,669.5,370.7,669.8
	z"/>
<path class="st11" d="M368.6,669.8c-0.1,0.4-0.3,0.7-0.7,0.7c-0.4,0-0.8-0.2-0.8-0.7c0-0.4,0.3-0.7,0.7-0.7
	C368.3,669.1,368.5,669.4,368.6,669.8z"/>
<path class="st3" d="M396.5,659.2c0,20.4-12.2,27.7-27.1,27.7c-0.3,0-0.7,0-1,0c-0.7,0-1.4,0-2.1-0.1c-13.5-1-24-8.5-24-27.6
	c0-19.7,25.1-44.6,27-46.4l0,0c0.1-0.1,0.1-0.1,0.1-0.1S396.5,638.8,396.5,659.2z"/>
<path class="st1" d="M368.5,686.8h-0.1v-1.6l10-15.4l-9.9,13.9l0.3-17.1l11.6-21.2l-11.5,18.5l0.1-7.7l8-15.3l-7.9,13.3l0.2-13.8
	l8.5-12.2l-8.5,10l0.1-25.3l-0.8,32l-8.6-13.2l8.5,16l-0.8,15.5v-0.4l-10-14l10,15.4l-0.1,1.9v0.2l-1.1,20.5l1.9,0.1
	C368.5,686.9,368.5,686.8,368.5,686.8z"/>
</svg>
