<?xml version="1.0" encoding="utf-8"?>
<!-- Generator: Adobe Illustrator 24.2.1, SVG Export Plug-In . SVG Version: 6.00 Build 0)  -->
<svg version="1.1" id="bb43b303-7783-4b20-84ac-89898836e9dc"
	 xmlns="http://www.w3.org/2000/svg" xmlns:xlink="http://www.w3.org/1999/xlink" x="0px" y="0px" viewBox="0 0 1150 800"
	 style="enable-background:new 0 0 1150 800;" xml:space="preserve">
<style type="text/css">
	.st0{fill:#A0616A;}
	.st1{fill:#E6E6E6;}
	.st2{opacity:0.65;fill:#F4B056;enable-background:new    ;}
	.st3{opacity:0.26;fill:#F9A826;enable-background:new    ;}
	.st4{opacity:0.65;fill:#E29627;enable-background:new    ;}
	.st5{fill:#3F3D56;}
	.st6{fill:#F95858;}
	.st7{fill:#F4B056;}
	.st8{fill:#F9A826;}
	.st9{fill:#2F2E41;}
	.st10{fill:#B7B7B7;}
	.st11{fill:#CCCCCC;}
	.st12{fill:#DDDDDD;}
	.st13{fill:#3F3D56;stroke:#3F3D56;stroke-width:0.5;stroke-miterlimit:10;}
</style>
<g>
	<path class="st0" d="M252.4,362.1c0,0-1.6,13.8,7.5,19.1l-37.1-1.6l2.2-12.5L252.4,362.1z"/>
	<rect x="346.1" y="264.1" class="st1" width="655.3" height="69.1"/>
	<path class="st2" d="M112.8,798.2c-20.7-1.7-38.9-16.6-49.2-34.6c-3.4-6.1-5.8-13.9-1.8-19.6c3.4-4.9,10.1-6.2,15-2.8
		c1.8,1.3,3.3,3.2,4.1,5.3c-1.3-7-1.8-14.2-1.6-21.3c0.1-6.1,1.3-12.9,6.3-16.2c5.8-3.9,14.2-0.8,18.4,4.7
		c4.2,5.5,5.4,12.9,6.4,19.7c-2.8-9.7,2.9-19.7,12.6-22.5c2.5-0.7,5.1-0.9,7.6-0.5c8.6,1.3,15.3,8.7,17.9,17
		c2.6,8.3,1.8,17.1,0.1,25.7c-2,10-5.1,19.7-10.9,28.2c-5.8,8.3-14.3,15-24.2,17.1L112.8,798.2z"/>
	<path class="st3" d="M1097.5,274.6c0,59.3-37.5,112.1-93.4,131.7c-0.9,0.3-1.7,0.7-2.6,0.9V265.4H818.9c0-0.9,0.1-1.7,0.1-2.6
		h182.4v-27.6c0-3.7-2.9-6.6-6.6-6.6H826.3c0.3-0.9,0.7-1.7,0.9-2.6c26.8-72.2,107.2-109,179.5-82
		C1061.3,164.2,1097.5,216.3,1097.5,274.6z"/>
	<path class="st4" d="M114.1,798.2c-14.3-1.2-27-11.6-34.2-23.9c-2.4-4.2-4.1-9.6-1.3-13.7c2.4-3.4,7-4.3,10.4-2
		c1.3,0.9,2.2,2.1,2.8,3.7c-0.9-4.9-1.3-9.9-1.2-14.7c0.1-4.2,0.9-8.9,4.3-11.3c4.1-2.8,9.9-0.5,12.9,3.3c3,3.8,3.7,8.9,4.5,13.7
		c-1.8-6.7,2-13.7,8.7-15.7c1.7-0.5,3.6-0.7,5.4-0.4c5.9,0.9,10.5,6.1,12.4,11.7s1.2,12,0.1,17.8c-1.3,6.8-3.6,13.7-7.6,19.5
		s-10,10.4-16.8,11.8L114.1,798.2z"/>
	<path class="st5" d="M994.8,225.9H354c-5.1,0-9.2,4.5-9.2,10v470.3c0,5.5,4.1,10,9.2,10h640.8c5.1,0,9.2-4.5,9.2-10V235.9
		C1004,230.4,1000,225.9,994.8,225.9z M1001.4,706.2c0,3.9-2.9,7.1-6.6,7.1H354c-3.7,0-6.6-3.2-6.6-7.1V235.9c0-3.9,2.9-7.1,6.6-7.1
		h640.8c3.7,0,6.6,3.2,6.6,7.1V706.2z"/>
	<rect x="346.1" y="262.7" class="st5" width="656.6" height="2.6"/>
	<circle class="st6" cx="368.5" cy="245.6" r="7.9"/>
	<circle class="st7" cx="391.2" cy="245.6" r="7.9"/>
	<circle class="st7" cx="413.9" cy="245.6" r="7.9"/>
	<path class="st5" d="M525.1,371.6H409.3c-5.1,0-9.2,4.1-9.2,9.2v115.8c0,5.1,4.1,9.2,9.2,9.2h115.8c5.1,0,9.2-4.1,9.2-9.2V380.8
		C534.3,375.8,530.2,371.6,525.1,371.6z M531.6,496.6c0,3.7-2.9,6.6-6.6,6.6H409.3c-3.7,0-6.6-2.9-6.6-6.6V380.8
		c0-3.7,2.9-6.6,6.6-6.6h115.8c3.7,0,6.6,2.9,6.6,6.6V496.6z"/>
	<path class="st8" d="M733,372.2H617.2c-4.7,0-8.6,3.8-8.6,8.6v115.8c0,4.7,3.8,8.6,8.6,8.6H733c4.7,0,8.6-3.8,8.6-8.6V380.8
		C741.5,376,737.7,372.2,733,372.2z"/>
	<path class="st1" d="M940.9,372.2H825.1c-4.7,0-8.6,3.8-8.6,8.6v115.8c0,4.7,3.8,8.6,8.6,8.6h115.8c4.7,0,8.6-3.8,8.6-8.6V380.8
		C949.4,376,945.6,372.2,940.9,372.2z"/>
	<path class="st1" d="M525.1,545.9H409.3c-4.7,0-8.6,3.8-8.6,8.6v115.8c0,4.7,3.8,8.6,8.6,8.6h115.8c4.7,0,8.6-3.8,8.6-8.6V554.5
		C533.6,549.7,529.8,545.9,525.1,545.9z"/>
	<path class="st8" d="M733,545.9H617.2c-4.7,0-8.6,3.8-8.6,8.6v115.8c0,4.7,3.8,8.6,8.6,8.6H733c4.7,0,8.6-3.8,8.6-8.6V554.5
		C741.5,549.7,737.7,545.9,733,545.9z"/>
	<path class="st1" d="M940.9,545.9H825.1c-4.7,0-8.6,3.8-8.6,8.6v115.8c0,4.7,3.8,8.6,8.6,8.6h115.8c4.7,0,8.6-3.8,8.6-8.6V554.5
		C949.4,549.7,945.6,545.9,940.9,545.9z"/>
	<path class="st8" d="M491.8,510.1H376c-4.7,0-8.6-3.8-8.6-8.6V385.8c0-4.7,3.8-8.6,8.6-8.6h115.8c4.7,0,8.6,3.8,8.6,8.6v115.8
		C500.3,506.3,496.5,510.1,491.8,510.1z"/>
	<polygon class="st0" points="319.3,782.6 334.8,777.9 323.9,716.2 301.1,723.2 	"/>
	<path class="st9" d="M368.9,783l-48.4,14.9l0,0l-5.8-18.7l0,0l29.7-9.1C354.8,767,365.7,772.8,368.9,783L368.9,783L368.9,783z"/>
	<polygon class="st0" points="187.7,783 203.9,783 211.5,720.8 187.7,720.8 	"/>
	<path class="st9" d="M235.1,797.9h-50.7l0,0v-19.6l0,0h31.1C226.2,778.4,235.1,787.1,235.1,797.9L235.1,797.9L235.1,797.9
		L235.1,797.9z"/>
	<path class="st0" d="M186.6,602.6c-5-4.3-5.5-12-1.1-17c0.5-0.5,0.9-1.1,1.6-1.4l12.5-157.5L225,433l-20.4,153.7
		c3.8,5.5,2.5,13-3,16.8C197,606.7,190.8,606.3,186.6,602.6L186.6,602.6z"/>
	<path class="st10" d="M190.7,448l13-42.6c3.3-10.8,14.7-16.8,25.5-13.6c1.2,0.4,2.2,0.8,3.4,1.3l0,0c9.6,5,13.7,16.4,9.3,26.3
		l-16.6,37.8L190.7,448z"/>
	<circle class="st0" cx="237.6" cy="333.3" r="32.4"/>
	<path class="st11" d="M209.4,421.8c-7.2-10-7.5-23.8,0.4-33.4c5.1-6.2,13.7-11.2,28-11.2c38.2,0,52.6,30.3,52.6,30.3
		s15.8,28.9,6.6,55.3c-9.2,26.3-9.2,28.9-9.2,28.9l-60.5-5.3C227.3,486.3,237.4,460.2,209.4,421.8z"/>
	<path class="st9" d="M286.5,485l51.3,265.8l-27.6,7.9l-67.1-175l-30.3,179l-28.9,3.9c0,0-12.8-236.7,43.4-280.3L286.5,485z"/>
	<path class="st0" d="M355.3,472.6c-0.5,0.5-0.9,1.2-1.3,1.7l-65.1,3.2l-12.5-38.3l-21.8,10.4l20.5,57.1l80.7-15.8
		c5.1,5.7,13.9,6.1,19.5,0.9c5.7-5.1,6.1-13.9,0.9-19.5c-5.1-5.7-13.9-6.1-19.5-0.9C356.1,471.7,355.7,472.1,355.3,472.6
		L355.3,472.6z"/>
	<path class="st12" d="M245.4,411.2c-1.3-11.2,6.7-21.3,17.9-22.6c1.2-0.1,2.5-0.1,3.7-0.1l0,0c10.8,0.7,19.1,9.6,19.1,20.4V450
		l-35.4,5.4L245.4,411.2z"/>
	<path class="st9" d="M244.7,365.8c-4.9,0-8.6-5.1-8.4-10c0.1-4.9,3.4-9.1,7.4-12c3.9-2.9,8.6-4.6,12.9-6.7
		c4.3-2.1,8.7-4.7,11.4-8.7c3.3-5.4,3.8-12,1.3-17.8c-2.5-5.7-6.8-10.4-12.2-13.4c-16.8-9.9-38.3-5.1-49.5,10.9l-5.5,15.1
		c-5.7,6.8-6.6,16.8-3,25c3.6,8.2,10.8,14.2,19.2,17.1c8.4,2.8,17.5,3,26.1,0.8"/>
	<path class="st9" d="M215,315.6c-2.4-3.8-6.4-6.2-10.8-7.6c-17.8-5.9-36.8,3.7-42.8,21.4c-0.9,2.9-1.6,5.9-1.7,8.8
		c-0.4,8.3,2.1,16.4,3.7,24.6c1.6,8.2,1.8,17.2-2.6,24.2c-3.4,5.3-9.2,8.7-14.9,11.6c-4.7,2.4-9.9,4.6-15.1,4.2
		c-5.3-0.4-10.5-4.6-10.4-9.9c-1.7,3.8-2.9,7.8-3.6,12c-0.4,4.2,0.7,8.7,3.7,11.6c4.3,4.2,11.3,3.9,17.2,3c13-2,26.1-5.7,36.3-13.8
		c10.3-8.2,17.1-21.7,14.3-34.5c-1.2-5.4-3.8-10.3-5.9-15.3c-2.1-5-3.8-10.5-2.8-15.9c1.2-5.7,4.7-10.4,9.9-13.2
		c5-2.6,10.9-3.6,16.4-2.5c3.7,0.7,8.3,1.6,10.5-1.4c1.2-2,1.2-4.5-0.1-6.3c-1.3-1.8-2.9-3.4-4.7-4.7"/>
	<path class="st5" d="M458.5,800H54.1c-0.9,0-1.6-0.7-1.6-1.6c0-0.9,0.7-1.6,1.6-1.6l0,0h404.4c0.9,0,1.6,0.7,1.6,1.6
		C460.1,799.3,459.4,800,458.5,800L458.5,800z"/>
	<g>
		<path class="st13" d="M419.4,279.2c-10.8,0-19.5,8.7-19.5,19.5s8.7,19.5,19.5,19.5s19.5-8.7,19.5-19.5
			C438.9,287.9,430.2,279.2,419.4,279.2z M432.6,309.7c-1.2,0-1.2,0-1.2,0h-7.8c0,0-1.7,0-1.7-1.7c0,0,0,0,0-0.1
			c0.1-0.9,0.3-1.6,0.4-1.8c0.3-0.3,1.3-1.3,2.5-2.2c1.1-0.8,2.8-2,3.9-2.5c2.1-0.7,2-0.8,2.4-0.8c0.1,0,0.4,0,0.4,0v-0.1
			c-0.1,0-0.1,0-0.3,0c-0.5,0-0.7,0-2.9,0.8c-2.5,0.9-6.2,4.2-6.7,4.7c-0.4,0.5-0.5,3.2-0.7,5.7c0,0.4,0,0.5,0,0.7
			c0,0.5-1.2,0.9-1.7,0.9s-1.7-0.4-1.7-0.9c0-0.1,0-0.4,0-0.7c-0.1-2.5-0.3-5.1-0.7-5.7c-0.5-0.5-4.2-3.8-6.7-4.7
			c-2.1-0.8-2.4-0.8-2.9-0.8c-0.1,0-0.1,0-0.3,0v0.1c0.1,0,0.8,0,0.8,0.1c0.4,0.1,0,0,2.1,0.7c1.3,0.4,2.9,1.6,3.9,2.5
			c1.2,0.9,2.4,2,2.5,2.2c0.1,0.1,0.3,0.9,0.4,1.8c0,0,0,0,0,0.1c0,1.7-1.7,1.7-1.7,1.7h-7.8c0,0,0,0-1.2,0c-0.5,0-1.1-0.4-1.3-0.8
			c-1.2-2.2-2.1-4.9-2.6-7.9c0,0,0.3,0.9,1.2,2.1c-0.1-0.8-0.3-1.6-0.4-2.4c0,0,0.3,0.9,1.1,2.1c-0.1-0.8-0.3-1.6-0.3-2.4
			c0,0,0.3,0.9,1.1,2.1c-0.7-2.2-1.6-4.3-1.4-7.2c0,0,0.3,0.8,0.9,1.8c0-0.7-0.1-1.3-0.1-2c0,0,0.3,0.8,0.9,1.8c0-0.7-0.1-1.3,0-2
			c0,0,0.3,0.8,0.8,1.8c-0.5-1.8-1.1-3.7-0.7-5.9c0,0,0.3,0.4,0.8,1.1c0-0.4,0.1-0.8,0.1-1.2c0,0,0.3,0.4,0.7,1.1
			c0-0.4,0.1-0.8,0.1-1.2c0,0,0.1,0.4,0.7,1.1c-0.3-1.3-0.3-2.6,0.3-4.1c0,0,0.1,0.7,0.4,1.6c0.1-0.5,0.3-1.1,0.4-1.6
			c0,0,0,0.7,0.4,1.6c0.1-0.5,0.3-1.1,0.4-1.6c0,0,0,0.7,0.4,1.6c0.4-1.3,0.3-2.5,1.2-3.8c0,0,0,0.5,0.1,1.3
			c0.1-0.4,0.4-0.8,0.7-1.2c0,0,0,0.5,0.1,1.3c0.1-0.4,0.4-0.8,0.7-1.2c0,0,0,0.5,0.1,1.2c0.1-0.4,0.4-0.8,0.7-1.2
			c0,0,0,0.5,0.1,1.2c0-0.9,0.3-1.8,1.3-2.6c0,0,0,0.3,0.1,0.7c0.1-0.1,0.4-0.4,0.5-0.5c0,0,0,0.3,0.1,0.7c0.1-0.1,0.4-0.4,0.5-0.5
			c0,0,0,0.3,0.1,0.7c0.1-0.1,0.4-0.4,0.5-0.5c0,0,0,0.1,0,0.3c0.1-0.5,0.4-0.9,0.8-1.2c0,0,0,0.4,0.1,0.8c0.1-0.3,0.3-0.4,0.5-0.7
			c0,0,0,0.4,0.1,0.8c0.1-0.3,0.3-0.4,0.5-0.7c0,0,0,0.4,0.1,0.8l0.1-0.8l0.1,0.8c0.1-0.5,0.1-0.8,0.1-0.8c0.3,0.1,0.4,0.4,0.5,0.7
			c0.1-0.5,0.1-0.8,0.1-0.8c0.3,0.1,0.4,0.4,0.5,0.7c0.1-0.5,0.1-0.8,0.1-0.8c0.4,0.4,0.7,0.8,0.8,1.2c0-0.1,0-0.3,0-0.3
			c0.3,0.1,0.4,0.4,0.5,0.5c0.1-0.4,0.1-0.7,0.1-0.7c0.3,0.1,0.4,0.4,0.5,0.5c0.1-0.4,0.1-0.7,0.1-0.7c0.3,0.1,0.4,0.4,0.5,0.5
			c0.1-0.4,0.1-0.7,0.1-0.7c0.9,0.8,1.3,1.7,1.3,2.6c0.1-0.7,0.1-1.2,0.1-1.2c0.3,0.4,0.5,0.8,0.7,1.2c0.1-0.7,0.1-1.2,0.1-1.2
			c0.3,0.4,0.5,0.8,0.7,1.2c0.1-0.8,0.1-1.3,0.1-1.3c0.3,0.4,0.5,0.8,0.7,1.2c0.1-0.8,0.1-1.3,0.1-1.3c0.9,1.2,0.8,2.5,1.2,3.8
			c0.3-0.9,0.4-1.6,0.4-1.6c0.3,0.5,0.4,1.1,0.4,1.6c0.4-0.9,0.4-1.6,0.4-1.6c0.3,0.5,0.4,1.1,0.4,1.6c0.4-0.9,0.4-1.6,0.4-1.6
			c0.5,1.4,0.5,2.8,0.3,4.1c0.4-0.7,0.7-1.1,0.7-1.1c0.1,0.4,0.1,0.8,0.1,1.2c0.5-0.7,0.7-1.1,0.7-1.1c0.1,0.4,0.1,0.8,0.1,1.2
			c0.5-0.7,0.8-1.1,0.8-1.1c0.4,2.2-0.1,4.1-0.7,5.9c0.7-1.1,0.8-1.8,0.8-1.8c0,0.7,0,1.3,0,2c0.7-1.1,0.9-1.8,0.9-1.8
			c0,0.7,0,1.4-0.1,2c0.7-1.1,0.9-1.8,0.9-1.8c0.1,2.9-0.8,5-1.4,7.2c0.8-1.2,1.1-2.1,1.1-2.1c-0.1,0.8-0.1,1.6-0.3,2.4
			c0.9-1.2,1.1-2.1,1.1-2.1c-0.1,0.8-0.3,1.6-0.4,2.4c0.9-1.2,1.2-2.1,1.2-2.1c-0.5,3-1.4,5.7-2.6,7.9
			C433.5,309.3,433.1,309.7,432.6,309.7z"/>
		<path class="st13" d="M422,301.7c-0.5,0.3-0.7,1.2-0.4,1.6s1.2,0.1,1.6-0.3l0.8-0.7C423,302.1,423.3,301.2,422,301.7z"/>
		<path class="st13" d="M416.6,301.7c-1.2-0.5-0.9,0.3-2,0.7l0.8,0.7c0.4,0.4,1.3,0.7,1.6,0.3C417.3,302.9,417.2,302,416.6,301.7z"
			/>
	</g>
</g>
</svg>
