<?xml version="1.0" encoding="utf-8"?>
<!-- Generator: Adobe Illustrator 24.2.1, SVG Export Plug-In . SVG Version: 6.00 Build 0)  -->
<svg version="1.1" id="ae37f038-3a9e-4b82-ad68-fc94ba16af2a"
	 xmlns="http://www.w3.org/2000/svg" xmlns:xlink="http://www.w3.org/1999/xlink" x="0px" y="0px" viewBox="0 0 1150 800"
	 style="enable-background:new 0 0 1150 800;" xml:space="preserve">
<style type="text/css">
	.st0{fill:none;}
	.st1{opacity:0.1;}
	.st2{fill:#3F3D56;}
	.st3{fill:#F9A826;}
	.st4{opacity:0.1;enable-background:new    ;}
	.st5{opacity:0.1;fill:#F9A826;enable-background:new    ;}
	.st6{fill:none;stroke:#3F3D56;stroke-width:4;stroke-miterlimit:10;}
	.st7{fill:url(#SVGID_1_);}
	.st8{fill:#BE6F72;}
	.st9{fill:#F95858;}
	.st10{fill:url(#SVGID_4_);}
	.st11{fill:url(#SVGID_5_);}
	.st12{opacity:0.1;fill:none;stroke:#000000;stroke-miterlimit:10;enable-background:new    ;}
	.st13{fill:url(#SVGID_6_);}
	.st14{fill:#2F2E41;}
	.st15{fill:#FBBEBE;}
	.st16{fill:#E8E8F0;}
</style>
<pattern  x="27" y="687.3" width="36.9" height="49.5" patternUnits="userSpaceOnUse" id="SVGID_2_" viewBox="0 -49.5 36.9 49.5" style="overflow:visible;">
	<g>
		<rect y="-49.5" class="st0" width="36.9" height="49.5"/>
		<g>
			<rect y="-49.5" class="st0" width="36.9" height="49.5"/>
			<rect y="-49.5" class="st0" width="36.9" height="49.5"/>
			<path d="M4.3-36.3c4.5,0,4.5-7,0-7S-0.2-36.3,4.3-36.3z"/>
			<path d="M4.5-32.3c4.5,0,4.5-7,0-7S0-32.3,4.5-32.3z"/>
			<path d="M4.5-28.6c4.5,0,4.5-7,0-7S0-28.6,4.5-28.6z"/>
			<path d="M3.4-24.8c4.5,0,4.5-7,0-7S-1.1-24.8,3.4-24.8z"/>
			<path d="M1.1-21.2l0.2,0.4c1,1.7,3.1,2.2,4.8,1.3c1.6-1,2.2-3.1,1.3-4.8l-0.2-0.4c-1-1.7-3.1-2.2-4.8-1.3
				C0.7-25,0.2-22.9,1.1-21.2z"/>
			<path d="M1.5-19.4l0.2,0.6c0.3,0.9,0.8,1.6,1.6,2.1s1.8,0.6,2.7,0.3c1.9-0.5,2.9-2.4,2.4-4.3l-0.2-0.6c-0.3-0.9-0.8-1.6-1.6-2.1
				S4.8-24,3.9-23.8C2.1-23.2,1-21.3,1.5-19.4z"/>
			<path d="M1.6-15.6v0.4c0,1.9,1.6,3.5,3.5,3.5s3.5-1.6,3.5-3.5v-0.4c0-1.9-1.6-3.5-3.5-3.5C3.2-19.1,1.6-17.5,1.6-15.6z"/>
			<path d="M4.9-7.2c4.5,0,4.5-7,0-7S0.4-7.2,4.9-7.2z"/>
			<path d="M1.8-7.5v0.2c0,1.9,1.6,3.5,3.5,3.5s3.5-1.6,3.5-3.5v-0.2c0-1.9-1.6-3.5-3.5-3.5S1.8-9.4,1.8-7.5z"/>
			<path d="M6-0.2c4.5,0,4.5-7,0-7S1.5-0.2,6-0.2z"/>
			<path d="M10-35.4c4.5,0,4.5-7,0-7S5.5-35.4,10-35.4z"/>
			<path d="M6.6-28.6c4.5,0,4.5-7,0-7S2.1-28.6,6.6-28.6z"/>
			<path d="M8.5-22.5c4.5,0,4.5-7,0-7S4-22.5,8.5-22.5z"/>
			<path d="M8.5-20.2c4.5,0,4.5-7,0-7S4-20.2,8.5-20.2z"/>
			<path d="M14.9-15.7c4.5,0,4.5-7,0-7S10.4-15.7,14.9-15.7z"/>
			<path d="M9.8-11c4.5,0,4.5-7,0-7S5.3-11,9.8-11z"/>
			<path d="M10.6-4.4c4.5,0,4.5-7,0-7S6.1-4.4,10.6-4.4z"/>
			<path d="M10.6,0c4.5,0,4.5-7,0-7S6.1,0,10.6,0z"/>
			<path d="M12.8-31.4c2.6,0,2.6-4,0-4S10.3-31.4,12.8-31.4z"/>
			<path d="M13-29.1c2.6,0,2.6-4,0-4S10.4-29.1,13-29.1z"/>
			<path d="M13.1-28.5v0.2c0,1.1,0.9,2,2,2s2-0.9,2-2v-0.2c0-1.1-0.9-2-2-2S13.1-29.6,13.1-28.5z"/>
			<path d="M15.1-23.6c2.6,0,2.6-4,0-4S12.5-23.6,15.1-23.6z"/>
			<path d="M16.6-38.4c0.6,0,1-0.4,1-1c0-0.6-0.4-1-1-1s-1,0.4-1,1C15.6-38.8,16.1-38.4,16.6-38.4z"/>
			<path d="M21.7-33c0.6,0,1-0.4,1-1s-0.4-1-1-1s-1,0.4-1,1S21.2-33,21.7-33z"/>
			<path d="M16.9-40.6V-41c0-0.6-0.4-1-1-1s-1,0.4-1,1v0.4c0,0.6,0.4,1,1,1C16.4-39.6,16.9-40,16.9-40.6z"/>
			<path d="M16.5-44.7v-0.2c0-0.6-0.4-1-1-1s-1,0.4-1,1v0.2c0,0.6,0.4,1,1,1C16-43.7,16.5-44.2,16.5-44.7z"/>
			<path d="M15.5-47.5c0.6,0,1-0.4,1-1s-0.4-1-1-1s-1,0.4-1,1S14.9-47.5,15.5-47.5z"/>
			<path d="M10.6-47.5c0.6,0,1-0.4,1-1s-0.4-1-1-1s-1,0.4-1,1S10-47.5,10.6-47.5z"/>
			<path d="M10.4-44.8c0.6,0,1-0.4,1-1c0-0.6-0.4-1-1-1s-1,0.4-1,1C9.4-45.2,9.8-44.8,10.4-44.8z"/>
			<path d="M7.4-43.3c0.6,0,1-0.4,1-1c0-0.6-0.4-1-1-1s-1,0.4-1,1C6.4-43.7,6.8-43.3,7.4-43.3z"/>
			<path d="M11.9-42.4h0.4c0.6,0,1-0.4,1-1c0-0.6-0.4-1-1-1h-0.4c-0.6,0-1,0.4-1,1C10.9-42.8,11.3-42.4,11.9-42.4z"/>
			<path d="M13.3-38.5l0.6,1.3c0.3,0.5,0.9,0.6,1.4,0.4l0,0c0.5-0.3,0.6-0.9,0.4-1.4l0,0L15-39.5c-0.3-0.5-0.9-0.6-1.4-0.4l0,0
				C13.2-39.6,13-39,13.3-38.5z"/>
			<path d="M18.4-30.2v0.2c0,0.6,0.4,1,1,1s1-0.4,1-1v-0.2c0-0.6-0.4-1-1-1S18.4-30.7,18.4-30.2z"/>
			<path d="M20.7-24.6l0.2,0.4c0.6,1.1,2.3,0.1,1.7-1l-0.2-0.4C21.8-26.7,20.1-25.7,20.7-24.6z"/>
			<path d="M22.1-20.1c-0.5,0.5-0.8,1.1-0.8,1.9c0,0.6,0.4,1,1,1s1-0.4,1-1c0-0.2,0.1-0.3,0.3-0.4c0.4-0.4,0.4-1,0-1.4l0,0
				C23.2-20.5,22.5-20.5,22.1-20.1z"/>
			<path d="M20.3-16.1l-0.5,1.7c-0.4,1.2,1.5,1.8,1.9,0.5l0.5-1.7C22.6-16.8,20.7-17.3,20.3-16.1z"/>
			<path d="M19.4-12.5h-0.2c-0.6,0-1,0.4-1,1s0.4,1,1,1h0.2c0.6,0,1-0.4,1-1S20-12.5,19.4-12.5z"/>
			<path d="M17.6-8l-0.2,0.4c-0.6,1.2,1.1,2.2,1.7,1L19.3-7C19.9-8.2,18.2-9.2,17.6-8z"/>
			<path d="M15.8-1.6V-1c0,0.6,0.4,1,1,1c0.6,0,1-0.4,1-1v-0.6c0-0.6-0.4-1-1-1S15.8-2.2,15.8-1.6z"/>
			<path d="M14.3-0.1c0.6,0,1-0.4,1-1s-0.4-1-1-1s-1,0.4-1,1S13.8-0.1,14.3-0.1z"/>
			<path d="M14.3-8.2c0.6,0,1-0.4,1-1s-0.4-1-1-1s-1,0.4-1,1S13.8-8.2,14.3-8.2z"/>
			<path d="M17.1-13c0.6-0.3,1-1,1-1.6s-0.4-1-1-1s-1,0.4-1,1c0-0.1,0.2-0.2,0-0.1C15-14.2,16-12.5,17.1-13z"/>
			<path d="M17.4-18.2c0.6,0,1-0.4,1-1s-0.4-1-1-1s-1,0.4-1,1S16.8-18.2,17.4-18.2z"/>
			<path d="M18.1-21c0.6,0,1-0.4,1-1s-0.4-1-1-1s-1,0.4-1,1S17.6-21,18.1-21z"/>
			<path d="M19-24.6l0.2-0.4c0.6-1.1-1.1-2.2-1.7-1l-0.2,0.4C16.7-24.4,18.4-23.4,19-24.6z"/>
			<path d="M17.9-33.5c0.6,0,1-0.4,1-1s-0.4-1-1-1s-1,0.4-1,1S17.4-33.5,17.9-33.5z"/>
			<path d="M24.6-33.5l0.6,0.9c0.3,0.4,1,0.5,1.4,0.2c0.4-0.3,0.5-0.8,0.3-1.2l-0.6-1c-0.3-0.5-0.9-0.6-1.4-0.3
				C24.6-34.5,24.4-34,24.6-33.5L24.6-33.5z"/>
			<path d="M34.9-19.8v0.2c0,0.6,0.4,1,1,1s1-0.4,1-1v-0.2c0-0.6-0.4-1-1-1S34.9-20.3,34.9-19.8z"/>
			<path d="M24-10.3c0.6,0,1-0.4,1-1s-0.4-1-1-1s-1,0.4-1,1S23.5-10.3,24-10.3z"/>
			<path d="M22.9-20.5c0.6,0,1-0.4,1-1s-0.4-1-1-1s-1,0.4-1,1S22.3-20.5,22.9-20.5z"/>
			<path d="M18.2-27.6l0.6-0.6c0.9-0.9-0.5-2.3-1.4-1.4L16.8-29C15.9-28.1,17.3-26.7,18.2-27.6z"/>
		</g>
	</g>
</pattern>
<pattern  x="27" y="687.3" width="36.9" height="49.5" patternUnits="userSpaceOnUse" id="SVGID_3_" viewBox="0 -49.5 36.9 49.5" style="overflow:visible;">
	<g>
		<rect y="-49.5" class="st0" width="36.9" height="49.5"/>
		<g>
			<rect y="-49.5" class="st0" width="36.9" height="49.5"/>
			<rect y="-49.5" class="st0" width="36.9" height="49.5"/>
			<path d="M4.3-36.3c4.5,0,4.5-7,0-7S-0.2-36.3,4.3-36.3z"/>
			<path d="M4.5-32.3c4.5,0,4.5-7,0-7S0-32.3,4.5-32.3z"/>
			<path d="M4.5-28.6c4.5,0,4.5-7,0-7S0-28.6,4.5-28.6z"/>
			<path d="M3.4-24.8c4.5,0,4.5-7,0-7S-1.1-24.8,3.4-24.8z"/>
			<path d="M1.1-21.2l0.2,0.4c1,1.7,3.1,2.2,4.8,1.3c1.6-1,2.2-3.1,1.3-4.8l-0.2-0.4c-1-1.7-3.1-2.2-4.8-1.3
				C0.7-25,0.2-22.9,1.1-21.2z"/>
			<path d="M1.5-19.4l0.2,0.6c0.3,0.9,0.8,1.6,1.6,2.1s1.8,0.6,2.7,0.3c1.9-0.5,2.9-2.4,2.4-4.3l-0.2-0.6c-0.3-0.9-0.8-1.6-1.6-2.1
				S4.8-24,3.9-23.8C2.1-23.2,1-21.3,1.5-19.4z"/>
			<path d="M1.6-15.6v0.4c0,1.9,1.6,3.5,3.5,3.5s3.5-1.6,3.5-3.5v-0.4c0-1.9-1.6-3.5-3.5-3.5C3.2-19.1,1.6-17.5,1.6-15.6z"/>
			<path d="M4.9-7.2c4.5,0,4.5-7,0-7S0.4-7.2,4.9-7.2z"/>
			<path d="M1.8-7.5v0.2c0,1.9,1.6,3.5,3.5,3.5s3.5-1.6,3.5-3.5v-0.2c0-1.9-1.6-3.5-3.5-3.5S1.8-9.4,1.8-7.5z"/>
			<path d="M6-0.2c4.5,0,4.5-7,0-7S1.5-0.2,6-0.2z"/>
			<path d="M10-35.4c4.5,0,4.5-7,0-7S5.5-35.4,10-35.4z"/>
			<path d="M6.6-28.6c4.5,0,4.5-7,0-7S2.1-28.6,6.6-28.6z"/>
			<path d="M8.5-22.5c4.5,0,4.5-7,0-7S4-22.5,8.5-22.5z"/>
			<path d="M8.5-20.2c4.5,0,4.5-7,0-7S4-20.2,8.5-20.2z"/>
			<path d="M14.9-15.7c4.5,0,4.5-7,0-7S10.4-15.7,14.9-15.7z"/>
			<path d="M9.8-11c4.5,0,4.5-7,0-7S5.3-11,9.8-11z"/>
			<path d="M10.6-4.4c4.5,0,4.5-7,0-7S6.1-4.4,10.6-4.4z"/>
			<path d="M10.6,0c4.5,0,4.5-7,0-7S6.1,0,10.6,0z"/>
			<path d="M12.8-31.4c2.6,0,2.6-4,0-4S10.3-31.4,12.8-31.4z"/>
			<path d="M13-29.1c2.6,0,2.6-4,0-4S10.4-29.1,13-29.1z"/>
			<path d="M13.1-28.5v0.2c0,1.1,0.9,2,2,2s2-0.9,2-2v-0.2c0-1.1-0.9-2-2-2S13.1-29.6,13.1-28.5z"/>
			<path d="M15.1-23.6c2.6,0,2.6-4,0-4S12.5-23.6,15.1-23.6z"/>
			<path d="M16.6-38.4c0.6,0,1-0.4,1-1c0-0.6-0.4-1-1-1s-1,0.4-1,1C15.6-38.8,16.1-38.4,16.6-38.4z"/>
			<path d="M21.7-33c0.6,0,1-0.4,1-1s-0.4-1-1-1s-1,0.4-1,1S21.2-33,21.7-33z"/>
			<path d="M16.9-40.6V-41c0-0.6-0.4-1-1-1s-1,0.4-1,1v0.4c0,0.6,0.4,1,1,1C16.4-39.6,16.9-40,16.9-40.6z"/>
			<path d="M16.5-44.7v-0.2c0-0.6-0.4-1-1-1s-1,0.4-1,1v0.2c0,0.6,0.4,1,1,1C16-43.7,16.5-44.2,16.5-44.7z"/>
			<path d="M15.5-47.5c0.6,0,1-0.4,1-1s-0.4-1-1-1s-1,0.4-1,1S14.9-47.5,15.5-47.5z"/>
			<path d="M10.6-47.5c0.6,0,1-0.4,1-1s-0.4-1-1-1s-1,0.4-1,1S10-47.5,10.6-47.5z"/>
			<path d="M10.4-44.8c0.6,0,1-0.4,1-1c0-0.6-0.4-1-1-1s-1,0.4-1,1C9.4-45.2,9.8-44.8,10.4-44.8z"/>
			<path d="M7.4-43.3c0.6,0,1-0.4,1-1c0-0.6-0.4-1-1-1s-1,0.4-1,1C6.4-43.7,6.8-43.3,7.4-43.3z"/>
			<path d="M11.9-42.4h0.4c0.6,0,1-0.4,1-1c0-0.6-0.4-1-1-1h-0.4c-0.6,0-1,0.4-1,1C10.9-42.8,11.3-42.4,11.9-42.4z"/>
			<path d="M13.3-38.5l0.6,1.3c0.3,0.5,0.9,0.6,1.4,0.4l0,0c0.5-0.3,0.6-0.9,0.4-1.4l0,0L15-39.5c-0.3-0.5-0.9-0.6-1.4-0.4l0,0
				C13.2-39.6,13-39,13.3-38.5z"/>
			<path d="M18.4-30.2v0.2c0,0.6,0.4,1,1,1s1-0.4,1-1v-0.2c0-0.6-0.4-1-1-1S18.4-30.7,18.4-30.2z"/>
			<path d="M20.7-24.6l0.2,0.4c0.6,1.1,2.3,0.1,1.7-1l-0.2-0.4C21.8-26.7,20.1-25.7,20.7-24.6z"/>
			<path d="M22.1-20.1c-0.5,0.5-0.8,1.1-0.8,1.9c0,0.6,0.4,1,1,1s1-0.4,1-1c0-0.2,0.1-0.3,0.3-0.4c0.4-0.4,0.4-1,0-1.4l0,0
				C23.2-20.5,22.5-20.5,22.1-20.1z"/>
			<path d="M20.3-16.1l-0.5,1.7c-0.4,1.2,1.5,1.8,1.9,0.5l0.5-1.7C22.6-16.8,20.7-17.3,20.3-16.1z"/>
			<path d="M19.4-12.5h-0.2c-0.6,0-1,0.4-1,1s0.4,1,1,1h0.2c0.6,0,1-0.4,1-1S20-12.5,19.4-12.5z"/>
			<path d="M17.6-8l-0.2,0.4c-0.6,1.2,1.1,2.2,1.7,1L19.3-7C19.9-8.2,18.2-9.2,17.6-8z"/>
			<path d="M15.8-1.6V-1c0,0.6,0.4,1,1,1c0.6,0,1-0.4,1-1v-0.6c0-0.6-0.4-1-1-1S15.8-2.2,15.8-1.6z"/>
			<path d="M14.3-0.1c0.6,0,1-0.4,1-1s-0.4-1-1-1s-1,0.4-1,1S13.8-0.1,14.3-0.1z"/>
			<path d="M14.3-8.2c0.6,0,1-0.4,1-1s-0.4-1-1-1s-1,0.4-1,1S13.8-8.2,14.3-8.2z"/>
			<path d="M17.1-13c0.6-0.3,1-1,1-1.6s-0.4-1-1-1s-1,0.4-1,1c0-0.1,0.2-0.2,0-0.1C15-14.2,16-12.5,17.1-13z"/>
			<path d="M17.4-18.2c0.6,0,1-0.4,1-1s-0.4-1-1-1s-1,0.4-1,1S16.8-18.2,17.4-18.2z"/>
			<path d="M18.1-21c0.6,0,1-0.4,1-1s-0.4-1-1-1s-1,0.4-1,1S17.6-21,18.1-21z"/>
			<path d="M19-24.6l0.2-0.4c0.6-1.1-1.1-2.2-1.7-1l-0.2,0.4C16.7-24.4,18.4-23.4,19-24.6z"/>
			<path d="M17.9-33.5c0.6,0,1-0.4,1-1s-0.4-1-1-1s-1,0.4-1,1S17.4-33.5,17.9-33.5z"/>
			<path d="M24.6-33.5l0.6,0.9c0.3,0.4,1,0.5,1.4,0.2c0.4-0.3,0.5-0.8,0.3-1.2l-0.6-1c-0.3-0.5-0.9-0.6-1.4-0.3
				C24.6-34.5,24.4-34,24.6-33.5L24.6-33.5z"/>
			<path d="M34.9-19.8v0.2c0,0.6,0.4,1,1,1s1-0.4,1-1v-0.2c0-0.6-0.4-1-1-1S34.9-20.3,34.9-19.8z"/>
			<path d="M24-10.3c0.6,0,1-0.4,1-1s-0.4-1-1-1s-1,0.4-1,1S23.5-10.3,24-10.3z"/>
			<path d="M22.9-20.5c0.6,0,1-0.4,1-1s-0.4-1-1-1s-1,0.4-1,1S22.3-20.5,22.9-20.5z"/>
			<path d="M18.2-27.6l0.6-0.6c0.9-0.9-0.5-2.3-1.4-1.4L16.8-29C15.9-28.1,17.3-26.7,18.2-27.6z"/>
		</g>
	</g>
</pattern>
<g>
	<g class="st1">
		<ellipse class="st2" cx="503" cy="544.3" rx="12" ry="15.6"/>
		<path class="st2" d="M512.5,477.5c1.7-2.9,2.5-6.2,2.5-9.5c0-8.6-5.3-15.6-12-15.6c-6.6,0-12,6.9-12,15.6c0,3.4,0.8,6.6,2.5,9.5
			c-3.4,6-3.4,13.2,0,19.1c-3.4,6-3.4,13.2,0,19.1c-1.7,2.9-2.5,6.2-2.5,9.5c0,8.6,5.3,15.6,12,15.6c6.6,0,12-7,12-15.6
			c0-3.4-0.8-6.6-2.5-9.5c3.4-6,3.4-13.2,0-19.1C515.8,490.6,515.8,483.4,512.5,477.5L512.5,477.5z"/>
		<ellipse class="st2" cx="503" cy="448.9" rx="12" ry="15.6"/>
		<ellipse class="st2" cx="503" cy="429.8" rx="12" ry="15.6"/>
		<path class="st3" d="M458.3,299c-1.7-2.1-3.1-4.3-4.4-6.5l31.4-5.1l-33.9,0.2c-6.6-14.4-6.9-30.7-1-45.3l45.5,23.6l-42-30.8
			c15.6-27.5,50.6-37,78-21.4s37,50.6,21.4,78c-1.5,2.6-3.1,5-5,7.4c2.5,3.3,4.7,6.7,6.5,10.4l-40.7,21.2l43.4-14.6
			c6.2,18.4,2.7,38.5-9.2,53.7c19.5,24.9,15.2,60.7-9.5,80.4c-24.9,19.5-60.7,15.2-80.4-9.5c-16.4-20.8-16.4-49.9,0-70.7
			C442.1,349,442.1,319.7,458.3,299L458.3,299z"/>
		<path class="st4" d="M560.5,334.3c0,12.8-4.3,25.3-12.3,35.4c19.5,24.9,15.2,60.7-9.5,80.4c-24.9,19.5-60.7,15.2-80.4-9.5
			c-16.4-20.8-16.4-49.9,0-70.7C450.7,360,560.5,327.9,560.5,334.3z"/>
	</g>
	<g class="st1">
		<ellipse class="st2" cx="642.5" cy="511" rx="8.9" ry="11.6"/>
		<path class="st2" d="M649.5,460.9c1.3-2.2,1.9-4.6,1.9-7.1c0-6.4-4-11.6-8.9-11.6c-4.9,0-8.9,5.2-8.9,11.6c0,2.5,0.6,4.9,1.9,7.1
			c-2.5,4.4-2.5,9.9,0,14.3c-2.5,4.4-2.5,9.9,0,14.3c-1.3,2.2-1.9,4.6-1.9,7.1c0,6.4,4,11.6,8.9,11.6c4.9,0,8.9-5.2,8.9-11.6
			c0-2.5-0.6-4.9-1.9-7.1c2.5-4.4,2.5-9.9,0-14.3C652,470.8,652,465.4,649.5,460.9z"/>
		<ellipse class="st2" cx="642.5" cy="439.5" rx="8.9" ry="11.6"/>
		<ellipse class="st2" cx="642.5" cy="425.3" rx="8.9" ry="11.6"/>
		<path class="st3" d="M609,327.6c-1.3-1.6-2.3-3.1-3.4-4.9l23.4-3.9l-25.4,0.2c-4.9-10.7-5.2-23-0.8-33.9l34,17.6l-31.4-23.1
			c11.7-20.5,38-27.5,58.4-15.7c20.5,11.7,27.5,38,15.7,58.4c-1,1.8-2.2,3.5-3.5,5.1c1.9,2.4,3.6,5,4.9,7.8l-30.4,15.8l32.4-10.9
			c4.6,13.6,2,28.7-6.9,40.2c14.6,18.6,11.4,45.4-7.1,60c-18.6,14.6-45.4,11.4-60-7.1c-12.3-15.5-12.3-37.3,0-52.9
			C596.9,365,596.9,343.1,609,327.6L609,327.6z"/>
		<path class="st4" d="M685.4,354c0,9.5-3.3,18.9-9.1,26.4c14.6,18.6,11.4,45.4-7.1,60c-18.6,14.6-45.4,11.4-60-7.1
			c-12.3-15.5-12.3-37.3,0-52.9C603.3,373.1,685.4,349.2,685.4,354z"/>
	</g>
	<g class="st1">
		<ellipse class="st2" cx="1089.6" cy="502.4" rx="12" ry="15.6"/>
		<path class="st2" d="M1080.2,435.6c-1.7-2.9-2.5-6.2-2.5-9.5c0-8.6,5.3-15.6,12-15.6c6.6,0,12,7,12,15.6c0,3.4-0.8,6.6-2.5,9.5
			c3.4,6,3.4,13.2,0,19.1c3.4,6,3.4,13.2,0,19.1c1.7,2.9,2.5,6.2,2.5,9.5c0,8.6-5.3,15.6-12,15.6c-6.6,0-12-7-12-15.6
			c0-3.4,0.8-6.6,2.5-9.5c-3.4-6-3.4-13.2,0-19.1C1076.8,448.7,1076.8,441.4,1080.2,435.6z"/>
		<ellipse class="st2" cx="1089.6" cy="406.9" rx="12" ry="15.6"/>
		<ellipse class="st2" cx="1089.6" cy="387.8" rx="12" ry="15.6"/>
		<path class="st3" d="M1134.3,257c1.7-2.1,3.1-4.3,4.4-6.5l-31.4-5.1l33.9,0.2c6.6-14.4,6.9-30.7,1-45.3l-45.5,23.6l42-30.8
			c-15.6-27.5-50.6-37-78-21.4c-27.5,15.6-37,50.6-21.4,78c1.5,2.6,3.1,5,5,7.4c-2.5,3.3-4.7,6.7-6.5,10.4l40.7,21.2l-43.4-14.6
			c-6.2,18.4-2.7,38.5,9.2,53.7c-19.5,24.9-15.2,60.7,9.5,80.4c24.8,19.6,60.7,15.2,80.4-9.5c16.4-20.8,16.4-49.9,0-70.7
			C1150.6,307,1150.6,277.8,1134.3,257L1134.3,257z"/>
		<path class="st4" d="M1032.2,292.4c0,12.8,4.3,25.3,12.3,35.4c-19.5,24.9-15.2,60.7,9.5,80.4c24.8,19.6,60.7,15.2,80.4-9.5
			c16.4-20.8,16.4-49.9,0-70.7C1142,318.1,1032.2,286,1032.2,292.4z"/>
	</g>
	<g class="st1">
		<ellipse class="st2" cx="974.4" cy="504.7" rx="8.9" ry="11.6"/>
		<path class="st2" d="M967.3,454.6c-1.3-2.2-1.9-4.6-1.9-7.1c0-6.4,4-11.6,8.9-11.6s8.9,5.2,8.9,11.6c0,2.5-0.6,4.9-1.9,7.1
			c2.5,4.4,2.5,9.9,0,14.3c2.5,4.4,2.5,9.9,0,14.3c1.3,2.2,1.9,4.6,1.9,7.1c0,6.4-4,11.6-8.9,11.6s-8.9-5.2-8.9-11.6
			c0-2.5,0.6-4.9,1.9-7.1c-2.5-4.4-2.5-9.9,0-14.3C964.8,464.5,964.8,459.2,967.3,454.6z"/>
		<ellipse class="st2" cx="974.4" cy="433.2" rx="8.9" ry="11.6"/>
		<ellipse class="st2" cx="974.4" cy="419" rx="8.9" ry="11.6"/>
		<path class="st3" d="M1007.8,321.3c1.3-1.6,2.3-3.1,3.4-4.9l-23.4-3.9l25.4,0.2c4.9-10.7,5.2-23,0.8-33.9l-34,17.6l31.4-23.1
			c-11.7-20.5-38-27.5-58.4-15.7c-20.5,11.7-27.5,38-15.7,58.4c1,1.8,2.2,3.5,3.5,5.1c-1.9,2.4-3.6,5-4.9,7.8l30.4,15.8L933.8,334
			c-4.6,13.6-2,28.7,6.9,40.2c-14.6,18.6-11.4,45.4,7.1,60c18.6,14.6,45.4,11.4,60-7.1c12.3-15.5,12.3-37.3,0-52.9
			C1020,358.7,1020,336.8,1007.8,321.3L1007.8,321.3z"/>
		<path class="st4" d="M931.5,347.7c0,9.5,3.3,18.9,9.1,26.4c-14.6,18.6-11.4,45.4,7.1,60c18.6,14.6,45.4,11.4,60-7.1
			c12.3-15.5,12.3-37.3,0-52.9C1013.5,366.8,931.5,342.9,931.5,347.7z"/>
	</g>
	<g class="st1">
		<ellipse class="st2" cx="64.8" cy="502.4" rx="12" ry="15.6"/>
		<path class="st2" d="M74.2,435.6c1.7-2.9,2.5-6.2,2.5-9.5c0-8.6-5.3-15.6-12-15.6s-12,7-12,15.6c0,3.4,0.8,6.6,2.5,9.5
			c-3.4,6-3.4,13.2,0,19.1c-3.4,6-3.4,13.2,0,19.1c-1.7,2.9-2.5,6.2-2.5,9.5c0,8.6,5.3,15.6,12,15.6s12-7,12-15.6
			c0-3.4-0.8-6.6-2.5-9.5c3.4-6,3.4-13.2,0-19.1C77.6,448.7,77.6,441.4,74.2,435.6L74.2,435.6z"/>
		<ellipse class="st2" cx="64.8" cy="406.9" rx="12" ry="15.6"/>
		<ellipse class="st2" cx="64.8" cy="387.8" rx="12" ry="15.6"/>
		<path class="st3" d="M20.1,257c-1.7-2.1-3.1-4.3-4.4-6.5l31.4-5.1l-34,0.3c-6.6-14.4-6.9-30.7-1-45.3L57.5,224l-42-30.8
			c15.6-27.5,50.7-36.9,78-21.3s36.9,50.7,21.3,78c-1.5,2.5-3,4.9-4.9,7.2c2.5,3.3,4.7,6.7,6.5,10.4l-40.7,21.2l43.4-14.6
			c6.2,18.4,2.7,38.5-9.2,53.7c19.5,24.9,15.2,60.7-9.5,80.4c-24.8,19.6-60.7,15.2-80.4-9.5c-16.4-20.8-16.4-49.9,0-70.7
			C3.7,307,3.7,277.8,20.1,257L20.1,257z"/>
		<path class="st4" d="M122.2,292.4c0,12.8-4.3,25.3-12.3,35.4c19.5,24.9,15.2,60.7-9.5,80.4c-24.8,19.6-60.7,15.2-80.4-9.5
			c-16.4-20.8-16.4-49.9,0-70.7C12.4,318.1,122.2,286,122.2,292.4z"/>
	</g>
	<g class="st1">
		<ellipse class="st2" cx="179.9" cy="504.7" rx="8.9" ry="11.6"/>
		<path class="st2" d="M187.1,454.6c1.3-2.2,1.9-4.6,1.9-7.1c0-6.4-4-11.6-8.9-11.6s-8.9,5.2-8.9,11.6c0,2.5,0.6,4.9,1.9,7.1
			c-2.5,4.4-2.5,9.9,0,14.3c-2.5,4.4-2.5,9.9,0,14.3c-1.3,2.2-1.9,4.6-1.9,7.1c0,6.4,4,11.6,8.9,11.6s8.9-5.2,8.9-11.6
			c0-2.5-0.6-4.9-1.9-7.1c2.5-4.4,2.5-9.9,0-14.3C189.5,464.5,189.5,459.2,187.1,454.6z"/>
		<ellipse class="st2" cx="179.9" cy="433.2" rx="8.9" ry="11.6"/>
		<ellipse class="st2" cx="179.9" cy="419" rx="8.9" ry="11.6"/>
		<path class="st3" d="M146.6,321.3c-1.3-1.6-2.3-3.1-3.4-4.9l23.5-3.9l-25.4,0.2c-4.9-10.7-5.2-23-0.8-33.9l34,17.6l-31.4-23.1
			c11.7-20.5,38-27.5,58.4-15.6c20.5,11.7,27.5,38,15.6,58.4c-1,1.8-2.2,3.5-3.5,5.1c1.9,2.4,3.6,5,4.8,7.8l-30.4,15.8l32.4-10.9
			c4.6,13.6,2,28.7-6.9,40.2c14.6,18.6,11.4,45.4-7.1,60c-18.6,14.6-45.4,11.4-60-7.1c-12.3-15.5-12.3-37.3,0-52.9
			C134.4,358.7,134.4,336.8,146.6,321.3L146.6,321.3z"/>
		<path class="st4" d="M223,347.7c0,9.5-3.3,18.9-9.1,26.4c14.6,18.6,11.4,45.4-7.1,60c-18.6,14.6-45.4,11.4-60-7.1
			c-12.3-15.5-12.3-37.3,0-52.9C140.8,366.8,223,342.9,223,347.7z"/>
	</g>
	<ellipse class="st5" cx="575" cy="681.8" rx="574.9" ry="9.3"/>
	<ellipse class="st5" cx="575" cy="758.1" rx="574.9" ry="9.3"/>
	<ellipse class="st5" cx="575" cy="522.5" rx="574.9" ry="9.3"/>
	<ellipse class="st5" cx="575" cy="602.1" rx="574.9" ry="9.3"/>
	<path class="st5" d="M848.6,280.3c-3.8-0.7-7.7-0.3-11.1,1.3c-4.3,1.9-9.1,1.9-13.3,0c-5-2.2-10.8-2.1-15.7,0.3
		c-1.4,0.7-2.9,1.2-4.5,1.2c-6.4,0-11.6-6.4-12.8-14.9c1.3-0.9,2.3-2.1,3.1-3.5c3.8-6,9.5-9.9,16-9.9s12.2,3.8,15.9,9.8
		c2.3,3.7,6.3,5.9,10.6,5.8h0.2C842.1,270.2,846.5,274.3,848.6,280.3z"/>
	<path class="st5" d="M868,253.7l-10.3,6.5l6.3-11.3c-1.8-1.4-4-2.2-6.2-2.2h-0.2c-0.7,0-1.4,0-2.1-0.1l-3.6,2.2l1.5-2.7
		c-2.5-0.8-4.6-2.5-6.1-4.6l-6.3,4l4-7.1c-3.7-4.4-8.6-7-14-7c-6.5,0-12.3,3.9-16,9.9c-2.2,3.7-6.3,5.9-10.6,5.7h-0.3
		c-7.1,0-13,8.2-13,18.1c0,10.1,5.8,18.1,13,18.1c1.6,0,3.1-0.4,4.5-1.2c4.9-2.4,10.7-2.5,15.7-0.3c4.3,1.9,9.1,1.9,13.3,0
		c5-2.2,10.7-2.1,15.6,0.3c1.4,0.7,2.9,1.2,4.5,1.2c7.1,0,13-8.2,13-18.1C870.7,260.9,869.8,257.1,868,253.7z"/>
	<path class="st5" d="M410.6,274.6c-2.6-0.5-5.3-0.2-7.8,0.8c-2.9,1.4-6.4,1.4-9.3,0c-3.6-1.6-7.6-1.5-11,0.2
		c-0.9,0.5-2.1,0.7-3.1,0.8c-4.5,0-8.2-4.5-8.9-10.4c0.8-0.6,1.7-1.5,2.2-2.4c2.6-4.2,6.7-6.9,11.2-6.9c4.5,0,8.5,2.7,11.1,6.8
		c1.6,2.5,4.4,4.1,7.4,4.1h0.1C406,267.6,409,270.4,410.6,274.6z"/>
	<path class="st5" d="M424.2,256l-7.2,4.6l4.4-8c-1.3-0.9-2.7-1.6-4.3-1.6h-0.1c-0.5,0-1,0-1.5-0.1l-2.4,1.6l1-1.9
		c-1.8-0.6-3.3-1.8-4.3-3.3l-4.4,2.7l2.7-5c-2.3-3-6-4.8-9.8-4.9c-4.5,0-8.6,2.7-11.2,6.9c-1.6,2.5-4.4,4.1-7.4,4h-0.2
		c-5,0-9.1,5.7-9.1,12.7s4.1,12.7,9.1,12.7c1,0,2.2-0.3,3.1-0.8c3.5-1.7,7.4-1.8,11-0.2c1.5,0.6,3,1,4.7,1c1.6,0,3.1-0.3,4.6-0.9
		c3.5-1.5,7.4-1.5,10.9,0.2c0.9,0.5,2.1,0.7,3.1,0.7c5,0,9.1-5.7,9.1-12.7C426.1,261.1,425.4,258.4,424.2,256z"/>
	<path class="st5" d="M283,356.9c2.6-0.5,5.3-0.2,7.8,0.8c2.9,1.4,6.4,1.4,9.3,0c3.6-1.6,7.6-1.5,11,0.2c0.9,0.5,2.1,0.8,3.1,0.8
		c4.5,0,8.2-4.5,8.9-10.4c-0.8-0.6-1.7-1.5-2.2-2.4c-2.6-4.2-6.7-6.9-11.2-6.9s-8.5,2.6-11.1,6.8c-1.6,2.5-4.4,4.1-7.4,4.1H291
		C287.5,349.8,284.4,352.7,283,356.9z"/>
	<path class="st5" d="M269.3,338.3l7.2,4.6l-4.4-8c1.3-0.9,2.7-1.6,4.4-1.6h0.1c0.5,0,1,0,1.5-0.1l2.4,1.6l-1-1.9
		c1.7-0.6,3.3-1.8,4.3-3.3l4.4,2.7l-2.7-5c2.3-3,6-4.8,9.8-4.9c4.5,0,8.6,2.7,11.2,6.9c1.6,2.5,4.4,4.1,7.4,4h0.2
		c5,0,9.1,5.7,9.1,12.7s-4.1,12.7-9.1,12.7c-1,0-2.2-0.3-3.1-0.8c-3.5-1.7-7.4-1.8-11-0.2c-1.5,0.6-3,1-4.7,1
		c-1.6,0-3.1-0.3-4.6-0.9c-3.5-1.5-7.4-1.5-10.9,0.2c-0.9,0.5-2.1,0.7-3.1,0.7c-5,0-9.1-5.7-9.1-12.7
		C267.4,343.3,268.1,340.7,269.3,338.3z"/>
	<path class="st6" d="M697,678.8c2.7-5-0.3-11.3-4-15.8c-3.7-4.5-8-9.2-7.9-15c0.1-8.3,8.9-13.2,15.9-17.5
		c5.2-3.3,10.1-7.1,14.4-11.5c1.8-1.7,3.3-3.7,4.4-5.9c1.5-3.3,1.4-6.9,1.4-10.5c-0.3-11.9-0.8-23.6-1.8-35.5"/>
	<path class="st3" d="M732.9,566.5c-0.2-4.4-2.6-8.4-6.5-10.6l-2.9,5.8l0.1-6.9c-6.8-2-14.1,1.9-16,8.7c-2,6.8,1.9,14.1,8.7,16
		c6.8,2,14.1-1.9,16-8.7C732.7,569.4,732.9,567.9,732.9,566.5z"/>
	<path class="st3" d="M709.8,653.9c-3.3,6.3-11,8.8-17.4,5.6c-4.1-2.1-6.7-6.2-7-10.8c-0.1-1.8,0.2-3.6,0.8-5.2
		c2.6-6.6,10.1-10,16.8-7.3c3.4,1.4,6.1,4.1,7.3,7.4l-8.1,6.6l8.9-2.1C711.2,650.1,710.7,652.1,709.8,653.9z"/>
	<path class="st3" d="M703.4,628.8c-7.1,0.3-13.2-5.1-13.5-12.3c-0.3-6,3.7-11.4,9.4-13l-0.1,5.3l2.9-5.8l0,0
		c7.1-0.3,13.2,5.1,13.5,12.3S710.5,628.5,703.4,628.8L703.4,628.8z"/>
	<path class="st3" d="M734.8,608c-7.1,0.4-13.2-5.1-13.5-12.3c-0.4-7.1,5.1-13.2,12.3-13.5c2.4-0.1,4.9,0.4,7,1.7l-2.3,6.3l4.6-4.6
		c5.2,4.8,5.6,13,0.8,18.3C741.4,606.3,738.1,607.8,734.8,608L734.8,608z"/>
	<path class="st4" d="M731.1,569.9c-2.9,0.3-5.9,1.3-8.9,1.5s-6.3-0.5-8.2-2.8c-0.8-1.4-1.7-2.7-2.4-4.2c-0.8-1.3-1.9-2.3-3.3-3
		c-3.3,6.4-0.7,14.2,5.7,17.4s14.2,0.7,17.4-5.7c0.5-1,0.8-2.1,1.2-3.1C732,569.8,731.6,569.9,731.1,569.9z"/>
	<path class="st4" d="M734.8,608c-7.1,0.3-13.2-5.1-13.5-12.3c-0.1-2.1,0.3-4.2,1.3-6.1c1,0.7,1.9,1.6,2.6,2.6
		c0.7,1.5,1.7,2.9,2.5,4.3c2,2.4,5.5,3.1,8.6,2.9s6.1-1,9.2-1.4c0.4,0,0.8-0.1,1.3-0.1C745.5,603.6,740.5,607.7,734.8,608z"/>
	<path class="st4" d="M703.4,628.8c-7.1,0.3-13.2-5.1-13.5-12.3c-0.1-2,0.3-4,1.2-5.9c1,0.7,2,1.6,2.7,2.6c0.8,1.5,1.8,2.9,2.8,4.4
		c2.2,2.4,5.9,3.3,9.1,3.1c3.3-0.1,6.3-0.8,9.4-1C713.6,624.9,708.9,628.6,703.4,628.8z"/>
	<path class="st4" d="M709.8,653.9c-3.3,6.3-11,8.8-17.4,5.6c-4.1-2.1-6.7-6.2-7-10.8c-0.1-1.8,0.2-3.6,0.8-5.2c1,0.7,2,1.6,2.8,2.5
		c1.3,1.5,2,3.1,3.5,4.6c2.6,2.6,6.9,3.7,10.7,3.8C705.4,654.3,707.6,654.2,709.8,653.9z"/>
	<path class="st6" d="M57.1,603.3c2.7-5-0.3-11.3-4-15.8c-3.7-4.5-8-9.2-7.9-15c0.1-8.3,8.9-13.2,15.9-17.5
		c5.2-3.3,10.1-7.1,14.4-11.5c1.8-1.7,3.3-3.7,4.4-5.9c1.5-3.3,1.5-6.9,1.4-10.5c-0.3-11.9-0.9-23.6-1.8-35.5"/>
	<path class="st3" d="M92.9,490.9c-0.2-4.4-2.6-8.4-6.4-10.6l-2.9,5.8l0.1-6.9c-6.8-2-14.1,1.9-16,8.7c-2,6.8,1.9,14.1,8.7,16
		c6.8,2,14.1-1.9,16-8.7C92.8,493.9,93,492.4,92.9,490.9L92.9,490.9z"/>
	<path class="st3" d="M69.9,578.3c-3.3,6.3-11,8.8-17.4,5.6c-4.1-2.1-6.7-6.2-7-10.8c-0.1-1.8,0.2-3.6,0.8-5.2
		c2.6-6.6,10.1-10,16.8-7.3c3.4,1.4,6.1,4.1,7.3,7.4l-8.1,6.6l8.9-2.1C71.3,574.5,70.8,576.5,69.9,578.3z"/>
	<path class="st3" d="M63.5,553.3c-7.1,0.3-13.2-5.1-13.5-12.3c-0.3-6,3.7-11.4,9.4-13l-0.1,5.3l2.9-5.8l0,0
		c7.1-0.3,13.2,5.1,13.5,12.3S70.6,552.9,63.5,553.3L63.5,553.3z"/>
	<path class="st3" d="M94.9,532.5c-7.1,0.4-13.2-5.1-13.5-12.3c-0.4-7.1,5.1-13.2,12.3-13.5c2.4-0.1,4.9,0.4,7,1.7l-2.3,6.3l4.6-4.6
		c5.2,4.8,5.6,13,0.8,18.3C101.5,530.8,98.2,532.3,94.9,532.5L94.9,532.5z"/>
	<path class="st4" d="M91.2,494.4c-2.9,0.3-5.9,1.3-8.9,1.5c-3,0.2-6.3-0.5-8.2-2.8c-0.8-1.4-1.7-2.7-2.4-4.2
		c-0.8-1.3-1.9-2.3-3.3-3c-3.3,6.4-0.7,14.2,5.7,17.4c6.4,3.3,14.2,0.7,17.4-5.7c0.5-1,0.8-2.1,1.2-3.1
		C92.1,494.3,91.7,494.3,91.2,494.4z"/>
	<path class="st4" d="M94.9,532.5c-7.1,0.3-13.2-5.1-13.5-12.3c-0.1-2.1,0.3-4.2,1.3-6.1c1,0.7,1.9,1.6,2.6,2.6
		c0.7,1.5,1.7,2.9,2.5,4.3c2,2.4,5.5,3.1,8.6,3s6.1-1,9.2-1.4c0.4,0,0.8-0.1,1.3-0.1C105.6,528.1,100.6,532.2,94.9,532.5z"/>
	<path class="st4" d="M63.5,553.3c-7.1,0.3-13.2-5.1-13.5-12.3c-0.1-2,0.3-4,1.2-5.9c1,0.7,2,1.6,2.7,2.6c0.8,1.5,1.8,2.9,2.8,4.4
		c2.2,2.4,5.9,3.3,9.1,3.1c3.3-0.1,6.3-0.8,9.4-1C73.7,549.4,69,553,63.5,553.3z"/>
	<path class="st4" d="M69.9,578.3c-3.3,6.3-11,8.8-17.4,5.6c-4.1-2.1-6.7-6.2-7-10.8c-0.1-1.8,0.2-3.6,0.8-5.2c1,0.7,2,1.6,2.8,2.5
		c1.3,1.5,2,3.1,3.5,4.6c2.6,2.6,6.9,3.7,10.7,3.8C65.5,578.7,67.7,578.6,69.9,578.3z"/>
	<path class="st6" d="M483.2,516.8c-2.7-5,0.3-11.3,4-15.8c3.7-4.5,7.9-9.2,7.9-15c-0.1-8.3-8.9-13.2-15.9-17.5
		c-5.2-3.3-10-7.1-14.3-11.5c-1.8-1.7-3.3-3.7-4.4-5.9c-1.5-3.3-1.4-6.9-1.4-10.5c0.3-11.9,0.9-23.6,1.8-35.5"/>
	<path class="st3" d="M447.4,404.6c0.2-4.4,2.6-8.4,6.4-10.6l2.9,5.8l-0.1-6.9c1.4-0.4,2.8-0.5,4.2-0.5c7.1,0.3,12.6,6.4,12.3,13.5
		c-0.3,7.1-6.4,12.6-13.5,12.3C452.6,417.7,447.1,411.6,447.4,404.6L447.4,404.6z"/>
	<path class="st3" d="M470.4,492c3.3,6.3,11,8.8,17.4,5.6c6.3-3.3,8.8-11,5.6-17.4c-3.3-6.3-11-8.8-17.4-5.6c-2.8,1.5-5,4-6.2,7
		l8.1,6.6l-8.9-2.1C469,488.1,469.5,490.1,470.4,492z"/>
	<path class="st3" d="M476.8,466.9c7.1,0.3,13.2-5.1,13.5-12.3c0.3-6-3.6-11.4-9.4-13l0.1,5.3l-2.9-5.8l0,0
		c-7.1-0.3-13.2,5.1-13.5,12.3c-0.1,1.5,0.1,2.9,0.5,4.4C466.6,462.9,471.4,466.6,476.8,466.9z"/>
	<path class="st3" d="M445.4,446c7.1,0.3,13.2-5.1,13.5-12.3c0.3-7.1-5.1-13.2-12.3-13.5c-2.4-0.1-4.9,0.4-7,1.7l2.3,6.3l-4.7-4.5
		c-2.5,2.3-4.1,5.5-4.2,8.9c-0.1,1.2,0,2.4,0.3,3.6C434.9,441.7,439.8,445.7,445.4,446z"/>
	<path class="st4" d="M449.1,408c2.9,0.3,5.9,1.3,8.9,1.5c3,0.2,6.3-0.5,8.2-2.8c0.8-1.4,1.7-2.7,2.4-4.2c0.8-1.3,1.9-2.3,3.3-3
		c3.3,6.4,0.7,14.2-5.7,17.4c-6.4,3.3-14.2,0.7-17.4-5.7c-0.5-1-0.9-2.1-1.2-3.1C448.2,407.9,448.7,408,449.1,408z"/>
	<path class="st4" d="M445.4,446c7.1,0.3,13.2-5.1,13.5-12.3c0.1-2.1-0.3-4.2-1.3-6.1c-1,0.7-1.9,1.6-2.6,2.6
		c-0.7,1.5-1.7,2.9-2.5,4.3c-2,2.4-5.5,3.1-8.6,3c-3.1-0.1-6.1-1-9.2-1.4c-0.4,0-0.8-0.1-1.3-0.1C434.9,441.6,439.7,445.7,445.4,446
		z"/>
	<path class="st4" d="M476.8,466.9c7.1,0.3,13.2-5.1,13.5-12.3c0.1-2-0.3-4.1-1.2-5.9c-1,0.7-2,1.6-2.7,2.6
		c-0.8,1.5-1.8,2.9-2.8,4.3c-2.2,2.4-5.9,3.3-9.1,3.1c-3.3-0.1-6.3-0.8-9.4-1C466.7,463,471.4,466.6,476.8,466.9z"/>
	<path class="st4" d="M470.4,492c3.3,6.3,11.1,8.8,17.4,5.6c5.8-3,8.4-9.9,6.2-16c-1,0.7-2,1.6-2.8,2.5c-1.3,1.5-2.1,3.1-3.5,4.6
		c-2.6,2.6-6.9,3.7-10.7,3.8C474.8,492.3,472.6,492.2,470.4,492z"/>
	<circle class="st2" cx="818.1" cy="414.4" r="104.9"/>
	<path class="st3" d="M863.1,441.4c-3.7-3.7-12.4-9.1-16.8-11.2c-5-2.4-6.8-2.4-10.4,0.2c-2.9,2.1-4.9,4.1-8.3,3.4
		c-3.4-0.7-10.2-5.8-16.7-12.3s-11.5-13.2-12.3-16.7s1.3-5.3,3.4-8.3c2.5-3.6,2.6-5.3,0.2-10.4c-2.1-4.3-7.6-13.1-11.2-16.8
		c-3.7-3.7-4.5-2.8-6.5-2.1c-2.1,0.8-4.1,1.9-6,3.1c-3.7,2.4-5.7,4.5-7.1,7.6c-1.5,3-3,8.7,5.2,23.6c6.2,11.4,14,21.8,23.2,30.9l0,0
		l0,0c9.1,9.2,19.6,17.1,31.1,23.2c14.9,8.4,20.6,6.7,23.6,5.2c3-1.5,5.1-3.5,7.6-7.1c1.3-1.9,2.3-3.9,3.1-6
		C866,445.8,866.8,445,863.1,441.4z"/>
	<circle class="st2" cx="577.2" cy="573.6" r="104.9"/>
	<path class="st3" d="M636.8,541.9l-31.4,32c-0.2,0.2-0.2,0.5,0,0.8l0,0l22,23.4c1.5,1.5,1.5,3.9,0,5.3c-0.7,0.7-1.7,1-2.6,1.2
		c-1,0-2-0.4-2.7-1.2l-21.9-23.4c-0.2-0.2-0.6-0.2-0.8,0l-5.3,5.3c-4.4,4.5-10.5,7-16.8,7c-6.4,0-12.6-2.6-17.1-7.2L555,580
		c-0.2-0.2-0.6-0.2-0.8,0l-21.8,23.3c-1.5,1.5-3.9,1.5-5.3,0l0,0c-1.5-1.5-1.5-3.9,0-5.3l0,0l21.9-23.4c0.2-0.2,0.2-0.6,0-0.8
		l-31.4-32c-0.2-0.2-0.6-0.2-0.8,0c-0.1,0.1-0.2,0.2-0.2,0.4V606c0,5.1,4.2,9.3,9.3,9.3h102.7c5.1,0,9.3-4.2,9.3-9.3v-63.9
		c0-0.3-0.2-0.6-0.5-0.6C637.1,541.7,636.9,541.8,636.8,541.9z"/>
	<path class="st3" d="M577.2,585c4.3,0,8.4-1.7,11.4-4.7l45.7-46.6c-1.6-1.4-3.7-2.1-5.8-2.1H525.9c-2.1,0-4.2,0.7-5.8,2.1
		l45.7,46.6C568.8,583.4,572.9,585,577.2,585z"/>
	<circle class="st2" cx="328.4" cy="495.3" r="104.9"/>
	<path class="st3" d="M328.4,445.1l-41.9,96.5l3.9,3.9l37.9-16.7l37.9,16.7l3.9-3.9L328.4,445.1z"/>
	
		<linearGradient id="SVGID_1_" gradientUnits="userSpaceOnUse" x1="856.6625" y1="2076.8965" x2="856.6625" y2="1896.5188" gradientTransform="matrix(1 0 0 1 -52 -1314.63)">
		<stop  offset="0" style="stop-color:#808080;stop-opacity:0.25"/>
		<stop  offset="0.54" style="stop-color:#808080;stop-opacity:0.12"/>
		<stop  offset="1" style="stop-color:#808080;stop-opacity:0.1"/>
	</linearGradient>
	<path class="st7" d="M827.7,627.4c-0.9-2.3-1.9-4.6-2.9-6.9c-0.8-2.2-2-4.3-3.6-6.2c-0.6-0.6-1.3-1.2-2.1-1.6
		c-0.8-0.3-1.8-0.5-2.7-0.5c-1.5-0.2-2.8-0.2-4.3-0.1c-0.5-0.2-1.2-0.4-1.8-0.6c6.4-1.7,10.9-7.3,11.1-14c0-0.2,0-0.4,0-0.6
		c0-8.3-6.6-15-14.9-15l0,0c-2.7,0-5.5,0.7-7.9,2.2c-6.4-1.5-12.9,1.7-15.7,7.6c-3.5,3.4-5.5,8.1-5.3,12.9c0,0.2,0,0.4,0,0.6
		c0.3,8.2,5.6,14.7,12.2,15.3c-0.7,0.3-1.4,0.7-1.9,1.3c-2,2-2.4,5-2.6,7.9l-0.2,2.1l-3.6,1.3c-0.3,0.1-0.5,0.5-0.4,0.8
		c0,0.1,0.1,0.2,0.2,0.3l3.4,2.4c0,0.2,0,0.4,0,0.6s0,0.4,0.1,0.7c-0.5,0.5-1,1.2-1.3,1.9c-0.3,1-0.4,2.3-0.3,3.4l0.1,2.9
		c0,2.2,0.3,4.4,0.8,6.5c0.4,1.3,2.3,4.4,3.7,4.5c-1.3,5.8-1.6,17.9-1.6,17.9c-0.2,0.2,0.3,0.3,1,0.4c0.7,5.8,3.3,22,7.6,29.2
		c0.7,2.3,1.3,4.7,1.7,7.1c0,0,1.3,15.4,2.9,20c1.4,3.9,2.5,13.5,2.8,16.4c-0.6,0.1-1,0.6-1.2,1.2c-0.8,2.5-6.2,6.3-6.2,6.3
		c-1.7,0.8-3.3,1.8-4.6,2.9c-1.7,1.6-1.6,2.9,5.9,2c14.5-1.7,17-6.3,17-6.3s-0.2-0.7-0.5-1.8c-0.4-1.6-1-3-1.9-4.5
		c-0.2-0.2-0.4,0.1-0.6,0.6c-1-6.7-1.5-13.5-0.9-20.2c0,0,0.4-7.1-1.7-12.1c-0.4-2.6-0.4-5.3,0-7.9c0.8-3.4-3.4-19.6-3.4-19.6
		l-2.4-12c0.3,0.4,0.5,0.8,0.6,1.4l0.1,0.2l0.1,0.3c0,0.1,0.1,0.2,0.2,0.3c1.6,6.7,6.1,25.3,6.1,28c0,3.4,4.1,11.6,4.1,11.6
		s1.7,13.7,4.5,19.2c2.2,4.1,2.3,10.2,2.1,12.8l0,0c0,0-0.5,3.5-1.4,4.3c-0.6,0.8-1.2,1.8-1.6,2.7l-0.1,0.2c0,0-1.3,2.5-0.4,2.9
		c3.1,1.3,6.6,1.7,10,1.3c0,0,1.7-2.1,1.7-2.9c0-0.5-0.1-1-0.2-1.5c-0.3-2-0.8-5-0.8-5.1c0.3-1.4-1-5-1-5l-0.4-11.6
		c0.7-7.9-0.2-15.8-2.9-23.4c0,0-2.1-7.6-1.7-9.5s-0.8-24.2-0.8-24.2l-0.1-0.3c-0.1-1.6-0.1-3.1,0.1-4.7c0.4-5-1.3-15.4-1.7-15.8
		c-0.3-1.2-0.5-2.3-0.6-3.5c0.1-0.8,0.4-3.5,0.7-6.6c4.1-0.1,8.2-0.5,12.2-1c0.4,0,0.7-0.1,1-0.4c0.2-0.2,0.2-0.5,0.2-0.8
		C832.4,639.3,830.1,633.2,827.7,627.4z M819.4,640.6c0.4-2.9,0.8-5.9,1.4-8.1l0.1,0.2c0.8,2.2,1.5,4.4,2,6.6
		C821.7,639.9,820.6,640.3,819.4,640.6z"/>
	<path class="st8" d="M787.3,674.3c0,0,2.5,22.2,7.9,30.9c0.7,2.3,1.3,4.6,1.7,7c0,0,1.3,15.2,2.9,19.8c1.7,4.6,2.9,16.9,2.9,16.9
		s5.8,6.6,7.9,1.3c-1.3-7-1.7-14.3-1.3-21.4c0,0,0.4-7-1.7-12c-0.4-2.6-0.4-5.2,0-7.9c0.8-3.4-3.4-19.4-3.4-19.4l-3.3-16
		L787.3,674.3z"/>
	<path class="st9" d="M813.2,754.3c0,0-2.5,4.5-16.9,6.2c-7.4,0.8-7.6-0.5-5.9-2c1.5-1.2,2.9-2.1,4.6-2.9c0,0,5.3-3.7,6.2-6.2
		c0.8-2.5,3.7-0.4,3.7-0.4c4.1,6.2,4.9-1.7,5.8-0.8c0.8,1.4,1.5,2.8,1.9,4.4C813,753.6,813.2,754.3,813.2,754.3z"/>
	<path class="st4" d="M813.2,754.3c0,0-2.5,4.5-16.9,6.2c-7.4,0.8-7.6-0.5-5.9-2c1.2,0.7,3.6,1,8.3-0.8c6.8-2.8,11.9-4.4,13.8-5
		C813,753.6,813.2,754.3,813.2,754.3z"/>
	<path class="st4" d="M809.1,728.8c0,0,0.4-7-1.7-12c-0.4-2.6-0.4-5.2,0-7.9c0.8-3.4-3.4-19.4-3.4-19.4l-3.3-16l-2.8,0.2l3.3,15.9
		c0,0,4.1,16,3.4,19.4c-0.4,2.6-0.4,5.2,0,7.9c2.1,4.9,1.7,12,1.7,12c-0.5,7.1-0.1,14.4,1.3,21.4c-0.2,0.6-0.6,1.3-1.2,1.7
		c1.6,0.7,3.1,0.6,4.1-1.7C809,743.1,808.6,736,809.1,728.8z"/>
	<path class="st2" d="M806.4,583.9c-2.7,0-5.5,0.7-7.8,2.2c-6.4-1.5-12.9,1.7-15.7,7.6c-3.5,3.4-5.5,8-5.3,12.8
		c0,8.8,5.9,15.8,13.2,15.8c5.2,0,9.9-3.8,12-9.1c1.3,0.3,2.4,0.5,3.7,0.5c8.2,0,14.8-6.6,14.8-14.9
		C821.3,590.5,814.6,583.9,806.4,583.9L806.4,583.9z"/>
	<path class="st8" d="M818.6,676.4l1.3,3.3c0,0,1.3,21.8,0.8,23.9c-0.4,2.1,1.7,9.4,1.7,9.4c2.6,7.3,3.7,15.3,2.9,23.1l0.4,11.5
		c0,0,1.7,4.5,0.8,5.3c-0.8,0.8-7-0.7-7-0.7s0.8-8.7-2.1-14.1c-2.9-5.4-4.5-19-4.5-19s-4.1-8.3-4.1-11.5c0-3.3-6.6-30.1-6.6-30.1
		L818.6,676.4z"/>
	<path class="st2" d="M786.5,676c0,0,0.4-14.9,2.1-19.4c0.8-2.1,1.5-4.3,1.9-6.6c0,0,25,4.5,27.1,2.8c0,0,0.4,5.8,0.8,6.2
		c0.4,0.4,2.1,10.7,1.7,15.6c-0.4,4.9,0,4.9,0,4.9s-16.9,2.5-17.3,0s-1.7-2.4-1.7-2.4S785.6,676.8,786.5,676z"/>
	<g class="st1">
		<path d="M800,676c0,0-10.4-0.3-13.5-0.8c0,0.5,0,0.8,0,0.8c-0.8,0.8,14.5,1.3,14.5,1.3c0.2,0,0.4,0.1,0.5,0.2
			C801,676,800,676,800,676z"/>
		<path d="M818.2,659.1c-0.4-0.4-0.8-6.2-0.8-6.2c-0.2,0.1-0.4,0.2-0.7,0.2c0.1,1.8,0.4,4.4,0.7,4.7c0.3,0.3,2.1,10.7,1.7,15.6
			c-0.4,4.9,0,4.9,0,4.9s-13.4,2-16.6,0.6c0,0.2,0.1,0.4,0.1,0.6c0.4,2.5,17.3,0,17.3,0s-0.4,0,0-4.9
			C820.3,669.8,818.6,659.5,818.2,659.1z"/>
		<pattern  id="SVGID_4_" xlink:href="#SVGID_2_" patternTransform="matrix(1.049 0 0 1.049 359.9135 17455.2754)"  class="st1">
		</pattern>
		<path class="st10" d="M800,676c0,0-10.4-0.3-13.5-0.8c0,0.5,0,0.8,0,0.8c-0.8,0.8,14.5,1.3,14.5,1.3c0.2,0,0.4,0.1,0.5,0.2
			C801,676,800,676,800,676z"/>
		<pattern  id="SVGID_5_" xlink:href="#SVGID_3_" patternTransform="matrix(1.049 0 0 1.049 359.9135 17455.2754)"  class="st1">
		</pattern>
		<path class="st11" d="M818.2,659.1c-0.4-0.4-0.8-6.2-0.8-6.2c-0.2,0.1-0.4,0.2-0.7,0.2c0.1,1.8,0.4,4.4,0.7,4.7
			c0.3,0.3,2.1,10.7,1.7,15.6c-0.4,4.9,0,4.9,0,4.9s-13.4,2-16.6,0.6c0,0.2,0.1,0.4,0.1,0.6c0.4,2.5,17.3,0,17.3,0s-0.4,0,0-4.9
			C820.3,669.8,818.6,659.5,818.2,659.1z"/>
	</g>
	<path class="st8" d="M804.6,609.8c0.3,0.8,0.9,1.5,1.6,2c0.4,0.3,0.9,0.5,1.5,0.6c-0.9,0.5-1.9,0.9-2.8,1.5c-1.5,0.9-2.8,2-4.2,3.1
		s-3,1.8-4.8,1.9c1.3-1.7,1.5-3.9,0.6-5.9c-0.4-0.6-0.6-1.4-0.7-2c0-1.2,1-2.1,2-2.7c0.8-0.5,1.6-1,2.4-1.6c0.6-0.4,1.6-1.3,2.4-1.3
		c0.8,0,0.9,0.7,1,1.5C803.9,608,804.2,609,804.6,609.8z"/>
	<path class="st4" d="M804.6,609.8c0.3,0.8,0.9,1.5,1.6,2c0.4,0.3,0.9,0.5,1.5,0.6c-0.9,0.5-1.9,0.9-2.8,1.5c-1.5,0.9-2.8,2-4.2,3.1
		s-3,1.8-4.8,1.9c1.3-1.7,1.5-3.9,0.6-5.9c-0.4-0.6-0.6-1.4-0.7-2c0-1.2,1-2.1,2-2.7c0.8-0.5,1.6-1,2.4-1.6c0.6-0.4,1.6-1.3,2.4-1.3
		c0.8,0,0.9,0.7,1,1.5C803.9,608,804.2,609,804.6,609.8z"/>
	<circle class="st8" cx="814.3" cy="624.7" r="9.4"/>
	<path class="st9" d="M827.7,759.3c0,0.8-1.7,2.9-1.7,2.9c-3.4,0.4-6.7,0-9.9-1.3c-0.8-0.4,0.4-2.9,0.4-2.9l0.1-0.2
		c0.4-0.9,0.9-1.9,1.6-2.7c0.8-0.8,1.4-4.2,1.4-4.2c2.5-4.2,7.1,1.8,7.1,1.8s0.5,3.1,0.8,5C827.6,758.5,827.7,759.1,827.7,759.3z"/>
	<path class="st4" d="M827.7,759.3c0,0.8-1.7,2.9-1.7,2.9c-3.4,0.4-6.7,0-9.9-1.3c-0.8-0.4,0.4-2.9,0.4-2.9l0.1-0.2
		c2.8,1.3,5.9,1.9,9,1.9l1.9-1.9C827.6,758.5,827.7,759.1,827.7,759.3z"/>
	<circle class="st8" cx="795.3" cy="604.9" r="9.2"/>
	<path class="st8" d="M787.8,623.4c-2,1.9-2.4,5-2.6,7.9l-0.3,4.1c-0.1,1.2-0.1,2.2-0.1,3.4c0,0.7,0.2,1.4,0.2,2.1s0.1,1.7,0.1,2.4
		v6.1c-0.1,1.3,0.1,2.5,0.6,3.7c0.6,1.2,2,1.7,3.1,1.2c0.6-0.5,1.2-1.3,1.3-2c1-2.4,1.7-5,2.1-7.7c0.1-0.9,0.1-1.8,0.2-2.7
		c0.1-0.9,0.2-1.9,0.4-2.8c0.6-3.9,0.8-7.8,1.2-11.6c0.1-1.2,1.2-5.7-0.4-6.2c-0.7-0.2-2.3,0.5-2.9,0.7
		C789.6,622.2,788.7,622.7,787.8,623.4z"/>
	<path class="st4" d="M787.8,623.4c-2,1.9-2.4,5-2.6,7.9l-0.3,4.1c-0.1,1.2-0.1,2.2-0.1,3.4c0,0.7,0.2,1.4,0.2,2.1s0.1,1.7,0.1,2.4
		v6.1c-0.1,1.3,0.1,2.5,0.6,3.7c0.6,1.2,2,1.7,3.1,1.2c0.6-0.5,1.2-1.3,1.3-2c1-2.4,1.7-5,2.1-7.7c0.1-0.9,0.1-1.8,0.2-2.7
		c0.1-0.9,0.2-1.9,0.4-2.8c0.6-3.9,0.8-7.8,1.2-11.6c0.1-1.2,1.2-5.7-0.4-6.2c-0.7-0.2-2.3,0.5-2.9,0.7
		C789.6,622.2,788.7,622.7,787.8,623.4z"/>
	<path class="st9" d="M807,610.8c0,0-7,5.3-11.1,6.6c0,0-2.4,2.8-2.8,3.5c-0.4,0.6-1.3,8.1-2.1,9.8c-0.8,1.7-2.9,5.3,0,9
		c0,0,0.8,3.7,0.4,4.9c-0.4,1.3-1.9,5.8-0.5,6s5.5,3,9.2,2.3c3.8-0.7,17.5,3.1,17.5,3.1s2.3-21.2,4-25l-3.7-1.3
		c0,0-10.3-6.2-4.1-15.6C813.7,614.2,807.9,612.9,807,610.8z"/>
	<path class="st2" d="M781.4,635.7l8.5,6.1c0.2,0.2,0.5,0.2,0.7,0l2.3-1.8c0.3-0.2,0.3-0.6,0.1-0.9c0,0,0,0-0.1-0.1l-6.6-5.8
		c-0.2-0.2-0.4-0.2-0.6-0.1l-4.2,1.5c-0.3,0.1-0.5,0.5-0.4,0.8C781.3,635.5,781.3,635.6,781.4,635.7z"/>
	<path class="st8" d="M784.4,653.9c-0.6-2.1-0.9-4.3-0.8-6.4l-0.1-2.9c-0.1-1.2,0-2.3,0.3-3.4c0.6-1.5,2-2.6,3.6-3.1
		c1.6-0.4,3.3-0.5,4.8-0.3c0.2,0,0.4,0.1,0.6,0.2c0.2,0.1,0.3,0.3,0.3,0.5c0.5,0.9,0.5,2,0.2,3c-0.2,0.4-0.5,0.7-0.9,1
		c-1.2,0.8-2.5,1.4-3.6,2.3c-0.2,0.1-0.4,0.3-0.5,0.6c0,0.2,0,0.4,0,0.6c0.1,0.6,0.3,1.2,0.5,1.7c0.1,0.3,0.2,0.5,0.5,0.7
		c0.2,0.2,0.4,0.2,0.6,0.4c0.4,0.3,1.4,0.8,1.4,1.5c-0.2,2.1-1.4,4.4-1.9,6.5C788.3,660.9,785,655.6,784.4,653.9z"/>
	<g class="st1">
		<path d="M797.6,652.9h-0.2c0.8,0.2,1.8,0.2,2.7,0h0.3C799.4,652.8,798.5,652.8,797.6,652.9z"/>
		<path d="M819.2,630.5c-1.5,3.4-3.7,21.3-4.1,25c1.5,0.4,2.4,0.6,2.4,0.6s2.3-21.2,3.9-25L819.2,630.5z"/>
	</g>
	<path class="st8" d="M814.6,625c0.1,0.8,0.6,1.6,1.4,2.1c0.8,0.7,1.7,1.6,2.4,2.4c1,1.5,1.9,3,2.4,4.7c0.8,2.1,1.5,4.3,2,6.5
		c-5.2,2.4-11.2,2.3-16.8,3.9c-2.4,0.6-4.6,1.9-6.3,3.7c-1.7,1.8-2.6,4.3-2.3,6.8c0,0.1,0,0.3,0.1,0.4c0.2,0.2,0.4,0.3,0.7,0.3
		c1.4,0,2.7-0.4,3.9-1.4c1-0.8,2.1-1.8,2.9-2.9c0.5-0.7,1.3-1.3,2.1-1.6c3-0.9,6.3-0.8,9.4-0.9c4.7-0.1,9.4-0.4,14.1-1.2
		c0.6,0.1,1.2-0.4,1.3-0.9c0-0.1,0-0.2,0-0.3c0.4-6.2-1.9-12.3-4.2-17.9c-0.9-2.3-1.9-4.6-2.9-6.8c-0.8-2.2-2-4.3-3.6-6.1
		c-0.6-0.6-1.3-1.2-2.1-1.6c-0.9-0.3-1.9-0.5-2.8-0.5c-1.6-0.2-3-0.2-4.6-0.1c-0.2,0.7-0.4,1.6-0.4,2.4c0.1,2.8,1.4,5.5,2.5,8.1
		C814,624.6,814.4,624.6,814.6,625z"/>
	<path class="st12" d="M797.8,630.2c-0.7,1.3-1,2.6-1,4c0,0.5,0.1,1.2,0.3,1.7c0.6,1.5,1.8,2.6,3.4,3.1"/>
	<path class="st2" d="M803.2,595.8c-0.5,0-1,0.1-1.6,0.2c-1.4-2.1-4.6-3.6-8.4-3.6c-5,0-9.1,2.6-9.1,5.8c0,3.1,4.1,5.8,9.1,5.8
		c1.9,0,3.8-0.4,5.5-1.2c1.2,2.4,4.1,3.5,6.6,2.3c2.4-1.2,3.5-4.1,2.3-6.6C806.7,596.9,805,595.8,803.2,595.8L803.2,595.8z"/>
	<path class="st4" d="M803.6,604.4c-1.9,0-3.7-1-4.4-2.8c-1.7,0.7-3.6,1.2-5.5,1.2c-5,0-9-2.6-9-5.8c0-0.2,0-0.4,0-0.5
		c-0.3,0.5-0.4,1.2-0.4,1.8c0,3.1,4.1,5.8,9.1,5.8c1.9,0,3.8-0.4,5.5-1.2c1.2,2.4,4.1,3.5,6.6,2.3c1.4-0.6,2.4-2,2.7-3.6
		C807.1,603.4,805.5,604.4,803.6,604.4z"/>
	<path class="st4" d="M782.9,596.1c2.8-5.9,9.3-8.9,15.7-7.6c6.9-4.3,16.2-2.1,20.5,4.8c1.3,2,2,4.2,2.2,6.6c0-0.4,0-0.8,0-1.3
		c0-8.2-6.7-14.8-14.9-14.8c-2.7,0-5.5,0.7-7.8,2.2c-6.4-1.5-12.9,1.7-15.7,7.6c-3.5,3.4-5.5,8-5.3,12.8c0,0.4,0,0.8,0,1.3
		C777.8,603.2,779.7,599,782.9,596.1z"/>
	<path class="st6" d="M877.5,599.2c2.7-5-0.3-11.3-4-15.8c-3.7-4.5-7.9-9.2-7.9-15c0.1-8.3,8.9-13.1,15.9-17.5
		c5.2-3.3,10-7.1,14.3-11.5c1.8-1.7,3.3-3.7,4.4-5.9c1.5-3.3,1.4-6.9,1.4-10.5c-0.3-11.9-0.8-23.6-1.8-35.5"/>
	<path class="st3" d="M913.3,486.8c-0.2-4.4-2.6-8.4-6.4-10.6L904,482l0.1-6.9c-1.4-0.4-2.8-0.6-4.2-0.5
		c-7.1,0.3-12.6,6.4-12.3,13.5s6.4,12.6,13.5,12.3C908.2,500.1,913.6,494,913.3,486.8L913.3,486.8L913.3,486.8z"/>
	<path class="st3" d="M890.3,574.2c-3.3,6.3-11,8.8-17.4,5.6c-6.4-3.3-8.8-11-5.6-17.4c3.3-6.3,11-8.8,17.4-5.6c2.8,1.5,5,4,6.2,7
		l-8.1,6.6l8.9-2.1C891.7,570.3,891.3,572.4,890.3,574.2z"/>
	<path class="st3" d="M883.9,549.2c-7.1,0.3-13.2-5.1-13.5-12.3c-0.3-6,3.6-11.4,9.4-13l-0.1,5.3l2.9-5.8l0,0
		c7.1-0.3,13.2,5.1,13.5,12.3C896.5,542.8,891.1,548.8,883.9,549.2L883.9,549.2L883.9,549.2z"/>
	<path class="st3" d="M915.3,528.3c-7.1,0.3-13.2-5.1-13.5-12.3c-0.3-7.1,5.1-13.2,12.3-13.5c2.4-0.1,4.9,0.4,7,1.7l-2.3,6.3
		l4.7-4.5c2.5,2.3,4.1,5.5,4.2,8.9c0.1,1.2,0,2.4-0.3,3.6C925.9,524.1,921.1,528.1,915.3,528.3z"/>
	<path class="st4" d="M911.6,490.3c-2.9,0.3-5.9,1.3-8.9,1.5s-6.3-0.5-8.2-2.8c-0.8-1.4-1.7-2.7-2.4-4.2c-0.8-1.3-1.9-2.3-3.3-3
		c-3.3,6.4-0.7,14.2,5.7,17.4c6.4,3.3,14.2,0.7,17.4-5.7c0.5-1,0.9-2.1,1.2-3.1C912.6,490.2,912,490.2,911.6,490.3z"/>
	<path class="st4" d="M915.3,528.3c-7.1,0.3-13.2-5.1-13.5-12.3c-0.1-2.1,0.3-4.2,1.3-6.1c1,0.7,1.9,1.6,2.6,2.6
		c0.7,1.5,1.6,2.9,2.5,4.3c2,2.4,5.5,3.1,8.6,3c3.1-0.1,6.1-1,9.2-1.4c0.4,0,0.8-0.1,1.3-0.1C925.9,524,921.1,528.1,915.3,528.3z"/>
	<path class="st4" d="M883.9,549.2c-7.1,0.3-13.2-5.1-13.5-12.3c-0.1-2,0.3-4.1,1.2-6c1,0.7,2,1.6,2.7,2.6c1,1.4,1.6,3,2.8,4.4
		c2.2,2.4,5.9,3.3,9.1,3.3s6.3-0.8,9.4-1C894,545.3,889.4,548.9,883.9,549.2z"/>
	<path class="st4" d="M890.3,574.2c-3.4,6.3-11.2,8.7-17.5,5.3c-5.7-3-8.3-9.8-6.1-15.8c1,0.7,2,1.6,2.8,2.5
		c1.3,1.5,2.1,3.1,3.5,4.6c2.6,2.6,6.9,3.7,10.7,3.8C885.9,574.7,888.1,574.5,890.3,574.2z"/>
	<path class="st6" d="M1044.3,758.6c2.7-5-0.3-11.3-4-15.8s-8-9.2-7.9-15c0.1-8.3,8.9-13.1,15.9-17.5c5.2-3.3,10-7.1,14.3-11.5
		c1.8-1.7,3.3-3.7,4.4-5.9c1.5-3.3,1.4-6.9,1.4-10.5c-0.3-11.9-0.8-23.6-1.8-35.5"/>
	<path class="st3" d="M1080.1,646.3c-0.2-4.4-2.6-8.4-6.4-10.6l-2.9,5.8l0.1-6.9c-1.4-0.4-2.7-0.6-4.2-0.5
		c-7.1,0.3-12.6,6.4-12.3,13.5s6.4,12.6,13.5,12.3C1075,659.5,1080.5,653.4,1080.1,646.3C1080.2,646.3,1080.2,646.3,1080.1,646.3
		L1080.1,646.3z"/>
	<path class="st3" d="M1057.1,733.7c-3.3,6.3-11,8.8-17.4,5.6c-6.3-3.3-8.8-11-5.6-17.4c3.3-6.4,11-8.8,17.4-5.6c2.8,1.5,5,4,6.2,7
		l-8.1,6.6l8.9-2.1C1058.5,729.8,1058.1,731.9,1057.1,733.7z"/>
	<path class="st3" d="M1050.7,708.6c-7.1,0.3-13.2-5.1-13.5-12.3c-0.3-6,3.6-11.4,9.4-13l-0.1,5.3l2.9-5.8l0,0
		c7.1-0.3,13.2,5.1,13.5,12.3C1063.3,702.2,1057.9,708.3,1050.7,708.6L1050.7,708.6L1050.7,708.6z"/>
	<path class="st3" d="M1082.1,687.7c-7.1,0.3-13.2-5.1-13.5-12.3c-0.3-7.1,5.1-13.2,12.3-13.5c2.4-0.1,4.9,0.4,7,1.7l-2.3,6.3
		l4.7-4.5c2.5,2.3,4.1,5.5,4.2,8.9c0.1,1.2,0,2.4-0.3,3.6C1092.7,683.5,1087.9,687.5,1082.1,687.7z"/>
	<path class="st4" d="M1078.4,649.8c-2.9,0.3-5.9,1.3-8.9,1.5c-3,0.2-6.3-0.5-8.2-2.8c-0.8-1.4-1.7-2.7-2.4-4.2
		c-0.8-1.3-1.9-2.3-3.3-3c-3.3,6.4-0.7,14.2,5.7,17.4c6.4,3.3,14.2,0.7,17.4-5.7c0.5-1,0.9-2.1,1.2-3.1
		C1079.4,649.7,1078.8,649.7,1078.4,649.8z"/>
	<path class="st4" d="M1082.1,687.7c-7.1,0.3-13.2-5.1-13.5-12.3c-0.1-2.1,0.3-4.2,1.3-6.1c1,0.7,1.9,1.6,2.6,2.6
		c0.7,1.5,1.6,2.9,2.5,4.3c2,2.4,5.5,3.1,8.6,3c3.1-0.1,6.1-1,9.2-1.4c0.4,0,0.8-0.1,1.3-0.1
		C1092.7,683.4,1087.9,687.5,1082.1,687.7z"/>
	<path class="st4" d="M1050.7,708.6c-7.1,0.3-13.2-5.1-13.5-12.3c-0.1-2,0.3-4.1,1.2-6c1,0.7,2,1.6,2.7,2.6c1,1.4,1.7,3,2.8,4.4
		c2.2,2.4,5.9,3.3,9.1,3.3s6.3-0.8,9.4-1C1060.8,704.7,1056.2,708.4,1050.7,708.6z"/>
	<path class="st4" d="M1057.1,733.7c-3.4,6.3-11.2,8.7-17.5,5.3c-5.7-3-8.3-9.8-6.1-15.8c1,0.7,2,1.6,2.8,2.5
		c1.3,1.5,2.1,3.1,3.5,4.6c2.6,2.6,6.9,3.7,10.7,3.8C1052.7,734.1,1054.9,734,1057.1,733.7z"/>
	
		<linearGradient id="SVGID_6_" gradientUnits="userSpaceOnUse" x1="483.1736" y1="2001.5908" x2="483.1736" y2="1895.7454" gradientTransform="matrix(1 0 0 1 -52 -1314.63)">
		<stop  offset="0" style="stop-color:#808080;stop-opacity:0.25"/>
		<stop  offset="0.54" style="stop-color:#808080;stop-opacity:0.12"/>
		<stop  offset="1" style="stop-color:#808080;stop-opacity:0.1"/>
	</linearGradient>
	<path class="st13" d="M501.6,610.6c0-3.3-1.5-6.3-4.1-8.3c0-5.9-4.3-10.9-10.1-11.9c-0.8-4.2-4-7.7-8-8.9l0,0
		c-0.5-0.1-0.9-0.3-1.5-0.3h-0.1h-0.4h-0.2H477h-0.3h-0.6c-5.8,0.1-10.6,4.4-11.4,10.1c-3.7-0.8-7,0.2-7.7,2.6
		c-0.1,0.6-0.1,1.3,0.1,1.9c0.6,1.8,2.6,3.6,5.5,4.4l0.3,0.1l0.5,0.1h0.1l0,0c-0.6,1.3-0.8,2.6-0.8,4c0,3.5,1.9,6.6,4.9,8.2
		l-0.2,0.1c-0.3,0.3-0.6,0.7-0.8,1.2c-0.6,1.2-1.2,2.4-1.6,3.7c-0.3,1.2-0.3,2.3-0.6,3.4c-0.6,2-2.2,3.8-2.3,5.9
		c-0.1,0.9,0.1,2.1-0.6,2.7c-0.2,0.1-0.3,0.3-0.5,0.4c-0.4,0.3-0.8,0.7-1.2,1.3c-0.2,0.4-0.5,0.8-0.8,1.2c-0.6,0.4-1.6,0.4-1.9,1.2
		c-0.3,0.7,0.5,1.6,0.3,2.3c-0.2,0.7-0.8,0.9-1.3,1.4c-0.5,0.6-0.9,1.4-1.2,2.1c-2,0.4-4.1-0.1-5.7-1.5c0.3,0.6,0.4,1.4,0.6,2.1
		c-0.9-0.7-2-1.3-3-1.6c-1.3-0.5-2.3-1.4-3.3-2.4l1.8-0.2l-7.7-11.7l-2.3-0.5l2,3.9c-0.3,0.1-0.6,0.4-0.7,0.8
		c-0.1,0.4-0.1,0.8-0.1,1.4c0.1,1,0.3,2.1,0.5,3.1l0.6,2.7c0,0.2,0.1,0.5,0.2,0.7c-0.7,0-1.6,0-2.3,0.2c-1.6-0.5-3.1-0.9-4.7-1.2
		c-0.3-0.1-0.7-0.1-1,0c-0.4,0.2-0.7,0.4-1,0.8c-1.4,1.6-2.5,3.1-3.6,4.9c-4.2,7.2-9.7,13.4-14.8,19.9c-3.6,1.5-7.1,2.8-10.8,4.2
		l-7.8,2.9c-1.5,0.7-3.1,1-4.8,1c-0.7,0-1.7-0.2-2.1,0.5c-0.2,0.3-0.3,0.6-0.5,1l-0.8,0.1l0,0c-0.3-1.3-1-2.4-1.9-3.5
		c-0.4,0.1-0.7,0.3-0.8,0.6c-0.2,0.3-0.3,0.7-0.5,1c-0.4,0.6-1.2,0.9-1.7,1.4c-0.5,0.4-0.8,1.4-1.4,1.9c-0.7,0.5-1.7,0.9-2.6,1
		c-1.5,0.3-2.8,0.8-4.1,1.6c-0.5,0.3-0.9,0.5-1.6,0.7c-0.6,0.1-1.2,0.1-1.8,0.1l-4.1-0.3c-0.4,0-0.7,0-1,0c-0.8,0.3-1.4,1.2-1.3,2.1
		c0.1,0.9,0.5,1.7,1.3,2.3c0.7,0.5,1.5,0.9,2.3,1.3c3.6,1.4,7.2,2.4,10.9,3.3v0.8c2.6,1.4,5.5,2,8.4,2c0.2,0,0.4,0,0.6-0.1
		c0.3-0.2,0.4-0.5,0.5-0.8c0.8-2.6,1.5-5.3,1.7-8.1l0,0c0.5,0,1-0.2,1.5-0.4c1.4-0.4,2.8,0.5,4.3,0.7c1.8,0.2,3.5-0.8,5.1-1.5
		l0.7-0.2c-0.5,0.6-1,1.2-1.7,1.6c-0.7,0.5-1.5,0.8-2.2,1.4c-0.6,0.5-1.2,1-1.9,1.5c-0.4,0.2-0.9,0.4-1.5,0.5c-0.7,0.3-1.4,0.6-2,1
		c-0.5,0.3-1,0.8-1.4,1.4c-0.3,0.5-0.4,1.3-0.1,1.9c0.3,0.5,0.8,0.8,1.4,0.9c0.5,0.1,1.2,0.1,1.7,0c2.2-0.2,4.4-0.3,6.6-0.5
		c0.9-0.1,1.9-0.2,2.7-0.4c0.5-0.1,0.9-0.3,1.5-0.4c0.8-0.2,1.7-0.3,2.5-0.4c0.2,0,0.5,0,0.7,0.1c0.5,0.2,0.8,0.7,1.4,0.8
		c0.3,0,0.7,0,1-0.1c1.6-0.3,3.3-0.5,4.9-0.5c0.7,0,1.6-0.2,1.9-0.8c0.3-0.6-0.3-1.8-0.5-2.6c-0.1-0.5-0.2-1.2-0.2-1.8
		c-0.1-1.5-0.5-2.8-1.3-4.1c-0.3-0.6-0.6-1.3-0.9-1.9c3.1-1.2,6.2-2.7,9-4.6c1.6-1.2,3.4-2,5.1-2.5c2.2-0.2,4.4,0,6.5,0.7
		c5,1.5,10,3.1,14.9,5.1c2.3,0.9,4.6,2,7,2.7c0.7,0.9,1.6,1.8,2.5,2.4c1.7,0.9,3.5,1.5,5.3,1.5c2.5,0.2,5,0.3,7.7,0.3
		c2,0.1,3.9-0.3,5.7-1c0.4-0.2,0.8-0.5,1.2-0.8c1.4,0.1,2.7-0.4,3.8-1.4c1.4-1.2,2.4-2.7,2.8-4.5c0.6-2.4,0.1-5.2,1.6-7.1
		c0.4-0.5,0.9-0.9,1.3-1.5c0.4-0.7,0.7-1.6,0.6-2.4c0,0,0-0.1,0.1-0.1c0.3-0.7,0.5-1.6,0.6-2.4c0.2-0.6,0.4-1.3,0.7-1.9
		c0.7-1.9,1.4-3.8,2-5.7c0.4-1.3,0.6-2.6,0.9-3.9c0.2-1,0.2-2.1,0.3-3.1c0.1-1.7,0.4-3.3,0.9-4.8c1.4-3.8,2.1-7.7,2.2-11.6v-0.2
		c4-0.4,7-3.9,6.9-8c0-1.2-0.2-2.3-0.7-3.4C501,614.3,501.6,612.4,501.6,610.6z M464,656.3c0.1,0.4,0.2,0.8,0.4,1.3
		c-0.6-0.6-1.3-1.3-1.9-1.8c0.2,0.1,0.5,0.2,0.7,0.2C463.6,655.9,463.8,656.1,464,656.3L464,656.3z M461.1,654.2
		c-3.7-3.1-7.9-5.6-11.5-8.6c2,1,4,2.2,6,3.3c2.3,1.4,4.6,2.6,7,3.8C462.1,653.2,461.6,653.7,461.1,654.2L461.1,654.2z M462.7,646.3
		l0.2-0.2c0,0.4,0,0.8,0,1.3l-0.9-0.3C462.1,646.8,462.3,646.5,462.7,646.3L462.7,646.3z M430.7,654.8c1.5-1.7,2.8-3.6,3.9-5.6
		c1.5,2.5,3.8,4.3,5.8,6.4C437.1,655.3,433.9,654.9,430.7,654.8z"/>
	<polygon class="st14" points="435.9,624.3 438.1,624.7 446,636.2 442.5,636.6 	"/>
	<path class="st15" d="M380.4,670.9c0.6,2,1.4,4,2.3,6c2.6-0.5,5.1-1.3,7.7-2.2c-0.5-0.7-1-1.5-1.6-2.1c-0.6-0.6-1.4-1.3-2.1-1.7
		c-0.8-0.2-1.8-0.2-2.6,0C382.8,670.9,381.6,670.9,380.4,670.9z"/>
	<path class="st14" d="M386.6,674.1c-1.3-0.5-2.2-1.7-2.6-2.9c-0.4-1.3-1-2.5-2-3.6c-0.4,0.1-0.7,0.3-0.8,0.6
		c-0.2,0.3-0.3,0.7-0.5,1c-0.4,0.6-1.2,0.8-1.7,1.4c-0.5,0.5-0.8,1.3-1.4,1.8c-0.7,0.5-1.7,0.9-2.6,1c-1.5,0.3-2.8,0.8-4.2,1.6
		c-0.5,0.3-1,0.5-1.6,0.7c-0.6,0.1-1.2,0.1-1.8,0l-4.1-0.3c-0.3-0.1-0.7-0.1-1,0c-0.8,0.3-1.4,1.2-1.4,2.1c0.1,0.9,0.5,1.7,1.4,2.2
		c0.7,0.5,1.5,0.9,2.3,1.2c3.6,1.4,7.3,2.4,11.1,3.1v0.8c2.6,1.3,5.6,2,8.4,2c0.2,0,0.4,0,0.6-0.1c0.3-0.2,0.4-0.5,0.5-0.8
		c0.9-2.9,1.6-5.9,1.7-9c0.1-0.7,0-1.6-0.2-2.3C386.5,673.9,387.2,674.2,386.6,674.1"/>
	<path class="st14" d="M465.8,658.5c-12.3,0.7-24.3-2.8-36.6-3.3c-1.6-0.1-3,0-4.5,0.3c-1.6,0.4-3,1-4.5,1.8
		c-6.6,3-13.4,5.6-20.1,8.2l-7.9,2.9c-1.5,0.7-3.1,1-4.8,1c-0.7,0-1.7-0.2-2.1,0.4c-1.3,1.9-0.6,4.6,0.2,6.8
		c0.3,0.7,0.7,1.5,1.5,1.5c0.5,0,1-0.2,1.5-0.4c1.5-0.4,2.8,0.5,4.3,0.7c1.8,0.2,3.5-0.8,5.2-1.5c2.8-1,5.9-1,8.9-1.5
		c5-0.8,9.7-3.1,14-5.8c1.6-1.2,3.4-2,5.2-2.4c2.2-0.2,4.4,0,6.5,0.7c5,1.5,10.1,3.1,15,5.1c2.5,1.2,5.1,2.1,7.9,2.8
		c5.8,1.5,12,1.2,17.5-1c2-0.7,4.1-2.1,4.2-4.3c0.1-1.3-0.8-2.3-1.5-3.4c-0.4-0.6-0.8-1.4-1.3-2
		C472.1,662.3,469.6,658.3,465.8,658.5z"/>
	<path class="st4" d="M465.8,658.5c-12.3,0.7-24.3-2.8-36.6-3.3c-1.6-0.1-3,0-4.5,0.3c-1.6,0.4-3,1-4.5,1.8
		c-6.6,3-13.4,5.6-20.1,8.2l-7.9,2.9c-1.5,0.7-3.1,1-4.8,1c-0.7,0-1.7-0.2-2.1,0.4c-1.3,1.9-0.6,4.6,0.2,6.8
		c0.3,0.7,0.7,1.5,1.5,1.5c0.5,0,1-0.2,1.5-0.4c1.5-0.4,2.8,0.5,4.3,0.7c1.8,0.2,3.5-0.8,5.2-1.5c2.8-1,5.9-1,8.9-1.5
		c5-0.8,9.7-3.1,14-5.8c1.6-1.2,3.4-2,5.2-2.4c2.2-0.2,4.4,0,6.5,0.7c5,1.5,10.1,3.1,15,5.1c2.5,1.2,5.1,2.1,7.9,2.8
		c5.8,1.5,12,1.2,17.5-1c2-0.7,4.1-2.1,4.2-4.3c0.1-1.3-0.8-2.3-1.5-3.4c-0.4-0.6-0.8-1.4-1.3-2
		C472.1,662.3,469.6,658.3,465.8,658.5z"/>
	<path class="st15" d="M403.9,671.6c1.9,0.6,3.9,1.3,5.8,1.8c1-1.8,3.1-3,3.6-5.1c0-0.1,0-0.2,0-0.3c0-0.1-0.1-0.1-0.2-0.2
		c-1.4-0.7-2.9-1.3-4.5-1.4c-1.3-0.1-1.9,1.3-2.4,2.2C405.9,669.1,404.4,671.8,403.9,671.6z"/>
	<path class="st14" d="M406.6,670.3c-1.2-0.2-2.2-0.8-2.8-1.9c-0.3-0.5-0.5-1.2-1-1s-0.7,0.6-0.8,1.2c-0.3,1.9-0.9,3.7-1.6,5.5
		c-0.7,1.8-1.9,3.4-3.4,4.5c-0.7,0.5-1.5,0.8-2.2,1.4c-0.6,0.5-1.2,0.9-1.9,1.4c-0.4,0.2-0.9,0.4-1.5,0.5c-0.7,0.3-1.4,0.6-2,1
		c-0.5,0.3-1,0.7-1.4,1.4c-0.3,0.5-0.4,1.3-0.1,1.9c0.3,0.5,0.8,0.8,1.4,0.9s1.2,0.1,1.7,0c2.2-0.2,4.5-0.3,6.7-0.5
		c0.9-0.1,1.9-0.2,2.8-0.4l1.5-0.4c0.8-0.2,1.7-0.3,2.5-0.4c0.2,0,0.5,0,0.7,0.1c0.5,0.2,0.8,0.7,1.5,0.8c0.3,0,0.7,0,1-0.1
		c1.7-0.3,3.3-0.5,4.9-0.5c0.7,0,1.6-0.2,1.9-0.8c0.4-0.8-0.3-1.8-0.5-2.6c-0.1-0.5-0.2-1.2-0.2-1.7c-0.1-1.5-0.5-2.8-1.3-4.1
		c-0.5-1-1.4-2.2-0.9-3.4c0.2-0.3,0.3-0.7,0.4-1.2C411.8,669.9,407.7,670.5,406.6,670.3z"/>
	<path class="st15" d="M447.4,638.9c-2.2-0.9-3.9-2.7-4.9-4.8c-0.2-0.4-0.4-0.9-0.5-1.4c-0.6-1.6-1.7-2.9-2.9-4.1
		c-0.3-0.3-0.6-0.4-1-0.4c-0.4,0.1-0.7,0.4-0.8,0.8c-0.1,0.4-0.1,0.8-0.1,1.4c0.1,1,0.3,2.1,0.5,3l0.6,2.7c0.1,0.4,0.2,0.8,0.4,1.3
		c0.2,0.4,0.6,0.8,1,1.2c0.5,0.5,1,0.9,1.7,1.5c0.3,0.3,0.6,0.5,1,0.7c0.6,0.3,1.3,0.4,1.9,0.5c2.5,0.3,4.9,1.3,6.9,2.7
		c0,0,0-1.8,0-2c0-0.5-0.2-1-0.5-1.5C449.7,639.6,448.6,639.1,447.4,638.9z"/>
	<path class="st4" d="M447.4,638.9c-2.2-0.9-3.9-2.7-4.9-4.8c-0.2-0.4-0.4-0.9-0.5-1.4c-0.6-1.6-1.7-2.9-2.9-4.1
		c-0.3-0.3-0.6-0.4-1-0.4c-0.4,0.1-0.7,0.4-0.8,0.8c-0.1,0.4-0.1,0.8-0.1,1.4c0.1,1,0.3,2.1,0.5,3l0.6,2.7c0.1,0.4,0.2,0.8,0.4,1.3
		c0.2,0.4,0.6,0.8,1,1.2c0.5,0.5,1,0.9,1.7,1.5c0.3,0.3,0.6,0.5,1,0.7c0.6,0.3,1.3,0.4,1.9,0.5c2.5,0.3,4.9,1.3,6.9,2.7
		c0,0,0-1.8,0-2c0-0.5-0.2-1-0.5-1.5C449.7,639.6,448.6,639.1,447.4,638.9z"/>
	<ellipse class="st14" cx="472.4" cy="615.1" rx="2.9" ry="3"/>
	<path class="st14" d="M470.5,613.3c-0.8-0.2-1.7-0.1-2.3,0.3c-0.3,0.3-0.6,0.6-0.8,1c-0.6,1.2-1.2,2.4-1.6,3.7
		c-0.3,1-0.3,2.2-0.6,3.4c-0.6,2-2.2,3.7-2.3,5.8c-0.1,0.9,0.1,2-0.6,2.6c-0.2,0.1-0.3,0.3-0.5,0.4c-0.5,0.3-0.8,0.7-1.2,1.3
		c-0.2,0.4-0.5,0.8-0.8,1.2c-0.6,0.4-1.6,0.4-1.9,1c-0.3,0.6,0.5,1.5,0.3,2.3c-0.2,0.8-0.8,0.9-1.4,1.4c-0.5,0.6-0.9,1.3-1.2,2.1
		c-2,0.4-4.1-0.1-5.7-1.4c0.7,2.1,0.9,4.3,0.9,6.5c0.1,0.7-0.1,1.5-0.5,2c2.4,0.2,4.7,0.6,7,1.3c0.9,0.3,2.1,0.3,3,0
		c0.5-0.3,1-0.6,1.4-1.2c1.3-1.3,2.6-2.6,2.9-4.4c0.1-1,0.1-2,0-3c0.1-1.3,0.4-2.5,0.7-3.7c0.6-2.5,1.2-5,1.4-7.6
		c0.1-1.6,1.5-2.8,2.2-4.2c1.4-2.6,2.7-5.5,2.8-8.4C471.9,614.6,471.6,613.5,470.5,613.3z"/>
	<path class="st4" d="M470.5,613.3c-0.8-0.2-1.7-0.1-2.3,0.3c-0.3,0.3-0.6,0.6-0.8,1c-0.6,1.2-1.2,2.4-1.6,3.7
		c-0.3,1-0.3,2.2-0.6,3.4c-0.6,2-2.2,3.7-2.3,5.8c-0.1,0.9,0.1,2-0.6,2.6c-0.2,0.1-0.3,0.3-0.5,0.4c-0.5,0.3-0.8,0.7-1.2,1.3
		c-0.2,0.4-0.5,0.8-0.8,1.2c-0.6,0.4-1.6,0.4-1.9,1c-0.3,0.6,0.5,1.5,0.3,2.3c-0.2,0.8-0.8,0.9-1.4,1.4c-0.5,0.6-0.9,1.3-1.2,2.1
		c-2,0.4-4.1-0.1-5.7-1.4c0.7,2.1,0.9,4.3,0.9,6.5c0.1,0.7-0.1,1.5-0.5,2c2.4,0.2,4.7,0.6,7,1.3c0.9,0.3,2.1,0.3,3,0
		c0.5-0.3,1-0.6,1.4-1.2c1.3-1.3,2.6-2.6,2.9-4.4c0.1-1,0.1-2,0-3c0.1-1.3,0.4-2.5,0.7-3.7c0.6-2.5,1.2-5,1.4-7.6
		c0.1-1.6,1.5-2.8,2.2-4.2c1.4-2.6,2.7-5.5,2.8-8.4C471.9,614.6,471.6,613.5,470.5,613.3z"/>
	<path class="st14" d="M467.8,661.1c-2.5-1.3-4.4-3.5-6.5-5.5c-4-3.7-8.7-6.3-12.9-9.8c-2.7-2.3-5.2-4.9-8.2-6.9
		c-2.6-1.7-5.7-2.7-8.8-3c-0.3-0.1-0.7-0.1-1,0c-0.4,0.2-0.7,0.4-1,0.8c-1.4,1.5-2.5,3.1-3.6,4.9c-5.2,8.9-12.7,16.4-18.9,24.7
		c-0.1,0.2-0.2,0.4-0.3,0.6c0,0.3,0.1,0.6,0.2,0.9l1.3,2.4c0.7,1.4,1.9,2.9,3.4,2.7c0.6-0.2,1.3-0.6,1.8-1.2l5.7-5.5l5.9-5.7
		c3.5-3.4,7-6.7,9.2-10.9c1.8,3,4.9,5,7,7.9c0.8,1,1.5,2.2,2.2,3.4c1.2,1.8,2.5,3.5,3.8,5.2l6.8,8.7c0.8,1.3,1.9,2.3,3.1,3.1
		c1.7,0.9,3.6,1.4,5.5,1.5c2.5,0.2,5.1,0.3,7.7,0.3c2,0.1,3.9-0.3,5.8-1c1.8-0.8,3-2.6,3.1-4.6c-0.1-1-0.4-2-0.9-2.8
		C475.4,667,472.3,663.2,467.8,661.1z"/>
	<ellipse class="st16" cx="474.3" cy="617.1" rx="2.3" ry="2.3"/>
	<path class="st15" d="M473.8,615.5c0.5,1,0.6,2.2,0.2,3.4c-0.3,1-0.8,2.1-1.5,3c-0.5,0.9-1.2,1.9-1.9,2.7c3.6,0.2,6.9-1.3,10.1-2.9
		c2.5-1.4,5-3,6.4-5.6c-0.8,0.2-1.7,0-2.3-0.4c-0.6-0.4-1.3-1-1.8-1.7l-1.8-2c-0.4-0.4-0.7-0.9-1-1.5c-0.4-0.7-0.5-1.5-0.5-2.3
		c-0.7,0.7-1.5,1.4-2.3,2c-1.3,0.8-2.6,1.5-4,2.2c-0.4,0.3-1.5,0.7-1.2,1.4C472.5,614.4,473.4,614.8,473.8,615.5z"/>
	<path class="st4" d="M473.8,615.5c0.5,1,0.6,2.2,0.2,3.4c-0.3,1-0.8,2.1-1.5,3c-0.5,0.9-1.2,1.9-1.9,2.7c3.6,0.2,6.9-1.3,10.1-2.9
		c2.5-1.4,5-3,6.4-5.6c-0.8,0.2-1.7,0-2.3-0.4c-0.6-0.4-1.3-1-1.8-1.7l-1.8-2c-0.4-0.4-0.7-0.9-1-1.5c-0.4-0.7-0.5-1.5-0.5-2.3
		c-0.7,0.7-1.5,1.4-2.3,2c-1.3,0.8-2.6,1.5-4,2.2c-0.4,0.3-1.5,0.7-1.2,1.4C472.5,614.4,473.4,614.8,473.8,615.5z"/>
	<path class="st16" d="M473.8,615.8c-0.7,1-0.7,2.4,0,3.5c0.1,0.1,0.5,0.9,0.6,0.9c0.1,0,0.3-0.1,0.4-0.2c0.8-0.8,1.6-1.8,2.2-2.6
		c0.7-0.9,1.7-1.6,2.8-1.9c1.4-0.1,2.8,0.4,3.9,1.3c0.5,0.2,0.9,0.6,1.4,1c0.2,0.4,0.4,0.9,0.4,1.5c0.3,3.1,0.5,6.4,0.4,9.5
		c0.1,2.3-0.1,4.6-0.4,6.8c-0.2,1.2-0.5,2.3-0.7,3.5c-0.1,1-0.2,2.1-0.1,3.1v4.4c0,0.8,0,1.6,0.2,2.4c0.2,0.9,0.6,1.9,0.9,2.8
		c0.3,1,0.5,2.2,0.6,3.3l0.6,4.5c0.2,1.5,0.3,2.9-0.5,4.2c-0.4,0.5-0.9,0.9-1.3,1.5c-1.5,1.9-1,4.7-1.6,7c-0.5,1.7-1.5,3.3-2.8,4.4
		c-1,0.9-2.4,1.5-3.8,1.4c-1.9-0.3-2.9-2.3-3.5-4.1s-0.6-3.8-1.8-5.3c-1-1.2-2.2-2.1-3.5-2.9c-1.4-0.8-2.3-2.1-2.7-3.6
		c-0.1-0.6,0-1.4-0.1-2c-0.2-1.7-1.4-3.1-2.9-3.9c-0.9-0.3-2.1-0.5-2.6-1.4c1.4-0.8,2.3-2.2,2.7-3.7c0.4-1.6,0.6-3.1,0.6-4.7
		l0.3-5.2c0.1-2.4,0.2-4.7,1.3-6.8c0.4-0.9,1-1.9,1.6-2.7c0.6-1.4,1.2-2.6,1.6-4.1c0.7-2.2,1.5-4.3,2.2-6.5c0.2-1,0.6-2.1,1.2-3
		C471.9,617.2,472.7,616,473.8,615.8z"/>
	<path class="st14" d="M462.1,650.1h1.4l0.3-2.1c0-0.4,0.1-0.8,0.3-1.3c0.2-0.4,0.5-0.8,0.8-1.2c1.4-1.9,1.3-4.5,1.6-6.8
		c0.6-3.1,1.7-6.2,3-9l2.7-6.1c0.2-0.5,0.4-1,0.6-1.6c0.1-0.6,0.2-1.2,0.2-1.8c0-0.9,0.3-4.3,0.3-5.2c0-0.3-0.7-0.2-0.9-0.4
		c-0.3-0.6-0.8,1.2-1.5,1.6c-0.6,0.4-1,1-1.3,1.8c-0.6,1.5-0.9,3.1-1.5,4.6c-0.5,1.6-1.4,2.9-2.5,4.1c-0.5,0.5-1.2,0.8-1.7,1.4
		c-1.7,1.7-1.9,4.3-1.9,6.6C462,636.2,461.8,650.1,462.1,650.1z"/>
	<path class="st14" d="M482.2,613.3c-1.4,0.7-2.2,2-2.5,3.5c-0.2,1.5-0.6,2.8-1.3,4.2c-1.7,2.9-6.1,3.8-7.2,7
		c-0.3,1-0.4,2.2-0.5,3.4c-0.2,2.3-0.9,4.5-1.2,6.8c-0.1,1.8-0.1,3.6,0.1,5.3l1.6,18c0.3,2.6,0.1,5.3-0.4,8c1.6,0.2,3.1,0,4.5-0.7
		c1.5-0.6,2.7-1.6,4.1-2.3c2.3-1.3,4.9-2.2,7-4c0.4-0.3,0.7-0.6,0.9-1c0.3-0.7,0.5-1.6,0.6-2.4c0.2-0.6,0.4-1.3,0.7-1.9
		c0.7-1.8,1.4-3.7,2-5.6c0.4-1.3,0.6-2.5,0.9-3.8c0.2-1,0.3-2.1,0.3-3.1c0.1-1.7,0.4-3.3,0.9-4.7c1.4-3.7,2.1-7.6,2.2-11.4
		c0-0.5,0-1.2-0.1-1.7c-0.2-0.6-0.5-1.4-0.9-1.9c-0.6-1.2-1-2.5-1.6-3.7c-1.5-2.6-3.7-4.9-6.2-6.5
		C485,613.7,483.5,612.8,482.2,613.3z"/>
	<path class="st15" d="M450.5,642.7c-1-0.5-2.1-1.3-2.9-2.2c-0.4-0.4-0.7-0.9-1-1.4c-0.9-1-2.2-1.8-3.7-2.1
		c-1.4-0.3-2.8-0.4-4.2-0.4c-0.9-0.1-1.9,0-2.8,0.3c-0.9,0.3-1.6,1-1.9,2c-0.1,1.2,0.4,2.3,1.5,2.9c0.8,0.6,1.8,1.2,2.8,1.4
		c0.8,0.1,1.7,0.2,2.5,0.3c5,0.5,9.4,3.3,13.8,5.8c3.9,2.2,7.8,4.2,11.9,6.1c0.1-1.2,0.2-2.4,0.2-3.7c0-0.9-0.1-2.3-0.9-2.8
		c-1.3-0.5-2.5-0.8-3.8-1.2c-2.6-0.8-5.1-1.9-7.6-3C453.1,644.3,451.7,643.6,450.5,642.7z"/>
	<ellipse class="st15" cx="472.4" cy="605.5" rx="8.9" ry="9"/>
	<path class="st14" d="M484.7,623.4c-0.7,1-1.3,2.1-1.8,3.3c-1,2.3-2.8,4.2-3.7,6.6c-0.8,2.4-0.8,5.5-2.6,7.4
		c-0.3,0.3-0.6,0.7-0.8,1.2c0,0.3,0,0.5-0.1,0.8c-0.3,0.7-1.5,0.7-1.7,1.5c-0.1,0.2,0,0.4-0.1,0.6c-0.2,0.5-0.8,0.5-1.3,0.8
		c-0.8,0.6-0.7,2-1.4,2.8c-0.5,0.6-1.4,0.9-2.2,0.8c-0.8-0.2-1.6-0.4-2.3-0.8c-0.2-0.1-0.5-0.2-0.8-0.3c-0.3,0-0.7,0.1-0.9,0.3
		c-1.6,1.2-2.5,3-2.4,5c0.1,2,0.6,3.9,1.4,5.7c0.1,0.3,0.2,0.6,0.4,0.8c0.6,0.5,1.5,0.5,2.2,0.2c0.7-0.4,1.4-0.7,2.2-0.9
		c1.4-0.2,2.7,0.7,4.2,0.6c1-0.1,2-0.5,2.8-1.3c1.4-0.8,2.7-1.9,3.8-3.1c0.6-0.8,1-1.7,1.6-2.6c0.7-1,1.5-2.1,2.2-3l5.1-6.3
		c0.5-0.6,0.9-1.3,1.4-1.9c0.4-0.9,0.8-1.9,1-2.9c0.5-1.7,0.9-3.4,1-5.1c0-1.5-0.1-2.9-0.4-4.3c-0.1-1.4-0.5-2.8-1-4.1
		C489.5,622.9,486.8,621,484.7,623.4z"/>
	<path class="st9" d="M502.6,611.8c0-3.3-1.6-6.3-4.1-8.2c-0.1-5.9-4.4-10.8-10.2-11.6c-1.3-6.3-7.3-10.4-13.6-9.1
		c-4.8,0.9-8.5,4.8-9.2,9.8c-3.7-0.8-7.1,0.2-7.8,2.5s2,5.2,5.9,6.3c1.3,0.3,2.5,0.5,3.8,0.4c1.9,2.7,4.7,4.5,8,5
		c0.9,4.4,4.3,7.9,8.7,9c0.6,1.5,1.5,2.7,2.7,3.7c0,0.3,0,0.5,0,0.8c0,4.2,3.4,7.6,7.6,7.6s7.6-3.4,7.6-7.6l0,0
		c0-1.2-0.2-2.3-0.7-3.4C502.2,615.4,502.7,613.6,502.6,611.8z"/>
	<path class="st4" d="M460.2,595.5c0.6-2.3,4-3.4,7.8-2.5c0.9-5.7,5.8-9.9,11.5-10h0.7c-1-0.3-2.2-0.5-3.3-0.5
		c-5.8,0.1-10.6,4.3-11.5,10c-3.7-0.8-7.1,0.2-7.8,2.5s2,5.2,5.9,6.3c0.7,0.2,1.5,0.3,2.2,0.4C462.1,600.7,459.6,597.9,460.2,595.5z
		"/>
	<path class="st4" d="M489.4,620.8c0-0.3,0-0.5,0-0.8c-1.2-1-2.1-2.3-2.7-3.7c-4.4-1-7.8-4.6-8.7-9c-3.3-0.4-6.2-2.3-8-4.9
		c-0.7,0.1-1.5,0-2.2-0.1c1.9,2.5,4.6,4.2,7.8,4.6c0.9,4.4,4.3,7.9,8.7,9c0.6,1.5,1.5,2.7,2.7,3.7c0,0.3,0,0.5,0,0.8
		c-0.1,4.2,3.3,7.8,7.6,7.9C491.3,627,489.3,624.1,489.4,620.8z"/>
	
		<ellipse transform="matrix(0.7963 -0.6049 0.6049 0.7963 -270.5192 411.2457)" class="st15" cx="475.4" cy="607.3" rx="1.4" ry="1.9"/>
</g>
</svg>
