<?xml version="1.0" encoding="utf-8"?>
<!-- Generator: Adobe Illustrator 24.2.1, SVG Export Plug-In . SVG Version: 6.00 Build 0)  -->
<svg version="1.1" id="Layer_3" xmlns="http://www.w3.org/2000/svg" xmlns:xlink="http://www.w3.org/1999/xlink" x="0px" y="0px"
	 viewBox="0 0 1200 1200" style="enable-background:new 0 0 1200 1200;" xml:space="preserve">
<style type="text/css">
	.st0{fill:#FFFFFF;}
</style>
<path class="st0" d="M600,31C285.8,31,31,285.8,31,600s254.8,569,569,569s569-254.8,569-569S914.3,31,600,31z M984,923.1H722
	c0,0-51.8,0-51.4-49c0-0.9,0-1.8,0-2.6c2.9-25.5,6.6-46.4,11.3-52c7.5-8.9,38.4-37.2,74.7-65.3c32.1-24.9,78.6-59.2,116.4-72.3
	c60.1-20.8,58.8-22.4,70-22c2.2,0.1,10,0,13,0l0.7-3.2c-2.6,0-4.7-0.1-6.8-0.2c-14.1-0.5-19.9-0.8-83.2,21.1
	C792.6,703.3,685.2,799.2,671,816.1c-11.3,13.5-16.7,90.7-20.5,164.6c-0.5,10-0.9,17.2-1.1,20.1c-1.3,13.7-34,25.5-49.5,25.5
	s-48.2-11.8-49.5-25.5c-0.3-2.8-0.6-10.1-1.1-20.1c-3.8-73.8-9.1-151.1-20.5-164.6c-14.2-16.9-121.6-112.8-195.7-138.5
	c-63.3-21.9-69.1-21.7-83.2-21.1c-2.1,0.1-4.2,0.2-6.8,0.2L243,660c3,0,21.9,1.6,24,2c10,2,0.9-0.8,61,20
	c37.8,13.1,83.3,47.4,115.5,72.2c36.3,28,67.2,56.4,74.7,65.3c4.7,5.6,8.4,26.5,11.3,52c0,0.8,0,1.6,0,2.5c0.3,49-51.4,49-51.4,49
	H216c-16.3,0-28.8-10.7-37.7-22.4c-34.9-65.2-61.7-142.1-77.5-230.5c0,0,7.7,27.7,34.1,62.9c-4.3-22.1-7.7-45.4-10.3-69.9
	c-3.9-36.6,6.9,27.6,32,62.9c-3.8-22-6.8-45.1-8.8-69.3c0,0,6.3,27.4,30,62.8c-18.8-65-46-126.4-43.2-210.4c0,0,7.3,23.7,28,54.7
	c-1.9-19.7-2.7-39.6-2.4-59.4c0,0,6.6,23.5,26.2,54.6c-1.5-19.6-2-39.2-1.3-58.9c0,0,6.1,23.4,24.5,54.5
	c-15.1-53.1-29.8-106.9-18-171.8c0,0,7.1,12,22,31.8c0.8-11.5,2.1-22.9,4.1-34.3c0,0,6.6,12,20.8,31.9c0.9-11.1,2.4-22.4,4.5-33.9
	c3.1-17.3,5.7,11,17.9,29.4c-8.8-37.6-7.5-77.4,7.9-118.8c0,0,2.2,20,13.2,46.1c2.3-15.9,6.4-31.4,12.2-46.4c0,0,1.8,19.8,12,45.9
	c2.5-15.6,6.7-31,12.6-45.7c0,0,1.4,19.6,10.8,45.6c10.8-37.6,7.4-74,33.7-109.6c0,0,0,15.6,5.3,36.9c4.5-12.4,10.6-24.1,18.3-34.9
	c0,0-0.3,15.4,4.5,36.6c4.5-12.2,10.7-23.7,18.4-34.2c0,0-0.5,15.3,3.7,36.3c4.6-11.9,10.8-23.2,18.4-33.5c0,0-0.7,14.4,2.7,34.6
	c-1.7-28.6,9.2-55.3,37.7-78.3c0.8,7,2.1,13.9,3.9,20.7c5.1-6,10.9-11.6,17.1-16.5c0.6,6.9,1.8,13.8,3.4,20.6
	c5.1-5.9,10.7-11.2,16.9-16c0.5,6.9,1.5,13.7,2.9,20.4c5-5.7,10.6-10.9,16.7-15.6c0,0,0.1,2.8,0.6,7.3c5.1-13.7,12.6-26,23.5-35.6
	c0.6,8.1,1.7,16.3,3.3,24.3c4.2-6.9,9.4-13.1,15.4-18.4c0.4,8.1,1.3,16.1,2.8,24.1c4.1-6.7,9.3-12.8,15.2-18c0.3,8,1,16,2.3,23.9
	c0.7-1,4.2-24.4,4.2-24.4s3.5,23.4,4.2,24.4c1.2-7.9,2-15.9,2.3-23.9c6,5.2,11.1,11.3,15.2,18c1.4-8,2.3-16,2.8-24.1
	c6,5.3,11.2,11.5,15.4,18.4c1.6-8,2.7-16.1,3.3-24.3c10.8,9.7,18.4,21.9,23.5,35.6c0.5-4.5,0.6-7.3,0.6-7.3
	c6.1,4.6,11.6,9.8,16.7,15.6c1.4-6.7,2.4-13.6,2.9-20.4c6.2,4.8,11.8,10.1,16.9,16c1.6-6.8,2.7-13.6,3.4-20.6
	c6.2,4.9,11.9,10.4,17.1,16.5c1.8-6.8,3.1-13.7,3.8-20.7c28.5,23,39.5,49.7,37.7,78.3c3.5-20.2,2.7-34.6,2.7-34.6
	c7.6,10.3,13.8,21.6,18.4,33.5c4.3-21.1,3.7-36.3,3.7-36.3c7.6,10.5,13.8,22,18.4,34.2c4.8-21.2,4.5-36.6,4.5-36.6
	c7.7,10.7,13.8,22.5,18.3,34.9c5.3-21.3,5.3-36.9,5.3-36.9c26.3,35.6,22.9,72,33.7,109.6c9.5-26,10.8-45.6,10.8-45.6
	c5.9,14.7,10.1,30,12.6,45.7c10.2-26.1,12-45.9,12-45.9c5.8,15,9.9,30.5,12.2,46.4c11-26.2,13.2-46.1,13.2-46.1
	c15.4,41.5,16.7,81.2,7.9,118.8c12.2-18.4,17.9-29.4,17.9-29.4c2.1,11.5,3.6,22.8,4.5,33.9c14.1-19.8,20.8-31.9,20.8-31.9
	c1.9,11.4,3.3,22.8,4.1,34.3c14.9-19.8,22-31.8,22-31.8c11.8,64.9-3,118.8-18,171.8c18.4-31.1,24.5-54.5,24.5-54.5
	c0.6,19.6,0.2,39.3-1.3,58.8c19.6-31,26.2-54.6,26.2-54.6c0.3,19.8-0.5,39.7-2.4,59.4c20.7-31,28-54.7,28-54.7
	c2.8,84-24.5,145.4-43.3,210.4c23.7-35.4,30-62.8,30-62.8c-2,24.3-5,47.3-8.8,69.3c25.1-35.3,32-62.9,32-62.9
	c-2.5,24.5-6,47.7-10.3,69.9c26.5-35.2,34.1-62.9,34.1-62.9c-15.9,88.7-42.8,165.7-77.8,231C1012.6,912.6,1000.2,923.1,984,923.1z"
	/>
<path class="st0" d="M678.6,689.7c-14.1,6.2-19.4,34.9-10.1,45.3s34.1,3.2,45.7-8l22-20C705.8,699,714.1,674,678.6,689.7z"/>
<path class="st0" d="M521.4,689.7c-35.5-15.7-27.3,9.3-57.6,17.3l22,20c11.6,11.2,36.6,18.3,45.7,8S535.5,695.9,521.4,689.7z"/>
</svg>
