<?xml version="1.0" encoding="utf-8"?>
<!-- Generator: Adobe Illustrator 24.2.1, SVG Export Plug-In . SVG Version: 6.00 Build 0)  -->
<svg version="1.1" id="ffe6bee8-e793-4e33-a4ab-3e285c6a5a44"
	 xmlns="http://www.w3.org/2000/svg" xmlns:xlink="http://www.w3.org/1999/xlink" x="0px" y="0px" viewBox="0 0 1150 800"
	 style="enable-background:new 0 0 1150 800;" xml:space="preserve">
<style type="text/css">
	.st0{opacity:0.14;fill:#F9A826;enable-background:new    ;}
	.st1{fill:none;stroke:#535461;stroke-width:2;stroke-miterlimit:10;}
	.st2{fill:#F9A826;}
	.st3{opacity:0.25;enable-background:new    ;}
	.st4{fill:#B77B7F;}
	.st5{fill:#DECBAF;}
	.st6{fill:#9D816B;}
	.st7{fill:#B19482;}
	.st8{fill:#85664F;}
	.st9{fill:#FEFEFE;}
	.st10{fill:#433020;}
	.st11{fill:#DDA2A6;}
	.st12{opacity:0.1;enable-background:new    ;}
	.st13{fill:#FFFFFF;}
	.st14{fill:url(#SVGID_1_);}
	.st15{fill:#67647E;}
	.st16{fill:#3F3D56;}
	.st17{fill:#EFB7B9;}
	.st18{fill:#F95858;}
	.st19{opacity:0.1;}
	.st20{fill:#9D9CB5;}
	.st21{opacity:0.57;enable-background:new    ;}
</style>
<g>
	<path class="st0" d="M983.7,237.6c-22.9-33.9-57.4-60.4-92.7-85c-97.2-68-209.5-128.1-334-134.2c-39.6-2-83.2,3.1-110.9,27.8
		c-27.6,24.7-23.1,51.3-17.4,81.6c5.3,28.3-26.4,53-53.2,65.8C349.8,206,320.6,212,291.8,218c-19.5,4.2-39.4,8.5-56.1,18.3
		c-40.3,23.6-50.7,74.1-34.5,113.9s53.4,70.4,92.9,95c90,56.1,197.4,88.9,306.7,103.8c39.1,5.3,79,8.4,118.4,4.6
		c55.3-5.4,107.8-24.1,156.5-47.5c27.3-13.1,54-27.9,76-47.3C1016.4,402.1,1030.3,306.5,983.7,237.6z M294.2,369.7
		c-25.9,0-46.9-21-46.9-46.9c0-25.9,21-46.9,46.9-46.9s46.9,21,46.9,46.9C341.1,348.7,320.1,369.7,294.2,369.7z"/>
	<ellipse class="st0" cx="494.1" cy="781.1" rx="112.9" ry="18.9"/>
	<ellipse class="st0" cx="716.2" cy="636" rx="112.9" ry="18.9"/>
	<ellipse class="st0" cx="246.6" cy="618.9" rx="71.9" ry="11"/>
	<circle class="st0" cx="309.7" cy="126.5" r="29.9"/>
	<ellipse class="st0" cx="247" cy="55.3" rx="18.5" ry="18.5"/>
	<circle class="st0" cx="150.2" cy="96.6" r="11.4"/>
	<path class="st1" d="M789,643.4c0,0,23.8-42.2,59.6-54.3c15.1-5,28.1-14.7,37.1-27.8c4.3-6.3,7.9-12.8,10.9-19.7"/>
	<path class="st2" d="M919.3,533.8c-4.1,4-23.1,8.1-23.1,8.1s4.7-18.9,8.7-22.9c4.1-4,10.6-3.9,14.5,0.2
		C923.5,523.3,923.4,529.8,919.3,533.8L919.3,533.8z"/>
	<path class="st2" d="M908.5,568c-5.6,1.1-23.7-5.8-23.7-5.8s14.1-13.3,19.7-14.4c5.6-1.1,11,2.6,12.2,8.1
		C917.8,561.4,914.1,566.8,908.5,568L908.5,568L908.5,568z"/>
	<path class="st2" d="M869.4,604.9c-5.4-1.9-17.6-17-17.6-17s19-4.4,24.3-2.5c5.4,1.7,8.4,7.5,6.6,13c-1.7,5.4-7.5,8.4-13,6.6
		C869.7,605,869.5,605,869.4,604.9L869.4,604.9z"/>
	<path class="st2" d="M833.5,626.2c-5.6-0.9-20.2-13.8-20.2-13.8s17.9-7.5,23.5-6.6c5.6,0.9,9.5,6.2,8.6,11.8
		c-0.9,5.6-6.2,9.5-11.8,8.6C833.5,626.3,833.5,626.3,833.5,626.2L833.5,626.2z"/>
	<path class="st2" d="M869,547.4c0,5.7,10.3,22.2,10.3,22.2s10.3-16.5,10.3-22.2s-4.7-10.3-10.3-10.3
		C873.5,537.1,869,541.8,869,547.4L869,547.4z"/>
	<path class="st2" d="M827.2,572.8c1.7,5.4,16.4,18.1,16.4,18.1s4.9-18.8,3.2-24.2c-1.7-5.4-7.5-8.4-12.9-6.7
		C828.5,561.6,825.5,567.4,827.2,572.8L827.2,572.8z"/>
	<path class="st2" d="M790.1,603.1c0.8,5.6,13.2,20.6,13.2,20.6s8-17.8,7.2-23.4c-0.8-5.6-6-9.6-11.6-8.8S789.3,597.5,790.1,603.1z"
		/>
	<path class="st3" d="M919.3,533.8c-4.1,4-23.1,8.1-23.1,8.1s4.7-18.9,8.7-22.9c4.1-4,10.6-3.9,14.5,0.2
		C923.5,523.3,923.4,529.8,919.3,533.8L919.3,533.8z"/>
	<path class="st3" d="M908.5,568c-5.6,1.1-23.7-5.8-23.7-5.8s14.1-13.3,19.7-14.4c5.6-1.1,11,2.6,12.2,8.1
		C917.8,561.4,914.1,566.8,908.5,568L908.5,568L908.5,568z"/>
	<path class="st3" d="M869.4,604.9c-5.4-1.9-17.6-17-17.6-17s19-4.4,24.3-2.5c5.4,1.7,8.4,7.5,6.6,13c-1.7,5.4-7.5,8.4-13,6.6
		C869.7,605,869.5,605,869.4,604.9L869.4,604.9z"/>
	<path class="st3" d="M833.5,626.2c-5.6-0.9-20.2-13.8-20.2-13.8s17.9-7.5,23.5-6.6c5.6,0.9,9.5,6.2,8.6,11.8
		c-0.9,5.6-6.2,9.5-11.8,8.6C833.5,626.3,833.5,626.3,833.5,626.2L833.5,626.2z"/>
	<path class="st3" d="M869,547.4c0,5.7,10.3,22.2,10.3,22.2s10.3-16.5,10.3-22.2s-4.7-10.3-10.3-10.3
		C873.5,537.1,869,541.8,869,547.4L869,547.4z"/>
	<path class="st3" d="M827.2,572.8c1.7,5.4,16.4,18.1,16.4,18.1s4.9-18.8,3.2-24.2c-1.7-5.4-7.5-8.4-12.9-6.7
		C828.5,561.6,825.5,567.4,827.2,572.8L827.2,572.8z"/>
	<path class="st3" d="M790.1,603.1c0.8,5.6,13.2,20.6,13.2,20.6s8-17.8,7.2-23.4c-0.8-5.6-6-9.6-11.6-8.8S789.3,597.5,790.1,603.1z"
		/>
	<path class="st1" d="M790.4,642.5c0,0,4.7-48.1,32.5-73.8c11.8-10.6,19.7-24.9,22.7-40.4c1.3-7.4,2.1-14.9,2-22.5"/>
	<path class="st2" d="M865.1,489.6c-2.1,5.3-17.8,16.7-17.8,16.7s-3.4-19.2-1.2-24.4c2-5.3,7.9-8.1,13.3-6.1c5.3,2,8.1,7.9,6.1,13.3
		C865.3,489.3,865.2,489.4,865.1,489.6z"/>
	<path class="st2" d="M869.1,525.2c-4.7,3.3-24.1,4.4-24.1,4.4s7.6-17.9,12.2-21.2c4.7-3.2,11.1-2.2,14.3,2.5
		C874.8,515.5,873.8,521.9,869.1,525.2z"/>
	<path class="st2" d="M848.3,574.8c-5.7,0.5-23-8.4-23-8.4s15.6-11.7,21.2-12.2c5.7-0.5,10.6,3.7,11.1,9.4
		C858.1,569.4,854,574.3,848.3,574.8L848.3,574.8z"/>
	<path class="st2" d="M824.1,608.9c-5.5,1.4-24-4.4-24-4.4s13.4-14.1,18.9-15.6c5.5-1.5,11.2,1.6,12.7,7.1
		c1.5,5.5-1.6,11.2-7.1,12.7C824.3,608.8,824.2,608.8,824.1,608.9L824.1,608.9z"/>
	<path class="st2" d="M824.5,522.4c2.3,5.2,18.4,16.1,18.4,16.1s2.8-19.3,0.5-24.5c-2.4-5.1-8.5-7.4-13.7-5
		C824.7,511.5,822.4,517.4,824.5,522.4L824.5,522.4z"/>
	<path class="st2" d="M796.7,562.6c3.8,4.3,22.4,9.9,22.4,9.9s-3.1-19.2-6.9-23.4c-3.7-4.4-10.2-4.8-14.5-1.2
		c-4.4,3.7-4.8,10.2-1.2,14.5C796.6,562.5,796.7,562.5,796.7,562.6L796.7,562.6z"/>
	<path class="st2" d="M775.1,605.4c2.9,4.8,20.4,13.5,20.4,13.5s0.2-19.5-2.8-24.3c-2.9-4.8-9.3-6.4-14.1-3.4
		S772.1,600.5,775.1,605.4L775.1,605.4L775.1,605.4z"/>
	<polygon class="st4" points="723.6,386.2 723.5,389.9 717.2,616.3 706.3,616.3 711.6,389.9 711.7,385.6 	"/>
	<g>
		<g>
			<path class="st5" d="M666.6,601.9c-1.2-1.5-2.8-2.8-4.4-4c-0.3-0.2-0.6-0.5-0.7-1.1c2.8,1.4,5.2,3,8.1,3.7
				c-1.9-1.2-3.5-2.8-5.1-4.4c-2.1-2.1-4.5-4.1-5.8-6.8l0,0c1.1,0.5,1.9,1.5,2.8,2.2c1.6,1.1,3.2,2.5,5.1,3.2
				c0.1,0.1,0.2,0.1,0.3,0.2l0.1-0.1c-0.1,0-0.2,0-0.3-0.1c-1-1.4-2.2-2.9-3.2-4.4c-0.5-0.8-0.9-1.5-1.3-2.3
				c1.2,0.6,2.2,1.5,3.2,2.3c1.1,0.8,2,1.8,3.9,2.1c-2.4-2.8-4.3-5.3-5.6-8.3c2.6,1.7,4.8,3.8,8,5c-0.5-1.5-1.9-2.3-1.7-3.9
				c1.6,0.1,2.8,1.6,4.4,1.6c0.2-0.2,0.1-0.3,0-0.5c-2.1-1.9-3.5-4.4-5-6.7c-0.6-0.9-0.9-1.9-1.3-2.9c-0.1-0.2-0.1-0.4,0.1-0.6
				c0.3-0.3,0.5,0,0.7,0.2c1.6,1.6,3.3,3.1,5.1,4.6c0.9,0.8,1.9,1.4,3,2.4c-0.8-2.1-2.6-3.3-2.8-5.4c0.7-0.1,0.9,0.4,1.3,0.7
				c1.4,1,2.7,2.5,4.7,2.7c0,0.1,0,0.2,0,0.3c0,0,0.1,0,0.1-0.1c-0.1-0.1-0.1-0.2-0.2-0.3c-1-2.3-2-4.6-2.4-7
				c-0.2-1.1-0.3-2.4-0.5-3.7c1.7,2.8,3.7,5.3,5.9,7.6c-1.4-4.1-2.3-8.3-3-12.5c0.8,1.3,1.4,2.7,2.3,3.9c1,1.6,2.2,3.2,3.2,4.8
				c0.1,0.1,0.3,0.1,0.5,0.2c0,0.1,0.1,0.2,0.1,0.3l0.1-0.1c-0.1-0.1-0.1-0.2-0.2-0.3c-0.9-2.8-1.8-5.7-2.3-8.6
				c1.7,2.6,3.2,5.3,5.3,8c-0.4-1.5-0.7-2.6-0.8-4c0.8,0.7,1.3,1.2,2,1.8c0.1,0.2,0.1,0.4,0.2,0.6c0,0,0.1,0,0.1-0.1
				c0.1-0.2,0-0.4-0.2-0.6c-0.7-2.5-1.9-4.7-3.2-6.9c-0.1-0.2-0.6-0.4-0.2-0.7c0.3-0.2,0.6,0.1,0.8,0.3c1.3,0.9,2.4,2.2,3.5,3.3
				c-0.8-2.4-2.2-4.5-3.5-6.6l0,0c2,0.5,3.2,2.1,4.6,3.5c0.3,0.4,0.7,0.8,1,1.1c-0.8-3.6-0.7-7.1,0.4-10.8c0.5,1.8,0.8,3.3,1.4,4.8
				c0.7,1.4,1.2,2.9,2.3,4.5c0.5-2.6,0.5-4.9,0.9-7.3c0.8,2.2,1.5,4.3,2.4,6.6c0.9-1.7,1.1-3.3,0.9-5.3c1.6,0.9,1.8,2.3,2.4,3.7
				c0.9-1.7,0.9-3.4,0.2-5c-0.1-0.4-0.3-0.7,0-0.9c0.4-0.3,0.5,0.3,0.7,0.4c1.2,1.1,1.3,2.7,1.8,4.1c0.2,0.6,0.2,1.1,0.4,1.8
				c1-3.1,1.6-6.3,2.9-9.4c0.1,2.7,0.6,5,0.9,7.4c0.2-1.5,0.1-3,0.4-4.6c0.1-0.7,0.2-1.3,0.3-2c0-0.3,0-0.6,0.4-0.6
				c0.4,0,0.4,0.3,0.4,0.6c0.2,1.5,0.4,2.9,0.5,4.5c0.1,0.8,0,1.4,0.1,2.2c0.6-2.4,0.9-4.7,1-7.4c1.3,3,1.9,6.2,2.8,9.3
				c0.3-1.2,0.6-2.4,0.9-3.5c0.4-1.2,0.9-2.3,2.4-3.2c-0.9,2.2-1,4.2-0.3,6.4c0.7-1.4,0.8-2.9,2.4-3.8c-0.3,1.9-0.1,3.6,0.9,5.3
				c0.9-2.3,1.7-4.5,2.5-6.7c0.5,2.4,0.3,4.9,0.9,7.5c1.9-2.9,2.9-5.9,3.7-9.4c0.9,3.8,1.2,7.3,0.4,10.9c1.2-1.3,2.3-2.8,3.9-3.8
				c0.6-0.4,1-0.9,1.8-0.9l0,0c-1.3,2.1-2.7,4.2-3.5,6.6c1.3-0.9,2-2.4,3.4-3.1c0.3-0.2,0.6-0.8,0.9-0.4c0.5,0.4-0.2,0.7-0.3,0.9
				c-1.2,2.2-2.4,4.3-3,6.6c-0.2,0.1-0.3,0.3-0.2,0.6l0.1,0.1c0.1-0.2,0.1-0.4,0.2-0.6c0.6-0.6,1.2-1.1,2-1.8
				c-0.1,1.1-0.3,2-0.4,2.9c2.1-2,3.3-4.6,4.9-7.1c-0.4,3-1.4,5.8-2.1,8.7c2.4-2.7,4.2-5.6,5.9-8.6c-0.9,4.2-1.7,8.4-3.1,12.5
				c2.2-2.3,4.2-4.7,5.8-7.5c-0.2,3.9-1.2,7.4-2.8,10.7c-0.1,0.1-0.1,0.2-0.2,0.3c0,0,0.1,0,0.1,0.1c0-0.1,0-0.2,0-0.3
				c1.9-0.2,3.1-1.6,4.6-2.7c0.4-0.3,0.7-0.8,1.4-0.9c-0.3,2.1-2.1,3.3-2.8,5.4c2.9-2.1,5.4-4.3,7.8-6.6c0.3-0.3,0.5-0.9,0.9-0.6
				s-0.1,0.8-0.2,1.1c-0.9,2.7-2.8,4.9-4.3,7.3c-0.6,0.9-1.5,1.2-2.1,2.4c1.2-0.2,2.1-0.6,3-1.1c0.4-0.3,1-0.7,1.3-0.3
				c0.5,0.4,0.1,0.9-0.3,1.5c-0.5,0.6-0.9,1.2-1.1,2c2.9-1,5.2-3.1,8-5c-1.4,3.2-3.4,5.8-5.5,8.4c2.6-0.9,4.5-2.8,6.9-4.6
				c-0.8,1.8-1.8,3-2.7,4.4c-0.6,0.9-1.6,1.5-2,2.6c-0.1,0-0.2,0-0.3,0.1l0.1,0.1c0.1-0.1,0.2-0.1,0.3-0.2c1.9-0.8,3.5-2,5.1-3.2
				c0.9-0.7,1.7-1.8,2.8-2.2l0,0c-0.6,1.2-1.5,2.4-2.5,3.3c-1.7,1.7-3.3,3.5-5,5.1c-0.7,0.6-1.3,1.2-2.1,1.6
				c-0.3,0.2-0.6,0.4-0.6,0.9c2.7-0.7,4.7-2.2,7.2-3.3c-1.4,1.8-3.5,3-4.9,4.9c-0.3-0.6-0.6-0.2-0.9-0.1c-1.8,0.6-3.6,1.2-5.5,1.8
				c-0.9,0.3-1.8,0.8-2.9,0.6c3-1.7,5.2-4.3,7.1-7c-1.5,0.7-2.8,1.6-4,2.8c-1.2,1.4-2.8,2.6-4.5,3.6c-2.7,1.9-5.6,3.1-8.4,4.7
				c-1.1,0.1-2.1,0.9-3.3,1c-0.2-1-0.9-2.1-0.8-3.2c0.6,0.3,1.1,0.2,1.7,0c3-0.9,5.9-2.2,8.5-3.8c2.9-1.8,4.9-4.5,6.5-7.5
				c0-0.1,0-0.2-0.1-0.3c-1.2,0.9-2.4,1.9-3.7,2.8c-1.2,0.9-2.6,1.8-4.1,2.1c1-1,2.1-2.1,2.8-3.6c-4.7,2.7-8.3,6.4-12.7,8.8
				c-0.6-0.8-1.3-1.5-1.2-2.6c1-0.6,2.1-1.1,3.1-1.7c1.7-1,3.2-2.4,4.9-3.3c2.8-1.7,4.3-4.1,4.8-7.6c-1.9,2.4-3.7,4.4-5.8,6.1
				c-0.1-0.1-0.2-0.2-0.3-0.2c0.9-1.4,1.7-2.8,1.9-4.5c-0.9,0.8-1.9,1.1-2.6,2.1c-2.1,2.9-4.7,5.6-7.4,8c-0.6-0.7-1.2-1.4-1.8-2.1
				c1.4-1.2,2.8-2.4,4.2-3.7c0.8-0.8,1.3-1.8,2.2-2.5c1.2-0.9,2.2-2.2,3-3.4c0.9-1.1,0.9-2.6,0.9-4c-1,1.8-2.7,3.1-3.8,4.8
				c-0.4,0.5-0.7,0.5-1.1,0.4c0.8-1.4,1.9-2.7,1.7-4.6c-0.9,1-1.8,2-2.7,2.8c-0.1-0.1-0.1-0.2-0.2-0.2c1.1-2.6,2.3-5.1,2.8-7.9
				c-2.1,2.5-2.3,5.7-3.9,8.4c-1.6,2.8-3.3,5.3-5.3,7.7c-0.2,0-0.3,0-0.5,0l0,0c-0.2-0.1-0.4-0.3-0.6-0.4c-0.2-0.7-1.2-0.5-1.3-1.2
				c2.3-2.6,4.4-5.1,6.2-8.1c0-0.1,0-0.2,0-0.3c-0.1,0.1-0.2,0.1-0.3,0.2c-1,0.6-0.9-0.2-0.7-0.7c0.6-1.5,0.6-3,0.9-4.7
				c-1.2,1.5-2.1,3.3-3.3,4.7c-0.1-0.1-0.2-0.2-0.2-0.3c1.1-4,1.9-8,1.7-12.2c-0.9,1.6-1.3,3.4-2.1,5.1c-0.4,0.9-0.3,1.8-0.5,2.8
				c-0.8,4.3-2.4,8.2-4.3,12.1c-1-0.1-1.9-0.6-2.6-1.3c1-1.8,2.4-3.5,2.9-5.5c0.6-1.8,1.2-3.6,1.8-5.4c1.5-4.4-0.1-8.4-0.8-12.6
				c-0.4,3.4-0.9,6.7-1.7,10.2c-0.2-0.1-0.5-0.2-0.7-0.3c-0.2-2-0.4-4-0.6-5.9c-0.5,0.7-0.7,1.3-0.6,2c0.1,0.9,0.3,2,0.3,3
				c0.2,4.7-0.5,9.2-2.3,13.5c-1,0-1.7-0.7-2.4-1.3c1.5-3.8,2.4-7.7,2.7-11.8c-0.2,0.4-0.5,0.8-0.7,1c0.1-2.4-0.5-4.6-0.7-7
				c-0.3,0.5-0.7,0.9-0.7,1.1c0.1,2-0.7,3.8-0.4,5.9c0.5,3.3-0.1,6.6-0.8,9.9c-1.2-0.2-1.8-1-2.3-2.1c0.3-2.2,0.6-4.4,0.9-6.6
				c0.4-2.3,0.1-4.2-1.3-6c-0.9,1.4-1.7,2.8-1.4,4.8c0.3,2.6,0.7,5.1,1.1,7.7c-0.5,1-1,1.9-2.3,2.1c0-1.3-0.4-2.6-0.7-3.8
				c-0.7-3.8,0.7-7.6-0.6-11.3c-0.2-0.6-0.2-1.1-0.7-1.8c-0.3,2.5-0.7,4.7-0.5,7.2c-0.6-0.6-0.6-1.2-1.2-1.3c0.7,4.1,1.5,8.1,3,11.9
				c-0.7,0.7-1.3,1.3-2.4,1.3c-0.7-1.3-1.1-2.8-1.4-4.3c-0.9-4-1.2-8-0.6-12.1c0.1-0.9,0-1.6-0.4-2.3c-0.8,2.4-0.7,4.7-0.8,7.2
				c-0.1,0-0.3,0-0.4,0c-1-3.6-1.4-7.4-1.9-11.3c-0.8,1.7-0.9,3.4-1.1,5c-0.3,2.3-0.8,4.7,0,7c1.3,4.1,2.7,8.1,5,11.6
				c-0.8,0.7-1.6,1-2.6,1.3c-0.8-1.5-1.4-3-2.1-4.7c-0.9-2.1-1.6-4.2-2-6.4c-0.4-2-0.5-4.1-1.5-5.9c-0.6-0.9-0.6-2.1-1.2-3.3
				c-0.3,4.5,0.7,8.4,1.8,12.4c-0.1,0.1-0.2,0.2-0.2,0.3c-1.2-1.4-2.1-3.1-3.3-4.6c0.5,1.5,0.2,3.1,0.9,4.6c0.3,0.7,0,0.9-0.7,0.6
				c-0.1-0.1-0.2-0.1-0.3-0.2c0,0.1,0,0.2,0,0.3c1.8,2.8,3.9,5.5,6.2,8.1c-0.1,0.8-1.1,0.6-1.3,1.2c-0.2,0.1-0.4,0.3-0.6,0.4l0,0
				c-0.2,0-0.3,0-0.5,0c-3.5-4.3-6.5-8.8-7.8-14.2c-0.2-0.8-0.8-1.3-1.4-1.9c0.6,2.8,1.7,5.3,2.8,7.9c-0.1,0.1-0.2,0.2-0.2,0.2
				c-0.9-0.9-1.8-1.9-2.8-2.9c-0.1,1.6,0.7,2.7,1.2,3.8c0.1,0.3,0.8,0.5,0.3,0.9c-0.5,0.3-0.8-0.2-0.9-0.6c-1-1.7-2.8-2.8-3.7-4.7
				c0.2,1.4,0.3,2.8,1,4.2c1.2,1.8,2.9,3.3,4.4,4.9c1.4,1.7,3.2,3.1,5,4.6c-0.5,0.8-1.1,1.5-1.8,2.1c-2.7-2.2-4.9-4.7-7-7.4
				c-0.9-1.1-1.9-1.8-3.1-2.8c0.5,1.9,1.3,3.3,2.1,4.7c-0.1,0.1-0.2,0.2-0.3,0.2c-2.3-1.6-3.9-3.8-5.8-5.9c0.3,3.1,2,5.9,4.7,7.3
				c0.2,0.1,0.5,0.1,0.6,0.3c2.2,2.2,4.9,3.5,7.6,4.9c0.1,1.1-0.7,1.8-1.2,2.6c-4.6-2.5-8.2-6.2-12.9-8.9c0.9,1.5,1.9,2.6,2.8,3.7
				c-2.9-0.9-5.3-3-7.8-4.7c2.2,4.3,5,7.6,9.5,9.4c1.9,0.9,3.8,1.6,5.8,2.3c0.6,0.2,1,0.2,1.5-0.1c0.2,1.1-0.6,2.2-0.8,3.2
				c-1.2-0.1-2.1-0.9-3.3-1c-0.3-0.2-0.5-0.4-0.8-0.5c-4.9-2.3-9.6-5-13.3-9.1c-0.8-0.8-1.8-1.2-2.8-1.8c1.9,2.8,4.1,5.4,7,7.2
				c-0.5,0.2-0.8,0.1-1,0c-2.4-0.7-4.7-1.3-6.9-2.2C667.3,601.8,666.9,601.2,666.6,601.9z M753.1,592.7
				C753.1,592.8,753.1,592.8,753.1,592.7C753.2,592.8,753.2,592.8,753.1,592.7C753.3,592.7,753.3,592.7,753.1,592.7
				C753.2,592.7,753.2,592.7,753.1,592.7z M669.4,592.8C669.4,592.8,669.5,592.8,669.4,592.8v-0.2V592.8
				C669.4,592.8,669.4,592.8,669.4,592.8z"/>
			<path class="st5" d="M755.5,602.8c2.8-0.5,5.3-1.7,7.9-2.9c-1.2,3-3.4,5.2-6.5,7.2c1.8-0.3,3.1-0.6,4.8-0.9
				c-2.1,1.7-4.4,2.3-6.7,3.6c2.2,0.3,3.8-0.2,5.4-0.9c1.5-0.7,2.9-1.5,4.5-2.4c0.2-0.1,0.2-0.5,0.5-0.2c0.2,0.2,0.2,0.4,0,0.6
				c-1,1.2-1.9,2.7-3.1,3.8c-3.4,0.9-6.8,1.8-10.4,1.9c-2,0.1-4,0-6,0c1.4-0.7,2.9-0.9,4.3-1.6c1.3-0.8,2.8-1.2,3.8-2.6
				c-3.8,1-7.3,2.8-11.1,3.8c-2.8,0.4-5.3,1.1-8.1,1.1c-0.2-0.9-0.3-1.9-0.5-2.8c0.7,0,1.3,0.1,2-0.1c1.1-0.2,2.4,0.1,3.4-0.6
				c0.5,0.2,1,0.1,1.5,0c2.4-0.5,4.7-0.9,7.1-1.6c2.4-0.7,4-2.3,5.5-4C754.3,603.8,754.7,603.1,755.5,602.8z"/>
			<path class="st5" d="M660.2,610.8c-0.7-1.1-1.6-2.2-2.5-3.2c-0.3-0.3-0.9-0.8-0.4-1.1c0.3-0.3,0.8,0.3,1,0.5
				c2.3,1.4,4.6,2.7,7.3,3.1c0.8,0.1,0.8,0.2,1.8-0.2c-2.1-1.1-4.4-1.7-6.6-3.4c1.7,0.3,3.1,0.5,4.8,0.8c-2.8-2-5.1-4.2-6.5-7.2
				c2.7,1.1,5.1,2.5,7.9,2.9c0.7,0.3,1.1,0.8,1.6,1.3c1.5,1.8,3.2,3.5,5.7,4.2c2.4,0.7,4.8,1.2,7.2,1.6c0.5,0.1,0.9,0.1,1.4-0.1
				c0.2,0.5,0.7,0.3,1,0.4c1.4,0.1,2.9,0.2,4.4,0.3c-0.2,0.9-0.3,1.9-0.5,2.8c-0.9,0-1.7-0.1-2.6-0.2c-2-0.2-3.9-0.9-5.9-0.9
				c-3.7-1.2-7.2-2.9-11-3.8c2.6,1.9,5.2,3.3,8.3,4.2c-3.5,0.3-7,0.1-10.4-0.4C664.3,611.9,662.3,611.1,660.2,610.8z"/>
			<path class="st5" d="M671.8,626c-0.9,2.6-1.9,5.1-2.2,7.9c-0.1,0.9-0.2,1.8-0.4,2.8c0.9-0.2,0.9-1.3,2-1.6c0,3.3,0.4,6.6,0.8,9.8
				c-0.4-0.1-0.9-0.3-1.2-0.4c-0.2-0.1-0.7-0.2-0.5-0.5c0.9-1.1-0.1-0.9-0.7-0.9c-0.6,0-1.1-0.1-1.3-0.6c-0.2-0.6,0.7-0.3,0.9-0.7
				c0.2-0.3,0.8-0.3,0.7-0.9c0.1,0,0.2-0.1,0.3-0.1l-0.1-0.1c-0.1,0.1-0.2,0.1-0.3,0.2c-0.9,0-1.7,0.1-2.6-0.3
				c-0.3-0.1-0.7,0.2-0.8-0.3c-0.1-0.5,0.4-0.6,0.7-0.7c0.9-0.4,1.9-0.7,2.8-1.6c-2.3,0.1-4.3,0.9-6.5,0.5c1.5-0.6,2.8-1.1,4.1-2.1
				c-2,0.4-4.1,0.6-6.1,0.1c2.2-0.8,4.2-1.9,6.4-3.3c-2,0.2-3.6,0.6-5.3,0.3c1.9-0.7,3.7-1.5,5.4-2.8c-1.7,0.2-3.3,0.2-5.1-0.6
				c1.6-0.8,3.1-0.9,4.7-1.8c-1.5-0.2-2.9-0.3-4.4-1c1.9-0.6,3.6-0.7,5.2-1.5c-1.9-0.5-3.8-0.3-5.6-1.1c1.9-0.3,3.8-0.8,5.7-1.3
				c-2.3-0.2-4.5-0.6-6.6-1.6c3-0.2,6.2,0.1,9.3-0.7c-4.1-0.8-8.1-1.4-11.9-3.4c1.3-0.4,2.4,0.1,3.4,0.2c1,0.1,2.2,0.5,3.2,0.4
				c2.3,0.6,4.6,1.1,6.9,1.3c0,1-0.8,1.8-1.1,2.7c-0.6,1.4-1.1,2.9-1.5,4.7C670.9,626.5,671.3,626.2,671.8,626
				C671.7,625.9,671.8,626,671.8,626z"/>
			<path class="st5" d="M750.8,644.7c0.4-3.2,0.9-6.4,0.8-9.7c1,0.2,1.1,1.3,1.9,1.6c-0.1-3.7-1.3-7.1-2.5-10.6
				c0.1,0,0.1-0.1,0.2-0.1c0.4,0.3,0.7,0.6,1.2,1c-0.4-2.3-1.1-4.2-2.2-6.1c-0.2-0.4-0.6-0.8-0.5-1.3c2.4-0.1,4.6-0.9,6.9-1.3
				c2.2,0.1,4.3-0.9,6.7-0.8c-3.8,2.2-7.9,2.7-12,3.6c3.3,0.6,6.4,0.5,9.4,0.6c-2,1.1-4.3,1.3-6.6,1.7c1.9,0.5,3.7,1,6,1.1
				c-2,1.2-4.1,0.6-5.9,1.3c1.6,0.8,3.3,1,5.2,1.5c-1.5,0.8-2.8,0.9-4.4,1c1.3,0.9,3,0.9,4.6,1.8c-1.8,0.7-3.3,0.9-5,0.5
				c1.5,1.3,3.4,2.1,5.3,2.8c-1.6,0.3-3.3-0.1-5.2-0.3c2.2,1.5,4.1,2.6,6.4,3.3c-2,0.6-4.1,0.2-6.1-0.1c1.2,0.9,2.7,1.5,4.1,2.1
				c-2.2,0.5-4.1-0.4-6.2-0.5c0.6,1,1.5,1.1,2.3,1.6c0.4,0.2,0.9,0.2,0.9,0.8c-0.1,0.5-0.6,0.2-0.9,0.3c-0.8,0.4-1.6,0.2-2.4,0.3
				c-0.1-0.1-0.2-0.1-0.3-0.2l-0.1,0.1c0.1,0,0.2,0.1,0.3,0.1c0.1,0.7,0.7,0.8,1.1,1c0.2,0.1,0.5,0.1,0.5,0.4s-0.3,0.4-0.5,0.5
				c-0.4,0.3-0.9,0.2-1.2,0.2c-0.3,0-0.7,0.1-0.6,0.3C752.9,644.8,751.1,644.1,750.8,644.7z"/>
			<path class="st5" d="M757.9,617.2c-1,0-2.2,0.2-3.3-0.1c0.2-0.5,0.7-0.6,1-0.8c1.9-1,3.7-2.2,5.3-3.5c0.6,0.7,1.1,0.3,1.7,0
				c1.1-0.6,2.4-1.1,3.7-1.8c-0.4,1-1.1,1.3-1.6,1.7c-1.5,1.1-3,2.4-4.7,3.1C759.2,616.2,758.5,616.6,757.9,617.2z"/>
			<path class="st5" d="M662.2,613.4c2,1.1,3.7,2.7,6.1,3.5c-1.3,0.7-2.5,0.1-3.4,0.6c-0.3-0.8-0.9-0.9-1.5-1.2
				c-2.8-1-4.9-2.8-7.3-4.9c0.9,0,1.2,0.3,1.7,0.6s0.9,0.5,1.5,0.8C660.2,613,661.1,613.5,662.2,613.4z"/>
			<path class="st5" d="M739.2,618.6c-1-0.1-2-0.2-3-0.1c-1,0.1-1.4-0.3-1.2-1.3c0.1-0.3,0-0.6,0-0.9c0.3-0.1,0.5-0.3,0.4-0.6
				c3.7,0.3,7.4,0.5,11.1,0c2.4-0.2,4.7-0.4,7.1-1.1c1.2-0.4,2.7-0.4,4-0.6c-1.3,1-2.8,1.8-4.4,2.3c-1.6,0.6-3.3,0.9-5,1.5
				C745.2,618.3,742.2,618.5,739.2,618.6z"/>
			<path class="st5" d="M687.7,616.2c0,0.6,0.1,1.1,0.1,1.7c0,0.1,0,0.2,0,0.3c-1.4,0.4-2.9,0.2-4.4,0.4c-3.1-0.1-6.2-0.3-9.2-0.9
				c-1.8-0.7-3.7-0.9-5.4-1.7c-1.3-0.6-2.6-1.2-3.7-2c3.7,0.6,7.4,1.6,11.1,1.7c3.3,0.5,6.6,0.5,9.9,0.1c0.5-0.1,0.9,0,1.2,0.2
				C687.4,616,687.6,616.1,687.7,616.2z"/>
		</g>
		<path class="st5" d="M720.7,579c-0.2,0.6-0.1,1.3-0.7,2c0-0.9,0-1.6,0-2.3C720.2,578.8,720.4,578.9,720.7,579z"/>
		<g>
			<path class="st6" d="M750.8,644.7c-0.2,2.3-0.2,2.3-2.5,2.3c-24.6,0-49.2,0-74,0c-2.3,0-2.3,0-2.5-2.3c-0.4-3.2-0.8-6.5-0.8-9.8
				c-0.9,0.3-1,1.3-2,1.6c0.1-0.9,0.3-1.9,0.4-2.8c0.4-2.8,1.3-5.2,2.2-7.9c0.1-0.1,0.3-0.3,0.1-0.4c-0.2-0.1-0.2,0.2-0.3,0.3
				c-0.4,0.3-0.8,0.6-1.3,1c0.5-1.8,0.9-3.2,1.5-4.7c0.4-0.9,1.1-1.6,1.1-2.7c0.9-0.3,1-1.1,1.3-1.9c3,0.6,6.2,0.8,9.2,0.9
				c-0.1,0.8,0.5,0.7,0.9,0.7c0.9,0,1.8,0,2.8,0c0,0.5-0.2,0.6-0.4,0.7c-0.5,0.5-1.2,1.1-1,1.6c0.2,0.7,1.1,0.2,1.7,0.3
				c0.4,0.1,0.8,0,1.1,0.2c0.4,0.1,0.9,0.3,0.7,0.9c-0.6,0.9,0.1,0.9,0.6,0.7c1.5-0.4,2.9,0,4.4,0.6c1.6,0.7,2.9,1.8,4.4,2.8
				c2,1.4,3.9,3,6.6,2.7c0,0.6,0.1,1.1,0.5,1.6c1.9,2.8,1.5,5.8,1.3,8.8c-0.2,3,1,5.1,4.1,5.5c2.9,0.4,5.7-2.2,5.1-5.2
				c-0.4-2.2-0.4-4.5,0.2-6.7c0.3-1.4,1.5-2.4,1.5-3.9c0.9,0,1.8,0.1,2.8-0.3c1.9-0.9,3.5-2.1,5.1-3.3c2.2-1.7,4.6-2.9,7.5-2.4
				c0.3,0.1,0.9,0.2,0.7-0.4c-0.7-1.4,0.6-1.1,1.2-1.3c0.8-0.2,1.9,0.4,2.1-0.3c0.2-0.6-0.7-1.3-1.3-1.8c-0.1,0,0-0.2-0.1-0.5
				c0.9,0,1.9,0,2.8,0c0.5,0,0.9,0.1,0.9-0.7c3-0.1,6-0.3,9-0.9c0.7,0.6,0.7,1.6,1.6,1.9c-0.1,0.6,0.2,0.9,0.5,1.3
				c0.9,1.9,1.8,3.8,2.2,6.1c-0.5-0.5-0.9-0.8-1.2-1c-0.1-0.1-0.1-0.4-0.3-0.3c-0.2,0.1,0,0.3,0.1,0.4c1.2,3.4,2.4,6.8,2.5,10.6
				c-0.9-0.3-0.9-1.3-1.9-1.6C751.5,638.2,751.1,641.5,750.8,644.7z"/>
			<path class="st6" d="M688.6,609.3c-0.1,0.5-0.2,0.9-0.3,1.3c-1.4-0.1-2.9-0.2-4.4-0.3c-0.4,0-0.8,0.1-1-0.4
				c0.6-0.9,1.5-1.2,2.4-1.7C686.5,608.3,687.4,609.2,688.6,609.3z"/>
			<path class="st6" d="M734.3,610.6c-0.1-0.5-0.2-0.9-0.3-1.3c1.2-0.1,2.1-0.9,3.3-1c0.9,0.5,1.8,0.9,2.4,1.7
				c-1,0.7-2.3,0.4-3.4,0.6C735.7,610.6,735,610.5,734.3,610.6z"/>
			<path class="st6" d="M746.4,615.6c-3.7,0.6-7.4,0.3-11.1,0c-0.2,0-0.3,0-0.5,0c0-0.8,0-1.5,0-2.3c2.8,0.1,5.4-0.8,8.1-1.1
				C744.2,613.4,745.4,614.4,746.4,615.6z"/>
			<path class="st6" d="M687.3,615.9c-0.4-0.3-0.8-0.3-1.2-0.2c-3.3,0.4-6.6,0.4-9.9-0.1c0.9-1.1,1.9-2.4,3.1-3.3
				c2,0,3.9,0.7,5.9,0.9c0.9,0.1,1.7,0.2,2.6,0.2c0,0.7,0,1.4,0,2.1C687.4,615.4,687.3,615.6,687.3,615.9z"/>
			<path class="st6" d="M715.8,627.5c-0.2,0.3-0.5,0.3-0.8,0.1c-2.5-1.3-4.9-1.3-7.5,0c-0.3,0.2-0.6,0.2-0.8-0.1l0,0
				c0.1-0.1,0.2-0.2,0.3-0.3l0,0c0.8-0.3,1.5-0.7,2.3-0.9c2-0.7,3.9-0.3,5.7,0.9c0.1,0.1,0.3,0.1,0.5,0.1l0,0
				C715.6,627.3,715.7,627.4,715.8,627.5L715.8,627.5z"/>
		</g>
		<g>
			<path class="st7" d="M708.7,589.2c1.2-0.2,1.8-1,2.3-2.1c0.3,0,0.5,0,0.8,0c0.5,1,1,1.9,2.3,2.1c0,0.4,0.2,0.7,0.6,0.8
				c0.7,0.7,1.3,1.3,2.4,1.3c0.3,0.6,0.7,1,1.4,1c0.8,0.8,1.5,1.2,2.6,1.3c0.9,0.5,1.5,1.1,2.6,1.2c0.1,0.8,1.1,0.6,1.3,1.2
				c0.1,0.3,0.3,0.4,0.6,0.4l0,0c0,0.4,0,0.8,0.6,0.8l0,0c-0.1,0.4,0.1,0.8,0.4,1c1.7,2.1,2.6,4.6,3.1,7.2c0.3,1.5,0.3,2.8-1.4,3.6
				c-0.7,0.3-1.1,0.9-1.4,1.4c-0.3,0.5-1,1-0.8,1.5c0.8,1.1-0.3,1.5-0.8,2.1c-1.3,1.4-3.1,1.1-4.8,1.3c-2.9,0.5-5.7,2.8-6.2,5.4
				c-0.1,0.3,0.1,0.8-0.3,0.9c-0.6,0.3-0.4-0.6-0.9-0.6c-0.3,0.4-0.1,0.7-0.1,1c0.3,2,1.4,3.5,2.8,4.9c-0.2,0-0.4,0-0.5-0.1
				c-1.8-1.1-3.7-1.4-5.7-0.9c-0.8,0.3-1.5,0.7-2.3,0.9c0-0.4,0.4-0.5,0.7-0.8c1.4-1.4,2.1-3.2,2.2-5.3c-0.6,0-0.5,0.9-1,0.6
				c-0.4-0.2-0.2-0.6-0.3-0.9c-0.2-1-0.7-2-1.4-2.8c-1.8-2-4.1-2.8-6.6-2.8c-1.6-0.1-2.8-0.9-3.7-2.1c-0.1-0.2-0.5-0.5-0.2-0.7
				c0.7-0.6,0.1-0.9-0.1-1.4c-0.6-1.1-1.5-1.8-2.6-2.5c-0.5-0.3-0.9-0.7-0.9-1.3c0-2.2,0.7-4.3,1.5-6.3c0.6-1.3,1.7-2.3,2-3.8l0,0
				c0.6,0.1,0.6-0.4,0.6-0.8l0,0c0.3,0,0.5-0.1,0.6-0.4c0.2-0.7,1.2-0.5,1.3-1.2c0.9-0.1,1.7-0.8,2.6-1.2c0.9-0.3,1.8-0.6,2.6-1.3
				c0.8,0.1,1.1-0.4,1.4-1c1,0.1,1.7-0.7,2.4-1.3C708.5,589.9,708.7,589.6,708.7,589.2z"/>
			<path class="st7" d="M705.1,629.6c0.6-0.8,0.9-1.6,1.8-2.1c0.2,0.3,0.5,0.3,0.8,0.1c2.5-1.3,4.9-1.3,7.5,0
				c0.3,0.2,0.6,0.2,0.8-0.1c0.9,0.5,1.2,1.3,1.8,2.1c0,1.5-1.1,2.6-1.5,3.9c-0.6,2.3-0.6,4.6-0.2,6.7c0.5,3-2.2,5.6-5.1,5.2
				c-3-0.4-4.3-2.5-4.1-5.5c0.2-2.9,0.6-6.1-1.3-8.8C705.2,630.7,705,630.2,705.1,629.6z M711.4,638.4c-2.2,0-3.8,1.3-3.7,3.1
				c0,1.7,1.8,3.2,3.8,3.2c2,0,3.7-1.5,3.7-3.3C715.2,639.7,713.5,638.4,711.4,638.4z"/>
			<path class="st6" d="M719.2,623.1c-1.5,0-2.4-0.8-2.4-2.1c0-1,1.2-2,2.6-2c1.3,0,2.1,0.8,2.1,2.1
				C721.4,622.4,720.7,623.1,719.2,623.1z M718.7,619.6c0,0.6,0.9,0.8,0.5,1.3c-0.4,0.7-1,0.4-1.6,0.3c0.5,1.2,1.1,1.7,2.2,1.4
				c0.9-0.3,1.3-0.9,1.1-1.9C720.7,619.6,719.8,619.3,718.7,619.6z"/>
			<path class="st6" d="M703.4,623.1c-1.4,0-2.2-0.8-2.2-2.1c0-1.2,0.8-2,2.1-2c1.3,0,2.5,0.9,2.5,2.1
				C705.8,622.4,704.9,623.1,703.4,623.1z M704,619.7c-1.2-0.3-2.1,0.1-2.2,1c-0.2,0.9,0.2,1.6,1.1,1.9c1,0.3,1.8-0.1,2.3-1.4
				c-0.6,0.1-1.2,0.4-1.6-0.3C703.1,620.4,703.9,620.2,704,619.7z"/>
		</g>
		<g>
			<path class="st8" d="M715.5,627.2c-1.3-1.4-2.4-2.9-2.8-4.9c-0.1-0.4-0.2-0.8,0.1-1c0.5-0.1,0.3,0.9,0.9,0.6
				c0.4-0.2,0.2-0.6,0.3-0.9c0.5-2.7,3.1-5,6.2-5.4c1.6-0.3,3.5,0.1,4.8-1.3c0.5-0.6,1.5-0.9,0.8-2.1c-0.3-0.5,0.5-1,0.8-1.5
				c0.4-0.6,0.9-1.1,1.4-1.4c1.7-0.8,1.8-2.2,1.4-3.6c-0.6-2.7-1.4-5.1-3.1-7.2c-0.2-0.3-0.5-0.7-0.4-1c0.8,0.3,1.2,1,2,1.3
				c0.6,0.7,1.2,1.4,1.8,2.1c0.2,0.7,0.6,1.1,1.3,1.2c-0.1,1.1,0.7,1.8,1.2,2.6c0,0.8,0.7,1.1,1,1.6c-0.2,1.1,0.6,2.2,0.8,3.2
				c0.1,0.5,0.2,0.9,0.3,1.3c0.2,0.9,0.3,1.9,0.5,2.8c0,0.8,0,1.5,0,2.3c0,0.2,0.1,0.4,0.1,0.6c0,0.3,0,0.6,0,0.9
				c-0.2,1,0.2,1.4,1.2,1.3s2,0.1,3,0.1c0.1,0.8-0.5,0.7-0.9,0.7c-0.9,0-1.8,0-2.8,0c0.1,0.3,0.1,0.4,0.1,0.5
				c0.7,0.5,1.5,1.3,1.3,1.8c-0.2,0.7-1.4,0.1-2.1,0.3c-0.7,0.2-1.9-0.1-1.2,1.3c0.2,0.5-0.4,0.5-0.7,0.4c-2.9-0.6-5.3,0.7-7.5,2.4
				c-1.6,1.2-3.2,2.5-5.1,3.3c-0.9,0.4-1.8,0.3-2.8,0.3C716.9,628.6,716.5,627.8,715.5,627.2L715.5,627.2
				C715.7,627.4,715.6,627.3,715.5,627.2L715.5,627.2z M719.2,623.1c1.4,0,2.2-0.8,2.2-2c0-1.3-0.8-2.1-2.1-2.1
				c-1.3,0-2.5,0.9-2.6,2C716.8,622.4,717.7,623.1,719.2,623.1z"/>
			<path class="st8" d="M696.7,597.2c-0.3,1.4-1.4,2.5-2,3.8c-0.9,2-1.5,4.1-1.5,6.3c0,0.7,0.3,1,0.9,1.3c1,0.7,2,1.3,2.6,2.5
				c0.2,0.5,0.8,0.9,0.1,1.4c-0.2,0.2,0.1,0.5,0.2,0.7c0.9,1.3,2.1,2.1,3.7,2.1c2.6,0.1,4.8,0.8,6.6,2.8c0.8,0.9,1.1,1.8,1.4,2.8
				c0.1,0.3-0.1,0.8,0.3,0.9c0.5,0.3,0.4-0.6,1-0.6c-0.1,2.1-0.8,3.8-2.2,5.3c-0.2,0.3-0.7,0.4-0.7,0.8l0,0
				c-0.1,0.1-0.2,0.2-0.3,0.3l0,0c-0.9,0.5-1.2,1.3-1.8,2.1c-2.7,0.4-4.7-1.2-6.6-2.7c-1.4-1-2.7-2.2-4.4-2.8
				c-1.4-0.6-2.8-0.9-4.4-0.6c-0.6,0.1-1.1,0.3-0.6-0.7c0.4-0.6-0.3-0.8-0.7-0.9c-0.4-0.1-0.8-0.1-1.1-0.2c-0.6-0.1-1.5,0.4-1.7-0.3
				c-0.2-0.5,0.6-1.1,1-1.6c0.1-0.2,0.4-0.2,0.4-0.7c-0.9,0-1.8,0-2.8,0c-0.5,0-0.9,0.1-0.9-0.7c1.4-0.2,2.9,0.1,4.4-0.4
				c0.2-0.1,0.2-0.2,0-0.3c0-0.6-0.1-1.1-0.1-1.7c0-0.3,0-0.6,0-0.8c0-0.7,0-1.4,0-2.1c0.2-0.9,0.3-1.9,0.5-2.8
				c0.1-0.5,0.2-0.9,0.3-1.3c0.2-1,0.9-2.1,0.8-3.2c0.4-0.6,1-0.9,1-1.6c0.6-0.8,1.3-1.5,1.2-2.6c0.8-0.1,1-0.7,1.3-1.2
				c0.7-0.7,1.3-1.3,1.8-2.1C695.5,598.2,696,597.4,696.7,597.2z M703.4,623.1c1.5,0,2.4-0.8,2.5-2c0-1-1.2-2.1-2.5-2.1
				c-1.3,0-2.1,0.8-2.1,2C701.2,622.4,702,623.1,703.4,623.1z"/>
			<path class="st8" d="M711.4,638.4c2.2,0,3.8,1.3,3.8,3.1c0,1.7-1.8,3.3-3.7,3.3c-2,0-3.8-1.5-3.8-3.2
				C707.6,639.7,709.2,638.4,711.4,638.4z M713.5,642.9c-0.2-0.4-0.4-0.9-0.9-0.8c-0.5,0.1-0.8,0.4-0.8,0.9c0,0.5,0.3,0.9,0.8,0.9
				C713.1,643.7,713.5,643.5,713.5,642.9z M711,643c-0.1-0.5-0.4-0.9-0.9-0.9c-0.5,0-0.8,0.4-0.9,0.9c0,0.6,0.5,0.8,0.9,0.9
				C710.7,643.8,710.9,643.5,711,643z"/>
		</g>
		<path class="st5" d="M764.1,589.2c0-0.1,0-0.2,0.1-0.3l0.1,0.1C764.2,589.1,764.1,589.1,764.1,589.2L764.1,589.2z"/>
		<path class="st5" d="M658.6,589.2c-0.1-0.1-0.1-0.2-0.2-0.2l0.1-0.1C658.6,589.1,658.6,589.1,658.6,589.2L658.6,589.2z"/>
		<path class="st5" d="M735.4,561c0-0.1,0.1-0.3,0.1-0.4C735.7,560.9,735.4,561,735.4,561L735.4,561z"/>
		<path class="st5" d="M687.3,561c-0.1-0.1-0.1-0.2-0.2-0.3C687.4,560.8,687.3,561,687.3,561L687.3,561z"/>
		<polygon class="st5" points="763.9,599.7 764,599.7 764,599.7 		"/>
		<polygon class="st5" points="658.8,599.8 658.7,599.7 658.8,599.7 		"/>
		<path class="st8" d="M696.8,597.2c0-0.3,0.1-0.5,0.1-0.8c0.2,0,0.3,0,0.5,0C697.4,596.8,697.4,597.2,696.8,597.2z"/>
		<path class="st8" d="M725.8,596.5c0,0.3,0.1,0.5,0.1,0.8c-0.6,0.1-0.6-0.4-0.6-0.8C725.5,596.5,725.6,596.5,725.8,596.5z"/>
		<path class="st5" d="M702.6,579.9c0,0.3,0.1,0.6,0.1,0.9c-0.4-0.3-0.6-0.6-0.5-0.9C702.4,580,702.5,579.9,702.6,579.9z"/>
		<path class="st9" d="M689.9,571.5c0.2,0.1,0.3,0.3,0.2,0.6l-0.1,0.1C690,572,689.9,571.8,689.9,571.5
			C689.8,571.6,689.9,571.5,689.9,571.5z"/>
		<path class="st9" d="M732.8,571.6c-0.1,0.2-0.1,0.4-0.2,0.6c0,0-0.1,0-0.1-0.1C732.5,571.8,732.5,571.6,732.8,571.6
			C732.7,571.5,732.8,571.6,732.8,571.6z"/>
		<path class="st9" d="M756.1,594.7c-0.1,0.1-0.2,0.1-0.3,0.2l-0.1-0.1C755.9,594.7,756,594.7,756.1,594.7L756.1,594.7z"/>
		<path class="st9" d="M666.6,594.7c0.1,0,0.2,0,0.3,0.1l-0.1,0.1C666.7,594.8,666.6,594.7,666.6,594.7L666.6,594.7z"/>
		<path class="st9" d="M753.1,592.7C753.1,592.7,753.2,592.6,753.1,592.7c0.2,0,0.2,0.1,0.1,0.2
			C753.3,592.8,753.2,592.8,753.1,592.7C753.1,592.8,753.1,592.8,753.1,592.7z"/>
		<path class="st9" d="M669.4,592.8L669.4,592.8L669.4,592.8L669.4,592.8C669.5,592.8,669.5,592.8,669.4,592.8z"/>
		<path class="st8" d="M725.3,596.5c-0.3,0-0.5-0.1-0.6-0.4C724.9,596.3,725.1,596.4,725.3,596.5z"/>
		<path class="st9" d="M743.1,581.3c0,0.1,0,0.2,0,0.3c0,0-0.1,0-0.1-0.1C743,581.5,743,581.4,743.1,581.3L743.1,581.3z"/>
		<path class="st9" d="M679.8,581.3c0.1,0.1,0.1,0.2,0.2,0.3c0,0-0.1,0-0.1,0.1C679.8,581.6,679.8,581.4,679.8,581.3L679.8,581.3z"
			/>
		<path class="st9" d="M685.5,574.3c0.1,0.1,0.1,0.2,0.2,0.3l-0.1,0.1C685.5,574.6,685.5,574.4,685.5,574.3L685.5,574.3z"/>
		<path class="st8" d="M697.9,596.1c-0.1,0.3-0.3,0.4-0.6,0.4C697.5,596.4,697.7,596.3,697.9,596.1z"/>
		<path class="st10" d="M729.4,586.7c0.1-0.1,0.2-0.1,0.3-0.2c0,0.1,0,0.2,0,0.3C729.5,586.8,729.5,586.7,729.4,586.7z"/>
		<path class="st10" d="M693,586.8c0-0.1,0-0.2,0-0.3c0.1,0.1,0.2,0.1,0.3,0.2C693.2,586.7,693.1,586.8,693,586.8z"/>
		<path class="st5" d="M671.6,625.9c0.1-0.1,0.1-0.4,0.3-0.3c0.2,0.1,0,0.3-0.1,0.4C671.8,626,671.7,625.9,671.6,625.9z"/>
		<path class="st5" d="M750.9,626c-0.1-0.1-0.3-0.3-0.1-0.4c0.2-0.1,0.2,0.2,0.3,0.3C751,625.9,751,626,750.9,626z"/>
		<path class="st9" d="M670,640.8c0.1-0.1,0.2-0.1,0.3-0.2l0.1,0.1C670.2,640.8,670.1,640.8,670,640.8L670,640.8z"/>
		<path class="st9" d="M752.8,640.8c-0.1,0-0.2-0.1-0.3-0.1l0.1-0.1C752.6,640.6,752.7,640.7,752.8,640.8L752.8,640.8z"/>
		<path class="st7" d="M734.8,615.6c0.2,0,0.3,0,0.5,0c0,0.3-0.1,0.5-0.4,0.6C734.9,616,734.8,615.8,734.8,615.6z"/>
		<path class="st7" d="M715.8,627.5c-0.1-0.1-0.2-0.2-0.3-0.3C715.6,627.3,715.7,627.4,715.8,627.5z"/>
		<path class="st7" d="M687.3,615.9c0-0.3,0.2-0.5,0.5-0.5c0,0.3,0,0.6,0,0.8C687.6,616.1,687.4,616,687.3,615.9z"/>
		<path class="st7" d="M707.1,627.2c-0.1,0.1-0.2,0.2-0.3,0.3C707,627.4,707,627.3,707.1,627.2z"/>
		<path class="st7" d="M687.8,618.3c0-0.1,0-0.2,0-0.3C688.1,618.1,688.1,618.2,687.8,618.3z"/>
		<path class="st5" d="M696.6,585.8c0.2,0.2,0.3,0.5,0.1,0.8c-0.1-0.2-0.2-0.3-0.3-0.5C696.5,586,696.6,585.9,696.6,585.8z"/>
		<path class="st5" d="M726.3,586.1c-0.1,0.1-0.2,0.2-0.4,0.2c-0.1-0.2,0-0.4,0.1-0.5C726.1,585.9,726.2,586,726.3,586.1z"/>
		<path class="st5" d="M690.5,588.2c0.2,0.1,0.3,0.3,0.1,0.4c-0.2,0.2-0.2-0.1-0.4-0.2C690.3,588.3,690.4,588.3,690.5,588.2z"/>
		<path class="st5" d="M732.4,588.4c-0.1,0.2-0.3,0.4-0.5,0.3c-0.2-0.2,0.1-0.4,0.2-0.5C732.2,588.3,732.3,588.3,732.4,588.4z"/>
		<path class="st5" d="M738,595.3c-0.1,0.1-0.2,0.2-0.3,0.2c-0.2-0.1-0.1-0.3,0-0.4C737.9,595.1,737.9,595.2,738,595.3z"/>
		<path class="st5" d="M684.9,595c0.1,0.1,0.2,0.3,0,0.4c-0.1,0-0.2-0.1-0.3-0.2C684.8,595.2,684.8,595.1,684.9,595z"/>
		<g>
			<path class="st10" d="M755.5,602.8c-0.8,0.3-1.2,0.9-1.8,1.5c-1.5,1.7-3.1,3.4-5.5,4c-2.4,0.7-4.7,1.1-7.1,1.6
				c-0.5,0.1-1,0.2-1.5,0c-0.6-0.9-1.5-1.2-2.4-1.7c2.8-1.5,5.8-2.8,8.4-4.7c1.5-1.1,3.1-2.2,4.5-3.6c1.1-1.2,2.4-2.2,4-2.8
				c-1.9,2.8-4.1,5.2-7.1,7c1.1,0.2,2-0.3,2.9-0.6c1.8-0.6,3.6-1.2,5.5-1.8c0.3-0.1,0.6-0.5,0.9,0.1
				C755.8,602.2,755.5,602.4,755.5,602.8z"/>
			<path class="st10" d="M683.1,609.9c-0.5,0.2-0.9,0.2-1.4,0.1c-2.5-0.5-4.8-0.9-7.2-1.6c-2.5-0.7-4.1-2.4-5.7-4.2
				c-0.5-0.6-0.9-1-1.6-1.3c0.1-0.5-0.2-0.8-0.6-1c0.4-0.7,0.8-0.1,1,0c2.3,0.9,4.7,1.5,6.9,2.2c0.3,0.1,0.6,0.2,1,0
				c-2.9-1.8-5.1-4.4-7-7.2c0.9,0.6,2,1,2.8,1.8c3.7,4.1,8.4,6.8,13.3,9.1c0.3,0.1,0.5,0.3,0.8,0.5
				C684.5,608.7,683.6,609.1,683.1,609.9z"/>
			<path class="st10" d="M756.6,618.2c-2.3,0.5-4.6,1.2-6.9,1.3c-0.9-0.3-0.9-1.3-1.6-1.9c1.7-0.5,3.3-0.9,5-1.5
				c1.6-0.5,3-1.2,4.4-2.3c-1.3,0.2-2.8,0.2-4,0.6c-2.4,0.8-4.7,0.9-7.1,1.1c-1-1.2-2.3-2.4-3.5-3.4c3.8-1,7.3-2.8,11.1-3.8
				c-0.9,1.3-2.5,1.8-3.8,2.6c-1.3,0.8-2.8,1-4.3,1.6c2,0,4,0.1,6,0c3.5-0.1,7-0.9,10.4-1.9c-0.1,0.9-0.9,1.4-1.3,2.1
				c-1.6,1.3-3.4,2.5-5.3,3.5c-0.4,0.2-0.9,0.2-1,0.8c1.1,0.3,2.2,0.2,3.3,0.1C757.8,617.9,756.7,617.5,756.6,618.2z"/>
			<path class="st10" d="M673,619.5c-2.4-0.2-4.7-0.8-6.9-1.3c-0.2-0.6-0.9-0.4-1.2-0.9c1-0.5,2.2,0.1,3.4-0.6
				c-2.4-0.9-4.1-2.4-6.1-3.5c-0.7-0.9-1.5-1.6-2.1-2.6c2.1,0.3,4.1,1.1,6.2,1.4c3.5,0.5,6.9,0.7,10.4,0.4c-3-0.9-5.8-2.3-8.3-4.2
				c3.8,0.9,7.3,2.6,11,3.8c-1.2,0.9-2.2,2.2-3.1,3.3c-3.8-0.1-7.4-1.1-11.1-1.7c1.1,0.8,2.4,1.4,3.7,2c1.8,0.8,3.7,1,5.4,1.7
				C674.1,618.4,673.9,619.2,673,619.5z"/>
			<path class="st10" d="M690.4,604.3c0.1,0.8-0.7,1.1-1,1.6c-0.5,0.3-0.9,0.3-1.5,0.1c-2-0.7-3.9-1.5-5.8-2.3
				c-4.5-1.9-7.4-5.2-9.5-9.4c2.5,1.8,4.7,3.8,7.8,4.7c-0.9-1-1.9-2.2-2.8-3.7C682.3,598.3,685.9,602,690.4,604.3z"/>
			<path class="st10" d="M733.3,606c-0.4-0.6-1-0.9-1-1.6c4.5-2.5,8.1-6.1,12.7-8.8c-0.8,1.5-1.8,2.6-2.8,3.6
				c1.6-0.3,2.8-1.2,4.1-2.1c1.2-0.9,2.5-1.8,3.7-2.8c0,0.2,0.1,0.3,0.1,0.3c-1.5,3-3.5,5.8-6.5,7.5c-2.7,1.6-5.5,2.9-8.5,3.8
				C734.4,606.1,733.9,606.3,733.3,606z"/>
			<path class="st10" d="M701.8,593.6c-0.9,0.5-1.5,1.1-2.6,1.2c-2.3-2.5-4.4-5.2-6.2-8.1c0.1-0.1,0.2-0.1,0.2-0.2
				c0.8,0.5,1,0.2,0.7-0.6c-0.7-1.4-0.4-3-0.9-4.6c1.2,1.4,2.1,3.1,3.3,4.6c0.1,0.2,0.2,0.3,0.3,0.5c0.2-0.3,0.1-0.5-0.1-0.8
				c-1.1-4-2.1-8-1.8-12.4c0.7,1.1,0.7,2.3,1.2,3.3c1,1.8,1.1,3.9,1.5,5.9c0.4,2.2,1.1,4.3,2,6.4C700.4,590.6,701,592.1,701.8,593.6
				z"/>
			<path class="st10" d="M705.8,591.3c-0.3,0.6-0.7,1-1.4,1c-2.5-3.5-3.8-7.6-5-11.6c-0.8-2.3-0.3-4.7,0-7c0.2-1.6,0.3-3.3,1.1-5
				c0.5,3.9,0.9,7.7,1.9,11.3c0,0.4,0.1,0.7,0.5,0.9c0-0.4-0.1-0.7-0.1-0.9c0.1-2.4,0-4.8,0.8-7.2c0.4,0.7,0.6,1.4,0.4,2.3
				c-0.7,4.1-0.3,8.1,0.6,12.1C704.6,588.6,705.1,590,705.8,591.3z"/>
			<path class="st10" d="M718.4,592.4c-0.8,0.1-1.1-0.4-1.4-1c1.8-4.4,2.5-8.8,2.3-13.5c0-1-0.2-2-0.3-3c-0.1-0.8,0.1-1.4,0.6-2
				c0.2,2,0.4,4,0.6,5.9c0,0.7,0,1.4,0,2.3c0.6-0.7,0.5-1.4,0.7-2c0.8-3.3,1.3-6.7,1.7-10.2c0.7,4.2,2.3,8.2,0.8,12.6
				c-0.6,1.8-1.2,3.6-1.8,5.4C720.7,588.8,719.3,590.5,718.4,592.4z"/>
			<path class="st10" d="M723.4,594.8c-0.9-0.1-1.7-0.8-2.6-1.2c1.9-3.8,3.5-7.8,4.3-12.1c0.2-0.9,0.1-1.9,0.5-2.8
				c0.8-1.7,1.2-3.5,2.1-5.1c0.2,4.2-0.6,8.2-1.7,12.2c-0.2,0.1-0.3,0.3-0.1,0.5c0.1-0.1,0.2-0.2,0.4-0.2c1.2-1.4,2.2-3.2,3.3-4.7
				c-0.3,1.5-0.4,3.1-0.9,4.7c-0.2,0.5-0.4,1.2,0.7,0.7c0.1,0.1,0.2,0.1,0.2,0.2C727.9,589.7,725.7,592.4,723.4,594.8z"/>
			<path class="st10" d="M696.7,597.2c-0.8,0.3-1.2,1-2,1.3c-1.8-1.3-3.6-2.8-5-4.6c-1.4-1.6-3.1-3.1-4.4-4.9
				c-0.9-1.2-0.9-2.7-1-4.2c0.9,1.8,2.7,3,3.7,4.7c0.2,0.4,0.5,0.9,0.9,0.6c0.6-0.4-0.1-0.6-0.3-0.9c-0.5-1.1-1.3-2.2-1.2-3.8
				c0.9,1,1.9,2,2.8,2.9c0.1,0.1,0.2,0.4,0.4,0.2c0.1-0.1,0.1-0.3-0.1-0.4c-1.1-2.6-2.3-5.1-2.8-7.9c0.7,0.6,1.2,1.1,1.4,1.9
				c1.3,5.4,4.3,10,7.8,14.2C696.8,596.6,696.8,596.9,696.7,597.2L696.7,597.2z"/>
			<path class="st10" d="M727.9,598.5c-0.8-0.4-1.2-1.1-2-1.3l0,0c0-0.3-0.1-0.5-0.1-0.8c2-2.4,3.7-5,5.3-7.7s1.8-6,3.9-8.4
				c-0.5,2.8-1.6,5.3-2.8,7.9c-0.1,0.2-0.5,0.3-0.2,0.5c0.2,0.2,0.3-0.1,0.5-0.3c0.9-0.9,1.7-1.8,2.7-2.8c0.2,1.9-0.9,3.1-1.7,4.6
				c0.5,0.1,0.9,0.1,1.1-0.4c1.1-1.7,2.8-3,3.8-4.8c-0.1,1.4-0.1,2.8-0.9,4c-0.9,1.2-1.8,2.5-3,3.4c-0.9,0.7-1.4,1.7-2.2,2.5
				C730.7,596.1,729.3,597.3,727.9,598.5z"/>
			<path class="st10" d="M731,601.9c-0.8-0.1-1-0.7-1.3-1.2c2.8-2.4,5.3-4.9,7.4-8c0.7-0.9,1.7-1.3,2.6-2.1c-0.2,1.7-1.1,3-1.9,4.5
				c-0.1,0.1-0.3,0.3,0,0.4c0.1,0,0.2-0.1,0.3-0.2c2.2-1.6,4-3.7,5.8-6.1c-0.6,3.5-2,5.9-4.8,7.6c-1.7,1-3.2,2.4-4.9,3.3
				C733.1,600.8,732.1,601.3,731,601.9z"/>
			<path class="st10" d="M692.9,600.6c-0.2,0.7-0.6,1.1-1.3,1.2c-2.7-1.3-5.4-2.8-7.6-4.9c-0.1-0.1-0.4-0.2-0.6-0.3
				c-2.6-1.4-4.4-4.1-4.7-7.3c1.9,2.1,3.5,4.3,5.8,5.9c0.1,0.1,0.2,0.2,0.3,0.2c0.2-0.1,0.1-0.3,0-0.4c-0.9-1.4-1.6-2.8-2.1-4.7
				c1.3,0.9,2.4,1.7,3.1,2.8C688,596,690.3,598.5,692.9,600.6z"/>
			<path class="st10" d="M708.7,589.2c0,0.4-0.2,0.7-0.6,0.8c-1.5-3.8-2.4-7.8-3-11.9c0.7,0.1,0.7,0.8,1.2,1.3
				c-0.2-2.5,0.2-4.7,0.5-7.2c0.4,0.7,0.5,1.2,0.7,1.8c1.2,3.7-0.1,7.6,0.6,11.3C708.3,586.7,708.7,588,708.7,589.2z"/>
			<path class="st10" d="M714.6,590c-0.4-0.1-0.6-0.4-0.6-0.8c0.7-3.3,1.2-6.6,0.8-9.9c-0.3-2.1,0.6-3.9,0.4-5.9
				c0-0.3,0.4-0.7,0.7-1.1c0.2,2.5,0.8,4.7,0.7,7c0.2-0.4,0.5-0.8,0.7-1C716.9,582.3,716,586.3,714.6,590z"/>
			<path class="st10" d="M711.7,587.2c-0.3,0-0.5,0-0.8,0c-0.5-2.6-0.9-5.1-1.1-7.7c-0.2-2,0.5-3.4,1.4-4.8c1.4,1.8,1.7,3.7,1.3,6
				C712.3,582.8,712,585,711.7,587.2z"/>
			<path class="st10" d="M718.7,619.6c1-0.3,1.9,0,2.2,1.1c0.3,0.9-0.2,1.6-1.1,1.9c-1,0.3-1.8-0.1-2.2-1.4c0.6,0.1,1.2,0.5,1.6-0.3
				C719.6,620.4,718.8,620.2,718.7,619.6z"/>
			<path class="st10" d="M704,619.7c-0.1,0.5-0.9,0.7-0.5,1.3c0.4,0.7,1,0.3,1.6,0.3c-0.5,1.2-1.2,1.7-2.3,1.4
				c-0.9-0.3-1.2-0.9-1.1-1.9C701.9,619.8,702.7,619.4,704,619.7z"/>
			<path class="st10" d="M713.5,642.9c-0.1,0.7-0.6,0.9-0.9,0.9c-0.5,0-0.8-0.4-0.8-0.9c0-0.5,0.4-0.8,0.8-0.9
				C713.2,642,713.4,642.5,713.5,642.9z"/>
			<path class="st10" d="M711,643c-0.1,0.5-0.4,0.9-0.9,0.9s-0.9-0.3-0.9-0.9c0-0.5,0.4-0.8,0.9-0.9
				C710.6,642.1,710.9,642.5,711,643z"/>
		</g>
	</g>
	<polygon class="st11" points="786.1,578 778,578 658,577.8 651.6,577.8 655,567.2 785.2,567.2 	"/>
	<polygon class="st12" points="723.6,386.2 723.5,389.9 711.6,389.9 711.7,385.6 	"/>
	<rect x="708.2" y="380.7" class="st4" width="20" height="7.5"/>
	<polygon class="st12" points="659.1,567.2 658,577.8 651.6,577.8 655,567.2 	"/>
	<polygon class="st11" points="676.2,380.5 676,383.8 649.3,646.4 637.1,645.8 665.2,383.8 665.5,380.9 	"/>
	<polygon class="st12" points="786.1,578 778,578 777,567.2 785.2,567.2 	"/>
	<polygon class="st11" points="798.9,645.8 786.6,646.4 760.1,383.8 759.7,380.5 770.5,380.9 770.8,383.8 	"/>
	<rect x="581.8" y="121.6" class="st13" width="269" height="257.9"/>
	<path class="st11" d="M721.5,35.3v62.3h-10.4V35.3c-0.1-2.9,2.1-5.3,5-5.5c2.9-0.1,5.3,2.1,5.5,5C721.5,35,721.5,35.2,721.5,35.3z"
		/>
	<rect x="711.1" y="92" class="st12" width="10.5" height="5.7"/>
	<path class="st11" d="M725.6,96.2v20.6h-18.7V96.2c0-1.4,1.1-2.6,2.6-2.6l0,0H723C724.6,93.7,725.7,94.8,725.6,96.2z"/>
	<circle class="st12" cx="716.3" cy="106.7" r="4"/>
	<circle class="st4" cx="716.3" cy="105.8" r="4"/>
	<rect x="706.9" y="114.2" class="st12" width="18.7" height="2.6"/>
	<rect x="699.2" y="117.6" class="st12" width="34.1" height="5.7"/>
	<rect x="699.2" y="115.9" class="st11" width="34.1" height="5.7"/>
	<path class="st12" d="M647.4,372.9h143.1c3.4,0,6.2,2.8,6.2,6.2v1.3l0,0H641.2l0,0v-1.3C641.2,375.6,644,372.9,647.4,372.9z"/>
	<polygon class="st12" points="665.5,380.9 676.2,380.5 676,383.8 665.2,383.8 	"/>
	<rect x="708.2" y="380.7" class="st12" width="20" height="3.1"/>
	<polygon class="st12" points="770.8,383.8 760.1,383.8 759.7,380.5 770.5,380.9 	"/>
	<path class="st11" d="M647.4,374.6h143.1c3.4,0,6.2,2.8,6.2,6.2v1.3l0,0H641.2l0,0v-1.3C641.2,377.3,644,374.6,647.4,374.6z"/>
	
		<linearGradient id="SVGID_1_" gradientUnits="userSpaceOnUse" x1="617.6357" y1="2607.8965" x2="617.6357" y2="1956.7592" gradientTransform="matrix(1 0 0 1 -100.52 -1817.01)">
		<stop  offset="0" style="stop-color:#808080;stop-opacity:0.25"/>
		<stop  offset="0.54" style="stop-color:#808080;stop-opacity:0.12"/>
		<stop  offset="1" style="stop-color:#808080;stop-opacity:0.1"/>
	</linearGradient>
	<path class="st14" d="M616,254.8c-2.2-1.1-25.6-18.9-25.6-18.9l-37.9-24c0,0-0.2-0.6-0.6-1.5c10.4-11.8,8.2-29-2.5-40.9
		c-12.8-14.6-70.7-46-88.2-19.2c-2.5,3.8-2.6,8.1-3.1,12.2c-1.5,9.8-6.3,19.2-13.9,27.2c-5.8,6.2-13.4,11.8-16.8,18.8
		c0-0.1-0.1-0.2-0.1-0.3c-0.8,1.5-1.4,3.1-1.7,4.7c-1.7,8.4,4.1,16.6,7,24.9c1,2.8,1.7,5.7,2.2,8.6c0.1-0.6,0.1-1.1,0.2-1.8
		c0.8,4.2,0.9,8.4,0.8,12.7c-21,4.3-21.1,40.3-21.1,40.3s-2.6,14.3-2.2,19.5c0.4,5.1,0.5,16.3,0.5,19s-2.6,19.5-2.8,21.5v0.1
		c-0.4,2.2-4.3,12.8,5.2,15.2c0.7,0.2,1.3,0.3,2.1,0.5c0.4,8.5,1.1,26.6,0.5,30.6c0,0,3.4,24.2,6.4,30.3c1.8,3.6,4,7,6.4,10.3
		c-0.2,1.5-0.7,2.8-1.4,4.2c-1.4,2.1-0.8,3.9,1.7,4.7c-0.1,0.8-0.2,1.5-0.3,2.5c-1,9.3-2.7,27.8,0,37.2c3.7,12.9,3.9,17.2,3.9,17.2
		s0,3.9,1.5,6c1.5,2.1,4.3,22.1,4.3,25.3s7.3,32.2,5.2,39c-2.1,6.8-0.5,16.5-0.5,16.5s-1.3,16.9-2.8,20.6
		c-1.5,3.7-2.2,62.5,0.2,77.7c2.4,15.2,3.9,27.9,3.9,27.9s-1.5,14-0.2,15.9s3.7,13.5,1.9,14.1c-1.8,0.7-2.6,5.4-2.6,5.4
		c0.9,1.4,1.9,2.8,2.9,4c-0.7-0.2-1.3-0.5-1.9-0.9c0.7,0.9,1.7,2.3,2.9,3.8l-1.2,15.5c-0.1,1.2,0.7,2.4,1.9,2.7
		c7.7,2.1,15.9-0.2,21.5-6.1c10.8-10.9,14.5-9.4,16.4-16c0.2-0.8,0.4-1.4,0.6-2.1c1.4-5.9-4.9-10.3-10-7.8c0.7-4.7,1.2-10,0.8-13
		c-1-6.2-0.9-22.5-0.9-22.5l-1.5-78.1c0,0,2.8-15.5,6.1-21.5c3.2-6,2.8-27.1,2.8-27.1l3.7-69.1l3.4-33.7c0,0,3.4-11.6,7.8,1.3
		c0,0-2.4,25.9-1.3,32.2s2.6,36.5,1.5,43.1c-1,6.6-5.8,43.1-2.8,52.3c2.9,9.2,6.3,20.4,5.6,24c-0.7,3.6-2.8,82.8-2.8,82.8
		s5.8,15.2,1.5,20.1c-4.3,4.9-0.2,24.7-0.2,24.7s0.5,0.4,1.4,0.9l-0.1,1.6l-1.3,17.8c-0.1,1.2,0.7,2.4,1.9,2.8
		c7.7,2.1,15.9-0.2,21.5-6.1c10.8-10.9,14.5-9.4,16.4-16.1c0.2-0.8,0.4-1.4,0.6-2.1c1.5-6.5-6.2-11.2-11.3-6.9l-0.3,0.2
		c-0.3,0.2-0.6,0.5-0.9,0.7c-0.1,0.1-0.3,0.2-0.5,0.3c1-4.9,2.7-13.3,1.9-17.2c-1-5.8,1-23.4,1-23.4s6.3-21.1,6.5-29.4l1.7-66.9
		c0,0-0.2-27.2,0.7-33.9c0.9-6.6,7.8-64.2,14.7-81.3c5.3-13.1,7.7-46.7,6.3-63.7c-0.1-0.9-0.2-1.6-0.3-2.4
		c8.4-6.3,9.3-16.6,9.3-16.6s-7.8-14.9-15.3-21.2c-7.5-6.3-9.1-17.1-8.8-21.7c0.1-2.8-0.8-5.6-2.6-7.7c0,0-3.4-11.2-5.8-12.3
		c-0.2-0.1-0.4-0.2-0.5-0.4c-1.6-1.7-0.4-6.5-0.4-6.5v-0.2c0.3-1.1,1.9-8.4,1.4-10.2c-0.6-2,0.3-11.4,0.3-11.4s5.5-16.3,4.7-29.1
		c-0.9-12.8,11.2-11.8,11.2-11.8l37.4-0.4h4.3c1.5-1.2,2.8-2.7,4.1-4.3c7.1-0.9,21.6-3.5,23.2-11.4
		C627.2,266.6,618.2,255.9,616,254.8z M442.9,373.8l0.3-6.6c0.9,0.8,1.4,1.2,1.4,1.2c0.5,1.7,0.5,3.5,0.1,5.2
		c-0.5,1.6-1.7,2.9-3.2,3.6c-0.2,0.1-0.4,0.2-0.5,0.3l-0.4-3.7L442.9,373.8z M578.5,259c-1.6-0.8-6.9-0.6-9.7-0.6s-7.2-2.3-7.2-2.3
		c-0.9-1.9-6.2-2.9-10.9-3.6c-3.5-8.7-8.5-17.3-9.2-26.4c0-0.4,0-0.7,0-0.9l0.6,0.9c0,0,21.7,13.9,24.2,18
		c1.9,3.1,11,10.3,15.3,13.4c-0.6,0.8-1.4,1.3-2.4,1.5C578.9,259.1,578.6,259.1,578.5,259z"/>
	<path class="st15" d="M542.5,766.1c-0.2,0.7-0.3,1.3-0.6,2.1c-1.9,6.6-5.5,5.1-16.1,15.9c-5.4,5.8-13.5,8.1-21.2,6
		c-1.2-0.3-2-1.4-1.9-2.7l1.3-17.6l0.7-8.4c0,0,16.9,4.7,25.5-1.2c0.3-0.2,0.6-0.4,0.9-0.7c0.1-0.1,0.1-0.1,0.2-0.2
		c2.9-2.5,7.3-2,9.8,0.9C542.5,761.8,542.9,764,542.5,766.1z"/>
	<path class="st15" d="M489.3,759.5c-0.2,0.7-0.4,1.3-0.6,2.1c-1.9,6.6-5.5,5.1-16.1,15.9c-5.4,5.8-13.5,8.1-21.2,6
		c-1.2-0.3-2-1.4-1.9-2.7l1.3-17.6l0.7-8.4c0,0,16.9,4.7,25.5-1.2c0.3-0.2,0.6-0.4,0.9-0.7c0.1-0.1,0.1-0.1,0.2-0.2
		c2.9-2.5,7.3-2,9.8,0.9C489.3,755.2,489.8,757.4,489.3,759.5z"/>
	<path class="st12" d="M471.8,762.1l0.7,9.1c-9.7,9.7-21.3-4.7-24.7-9.5C456.7,766.4,471.8,762.1,471.8,762.1z"/>
	<path class="st12" d="M529,765.8l1.2-0.9c-8.9,13.5-22,7.3-26.2,4.8l0.7-8.4c0,0,16.9,4.7,25.5-1.2
		C529.6,763.4,529,765.8,529,765.8z"/>
	<path class="st16" d="M556,510.3c-6.8,17-13.6,74.1-14.5,80.7c-0.9,6.6-0.7,33.6-0.7,33.6l-1.7,66.4c-0.2,8.4-6.4,29.1-6.4,29.1
		s-2.1,17.5-1,23.2c1,5.7-2.8,20.9-2.8,20.9l1.2-0.9c-10.6,16.1-27.4,4.1-27.4,4.1s-4.1-19.6,0.2-24.5s-1.5-20-1.5-20
		s2.1-78.5,2.8-82.1c0.7-3.6-2.6-14.7-5.5-23.8c-2.9-9.1,1.7-45.4,2.8-51.9c1-6.6-0.5-36.6-1.5-42.8c-1-6.2,1.2-31.9,1.2-31.9
		c-4.3-12.8-7.7-1.2-7.7-1.2l-3.4,33.4l-3.6,68.5c0,0,0.5,20.9-2.8,26.9c-3.2,6-6,21.3-6,21.3l1.5,77.5c0,0-0.2,16.1,0.9,22.3
		c1,6.2-2.4,22.1-2.4,22.1c-12,28.1-31-2.4-31-2.4s0.9-4.7,2.6-5.3c1.7-0.7-0.7-12.2-1.9-14.1s0.2-15.8,0.2-15.8s-1.5-12.5-3.8-27.6
		c-2.3-15.1-1.7-73.4-0.2-77.1c1.5-3.7,2.8-20.4,2.8-20.4s-1.7-9.6,0.5-16.4c2.2-6.8-5.1-35.5-5.1-38.7c0-3.2-2.8-23-4.3-25.2
		s-1.5-6-1.5-6s-0.2-4.3-3.8-17c-2.7-9.3-1-27.7,0-36.9c0.4-3.4,0.7-5.6,0.7-5.6s122.1-19.7,126.9-15.3c1.1,1,1.9,4.7,2.4,9.9
		C563.6,463.9,561.3,497.2,556,510.3z"/>
	<path class="st12" d="M509.8,606c0.6,0,14.1,1.1,19,0.2C533.7,605.1,509.8,606,509.8,606z"/>
	<path class="st12" d="M510.9,613.8c0,0,18.6,3.2,19.6,1.6S510.9,613.8,510.9,613.8z"/>
	<path class="st12" d="M453.9,610.5c0,0,9.7,0.5,14.9,2.8S453.9,610.5,453.9,610.5z"/>
	<path class="st17" d="M418.9,371.8c0,0,1.5,29.6,0.8,34.9c0,0,3.4,24,6.3,30.1c2.8,6.1,8.9,13.8,8.9,13.8l8.4-58.9l-2-20.1
		L418.9,371.8z"/>
	<circle class="st17" cx="506.9" cy="204" r="32.8"/>
	<path class="st17" d="M489.9,219.3c0,0-10.3,20-20.4,29.3c-10.3,9.4,61.3,20,62.9,20s-12.7-42.5-10.3-47.7
		C524.6,215.9,489.9,219.3,489.9,219.3z"/>
	<path class="st12" d="M562.2,447c-1.6,1.2-3.4,2.2-5.2,2.9c-13,5.1-27.2,12.2-36.9,9.4c-9.7-2.8-30.1,0-30.1,0s-41.2-3.4-49.4-1.4
		c-3.7,0.9-6.6,0.9-8.5,0.2c0.4-3.4,0.7-5.6,0.7-5.6s122.2-19.8,127-15.3C561,438.3,561.7,441.9,562.2,447z"/>
	<path class="st2" d="M571.1,428.1c0,0-1.1,14.2-14.2,19.3s-27.2,12.2-36.9,9.4c-9.7-2.8-30.1,0-30.1,0s-41.2-3.4-49.4-1.4
		c-8.2,2-12.5-0.6-10-4.3c2.6-3.7,2.3-15.9,2.3-21s-2.8-25.8-0.3-29.5c2.6-3.7,4.8-17.8,10-20.1c1.5-0.7,2.8-2,3.2-3.6
		c0.4-1.7,0.4-3.5-0.1-5.2c0,0-0.9-0.8-2.1-1.8c-3-2.7-8.1-7.7-6.5-9.3c2.3-2.3,0-17,0-17s-5.4-11.4-3.4-15.6
		c2-4.2-17.3-26.7-17.3-26.7s0-38.5,23.3-40.3c0,0,16.4,0.6,18.4-6.8c2-7.4,15-11.7,15-11.7l29.8,6.6c0,0,26.4,5.7,31.2,2.3
		c4.8-3.4,8.5,4.6,8.5,4.6s16.4,0.9,18.1,4.3c1.7,3.4-5.4,36.6-5.4,36.6s-12-1.1-11.1,11.7c0.9,12.8-4.6,29-4.6,29
		s-0.9,9.4-0.3,11.4c0.6,1.8-1.1,9-1.4,10.1v0.1c0,0-1.2,4.7,0.4,6.5c0.2,0.2,0.3,0.3,0.5,0.4c2.3,1.1,5.7,12.2,5.7,12.2
		c1.8,2.2,2.7,4.8,2.6,7.7c-0.3,4.6,1.4,15.3,8.8,21.6C563.4,413.5,571.1,428.1,571.1,428.1z"/>
	<path class="st2" d="M444.6,362.4v1.2l-0.5,13.3c0,0-17.5,1.4-27-0.9s-5.5-12.9-5.1-15.1v-0.1c0.3-2,2.8-18.6,2.8-21.3
		s0-13.8-0.5-18.9c-0.5-5.1,2.1-19.4,2.1-19.4l1.8-2.3l20,7.7L444.6,362.4z"/>
	<path class="st12" d="M444.5,363.7L444,377c0,0-17.5,1.4-27-0.9s-5.5-12.9-5.1-15.1L444.5,363.7z"/>
	<path class="st12" d="M445.7,376.9c0.4-1.7,0.4-3.5-0.1-5.2c0,0-0.9-0.8-2.1-1.8c15-2.1,74.5-10.3,94.6-11.2v0.1
		c0,0-1.2,4.7,0.4,6.5L445.7,376.9z"/>
	<path class="st12" d="M540.5,387.1c0,0,3.7,20.9-10.1,28.2C530.4,415.4,538.2,405.1,540.5,387.1z"/>
	<path class="st12" d="M450.4,416c0,0,33.2-5.7,39.8-1.2S450.4,416,450.4,416z"/>
	<path class="st12" d="M529,286.7c0,0-5.1,21-1.3,25.8C531.6,317.3,529,286.7,529,286.7z"/>
	<path class="st12" d="M432.8,269.5c0,0,4.7,7.8,1.8,15.9S432.8,269.5,432.8,269.5z"/>
	<path class="st12" d="M423.1,337.9c0,0,6,3.5,4,9.1C425.1,352.7,423.1,337.9,423.1,337.9z"/>
	<path class="st12" d="M422.6,321.7c0,0,5.5,2.9,6.3,7.4C429.6,333.6,422.6,321.7,422.6,321.7z"/>
	<path class="st12" d="M504.6,491.5c0,0,34.7,3.5,41.7-4.7C546.3,486.8,514.9,493,504.6,491.5z"/>
	<path class="st12" d="M444.6,489.5c0,0,37.3,8.8,44.7,1.8C489.3,491.3,457.2,493.7,444.6,489.5z"/>
	<path class="st12" d="M507.3,502.9c0,0,15.6,0,22.9,0.5C537.3,503.8,507.3,502.9,507.3,502.9z"/>
	<path class="st12" d="M447.2,509.6c0,0,7.7,8.6,16.3,7.1C472.1,515.2,447.2,509.6,447.2,509.6z"/>
	<path class="st18" d="M462.2,155.1c-2.4,3.7-2.5,8.1-3.1,12.2c-1.4,9.7-6.2,19.1-13.6,27c-6.8,7.2-16.1,13.8-17.9,22.6
		c-1.7,8.4,4,16.5,6.9,24.7c7.9,21.6-3.1,44.1-6.3,66.4c-0.9,6.2,0.2,14,7.8,16c2.4,0.7,5,0.6,7.2,1.6c2.8,1.3,3.7,4.2,4.3,6.7
		c1.9,9.1,2.6,18.5,2,27.8c-0.4,5.2-0.8,11.2,4.2,14.8c2.3,1.6,5.2,2.5,8.2,3.2c7.8,2.1,17.8,3.8,23.1-1.1c2.2-2.1,3-4.9,5.8-6.6
		c4.1-2.5,10-0.8,15.1-0.6c10.6,0.6,20.4-5.7,24.6-13.2s3.8-16.1,2.3-24.2s-4.3-16.1-4.5-24.4c-0.1-2.8,0.2-5.7,1.8-8.3
		c3.1-4.8,10.5-7.1,15.6-10.9c9.4-7.2,9.4-19,6-29c-3.4-9.9-9.6-19.4-10.3-29.6c-0.4-2.5,0.2-5,1.4-7.1c1.3-2.1,3.7-3.6,5.7-5.3
		c13.8-11.6,12.2-30.7,0.8-43.8C536.4,159.7,479.3,128.5,462.2,155.1z"/>
	<g class="st19">
		<path d="M436.2,250.5c1-8.6,0.9-17.2-2.2-25.6c-1.5-4.1-3.7-8.2-5.2-12.3c-0.8,1.5-1.3,3.1-1.7,4.7c-1.7,8.4,4,16.5,6.9,24.7
			C435.1,244.8,435.8,247.7,436.2,250.5z"/>
		<path d="M449,343.5c0.6-9.3-0.1-18.7-1.9-27.8c-0.6-2.6-1.4-5.4-4.3-6.7c-2.1-1-4.8-0.9-7.2-1.6c-2.9-0.7-5.4-2.8-6.6-5.5
			c-0.5,2.2-0.9,4.3-1.1,6.5c-0.9,6.2,0.2,14,7.8,16c2.4,0.7,5,0.6,7.2,1.6c2.8,1.3,3.7,4.2,4.3,6.7c0.9,4.3,1.5,8.5,1.8,12.8
			C448.9,344.9,448.9,344.2,449,343.5z"/>
		<path d="M529.8,340.1c-4.2,7.5-14,13.8-24.6,13.2c-5.2-0.3-11-1.9-15.1,0.6c-2.8,1.6-3.6,4.6-5.8,6.6c-5.2,4.8-15.3,3.2-23.1,1.1
			c-2.9-0.8-5.9-1.6-8.2-3.2c-2.2-1.6-3.6-3.9-4.1-6.6c0.1,2.9,0,5.8-0.2,8.7c-0.4,5.2-0.8,11.2,4.2,14.8c2.3,1.6,5.2,2.5,8.2,3.2
			c7.8,2.1,17.8,3.8,23.1-1.1c2.2-2.1,3-4.9,5.8-6.6c4.1-2.5,10-0.8,15.1-0.6c10.6,0.6,20.4-5.7,24.6-13.2c4-7.2,3.8-15.5,2.5-23.3
			C531.7,336,530.9,338.1,529.8,340.1z"/>
		<path d="M547.8,201.3c-2,1.7-4.4,3.2-5.7,5.3c-1.2,2.2-1.7,4.7-1.4,7.1c0.3,3.1,0.9,6.2,2,9.1c1.6-1.7,3.3-3.2,5.2-4.6
			c9.3-7.9,11.6-19.1,8.5-29.6C554.8,193.6,551.9,198,547.8,201.3z"/>
		<path d="M545,272.2c-5,3.8-12.3,6.1-15.6,10.9c-1.6,2.6-1.9,5.4-1.8,8.3c0.1,3.3,0.6,6.6,1.2,9.9c0.2-0.4,0.4-0.8,0.6-1.1
			c3.1-4.8,10.5-7.1,15.6-10.9c8.6-6.6,9.3-17,6.8-26.3C550.5,266.7,548.2,270,545,272.2z"/>
	</g>
	<path class="st17" d="M596.7,292.5c0,0,24.6-1.2,26.7-11.7c2.1-10.3-6.6-20.9-8.8-22s-25.3-18.7-25.3-18.7L552,216.2
		c0,0-17.8-51.3-21.8-31.6c-4,19.7,11.5,45.7,11.5,45.7s21.5,13.8,23.8,17.8s17.2,14.9,17.2,14.9L596.7,292.5z"/>
	<path class="st2" d="M609.9,275.8c-5.8,14.7-13.3,20.6-13.3,20.6h-4.2l-36.8,0.4l-4.3-11.6l6-25.2l3.7,0.2c0,0,4.4,2.3,7.1,2.3
		c2.8,0,8-0.1,9.5,0.6c0.2,0.1,0.5,0.1,0.7,0.1c1.4-0.1,2.8-2.3,2.8-2.3S615.7,261,609.9,275.8z"/>
	<path class="st12" d="M609.9,275.8c-5.8,14.7-13.3,20.6-13.3,20.6h-4.2c2.2-5.9,6.8-17.8,8.5-20.6c1.7-2.7-13.7-9.1-22.7-12.6
		c1.4-0.1,2.8-2.3,2.8-2.3S615.7,261,609.9,275.8z"/>
	<path class="st2" d="M264.7,505.1c0,0,6.8,9-3.1,22.6c-10.1,13.6-18.3,25-15,33.5c0,0,15.1-25.2,27.4-25.5
		C286.3,535.2,278.3,520.3,264.7,505.1z"/>
	<path class="st12" d="M264.7,505.1c0.6,0.9,1,1.8,1.4,2.8c12.1,14.1,18.4,27.3,6.8,27.6c-10.7,0.3-23.7,19.6-26.8,24.4
		c0.1,0.4,0.2,0.8,0.4,1.1c0,0,15.2-25.2,27.4-25.5C286.3,535.3,278.3,520.3,264.7,505.1z"/>
	<path class="st18" d="M277.4,516.6c0,3.1-0.4,5.7-0.8,5.7c-0.5,0-0.8-2.6-0.8-5.7c0-3.1,0.5-1.7,0.9-1.7
		C277.1,514.9,277.4,513.4,277.4,516.6z"/>
	<path class="st18" d="M281.8,520.3c-2.8,1.5-5.2,2.5-5.4,2.1c-0.2-0.4,1.9-1.9,4.7-3.4c2.8-1.5,1.7-0.4,1.9,0
		C283.2,519.4,284.6,518.8,281.8,520.3z"/>
	<path class="st2" d="M228.4,505.1c0,0-6.8,9,3.1,22.6s18.3,25,15,33.5c0,0-15.2-25.2-27.5-25.5S214.8,520.3,228.4,505.1z"/>
	<path class="st12" d="M228.4,505.1c-0.6,0.9-1,1.8-1.4,2.8c-12.1,14.1-18.4,27.3-6.8,27.6c10.7,0.3,23.7,19.6,26.8,24.4
		c-0.1,0.4-0.2,0.8-0.4,1.1c0,0-15.2-25.2-27.5-25.5S214.8,520.3,228.4,505.1z"/>
	<path class="st18" d="M215.6,516.6c0,3.1,0.4,5.7,0.8,5.7s0.8-2.6,0.8-5.7c0-3.1-0.5-1.7-0.9-1.7S215.6,513.4,215.6,516.6z"/>
	<path class="st18" d="M211.2,520.3c2.8,1.5,5.2,2.5,5.4,2.1s-1.9-1.9-4.7-3.4c-2.8-1.5-1.7-0.4-1.9,0
		C209.9,519.4,208.5,518.8,211.2,520.3z"/>
	<path class="st16" d="M283.5,549l-0.4,2.8l-0.5,4l-0.2,1.6l-0.5,4l-0.2,1.6l-0.5,4l-5.5,45c-0.5,4-7,7.1-15,7.1h-28.5
		c-8,0-14.5-3.1-15-7.1l-5.5-45.1l-0.5-4l-0.2-1.6l-0.5-4l-0.2-1.6l-0.5-4l-0.4-2.8c-0.3-2.3,3.2-4.2,7.8-4.2h58.4
		C280.3,544.8,283.8,546.7,283.5,549z"/>
	<polygon class="st20" points="283.1,551.8 282.6,555.8 210.4,555.8 209.9,551.8 	"/>
	<polygon class="st20" points="282.4,557.4 282,561.4 211,561.4 210.6,557.4 	"/>
	<polygon class="st20" points="281.8,563 281.3,567 211.7,567 211.2,563 	"/>
	<g class="st21">
		<path class="st2" d="M486.8,81.5c-0.7-3.8-0.1-7.9,1.6-12.2c1.7-4.3,4.7-8.2,8.8-11.5c4.2-3.3,9.3-5.5,15.4-6.6
			c5.7-0.9,10.9-0.8,15.6,0.7c4.7,1.4,8.5,3.7,11.6,7c3,3.2,4.8,7,5.6,11.4c0.6,3.4,0.4,6.5-0.5,9.3c-0.9,2.8-2.2,5.3-3.7,7.4
			c-1.5,2.2-4.4,5.9-8.4,11.1c-1.1,1.4-2,2.8-2.7,3.8c-0.7,1-1.1,2-1.3,2.8c-0.3,0.9-0.5,1.7-0.5,2.5c-0.1,0.9-0.2,2.3-0.3,4.3
			c0,4.3-2,6.7-6,7.4c-2,0.4-3.9,0-5.5-1.1c-1.6-1.1-2.7-3-3.1-5.7c-0.6-3.3-0.6-6.4,0-9c0.6-2.7,1.6-5,2.9-7.2s3.2-4.7,5.7-7.8
			c2.1-2.7,3.6-4.7,4.6-6s1.6-2.8,2.2-4.3c0.6-1.5,0.7-3.1,0.4-4.7c-0.6-3.2-2.2-5.7-4.8-7.5c-2.8-1.8-5.9-2.4-9.6-1.8
			c-4.3,0.8-7.3,2.4-8.9,4.9c-1.7,2.6-2.8,6.2-3.5,10.7c-0.6,4.7-2.8,7.4-6.5,8.1c-2.2,0.4-4.2-0.1-6-1.4
			C488.3,84.9,487.2,83.3,486.8,81.5z M526.8,142.4c-2.4,0.4-4.7,0-6.6-1.3c-2.1-1.2-3.3-3.3-3.8-6.2c-0.5-2.6,0.1-4.7,1.5-6.8
			c1.4-2,3.4-3.2,5.9-3.7c2.5-0.4,4.7,0.1,6.6,1.5c2,1.4,3.2,3.4,3.6,5.9c0.5,2.8,0,5.1-1.5,7S529.1,142,526.8,142.4z"/>
	</g>
</g>
</svg>
