<?xml version="1.0" encoding="utf-8"?>
<!-- Generator: Adobe Illustrator 24.2.1, SVG Export Plug-In . SVG Version: 6.00 Build 0)  -->
<svg version="1.1" id="bab7d7d3-5265-4add-b9d0-a4ec8bbdc3a5"
	 xmlns="http://www.w3.org/2000/svg" xmlns:xlink="http://www.w3.org/1999/xlink" x="0px" y="0px" viewBox="0 0 1150 800"
	 style="enable-background:new 0 0 1150 800;" xml:space="preserve">
<style type="text/css">
	.st0{fill:#2F2E41;}
	.st1{fill:#3F3D56;}
	.st2{fill:#F9A826;}
	.st3{fill:#E6E6E6;}
	.st4{fill:#F95858;}
	.st5{fill:#FFB8B8;}
	.st6{fill:#E29627;}
	.st7{fill:#FFB9B9;}
	.st8{fill:#575A89;}
	.st9{fill:none;stroke:#3F3D56;stroke-miterlimit:10;}
	.st10{opacity:0.1;enable-background:new    ;}
</style>
<polygon class="st0" points="289.4,269.4 283,274.9 284.9,327.2 291.2,321.6 "/>
<path class="st1" d="M537.5,226.4H299.2c-2.4,0-4.4-2-4.4-4.4v-59.1c0-2.4,2-4.4,4.4-4.4h238.3c2.4,0,4.4,2,4.4,4.4V222
	C541.9,224.4,539.9,226.4,537.5,226.4z M299.2,160.2c-1.5,0-2.6,1.2-2.6,2.6v59.1c0,1.5,1.2,2.6,2.6,2.6h238.3
	c1.5,0,2.6-1.2,2.6-2.6v-59c0-1.5-1.2-2.6-2.6-2.6L299.2,160.2z"/>
<ellipse class="st2" cx="336.2" cy="190.1" rx="18" ry="18"/>
<path class="st3" d="M377.8,178.2c-1.7,0-3,1.3-3,3s1.3,3,3,3H519c1.7,0,3-1.3,3-3s-1.3-3-3-3H377.8z"/>
<path class="st3" d="M377.8,196.1c-1.7,0-3,1.3-3,3s1.3,3,3,3h60.8c1.7,0,3-1.3,3-3s-1.3-3-3-3l0,0H377.8z"/>
<path class="st1" d="M434.1,437H328.2c-2.4,0-4.4-2-4.4-4.4V322.3c0-2.4,2-4.4,4.4-4.4h105.9c2.4,0,4.4,2,4.4,4.4v110.3
	C438.5,435.1,436.5,437,434.1,437z M328.2,319.7c-1.5,0-2.6,1.2-2.6,2.6v110.3c0,1.5,1.2,2.6,2.6,2.6h105.9c1.5,0,2.6-1.2,2.6-2.6
	V322.3c0-1.5-1.2-2.6-2.6-2.6H328.2z"/>
<path class="st3" d="M350.7,340.7c-1.7,0-3,1.3-3,3s1.3,3,3,3h60.8c1.7,0,3-1.3,3-3s-1.3-3-3-3H350.7z"/>
<path class="st3" d="M350.7,358.3c-1.7,0-3,1.3-3,3s1.3,3,3,3l0,0h60.8c1.7,0,3-1.3,3-3s-1.3-3-3-3H350.7z"/>
<path class="st1" d="M607.5,70.8h105.9c2.4,0,4.4,2,4.4,4.4v110.3c0,2.4-2,4.4-4.4,4.4H607.5c-2.4,0-4.4-2-4.4-4.4V75.2
	C603.1,72.8,605.1,70.8,607.5,70.8z M713.4,188.1c1.5,0,2.6-1.2,2.6-2.6V75.2c0-1.5-1.2-2.6-2.6-2.6H607.5c-1.5,0-2.6,1.2-2.6,2.6
	v110.3c0,1.5,1.2,2.6,2.6,2.6H713.4z"/>
<path class="st3" d="M690.9,167.2c1.7,0,3-1.3,3-3s-1.3-3-3-3l0,0h-60.8c-1.7,0-3,1.3-3,3s1.3,3,3,3l0,0H690.9z"/>
<path class="st3" d="M690.9,149.5c1.7,0,3-1.3,3-3s-1.3-3-3-3l0,0h-60.8c-1.7,0-3,1.3-3,3s1.3,3,3,3l0,0H690.9z"/>
<path class="st1" d="M296.2,299c18.7-14.5,40.6-24.4,63.9-28.9c23.5-4.5,47.7-3.2,70.5,3.6c11.5,3.4,22.5,8.2,32.9,14.3
	c10.6,6.2,20.1,13.8,29.3,21.8c9.3,8.1,18.3,16.7,28,24.3c27.7,22.2,62.1,34.3,97.6,34.3c2.9,0,5.9-0.1,8.8-0.2
	c1.6-0.1,1.6-2.6,0-2.5c-36.2,2-71.9-8.8-100.9-30.5c-10.1-7.5-19.2-16.1-28.6-24.5c-9.1-8.1-18.4-15.9-28.7-22.4
	c-51.6-32.5-117.6-31-167.7,3.8c-2.3,1.6-4.6,3.3-6.8,5.1C293.2,298.2,294.9,299.9,296.2,299L296.2,299z"/>
<path class="st1" d="M841.8,395.7H631.5c-2.4,0-4.4-2-4.4-4.4V281.9c0-2.4,2-4.4,4.4-4.4h210.3c2.4,0,4.4,2,4.4,4.4v109.4
	C846.2,393.8,844.2,395.7,841.8,395.7z M631.5,279.3c-1.5,0-2.6,1.2-2.6,2.6v109.4c0,1.5,1.2,2.6,2.6,2.6h210.3
	c1.5,0,2.6-1.2,2.6-2.6V281.9c0-1.5-1.2-2.6-2.6-2.6H631.5z"/>
<circle class="st2" cx="666.8" cy="316.3" r="18"/>
<path class="st3" d="M708.3,304.3c-1.7,0-3,1.3-3,3c0,1.7,1.3,3,3,3l0,0h113.2c1.7,0,3-1.3,3-3c0-1.7-1.3-3-3-3l0,0H708.3z"/>
<path class="st3" d="M708.3,322.3c-1.7,0-3,1.3-3,3c0,1.7,1.3,3,3,3l0,0h60.8c1.7,0,3-1.3,3-3c0-1.7-1.3-3-3-3H708.3z"/>
<path class="st3" d="M653,351c-2.3,0-4.1,1.3-4.1,3s1.9,3,4.1,3h166.8c2.3,0,4.1-1.3,4.1-3s-1.9-3-4.1-3H653z"/>
<path class="st3" d="M653,369c-2.3,0-4.1,1.3-4.1,3s1.9,3,4.1,3h166.8c2.3,0,4.1-1.3,4.1-3s-1.9-3-4.1-3H653z"/>
<path class="st1" d="M614.6,481.1c11.9-5.1,25.1-0.7,36.3,4.1c5.8,2.4,11.5,5,17.4,7c5,1.6,10.1,2.8,15.4,3.6
	c10.4,1.6,21.1,1.7,31.5,0.2c10.5-1.5,20.8-4.4,30.4-8.9c9.6-4.4,18.5-10.2,26.3-17.2c1-0.9,2-1.8,2.9-2.8c1.1-1.1-0.6-2.9-1.8-1.8
	c-7.6,7.4-16.2,13.5-25.7,18.1c-9.4,4.6-19.5,7.9-29.9,9.6c-10.4,1.8-21,1.9-31.5,0.5c-5.2-0.7-10.4-1.8-15.4-3.3
	c-5.8-1.9-11.5-4.1-17-6.6c-11.3-4.8-23.8-9.6-36.2-6.2c-1.4,0.4-2.8,0.9-4.2,1.5C611.9,479.6,613.1,481.8,614.6,481.1L614.6,481.1z
	"/>
<path class="st4" d="M610,511.6h-99.3l23.4-40.5c1.3-2.3,4.2-3.1,6.5-1.7c0.7,0.4,1.3,1,1.7,1.7l10,17.3l17-29.4
	c1.7-2.9,5.3-3.8,8.2-2.2c0.9,0.5,1.7,1.3,2.2,2.2L610,511.6z"/>
<path class="st1" d="M610.1,511.5H504.2c-2.4,0-4.4-2-4.4-4.4V448c0-2.4,2-4.4,4.4-4.4h105.9c2.4,0,4.4,2,4.4,4.4v59.1
	C614.5,509.6,612.5,511.5,610.1,511.5z M504.2,445.4c-1.5,0-2.6,1.2-2.6,2.6v59.1c0,1.5,1.2,2.6,2.6,2.6h105.9
	c1.5,0,2.6-1.2,2.6-2.6V448c0-1.5-1.2-2.6-2.6-2.6H504.2z"/>
<path class="st5" d="M817.8,459.5l-18.9,9.6c-6.7,3.4-13.2,2.8-15.7-4.3l0,0c-2.3-6.5,1.2-13.6,7.7-15.9c0.6-0.2,1.2-0.4,1.8-0.5
	l17.9-3.3l76.8-25.5l46.5-33l17.2,27.2l-53.8,29L817.8,459.5z"/>
<polygon class="st5" points="905.9,777.7 891.5,775.3 893.1,748 908.3,748 "/>
<polygon class="st5" points="1046.1,751 1032.1,755.4 1021.2,730.3 1034.8,723.4 "/>
<path class="st0" d="M1038.3,727.1l-17.7,7.2l-84.2-110.7l-26.5,130l-17.7-3.2C880.9,638.3,871.6,524.1,883,470l65.4-2.8l29.7,94.7
	l14.4,64.2L1038.3,727.1z"/>
<path class="st0" d="M905.1,799.7L905.1,799.7c-2.6,0.6-5.4,0.3-7.9-0.8l-8.6-3.9c-7.2-0.4-12.1,1.1-16.1-4.2
	c-2.3-3-2.8-7.1-1.2-10.6l0,0c1.5-3.5,4.8-5.9,8.6-6.3l11.8-7.4l0.6,5.6c5.4,3.1,11.8,1.7,18.6-1.2l3.7,12.9
	c1.9,6.7-2,13.7-8.7,15.7C905.7,799.6,905.4,799.7,905.1,799.7z"/>
<path class="st0" d="M1051.8,773.2L1051.8,773.2c-2.3,1.4-5,2-7.7,1.8l-9.4-0.9c-6.9,2-11.1,4.9-16.6,1.3c-3.2-2.1-4.9-5.8-4.6-9.6
	l0,0c0.3-3.8,2.7-7.1,6.1-8.7l8.7-10.8l2.4,5.1c6.1,1.1,11.7-2.2,17.1-7.2l7.7,11c4,5.7,2.6,13.6-3.1,17.6
	C1052.3,772.9,1052,773,1051.8,773.2z"/>
<circle class="st5" cx="924.4" cy="324.4" r="28.9"/>
<polygon class="st5" points="959.7,385.4 922,377.3 917.1,346 943.6,340.4 "/>
<path class="st6" d="M949.2,471.2h-67.4l15.2-38.1c-1.1-13.1,4.5-22.8,12.4-31.2l10.1-25.4c16.3-10.7,28.6-9.9,41.7,4
	C976.8,402.5,966,435.6,949.2,471.2z"/>
<path class="st5" d="M918.7,552.2l-1.9,21.1c-0.7,7.5-4.6,12.7-12,11l0,0c-6.7-1.5-10.9-8.2-9.4-14.9c0.1-0.6,0.3-1.2,0.6-1.8
	l6.7-17L922,472l-3.2-57h32.1l-4,61L918.7,552.2z"/>
<path class="st2" d="M953.2,416.6h-36.9l2.6-24.1c0.4-8.6,7.2-15.6,15.9-16l0,0c9.2-0.5,17.1,6.6,17.5,15.8c0,0.1,0,0.1,0,0.2
	L953.2,416.6z"/>
<circle class="st0" cx="960.1" cy="283.8" r="10.9"/>
<path class="st0" d="M948.9,281.2c0.4-5.7,5.1-10.2,10.9-10.1c-0.2,0-0.4-0.1-0.7-0.1c-6-0.4-11.1,4.2-11.5,10.1
	c-0.4,6,4.2,11.1,10.1,11.5c0.2,0,0.5,0,0.7,0C952.7,291.9,948.6,286.9,948.9,281.2z"/>
<path class="st0" d="M948.9,285.8c-9.7-8-37.5,2.2-39.2,7.6c-13.1,1.8-23,9.4-23,23l0,0c7.8,3.2,16.6,2.8,26.2,0
	c15.3,12.4,16.3,28.1,7,46l11.4,0.2l14.1-20.7l0.7,21l26.2-0.5v-30.1c0.1-10-2.2-19.9-6.7-28.8C961.5,295.6,955.1,291,948.9,285.8z"
	/>
<ellipse class="st5" cx="924.5" cy="331.6" rx="5.2" ry="7.3"/>
<path class="st7" d="M271.3,340.9c0,0,3.1-54.1,19.3-41.8c16.2,12.3-7.1,46.8-7.1,46.8L271.3,340.9z"/>
<path class="st7" d="M210.9,501.3c0,0,36,40.5,15.9,43.2s-28.1-38.1-28.1-38.1L210.9,501.3z"/>
<path class="st8" d="M163.9,309.8L163.9,309.8c9.2,2.4,16.1,10.2,17.5,19.7l11.5,81.6l16.1,65.1c0,0,8,7.2,4.8,11.2s4,20.9,4,20.9
	l-20.1,6.4c0,0-2.4-16.9-6.4-17.7c-3.5-0.7-43.1-106.3-52.6-131.9c-1.3-3.5-2.1-5.5-2.1-5.5S138.2,305.8,163.9,309.8z"/>
<path class="st7" d="M167.6,735.3l12.3,21.9c9.6,20.4,1.1,24.1-22.4,14l-5.3-25.8L167.6,735.3z"/>
<path class="st0" d="M173.8,764.4c0,0,5.9-9.5,8-7.9c2.1,1.6,10.9,8.5,10.9,8.5l11.4,10.9c0,0,38.5,4.1,14,17.5s-38,2.3-38,2.3
	s-34.2,1.8-33.7-7.8s11.6-24.7,11.6-24.7S171.9,772.6,173.8,764.4z"/>
<path class="st0" d="M112.8,488.1l11.6,140c0,0,0.4,83.7,12.7,99.9s12.7,24.3,12.7,24.3l25.4-13.1c0,0-13.1-21.8-10.4-25.2
	c1.7-2.1,2.8-4.6,3.5-7.2l-6.9-86.4L174.5,470L112.8,488.1z"/>
<path class="st9" d="M130.6,752.3"/>
<polygon class="st7" points="144.4,735.3 133.6,763.8 109.2,753.6 122.1,732.2 "/>
<path class="st0" d="M126.4,754.2c0,0,9.2-5.7,10.3-3.4c1.1,2.3,5.7,12.1,5.7,12.1l5.2,14.3c0,0,31.6,20.1,4.6,21.2
	s-33.9-14.3-33.9-14.3S88,770.9,92.6,762.8s20.7-16.4,20.7-16.4S121.3,760.5,126.4,754.2z"/>
<path class="st0" d="M210.8,488.5l6.2,128.8c0,0-56.3,116.4-62.5,119.5c-3.7,1.9-6.5,5.3-7.7,9.3l-33.9-8.5l15.4-24.7l33.9-82.5
	c0,0,5.4-2.3,6.9-10s4.6-7.7-3.1-9.3s-7.7-9.3-7.7-9.3l-25.4-117.1L210.8,488.5z"/>
<circle class="st7" cx="183" cy="255.6" r="30.8"/>
<path class="st7" d="M155.6,257.6c0,0-2.3,39.3-5.4,43.2s32.4,3.1,32.4,3.1s-2.3-33.2,0-36.2S155.6,257.6,155.6,257.6z"/>
<path class="st1" d="M213.1,497c0,0-87.1-7.7-103.3,0c0,0,6-22.1,4.4-24.4c-1.1-1.7,2-64.7,1-101c-0.6-20.5-5.3-40.5,8.5-55.7
	c4.7-5.2,9.9-9.5,15.4-11.6c0,0-1.5-14.6,6.2-15.4c0,0,29.3-3.1,40.1,6.2c3.4,2.9,5.6,11.9,5.9,19.6c-5.3,26.3-3.4,55.4,1.4,85.6
	c0.3,1.9,0.6,3.9,1,5.8C198.8,436,206.6,466.9,213.1,497z"/>
<path class="st0" d="M166.9,264.7c2.6-0.2,5.2,0.7,7.7,1.1c9.3,1.2,18.9-5.5,21-14.6c0.2-1.2,0.5-2.4,1.1-3.5
	c1.4-2.3,4.7-2.8,7.4-2.2c2.7,0.6,5.2,1.8,7.9,1.9c4.2,0.2,8.3-2.4,10.5-5.9c2.1-3.7,3-7.9,2.6-12.2l-2,2.1
	c-0.8-1.7-1.1-3.7-0.9-5.6c-2.2-0.6-4.5,0-6.1,1.6c-1.8,0.2-0.4-3.3-1.8-4.5c-0.6-0.4-1.4-0.5-2.2-0.4c-3.8,0-6.9-2.9-9.8-5.2
	c-5.2-4-11.2-6.8-17.6-8.1c-4.3-0.8-8.8-1-12.9,0.6c-3.3,1.5-6.2,3.6-8.7,6.2c-6.3,6.1-12,13.3-14.6,21.7
	c-2.1,6.9-2.2,14.2-0.2,21.2c1.1,3.6,4.3,15.9,9,16.2C163.1,275.4,159.5,265.2,166.9,264.7z"/>
<path class="st1" d="M179.7,313.6l11.1,1.2c0,0,10.8,21,10.1,25.4c-0.7,4.4-2.5,1.7,2.4,8.7c4.9,7,18.7,25.2,20.5,27.8
	s48.5-33,45.6-43.7c0,0,14.8,10.6,21.1,12c0,0-48.2,63.2-54.9,71.3s-12.1,6.4-21.4,1.6c-9.3-4.8-56.1-52.5-56.1-52.5L179.7,313.6z"
	/>
<path class="st10" d="M193.6,406l-38.4-38.4l9.7-3.2l27.7,35.8C192.9,402.1,193.2,404.1,193.6,406z"/>
<g>
	<path class="st2" d="M394,404.8c0.8-1.6,1.5-3.3,2-5.2c-0.1,0.1-0.1,0.2-0.2,0.3l-0.7,0.9l0.2-1.1c0-0.2,0.1-0.3,0.1-0.5
		c-0.1,0.2-0.2,0.3-0.3,0.5l-0.6,0.9l0.2-1.1c0-0.2,0.1-0.3,0.1-0.5c-0.1,0.1-0.2,0.3-0.3,0.4l-0.9,1.3l0.4-1.5
		c0.1-0.4,0.3-0.8,0.4-1.2c0.4-1.2,0.8-2.5,0.9-4c-0.1,0.2-0.2,0.4-0.4,0.6l-0.6,0.8l0.1-1c0-0.2,0-0.4,0-0.5
		c-0.1,0.2-0.2,0.4-0.3,0.5l-0.5,0.9l0.1-1c0-0.2,0-0.3,0-0.5c-0.1,0.2-0.2,0.3-0.3,0.5l-1,1.6l0.5-1.8c0.4-1.4,0.8-2.9,0.6-4.6
		c-0.1,0.1-0.2,0.3-0.3,0.4l-0.4,0.5v-0.7c0-0.1,0-0.2,0-0.4c-0.1,0.1-0.2,0.3-0.3,0.4l-0.4,0.6v-0.5c0-0.1,0-0.2,0-0.3
		c-0.1,0.1-0.1,0.2-0.2,0.3l-0.8,1.2l0.3-1.4c0.2-0.9,0.2-1.8,0-2.6c-0.1,0.2-0.1,0.4-0.2,0.5l-0.3,0.8l-0.1-0.9
		c0-0.2-0.1-0.3-0.1-0.5c0,0.2-0.1,0.3-0.2,0.5l-0.3,0.9l-0.1-0.9c0-0.1-0.1-0.3-0.1-0.4c0,0.2-0.1,0.3-0.2,0.5l-0.3,0.7l-0.2-0.7
		c-0.1-0.4-0.2-0.8-0.2-1.1c-0.1-0.5-0.2-1-0.4-1.6c0,0.1-0.1,0.3-0.1,0.4l-0.2,0.8l-0.3-0.8c0-0.1-0.1-0.2-0.2-0.4
		c0,0.1,0,0.3-0.1,0.4l-0.2,0.8l-0.3-0.8c0-0.1-0.1-0.2-0.1-0.3c0,0.1,0,0.2-0.1,0.4l-0.2,0.8l-0.3-0.8c0-0.1-0.1-0.2-0.1-0.3
		c0,0.1,0,0.2,0,0.3l-0.5-0.1c0-0.7-0.2-1.4-0.7-1.9c0,0.1,0,0.1,0,0.2l-0.1,0.5l-0.3-0.4c0-0.1-0.1-0.1-0.2-0.2c0,0.1,0,0.1,0,0.2
		l-0.1,0.5l-0.5-0.3c0-0.1-0.1-0.1-0.1-0.2c0,0.1,0,0.1,0,0.2l-0.1,0.5l-0.3-0.4l-0.1-0.1l-0.1,0.8l-0.4-1c-0.1-0.2-0.2-0.4-0.3-0.6
		c0,0.1,0,0.1,0,0.2l-0.1,0.6l-0.3-0.5c0,0,0-0.1-0.1-0.1c0,0.1,0,0.1,0,0.2l-0.1,0.6l-0.3-0.6c0,0,0-0.1-0.1-0.1c0,0.1,0,0.1,0,0.2
		l-0.1,0.7l-0.5-0.4l-0.3,0.4l-0.1-0.7c0-0.1,0-0.1,0-0.2c0,0,0,0.1-0.1,0.1l-0.3,0.6l-0.1-0.6c0-0.1,0-0.1,0-0.2c0,0,0,0.1-0.1,0.1
		l-0.3,0.5l-0.1-0.6c0-0.1,0-0.1,0-0.2c-0.1,0.2-0.2,0.4-0.3,0.6l-0.4,1l-0.1-0.8l-0.1,0.1l-0.3,0.4l-0.1-0.5c0-0.1,0-0.1,0-0.2
		c-0.1,0.1-0.1,0.1-0.1,0.2l-0.3,0.4l-0.1-0.5c0-0.1,0-0.1,0-0.2c-0.1,0.1-0.1,0.1-0.2,0.2l-0.3,0.4l-0.1-0.5c0-0.1,0-0.1,0-0.2
		c-0.5,0.6-0.8,1.2-0.7,1.9l-0.5,0.1c0-0.1,0-0.2,0-0.3c0,0.1-0.1,0.2-0.1,0.3l-0.3,0.8l-0.2-0.8c0-0.1,0-0.3-0.1-0.4
		c-0.1,0.1-0.1,0.2-0.1,0.3l-0.3,0.8l-0.2-0.8c0-0.1-0.1-0.3-0.1-0.4c-0.1,0.1-0.1,0.2-0.2,0.4l-0.3,0.8l-0.2-0.8
		c0-0.2-0.1-0.3-0.1-0.4c-0.2,0.5-0.3,1-0.4,1.6c-0.1,0.4-0.1,0.7-0.2,1.1l-0.2,0.7l-0.3-0.7c-0.1-0.2-0.1-0.3-0.2-0.5
		c0,0.1-0.1,0.3-0.1,0.4l-0.1,0.9l-0.3-0.9c-0.1-0.2-0.1-0.4-0.2-0.5c0,0.2-0.1,0.3-0.1,0.5l-0.1,0.9l-0.3-0.8
		c-0.1-0.2-0.1-0.4-0.2-0.5c-0.2,0.9-0.2,1.8,0,2.6l0.3,1.4l-0.8-1.2c-0.1-0.1-0.1-0.2-0.2-0.3c0,0.1,0,0.2,0,0.3l-0.1,0.7L370,390
		c-0.1-0.2-0.2-0.3-0.3-0.4c0,0.1,0,0.2,0,0.4v0.7l-0.4-0.5c-0.1-0.2-0.2-0.3-0.3-0.4c-0.2,1.7,0.2,3.2,0.6,4.6l0.5,1.8l-1-1.6
		c-0.1-0.2-0.2-0.4-0.3-0.5c0,0.2,0,0.3,0,0.5l0.1,1l-0.5-0.9c-0.1-0.2-0.2-0.4-0.3-0.5c0,0.2,0,0.4,0,0.5l0.1,1l-0.6-0.8
		c-0.1-0.2-0.3-0.4-0.4-0.6c0.1,1.5,0.5,2.8,0.9,4c0.1,0.4,0.3,0.8,0.4,1.2l0.4,1.5l-0.9-1.3c-0.1-0.2-0.2-0.3-0.3-0.4
		c0,0.2,0,0.3,0.1,0.5l0.2,1.1l-0.6-0.9c-0.1-0.2-0.2-0.3-0.3-0.5c0,0.2,0.1,0.3,0.1,0.5l0.2,1.1l-0.7-0.9c-0.1-0.1-0.2-0.2-0.2-0.3
		c0.5,1.9,1.1,3.7,2,5.2c0.3,0.4,0.6,0.6,0.9,0.6h8.1c0.1,0,1.4,0,1.3-1.3v-0.1c-0.1-1.2-0.3-1.4-0.3-1.4c-0.2-0.2-1.1-1.1-2.3-2
		c-0.8-0.6-2.3-1.8-3.5-2.2l-0.9-0.3c-0.8-0.3-0.8-0.3-0.9-0.3h-0.1c-0.1,0-0.6-0.1-0.7-0.1h-0.3l0.1-0.6h0.2c0.1,0,0.1,0,0.2,0
		s0.1,0,0.2,0c0.4,0,0.8,0.1,2.5,0.7c2.3,0.8,5.7,3.8,6.2,4.4c0.3,0.4,0.5,1.8,0.7,5.2v0.1c0,0.3,0,0.4,0,0.5c0,0.2,0.8,0.6,1.3,0.6
		s1.3-0.4,1.3-0.6c0-0.1,0-0.3,0-0.5v-0.1c0.2-3.4,0.4-4.9,0.7-5.2c0.4-0.5,3.8-3.6,6.2-4.4c2-0.7,2.2-0.7,2.7-0.7
		c0.1,0,0.1,0,0.2,0h0.3l-0.1,0.6h-0.3c-0.1,0-0.3,0-0.3,0c-0.2,0-0.2,0-0.8,0.2c-0.3,0.1-0.7,0.2-1.3,0.5c-1.1,0.4-2.5,1.4-3.5,2.2
		c-1.1,0.9-2.1,1.7-2.3,2c0,0-0.2,0.2-0.3,1.5c0,0.6,0.2,0.9,0.6,1.1c0.3,0.2,0.7,0.2,0.7,0.2h8.1
		C393.3,405.3,393.7,405.1,394,404.8z M379.2,399.9c-0.1,0.1-0.3,0.2-0.6,0.2l0,0c-0.4,0-0.9-0.2-1.2-0.5l-1-0.9l0.4-0.1
		c0.3-0.1,0.5-0.2,0.6-0.4c0.3-0.3,0.6-0.5,1.3-0.2c0.3,0.1,0.5,0.4,0.6,0.8C379.4,399.3,379.4,399.7,379.2,399.9z M384.8,399.7
		c-0.3,0.3-0.8,0.5-1.2,0.5l0,0c-0.2,0-0.4-0.1-0.6-0.2c-0.2-0.3-0.2-0.7-0.2-1c0.1-0.4,0.3-0.7,0.6-0.8c0.8-0.3,1-0.1,1.3,0.2
		c0.1,0.1,0.3,0.3,0.6,0.4l0.4,0.1L384.8,399.7z"/>
	<path class="st2" d="M381.1,376.7c-10.4,0-18.9,8.4-18.9,18.9s8.4,18.9,18.9,18.9c10.4,0,18.8-8.4,18.9-18.9l0,0
		C400,385.2,391.5,376.7,381.1,376.7z M381.1,413.5c-9.9,0-17.9-8-17.9-17.9s8-17.9,17.9-17.9s17.9,8,17.9,17.9
		C399,405.4,391,413.5,381.1,413.5z"/>
</g>
<g>
	<path class="st2" d="M394,404.8c0.8-1.6,1.5-3.3,2-5.2c-0.1,0.1-0.1,0.2-0.2,0.3l-0.7,0.9l0.2-1.1c0-0.2,0.1-0.3,0.1-0.5
		c-0.1,0.2-0.2,0.3-0.3,0.5l-0.6,0.9l0.2-1.1c0-0.2,0.1-0.3,0.1-0.5c-0.1,0.1-0.2,0.3-0.3,0.4l-0.9,1.3l0.4-1.5
		c0.1-0.4,0.3-0.8,0.4-1.2c0.4-1.2,0.8-2.5,0.9-4c-0.1,0.2-0.2,0.4-0.4,0.6l-0.6,0.8l0.1-1c0-0.2,0-0.4,0-0.5
		c-0.1,0.2-0.2,0.4-0.3,0.5l-0.5,0.9l0.1-1c0-0.2,0-0.3,0-0.5c-0.1,0.2-0.2,0.3-0.3,0.5l-1,1.6l0.5-1.8c0.4-1.4,0.8-2.9,0.6-4.6
		c-0.1,0.1-0.2,0.3-0.3,0.4l-0.4,0.5v-0.7c0-0.1,0-0.2,0-0.4c-0.1,0.1-0.2,0.3-0.3,0.4l-0.4,0.6v-0.5c0-0.1,0-0.2,0-0.3
		c-0.1,0.1-0.1,0.2-0.2,0.3l-0.8,1.2l0.3-1.4c0.2-0.9,0.2-1.8,0-2.6c-0.1,0.2-0.1,0.4-0.2,0.5l-0.3,0.8l-0.1-0.9
		c0-0.2-0.1-0.3-0.1-0.5c0,0.2-0.1,0.3-0.2,0.5l-0.3,0.9l-0.1-0.9c0-0.1-0.1-0.3-0.1-0.4c0,0.2-0.1,0.3-0.2,0.5l-0.3,0.7l-0.2-0.7
		c-0.1-0.4-0.2-0.8-0.2-1.1c-0.1-0.5-0.2-1-0.4-1.6c0,0.1-0.1,0.3-0.1,0.4l-0.2,0.8l-0.3-0.8c0-0.1-0.1-0.2-0.2-0.4
		c0,0.1,0,0.3-0.1,0.4l-0.2,0.8l-0.3-0.8c0-0.1-0.1-0.2-0.1-0.3c0,0.1,0,0.2-0.1,0.4l-0.2,0.8l-0.3-0.8c0-0.1-0.1-0.2-0.1-0.3
		c0,0.1,0,0.2,0,0.3l-0.5-0.1c0-0.7-0.2-1.4-0.7-1.9c0,0.1,0,0.1,0,0.2l-0.1,0.5l-0.3-0.4c0-0.1-0.1-0.1-0.2-0.2c0,0.1,0,0.1,0,0.2
		l-0.1,0.5l-0.5-0.3c0-0.1-0.1-0.1-0.1-0.2c0,0.1,0,0.1,0,0.2l-0.1,0.5l-0.3-0.4l-0.1-0.1l-0.1,0.8l-0.4-1c-0.1-0.2-0.2-0.4-0.3-0.6
		c0,0.1,0,0.1,0,0.2l-0.1,0.6l-0.3-0.5c0,0,0-0.1-0.1-0.1c0,0.1,0,0.1,0,0.2l-0.1,0.6l-0.3-0.6c0,0,0-0.1-0.1-0.1c0,0.1,0,0.1,0,0.2
		l-0.1,0.7l-0.5-0.4l-0.3,0.4l-0.1-0.7c0-0.1,0-0.1,0-0.2c0,0,0,0.1-0.1,0.1l-0.3,0.6l-0.1-0.6c0-0.1,0-0.1,0-0.2c0,0,0,0.1-0.1,0.1
		l-0.3,0.5l-0.1-0.6c0-0.1,0-0.1,0-0.2c-0.1,0.2-0.2,0.4-0.3,0.6l-0.4,1l-0.1-0.8l-0.1,0.1l-0.3,0.4l-0.1-0.5c0-0.1,0-0.1,0-0.2
		c-0.1,0.1-0.1,0.1-0.1,0.2l-0.3,0.4l-0.1-0.5c0-0.1,0-0.1,0-0.2c-0.1,0.1-0.1,0.1-0.2,0.2l-0.3,0.4l-0.1-0.5c0-0.1,0-0.1,0-0.2
		c-0.5,0.6-0.8,1.2-0.7,1.9l-0.5,0.1c0-0.1,0-0.2,0-0.3c0,0.1-0.1,0.2-0.1,0.3l-0.3,0.8l-0.2-0.8c0-0.1,0-0.3-0.1-0.4
		c-0.1,0.1-0.1,0.2-0.1,0.3l-0.3,0.8l-0.2-0.8c0-0.1-0.1-0.3-0.1-0.4c-0.1,0.1-0.1,0.2-0.2,0.4l-0.3,0.8l-0.2-0.8
		c0-0.2-0.1-0.3-0.1-0.4c-0.2,0.5-0.3,1-0.4,1.6c-0.1,0.4-0.1,0.7-0.2,1.1l-0.2,0.7l-0.3-0.7c-0.1-0.2-0.1-0.3-0.2-0.5
		c0,0.1-0.1,0.3-0.1,0.4l-0.1,0.9l-0.3-0.9c-0.1-0.2-0.1-0.4-0.2-0.5c0,0.2-0.1,0.3-0.1,0.5l-0.1,0.9l-0.3-0.8
		c-0.1-0.2-0.1-0.4-0.2-0.5c-0.2,0.9-0.2,1.8,0,2.6l0.3,1.4l-0.8-1.2c-0.1-0.1-0.1-0.2-0.2-0.3c0,0.1,0,0.2,0,0.3l-0.1,0.7L370,390
		c-0.1-0.2-0.2-0.3-0.3-0.4c0,0.1,0,0.2,0,0.4v0.7l-0.4-0.5c-0.1-0.2-0.2-0.3-0.3-0.4c-0.2,1.7,0.2,3.2,0.6,4.6l0.5,1.8l-1-1.6
		c-0.1-0.2-0.2-0.4-0.3-0.5c0,0.2,0,0.3,0,0.5l0.1,1l-0.5-0.9c-0.1-0.2-0.2-0.4-0.3-0.5c0,0.2,0,0.4,0,0.5l0.1,1l-0.6-0.8
		c-0.1-0.2-0.3-0.4-0.4-0.6c0.1,1.5,0.5,2.8,0.9,4c0.1,0.4,0.3,0.8,0.4,1.2l0.4,1.5l-0.9-1.3c-0.1-0.2-0.2-0.3-0.3-0.4
		c0,0.2,0,0.3,0.1,0.5l0.2,1.1l-0.6-0.9c-0.1-0.2-0.2-0.3-0.3-0.5c0,0.2,0.1,0.3,0.1,0.5l0.2,1.1l-0.7-0.9c-0.1-0.1-0.2-0.2-0.2-0.3
		c0.5,1.9,1.1,3.7,2,5.2c0.3,0.4,0.6,0.6,0.9,0.6h8.1c0.1,0,1.4,0,1.3-1.3v-0.1c-0.1-1.2-0.3-1.4-0.3-1.4c-0.2-0.2-1.1-1.1-2.3-2
		c-0.8-0.6-2.3-1.8-3.5-2.2l-0.9-0.3c-0.8-0.3-0.8-0.3-0.9-0.3h-0.1c-0.1,0-0.6-0.1-0.7-0.1h-0.3l0.1-0.6h0.2c0.1,0,0.1,0,0.2,0
		s0.1,0,0.2,0c0.4,0,0.8,0.1,2.5,0.7c2.3,0.8,5.7,3.8,6.2,4.4c0.3,0.4,0.5,1.8,0.7,5.2v0.1c0,0.3,0,0.4,0,0.5c0,0.2,0.8,0.6,1.3,0.6
		s1.3-0.4,1.3-0.6c0-0.1,0-0.3,0-0.5v-0.1c0.2-3.4,0.4-4.9,0.7-5.2c0.4-0.5,3.8-3.6,6.2-4.4c2-0.7,2.2-0.7,2.7-0.7
		c0.1,0,0.1,0,0.2,0h0.3l-0.1,0.6h-0.3c-0.1,0-0.3,0-0.3,0c-0.2,0-0.2,0-0.8,0.2c-0.3,0.1-0.7,0.2-1.3,0.5c-1.1,0.4-2.5,1.4-3.5,2.2
		c-1.1,0.9-2.1,1.7-2.3,2c0,0-0.2,0.2-0.3,1.5c0,0.6,0.2,0.9,0.6,1.1c0.3,0.2,0.7,0.2,0.7,0.2h8.1
		C393.3,405.3,393.7,405.1,394,404.8z M379.2,399.9c-0.1,0.1-0.3,0.2-0.6,0.2l0,0c-0.4,0-0.9-0.2-1.2-0.5l-1-0.9l0.4-0.1
		c0.3-0.1,0.5-0.2,0.6-0.4c0.3-0.3,0.6-0.5,1.3-0.2c0.3,0.1,0.5,0.4,0.6,0.8C379.4,399.3,379.4,399.7,379.2,399.9z M384.8,399.7
		c-0.3,0.3-0.8,0.5-1.2,0.5l0,0c-0.2,0-0.4-0.1-0.6-0.2c-0.2-0.3-0.2-0.7-0.2-1c0.1-0.4,0.3-0.7,0.6-0.8c0.8-0.3,1-0.1,1.3,0.2
		c0.1,0.1,0.3,0.3,0.6,0.4l0.4,0.1L384.8,399.7z"/>
	<path class="st2" d="M381.1,376.7c-10.4,0-18.9,8.4-18.9,18.9s8.4,18.9,18.9,18.9c10.4,0,18.8-8.4,18.9-18.9l0,0
		C400,385.2,391.5,376.7,381.1,376.7z M381.1,413.5c-9.9,0-17.9-8-17.9-17.9s8-17.9,17.9-17.9s17.9,8,17.9,17.9
		C399,405.4,391,413.5,381.1,413.5z"/>
</g>
<g>
	<path class="st2" d="M673.3,121.6c0.8-1.6,1.5-3.3,2-5.2c-0.1,0.1-0.1,0.2-0.2,0.3l-0.7,0.9l0.2-1.1c0-0.2,0.1-0.3,0.1-0.5
		c-0.1,0.2-0.2,0.3-0.3,0.5l-0.6,0.9l0.2-1.1c0-0.2,0.1-0.3,0.1-0.5c-0.1,0.1-0.2,0.3-0.3,0.4l-0.9,1.3l0.4-1.5
		c0.1-0.4,0.3-0.8,0.4-1.2c0.4-1.2,0.8-2.5,0.9-4c-0.1,0.2-0.2,0.4-0.4,0.6l-0.6,0.8l0.1-1c0-0.2,0-0.4,0-0.5
		c-0.1,0.2-0.2,0.4-0.3,0.5l-0.5,0.9l0.1-1c0-0.2,0-0.3,0-0.5c-0.1,0.2-0.2,0.3-0.3,0.5l-1,1.6l0.5-1.8c0.4-1.4,0.8-2.9,0.6-4.6
		c-0.1,0.1-0.2,0.3-0.3,0.4l-0.4,0.5v-0.7c0-0.1,0-0.2,0-0.4c-0.1,0.1-0.2,0.3-0.3,0.4l-0.4,0.6l-0.1-0.7c0-0.1,0-0.2,0-0.3
		c-0.1,0.1-0.1,0.2-0.2,0.3l-0.8,1.2l0.3-1.4c0.2-0.9,0.2-1.8,0-2.6c-0.1,0.2-0.1,0.4-0.2,0.5l-0.3,0.8L670,104
		c0-0.2-0.1-0.3-0.1-0.5c0,0.2-0.1,0.3-0.2,0.5l-0.3,0.9l-0.1-0.9c0-0.1-0.1-0.3-0.1-0.4c0,0.2-0.1,0.3-0.2,0.5l-0.3,0.7l-0.2-0.7
		c-0.1-0.4-0.2-0.8-0.2-1.1c-0.1-0.5-0.2-1-0.4-1.6c0,0.1-0.1,0.3-0.1,0.4l-0.2,0.8l-0.3-0.8c0-0.1-0.1-0.2-0.2-0.4
		c0,0.1,0,0.3-0.1,0.4l-0.2,0.8l-0.3-0.8c0-0.1-0.1-0.2-0.1-0.3c0,0.1,0,0.2-0.1,0.4l-0.2,0.8l-0.3-0.8c0-0.1-0.1-0.2-0.1-0.3
		c0,0.1,0,0.2,0,0.3l-0.5-0.1c0-0.7-0.2-1.4-0.7-1.9c0,0.1,0,0.1,0,0.2l-0.1,0.5l-0.3-0.4c0-0.1-0.1-0.1-0.2-0.2c0,0.1,0,0.1,0,0.2
		l-0.1,0.5l-0.3-0.4c0-0.1-0.1-0.1-0.1-0.2c0,0.1,0,0.1,0,0.2l-0.1,0.5l-0.3-0.4l-0.1-0.1l-0.1,0.8l-0.4-1c-0.1-0.2-0.2-0.4-0.3-0.6
		c0,0.1,0,0.1,0,0.2l-0.1,0.6l-0.3-0.5c0,0,0-0.1-0.1-0.1c0,0.1,0,0.1,0,0.2l-0.1,0.6l-0.3-0.6c0,0,0-0.1-0.1-0.1c0,0.1,0,0.1,0,0.2
		l-0.1,0.7l-0.3-0.4l-0.3,0.4l-0.1-0.7c0-0.1,0-0.1,0-0.2c0,0,0,0.1-0.1,0.1l-0.3,0.6l-0.1-0.6c0-0.1,0-0.1,0-0.2c0,0,0,0.1-0.1,0.1
		l-0.3,0.5l-0.1-0.6c0-0.1,0-0.1,0-0.2c-0.1,0.2-0.2,0.4-0.3,0.6l-0.4,1l-0.1-0.8l-0.1,0.1l-0.3,0.4l-0.1-0.5c0-0.1,0-0.1,0-0.2
		c-0.1,0.1-0.1,0.1-0.1,0.2l-0.3,0.4l-0.1-0.5c0-0.1,0-0.1,0-0.2c-0.1,0.1-0.1,0.1-0.2,0.2l-0.3,0.4l-0.1-0.5c0-0.1,0-0.1,0-0.2
		c-0.5,0.6-0.8,1.2-0.7,1.9l-0.5,0.1c0-0.1,0-0.2,0-0.3c0,0.1-0.1,0.2-0.1,0.3l-0.3,0.8l-0.2-0.8c0-0.1,0-0.3-0.1-0.4
		c-0.1,0.1-0.1,0.2-0.1,0.3l-0.3,0.8l-0.2-0.8c0-0.1-0.1-0.3-0.1-0.4c-0.1,0.1-0.1,0.2-0.2,0.4l-0.3,0.8l-0.2-0.8
		c0-0.2-0.1-0.3-0.1-0.4c-0.2,0.5-0.3,1-0.4,1.6c-0.1,0.4-0.1,0.7-0.2,1.1l-0.2,0.7l-0.3-0.7c-0.1-0.2-0.1-0.3-0.2-0.5
		c0,0.1-0.1,0.3-0.1,0.4l-0.1,0.9l-0.3-0.9c-0.1-0.2-0.1-0.4-0.2-0.5c0,0.2-0.1,0.3-0.1,0.5l-0.1,0.9l-0.3-0.8
		c-0.1-0.2-0.1-0.4-0.2-0.5c-0.2,0.9-0.2,1.8,0,2.6l0.3,1.4l-0.8-1.2c-0.1-0.1-0.1-0.2-0.2-0.3c0,0.1,0,0.2,0,0.3l-0.1,0.7l-0.4-0.6
		c-0.1-0.2-0.2-0.3-0.3-0.4c0,0.1,0,0.2,0,0.4v0.7l-0.4-0.5c-0.1-0.2-0.2-0.3-0.3-0.4c-0.2,1.7,0.2,3.2,0.6,4.6l-0.1,1.9l-1-1.6
		c-0.1-0.2-0.2-0.4-0.3-0.5c0,0.2,0,0.3,0,0.5l0.1,1l-0.5-0.9c-0.1-0.2-0.2-0.4-0.3-0.5c0,0.2,0,0.4,0,0.5l0.1,1l-0.6-0.8
		c-0.1-0.2-0.3-0.4-0.4-0.6c0.1,1.5,0.5,2.8,0.9,4c0.1,0.4,0.3,0.8,0.4,1.2l0.4,1.5l-0.9-1.3c-0.1-0.2-0.2-0.3-0.3-0.4
		c0,0.2,0,0.3,0.1,0.5l0.2,1.1l-0.6-0.9c-0.1-0.2-0.2-0.3-0.3-0.5c0,0.2,0.1,0.3,0.1,0.5l0.2,1.1l-0.7-0.9c-0.1-0.1-0.2-0.2-0.2-0.3
		c0.5,1.9,1.1,3.7,2,5.2c0.3,0.4,0.6,0.6,0.9,0.6h8.1c0.1,0,1.4,0,1.3-1.3v-0.2c-0.1-1.2-0.3-1.4-0.3-1.4c-0.2-0.2-1.1-1.1-2.3-2
		c-0.8-0.6-2.3-1.8-3.5-2.2l-0.9-0.3c-0.8-0.3-0.8-0.3-0.9-0.3h-0.1c-0.1,0-0.6-0.1-0.7-0.1l0,0l0.1-0.6h0.2c0.1,0,0.1,0,0.2,0
		c0.1,0,0.1,0,0.2,0c0.4,0,0.8,0.1,2.5,0.7c2.3,0.8,5.7,3.8,6.2,4.4c0.3,0.4,0.5,1.8,0.7,5.2v0.1c0,0.3,0,0.4,0,0.5
		c0,0.2,0.8,0.6,1.3,0.6s1.3-0.4,1.3-0.6c0-0.1,0-0.3,0-0.5v-0.1c0.2-3.4,0.4-4.9,0.7-5.2c0.4-0.5,3.8-3.6,6.2-4.4
		c2-0.7,2.2-0.7,2.7-0.7c0.1,0,0.1,0,0.2,0h0.3l-0.1,0.6h-0.3c-0.1,0-0.3,0-0.3,0c-0.2,0-0.2,0-0.8,0.2c-0.3,0.1-0.7,0.2-1.3,0.5
		c-1.1,0.4-2.5,1.4-3.5,2.2c-1.1,0.9-2.1,1.7-2.3,2c0,0-0.2,0.2-0.3,1.5c0,0.6,0.2,0.9,0.6,1.1c0.3,0.2,0.7,0.2,0.7,0.2h8.1
		C672.7,122.2,673,122,673.3,121.6z M658.5,116.7c-0.1,0.1-0.3,0.2-0.6,0.2l0,0c-0.4,0-0.9-0.2-1.2-0.5l-1-0.9l0.4-0.1
		c0.3-0.1,0.5-0.2,0.6-0.4c0.3-0.3,0.6-0.5,1.3-0.2c0.3,0.1,0.5,0.4,0.6,0.8C658.8,116.1,658.8,116.5,658.5,116.7z M664.2,116.5
		c-0.3,0.3-0.8,0.5-1.2,0.5l0,0c-0.2,0-0.4-0.1-0.6-0.2c-0.2-0.3-0.2-0.7-0.2-1c0.1-0.4,0.3-0.7,0.6-0.8c0.8-0.3,1-0.1,1.3,0.2
		c0.1,0.1,0.3,0.3,0.6,0.4l0.4,0.1L664.2,116.5z"/>
	<path class="st2" d="M660.5,93.5c-10.4,0-18.9,8.4-18.9,18.9s8.4,18.9,18.9,18.9c10.4,0,18.8-8.4,18.9-18.9l0,0
		C679.3,102,670.9,93.5,660.5,93.5z M660.5,130.3c-9.9,0-17.9-8-17.9-17.9s8-17.9,17.9-17.9s17.9,8,17.9,17.9
		C678.3,122.2,670.3,130.3,660.5,130.3z"/>
</g>
<polygon class="st0" points="765.4,428.1 773.5,429.7 797.1,474.1 789,472.4 "/>
</svg>
