<?xml version="1.0" encoding="utf-8"?>
<!-- Generator: Adobe Illustrator 24.2.1, SVG Export Plug-In . SVG Version: 6.00 Build 0)  -->
<svg version="1.1" id="fe1bd44d-772d-49e6-8ede-d714f2b892c4"
	 xmlns="http://www.w3.org/2000/svg" xmlns:xlink="http://www.w3.org/1999/xlink" x="0px" y="0px" viewBox="0 0 1150 800"
	 style="enable-background:new 0 0 1150 800;" xml:space="preserve">
<style type="text/css">
	.st0{fill:none;stroke:#000000;stroke-miterlimit:10;}
	.st1{fill:#E6E6E6;}
	.st2{fill:#FFFFFF;}
	.st3{fill:#F4B056;}
	.st4{opacity:0.2;enable-background:new    ;}
	.st5{fill:#A0616A;}
	.st6{fill:#F9A826;}
	.st7{fill:#2F2E41;}
	.st8{fill:#3F3D56;}
	.st9{fill:#F95858;}
	.st10{fill:#F77474;}
	.st11{fill:#E24D4D;}
	.st12{fill:#CC4444;}
	.st13{fill:#B23636;}
</style>
<path class="st0" d="M650.3,643.7c-4.2-62.7-4.8-128.8-0.6-132.2"/>
<rect x="249.1" class="st1" width="2" height="340.7"/>
<path class="st1" d="M140.1,257.1c-0.7,0-1.2,0.5-1.2,1.2v157.8c0,0.7,0.5,1.2,1.2,1.2h219.8c0.7,0,1.2-0.5,1.2-1.2V258.3
	c0-0.7-0.5-1.2-1.2-1.2H140.1z"/>
<path class="st2" d="M347.8,270.1v112.1c0,1.6-1.3,2.8-2.8,2.8H154.6c-0.1,0-0.3,0-0.4,0c-1.4-0.2-2.4-1.4-2.4-2.8V270.1
	c0-1.6,1.3-2.8,2.8-2.8H345C346.5,267.2,347.8,268.5,347.8,270.1L347.8,270.1L347.8,270.1z"/>
<path class="st3" d="M277.5,385.5H155.9c-0.2,0-0.3,0-0.5,0l57.5-99.5c1.1-1.9,3.5-2.6,5.5-1.5c0.6,0.4,1.2,0.9,1.5,1.5l38.6,66.8
	l1.8,3.2L277.5,385.5z"/>
<polygon class="st4" points="277.5,385.5 236,385.5 256.3,355.9 257.8,353.8 258.5,352.7 260.4,355.9 "/>
<path class="st3" d="M345.1,385.5H240l20.4-29.6l1.5-2.1l26.5-38.5c1.8-2.3,5.2-2.7,7.5-0.9c0.1,0.1,0.3,0.2,0.4,0.4
	c0.1,0.2,0.3,0.3,0.4,0.5L345.1,385.5z"/>
<circle class="st2" cx="250.1" cy="260.7" r="4"/>
<rect x="574.1" class="st1" width="2" height="340.7"/>
<path class="st1" d="M465.1,257.1c-0.7,0-1.2,0.5-1.2,1.2v157.8c0,0.7,0.5,1.2,1.2,1.2h219.8c0.7,0,1.2-0.5,1.2-1.2V258.3
	c0-0.7-0.5-1.2-1.2-1.2H465.1z"/>
<path class="st2" d="M672.8,270.1v112.1c0,1.6-1.3,2.8-2.8,2.8l0,0H479.6c-0.1,0-0.3,0-0.4,0c-1.4-0.2-2.4-1.4-2.4-2.8V270.1
	c0-1.6,1.3-2.8,2.8-2.8H670C671.5,267.2,672.8,268.5,672.8,270.1L672.8,270.1z"/>
<circle class="st2" cx="575.1" cy="260.7" r="4"/>
<rect x="899.1" class="st1" width="2" height="340.7"/>
<path class="st1" d="M790.1,257.1c-0.7,0-1.2,0.5-1.2,1.2v157.8c0,0.7,0.5,1.2,1.2,1.2h219.8c0.7,0,1.2-0.5,1.2-1.2V258.3
	c0-0.7-0.5-1.2-1.2-1.2H790.1z"/>
<path class="st2" d="M997.8,270.1v112.1c0,1.6-1.3,2.8-2.8,2.8l0,0H804.6c-0.1,0-0.3,0-0.4,0c-1.4-0.2-2.4-1.4-2.4-2.8V270.1
	c0-1.6,1.3-2.8,2.8-2.8H995C996.5,267.2,997.8,268.5,997.8,270.1L997.8,270.1z"/>
<path class="st3" d="M927.5,385.5H805.9c-0.2,0-0.3,0-0.5,0l57.5-99.5c1.1-1.9,3.5-2.6,5.5-1.5c0.6,0.4,1.2,0.9,1.5,1.5l38.6,66.8
	l1.8,3.2L927.5,385.5z"/>
<polygon class="st4" points="927.4,385.5 886,385.5 906.3,355.9 907.8,353.8 908.5,352.7 910.4,355.9 "/>
<path class="st3" d="M995.1,385.5H890l20.4-29.6l1.5-2.1l26.5-38.5c1.8-2.3,5.2-2.7,7.5-0.9c0.1,0.1,0.3,0.2,0.4,0.4
	c0.1,0.2,0.3,0.3,0.4,0.5L995.1,385.5z"/>
<circle class="st2" cx="900.1" cy="260.7" r="4"/>
<path class="st5" d="M823.6,566.7l1.9,12.8c0.9,6.2-3.4,11.9-9.5,12.8c-1.1,0.2-2.1,0.2-3.2,0l0,0c-6.2-0.9-10.5-6.6-9.6-12.7
	c0.1-0.9,0.3-1.7,0.7-2.5l6.3-16.4l-3.4-110.6l19.6-7.4L823.6,566.7z"/>
<circle class="st5" cx="768.3" cy="356.3" r="27"/>
<path class="st5" d="M800.7,406.9l-49.9-2c5.5-12.1,7.7-23.9,5.4-35.1h33.1C787.5,380.4,792.3,393,800.7,406.9z"/>
<path class="st6" d="M792.6,512.1l-73.5,5.4l2.7-41.5c-8.5-20.2-7.1-34.7,2.9-44.3l0.9-14c0.6-9.2,7-17,15.9-19.4l12.7-3.4
	c16.5,9.7,29.6,9.5,39.1-1.3l15.2,7.8c7.5,3.9,11.9,12,10.9,20.3L792.6,512.1z"/>
<path class="st5" d="M679.9,516.2l-20.8,10.9c-3.7,1.9-8.1,1.1-10.9-2l0,0c-3.3-3.7-2.9-9.4,0.8-12.6c1.2-1,2.6-1.7,4.1-2l14.6-3
	l45.2-17.5l7.4-52.6l20.9,5.4l-4,62.1L679.9,516.2z"/>
<path class="st6" d="M827.7,446l-22.9,13.5l-1.3-54l4-1.3c11.2,0,20.3,9.1,20.3,20.3L827.7,446L827.7,446z"/>
<path class="st7" d="M811.8,776.9l-19.5-3.1c-3.9-66.6-11.9-128.8-26-184.1c-32.7,43.4-60.2,107.3-83.6,186.8l-22.9-6.1l60-261.7
	l71.5-1.3C820.5,547.4,811.9,671.1,811.8,776.9z"/>
<path class="st7" d="M672.5,799.9l-33.9-4.8c-3.7-0.5-6.2-3.9-5.7-7.5c0-0.3,0.1-0.6,0.2-0.8l0,0c0.7-2.6,2.9-4.5,5.5-4.9l6-0.9
	l19-11.6l15.7,4.2l4.7,13.8c1.2,5.6-2.3,11.1-7.9,12.4C675,800,673.7,800.1,672.5,799.9z"/>
<path class="st7" d="M805.4,799.9l-33.9-4.8c-3.7-0.5-6.2-3.9-5.7-7.5c0-0.3,0.1-0.6,0.2-0.8l0,0c0.7-2.6,2.9-4.5,5.5-4.9l6-0.9
	l19-11.6l15.7,4.2l4.7,13.8c1.2,5.6-2.3,11.1-7.9,12.4C807.8,800,806.6,800.1,805.4,799.9z"/>
<path class="st6" d="M745.4,456.1c-6.1-13.5-16.7-18.7-34.4-10.8l2.4-17.6c1.8-13.5,11.5-24.6,24.6-28.3l0,0L745.4,456.1z"/>
<path class="st7" d="M736.5,342.5c0,0-4.2-33,30.4-22.2c0,0,24.7-4.5,32.8,26.4l8.2,32.4l-4-2.2L802,381l-6.5,1.6l-2.8-5.5l-1.3,6.7
	l-53.1,5.3c0,0,23.8-14.1,24.2-39.3l-4.5,4.8L736.5,342.5z"/>
<circle class="st7" cx="795.3" cy="320.6" r="13.4"/>
<path class="st7" d="M781.6,317.3c0.5-7,6.3-12.5,13.4-12.5c-0.3,0-0.5-0.1-0.8-0.1c-7.4-0.5-13.7,5.1-14.2,12.5s5.1,13.7,12.5,14.2
	c0.3,0,0.6,0,0.8,0C786.2,330.5,781.1,324.3,781.6,317.3z"/>
<path class="st1" d="M262.7,442.4v26.5c0,0.4-0.3,0.7-0.7,0.7l0,0h-45h-0.1c-0.3,0-0.6-0.3-0.6-0.7v-26.5c0-0.4,0.3-0.7,0.7-0.7l0,0
	h45C262.4,441.7,262.7,442,262.7,442.4L262.7,442.4L262.7,442.4z"/>
<path class="st1" d="M598.7,442.4v26.5c0,0.4-0.3,0.7-0.7,0.7l0,0h-45h-0.1c-0.3,0-0.6-0.3-0.6-0.7v-26.5c0-0.4,0.3-0.7,0.7-0.7l0,0
	h45C598.4,441.7,598.7,442,598.7,442.4L598.7,442.4L598.7,442.4z"/>
<path class="st1" d="M923.7,442.4v26.5c0,0.4-0.3,0.7-0.7,0.7l0,0h-45h-0.1c-0.3,0-0.6-0.3-0.6-0.7v-26.5c0-0.4,0.3-0.7,0.7-0.7l0,0
	h45C923.4,441.7,923.7,442,923.7,442.4L923.7,442.4L923.7,442.4z"/>
<path class="st0" d="M673.9,597c16.3,28.2,15.7,18.5,0.7,29.5"/>
<path class="st0" d="M649.6,511.5c11.9-9.8,30.1,29.1,27.2,40.6c-3.9,18.4-11.6,28.4-2.9,44.9"/>
<ellipse transform="matrix(0.8019 -0.5975 0.5975 0.8019 -254.3018 516.2629)" class="st8" cx="651.3" cy="641.6" rx="5.1" ry="2.1"/>
<path class="st4" d="M650,640c-0.1,0.1-0.3,0.2-0.4,0.3c2.1-1.4,4.2-1.9,4.9-1.1c0.7,0.8-0.4,2.7-2.4,4.4c0.1-0.1,0.3-0.2,0.4-0.3
	c2.2-1.7,3.5-3.8,2.8-4.7C654.6,637.7,652.3,638.3,650,640z"/>
<circle class="st9" cx="641.8" cy="645.8" r="2.1"/>
<path class="st4" d="M641.4,643.8c1.1,0.1,2,1.1,1.9,2.2c-0.1,0.9-0.7,1.6-1.6,1.8c1.1,0.1,2.1-0.7,2.3-1.8c0.2-1.1-0.7-2.1-1.8-2.3
	C641.8,643.7,641.6,643.7,641.4,643.8z"/>
<ellipse transform="matrix(0.8019 -0.5975 0.5975 0.8019 -232.1982 531.7015)" class="st8" cx="685.6" cy="616" rx="5.1" ry="2.1"/>
<path class="st4" d="M684.4,614.3c-0.1,0.1-0.3,0.2-0.4,0.3c2.1-1.4,4.2-1.9,4.9-1.1c0.6,0.9-0.4,2.7-2.4,4.4
	c0.1-0.1,0.3-0.2,0.4-0.3c2.2-1.7,3.5-3.8,2.8-4.7C689,612,686.6,612.6,684.4,614.3z"/>
<path class="st8" d="M690.9,612l-20.4,15.2l-1.6-2.2c-0.2-0.2-0.5-0.3-0.7-0.1l-11.3,8.4c-0.2,0.2-0.3,0.5-0.1,0.7l1.6,2.2
	l-11.8,8.8l-1-1.4c-0.2-0.2-0.5-0.3-0.7-0.1l-6.1,4.5c-0.2,0.2-0.3,0.5-0.1,0.7l1,1.4l-1.7,1.2c-0.2,0.2-0.3,0.5-0.1,0.7l0,0
	l20.2,27.1c0.2,0.2,0.5,0.3,0.7,0.1l0,0l52.8-39.4c0.2-0.2,0.3-0.5,0.1-0.7l0,0L691.5,612C691.5,611.9,691.2,611.8,690.9,612
	L690.9,612L690.9,612z"/>
<rect x="641.4" y="642.3" transform="matrix(0.8019 -0.5975 0.5975 0.8019 -252.0061 531.1057)" class="st6" width="66.9" height="6.5"/>
<circle class="st6" cx="674.9" cy="645.6" r="13"/>
<circle class="st8" cx="674.9" cy="645.6" r="9.7"/>
<path class="st2" d="M680.9,641.1c0.6,0.8,1.1,1.8,1.3,2.8c0.1,0.5,0.2,1.1,0.2,1.6c0.1,4.2-3.3,7.6-7.4,7.7
	c-4.2,0.1-7.6-3.3-7.7-7.4c0-0.8,0.1-1.6,0.3-2.4c0.2-0.5,0.4-1,0.7-1.5c2.1-3.6,6.7-4.8,10.3-2.8
	C679.5,639.6,680.3,640.3,680.9,641.1L680.9,641.1z"/>
<g>
	<g>
		<path class="st10" d="M501.8,332.1c-1.5-1.8-3.3-3.2-5.1-4.7c-0.3-0.3-0.6-0.5-0.8-1.3c3.2,1.6,6.1,3.5,9.4,4.3
			c-2.2-1.5-4.1-3.3-6-5.1c-2.5-2.5-5.2-4.7-6.8-8l0,0c1.4,0.5,2.2,1.8,3.3,2.6c1.9,1.4,3.8,2.8,6,3.7c0.1,0.1,0.2,0.2,0.3,0.2
			c0-0.1,0.1-0.1,0.1-0.2c-0.1,0-0.2-0.1-0.4-0.1c-1.3-1.7-2.5-3.4-3.8-5.1c-0.6-0.8-1.1-1.7-1.6-2.7c1.4,0.7,2.5,1.8,3.8,2.6
			c1.3,0.9,2.4,2.1,4.5,2.5c-2.8-3.2-5-6.2-6.6-9.7c3,2,5.7,4.4,9.3,5.9c-0.5-1.8-2.2-2.7-2-4.5c1.9,0.1,3.2,1.9,5.1,1.8
			c0.2-0.2,0.1-0.4,0-0.5c-2.5-2.2-4.1-5.1-5.9-7.9c-0.7-1-1-2.3-1.5-3.4c-0.1-0.3-0.1-0.5,0.1-0.7c0.3-0.3,0.5,0,0.7,0.2
			c1.9,1.9,3.9,3.7,6,5.4c1.1,0.9,2.2,1.7,3.6,2.8c-0.9-2.5-3-3.9-3.3-6.3c0.8-0.1,1.1,0.4,1.6,0.8c1.7,1.2,3.1,2.9,5.4,3.2
			c0,0.1,0,0.2,0.1,0.4c0.1,0,0.1-0.1,0.2-0.1c-0.1-0.1-0.2-0.2-0.2-0.3c-1.2-2.6-2.3-5.3-2.8-8.2c-0.2-1.4-0.4-2.7-0.6-4.4
			c2,3.4,4.3,6.2,6.9,8.8c-1.6-4.8-2.7-9.7-3.6-14.6c0.9,1.5,1.7,3.1,2.6,4.5c1.2,1.9,2.5,3.7,3.8,5.6c0.1,0.1,0.4,0.1,0.5,0.2
			c0,0.1,0.1,0.2,0.1,0.4c0.1,0,0.1-0.1,0.2-0.1c-0.1-0.1-0.2-0.2-0.2-0.3c-1-3.3-2.1-6.6-2.6-10c2,3,3.7,6.2,6.2,9.3
			c-0.4-1.7-0.8-3-0.9-4.7c0.9,0.8,1.6,1.5,2.3,2.1c0.1,0.2,0.1,0.4,0.2,0.6l0.1-0.1c0.1-0.3,0-0.5-0.2-0.6
			c-0.8-2.9-2.3-5.5-3.7-8.1c-0.1-0.3-0.7-0.5-0.2-0.8c0.3-0.3,0.6,0.1,0.9,0.3c1.5,1.1,2.7,2.6,4.1,3.9c-0.9-2.8-2.5-5.2-4.1-7.6
			l0,0c2.4,0.6,3.8,2.4,5.3,4.1c0.4,0.4,0.8,0.9,1.3,1.3c-0.9-4.2-0.7-8.3,0.4-12.7c0.5,2.1,0.9,3.9,1.7,5.7
			c0.7,1.7,1.5,3.4,2.6,5.2c0.5-3,0.6-5.8,1-8.6c0.9,2.5,1.8,5,2.7,7.7c1.1-2,1.4-3.9,1-6.2c1.9,1,2.1,2.7,2.7,4.3c1-2,1-4,0.3-5.9
			c-0.2-0.4-0.4-0.8,0-1c0.5-0.3,0.5,0.3,0.7,0.5c1.4,1.3,1.6,3.1,2.1,4.8c0.2,0.7,0.3,1.3,0.4,2.2c1.2-3.7,1.9-7.3,3.4-11
			c0.2,3.1,0.6,5.9,1.2,8.7c0.2-1.8,0.1-3.6,0.4-5.3c0.1-0.8,0.2-1.6,0.4-2.3c0-0.3,0-0.6,0.4-0.6s0.4,0.3,0.4,0.6
			c0.2,1.7,0.4,3.4,0.6,5.2c0.1,0.8,0,1.7,0.1,2.5c0.7-2.8,1-5.6,1.2-8.6c1.5,3.6,2.2,7.2,3.4,10.8c0.4-1.4,0.7-2.7,1-4.1
			c0.4-1.4,1-2.7,2.8-3.7c-1.1,2.6-1.3,4.9-0.3,7.4c0.8-1.6,0.9-3.4,2.8-4.4c-0.3,2.2-0.1,4.2,0.9,6.2c1.1-2.7,2-5.3,2.9-7.9
			c0.5,2.8,0.4,5.7,1,8.8c2.2-3.4,3.4-6.9,4.3-10.9c1.1,4.4,1.4,8.5,0.4,12.8c1.5-1.5,2.7-3.3,4.5-4.4c0.7-0.4,1.2-1.1,2.1-1l0,0
			c-1.5,2.4-3.2,4.8-4.1,7.6c1.5-1,2.4-2.7,3.9-3.7c0.4-0.2,0.6-0.9,1.1-0.5c0.6,0.5-0.2,0.8-0.4,1.1c-1.4,2.5-2.8,5-3.6,7.8
			c-0.2,0.1-0.3,0.4-0.2,0.6l0.1,0.1c0.1-0.2,0.1-0.4,0.2-0.6c0.7-0.7,1.4-1.3,2.3-2.2c-0.2,1.3-0.3,2.4-0.4,3.4
			c2.4-2.3,3.8-5.3,5.8-8.3c-0.5,3.6-1.6,6.8-2.5,10.1c2.7-3.1,4.9-6.6,6.9-10.1c-1,4.9-2,9.8-3.7,14.6c2.6-2.6,4.9-5.4,6.8-8.7
			c-0.2,4.5-1.4,8.6-3.3,12.5c-0.1,0.1-0.2,0.2-0.2,0.3c0.1,0,0.1,0.1,0.2,0.1c0-0.1,0-0.2,0.1-0.4c2.2-0.2,3.6-1.9,5.3-3.1
			c0.5-0.3,0.8-0.9,1.6-1c-0.3,2.4-2.4,3.9-3.3,6.3c3.4-2.5,6.3-5,9.1-7.7c0.3-0.3,0.6-1.1,1.1-0.6c0.5,0.4-0.1,0.9-0.3,1.3
			c-1.1,3.1-3.2,5.7-5,8.5c-0.6,0.9-1.7,1.5-2.4,2.7c1.4-0.2,2.5-0.7,3.5-1.3c0.5-0.3,1.2-0.8,1.6-0.4c0.5,0.5,0.1,1.2-0.3,1.7
			c-0.5,0.7-0.9,1.5-1.3,2.3c3.5-1.2,6.1-3.7,9.4-5.9c-1.7,3.8-4,6.8-6.4,9.8c3-1.1,5.2-3.3,8.1-5.3c-0.9,2.1-2.2,3.5-3.1,5.1
			c-0.7,1.1-1.9,1.8-2.3,3c-0.1,0-0.2,0.1-0.4,0.1c0,0.1,0.1,0.1,0.1,0.2c0.1-0.1,0.2-0.2,0.3-0.2c2.2-0.9,4.1-2.4,6-3.7
			c1.2-0.8,2-2.1,3.3-2.6l0,0c-0.7,1.5-1.7,2.8-2.9,3.9c-1.9,2-3.8,4.1-5.9,6c-0.7,0.7-1.5,1.4-2.4,1.9c-0.3,0.2-0.7,0.4-0.7,1
			c3.1-0.8,5.6-2.6,8.4-3.8c-1.7,2.1-4.1,3.6-5.7,5.7c-0.3-0.6-0.7-0.2-1-0.1c-2.1,0.7-4.2,1.5-6.4,2.1c-1.1,0.3-2.1,0.9-3.4,0.6
			c3.6-2,6.1-5,8.3-8.2c-1.8,0.8-3.3,1.9-4.6,3.3c-1.5,1.7-3.3,3-5.2,4.3c-3.1,2.2-6.5,3.6-9.8,5.4c-1.4,0.1-2.5,1.1-3.8,1.2
			c-0.3-1.3-1.1-2.4-0.9-3.8c0.7,0.4,1.3,0.2,2,0c3.5-1,6.8-2.5,9.9-4.4c3.4-2.1,5.7-5.2,7.6-8.8c0-0.1,0-0.2-0.1-0.4
			c-1.4,1.1-2.8,2.2-4.3,3.2s-3,2.1-4.8,2.4c1.3-1.2,2.4-2.4,3.3-4.2c-5.4,3.2-9.7,7.4-14.9,10.3c-0.7-0.9-1.5-1.7-1.5-3
			c1.2-0.7,2.5-1.3,3.7-2c2-1.2,3.8-2.7,5.7-3.9c3.3-2,5-4.8,5.6-8.9c-2.2,2.7-4.3,5.1-6.8,7c-0.1-0.1-0.2-0.2-0.3-0.3
			c1-1.6,2-3.3,2.2-5.2c-1,0.9-2.2,1.4-3,2.5c-2.5,3.5-5.4,6.5-8.6,9.3c-0.7-0.8-1.4-1.6-2.1-2.5c1.6-1.4,3.3-2.8,4.9-4.3
			c0.9-0.9,1.6-2.1,2.5-2.9c1.4-1.2,2.5-2.6,3.6-4c1-1.4,1-3,1.1-4.7c-1.2,2.1-3.1,3.7-4.4,5.6c-0.4,0.6-0.8,0.6-1.4,0.4
			c0.9-1.7,2.2-3.1,2-5.4c-1.2,1.2-2.1,2.3-3.1,3.3c-0.1-0.1-0.2-0.2-0.2-0.3c1.4-3,2.7-6,3.3-9.2c-2.4,2.9-2.7,6.7-4.5,9.8
			c-1.9,3.2-3.9,6.2-6.2,9c-0.2,0-0.4,0-0.6,0l0,0c-0.2-0.1-0.4-0.3-0.6-0.4c-0.2-0.8-1.4-0.5-1.5-1.4c2.6-3,5.1-6,7.2-9.4
			c0-0.1,0-0.2,0-0.4c-0.1,0.1-0.2,0.1-0.3,0.2c-1.2,0.7-1-0.2-0.8-0.8c0.6-1.7,0.7-3.6,1-5.4c-1.4,1.8-2.4,3.8-3.9,5.6
			c-0.1-0.1-0.2-0.2-0.3-0.3c1.4-4.6,2.2-9.3,2-14.2c-1,1.9-1.6,4-2.4,6c-0.4,1-0.3,2.1-0.5,3.2c-0.9,5-2.8,9.6-5,14.1
			c-1.2-0.1-2.2-0.7-3-1.5c1.2-2.1,2.7-4.1,3.5-6.4c0.7-2.1,1.4-4.2,2.1-6.3c1.8-5.1-0.1-9.8-0.9-14.7c-0.4,4-1.1,7.9-2,11.8
			c-0.3-0.1-0.5-0.2-0.8-0.3c-0.2-2.3-0.4-4.6-0.7-6.9c-0.5,0.8-0.8,1.5-0.7,2.4c0.2,1.2,0.3,2.3,0.4,3.5c0.3,5.4-0.5,10.7-2.6,15.8
			c-1.2,0.1-2-0.8-2.8-1.5c1.7-4.4,2.8-9,3.1-13.7c-0.3,0.4-0.5,0.8-0.8,1.3c0.1-2.8-0.5-5.3-0.8-8.2c-0.4,0.6-0.8,1-0.8,1.4
			c0.2,2.3-0.8,4.4-0.5,6.8c0.5,3.9-0.2,7.7-0.9,11.6c-1.4-0.2-2.1-1.2-2.7-2.4c0.4-2.5,0.7-5.1,1.1-7.6c0.4-2.7,0.1-4.9-1.6-7
			c-1.1,1.7-2,3.4-1.7,5.7c0.3,3,0.8,6,1.3,8.9c-0.6,1.2-1.3,2.2-2.7,2.4c-0.1-1.5-0.5-2.9-0.8-4.4c-0.8-4.4,0.7-8.9-0.7-13.2
			c-0.2-0.7-0.3-1.3-0.7-2.1c-0.3,2.9-0.8,5.5-0.6,8.4c-0.7-0.6-0.6-1.4-1.4-1.5c0.8,4.8,1.7,9.4,3.5,13.8c-0.8,0.7-1.5,1.6-2.8,1.5
			c-0.7-1.6-1.3-3.2-1.7-5c-1-4.6-1.4-9.3-0.6-14c0.2-1,0-1.8-0.4-2.6c-0.8,2.7-0.7,5.6-0.9,8.4c-0.2,0-0.3,0-0.5,0
			c-1.2-4.3-1.7-8.6-2.2-13.2c-0.9,2-1,4-1.3,5.9c-0.4,2.7-0.9,5.4,0,8.2c1.5,4.7,3.1,9.4,5.9,13.6c-0.8,0.8-1.9,1.2-3,1.5
			c-0.9-1.8-1.6-3.6-2.4-5.4c-1-2.4-1.9-4.9-2.4-7.4c-0.4-2.3-0.6-4.8-1.8-6.9c-0.7-1.1-0.7-2.5-1.5-3.8c-0.3,5.2,0.8,9.8,2.1,14.5
			c-0.1,0.1-0.2,0.2-0.3,0.3c-1.4-1.7-2.4-3.6-3.9-5.3c0.6,1.8,0.2,3.7,1,5.3c0.4,0.8,0,1.2-0.8,0.6c-0.1-0.1-0.2-0.1-0.3-0.2
			c0,0.1,0,0.2,0,0.4c2.1,3.4,4.5,6.5,7.2,9.4c-0.1,0.9-1.3,0.7-1.5,1.4c-0.2,0.1-0.4,0.3-0.6,0.4l0,0c-0.2,0-0.4,0-0.6,0
			c-4.1-5-7.5-10.3-9.1-16.6c-0.2-0.9-0.9-1.6-1.7-2.2c0.7,3.2,1.9,6.2,3.3,9.2c-0.1,0.1-0.2,0.2-0.3,0.3c-1-1.1-2.1-2.2-3.2-3.4
			c-0.1,1.8,0.8,3.1,1.4,4.4c0.2,0.3,0.9,0.6,0.3,1c-0.6,0.4-0.9-0.2-1.1-0.6c-1.2-2-3.2-3.4-4.3-5.5c0.3,1.7,0.3,3.4,1.3,4.8
			c1.4,2.2,3.4,3.9,5.1,5.8c1.7,2,3.8,3.7,5.9,5.3c-0.6,0.9-1.3,1.7-2.1,2.5c-3.1-2.5-5.8-5.5-8.2-8.7c-0.9-1.3-2.2-2.1-3.7-3.3
			c0.6,2.2,1.5,3.8,2.5,5.4c-0.1,0.1-0.2,0.2-0.3,0.3c-2.6-1.8-4.5-4.4-6.7-6.8c0.3,3.7,2.4,6.9,5.4,8.5c0.2,0.1,0.5,0.1,0.7,0.3
			c2.6,2.5,5.7,4.1,8.9,5.7c0.1,1.3-0.8,2.1-1.5,3c-5.3-2.9-9.6-7.2-15.1-10.4c1.1,1.7,2.2,3,3.3,4.3c-3.5-1.2-6.2-3.5-9.1-5.6
			c2.5,4.9,5.9,8.8,11.1,11c2.2,0.9,4.5,1.9,6.8,2.7c0.7,0.2,1.2,0.3,1.8-0.1c0.2,1.4-0.6,2.5-0.9,3.8c-1.4-0.1-2.5-1.1-3.8-1.2
			c-0.3-0.2-0.6-0.4-0.9-0.5c-5.8-2.7-11.2-5.8-15.6-10.6c-0.8-0.9-2.1-1.4-3.2-2.1c2.2,3.3,4.7,6.3,8.2,8.4c-0.5,0.2-0.9,0.1-1.2,0
			c-2.7-0.8-5.5-1.6-8.1-2.6C502.7,332.1,502.2,331.4,501.8,332.1z M603.3,321.4v0.1h0.1c0.1-0.1,0.1-0.1,0-0.2
			C603.4,321.4,603.3,321.4,603.3,321.4z M505.2,321.6l0.1-0.1l-0.1-0.1c-0.1,0-0.1,0.1-0.1,0.1
			C505.1,321.5,505.1,321.6,505.2,321.6z"/>
		<path class="st10" d="M606.1,333.4c3.3-0.5,6.2-2,9.2-3.4c-1.4,3.5-4,6.1-7.6,8.4c2.1-0.4,3.7-0.6,5.7-1c-2.4,2-5.1,2.7-7.9,4.2
			c2.5,0.3,4.5-0.3,6.3-1.1c1.8-0.8,3.4-1.8,5.2-2.7c0.2-0.1,0.3-0.5,0.6-0.2c0.2,0.2,0.2,0.4,0,0.7c-1.2,1.5-2.3,3.1-3.7,4.4
			c-4,1.1-8,2.1-12.2,2.2c-2.3,0.1-4.6,0-7,0c1.7-0.7,3.5-1.1,5-1.9c1.5-0.8,3.3-1.5,4.4-3c-4.4,1.2-8.5,3.2-12.9,4.4
			c-3.2,0.4-6.2,1.3-9.5,1.3c-0.2-1.1-0.4-2.2-0.6-3.3c0.8,0,1.6,0.1,2.3-0.1c1.3-0.2,2.7,0.1,3.9-0.7c0.6,0.2,1.2,0.2,1.8,0
			c2.8-0.5,5.5-1.2,8.3-1.9c2.8-0.7,4.7-2.7,6.4-4.7C604.6,334.4,605.1,333.7,606.1,333.4z"/>
		<path class="st10" d="M494.4,342.7c-0.8-1.4-1.9-2.5-2.9-3.8c-0.3-0.3-1-0.9-0.5-1.4c0.4-0.4,0.9,0.3,1.2,0.5
			c2.6,1.7,5.3,3.1,8.5,3.6c0.9,0.1,0.9,0.2,2.1-0.2c-2.4-1.3-5.1-2-7.6-4c2,0.3,3.6,0.6,5.6,0.9c-3.4-2.3-6-4.8-7.5-8.4
			c3.1,1.3,6,2.9,9.3,3.4c0.8,0.3,1.3,0.8,1.9,1.5c1.8,2.1,3.7,4.1,6.6,4.9c2.8,0.8,5.6,1.4,8.5,1.9c0.5,0.1,1.1,0.1,1.6-0.1
			c0.3,0.5,0.7,0.4,1.2,0.4c1.7,0.1,3.4,0.2,5.1,0.3c-0.2,1.1-0.4,2.2-0.6,3.3c-1,0-2-0.1-3-0.2c-2.3-0.2-4.5-1-6.9-1
			c-4.3-1.4-8.4-3.4-12.8-4.5c2.9,2.2,6.1,3.9,9.7,4.8c-4.1,0.3-8.2,0.1-12.2-0.5C499.1,344,496.8,343,494.4,342.7z"/>
		<path class="st10" d="M507.9,360.4c-1,3-2.2,6-2.6,9.2c-0.1,1-0.3,2.1-0.4,3.2c1.1-0.3,1.2-1.5,2.3-1.9c0,3.9,0.4,7.6,0.9,11.4
			c-0.5-0.2-1-0.3-1.4-0.5c-0.2-0.1-0.7-0.3-0.5-0.6c1-1.3-0.1-1-0.8-1.1c-0.6,0-1.4-0.1-1.5-0.7c-0.2-0.7,0.8-0.4,1.1-0.8
			c0.3-0.3,0.9-0.4,0.8-1c0.1,0,0.2-0.1,0.4-0.1c0-0.1-0.1-0.1-0.1-0.2c-0.1,0.1-0.2,0.2-0.3,0.2c-1,0-2,0.1-3-0.3
			c-0.3-0.1-0.8,0.2-0.9-0.3s0.4-0.7,0.7-0.8c1.1-0.4,2.2-0.8,3.3-1.9c-2.7,0.1-5,1.1-7.5,0.5c1.7-0.7,3.4-1.3,4.8-2.4
			c-2.4,0.5-4.7,0.6-7.1,0.2c2.6-0.9,4.9-2.2,7.4-3.9c-2.3,0.3-4.2,0.7-6.2,0.4c2.2-0.8,4.3-1.8,6.3-3.2c-2,0.2-3.9,0.2-6-0.7
			c1.9-0.9,3.7-1,5.5-2.1c-1.8-0.2-3.4-0.3-5.1-1.2c2.2-0.7,4.2-0.8,6.1-1.8c-2.2-0.5-4.5-0.3-6.5-1.4c2.3-0.4,4.5-0.8,6.7-1.5
			c-2.7-0.3-5.3-0.6-7.7-1.9c3.6-0.2,7.1,0.1,10.9-0.8c-4.8-0.9-9.4-1.6-13.8-4c1.5-0.4,2.7,0.1,4,0.2c1.3,0.2,2.5,0.6,3.8,0.5
			c2.7,0.6,5.3,1.4,8,1.5c0,1.2-0.9,2.1-1.3,3.1c-0.7,1.7-1.3,3.4-1.8,5.5c0.7-0.5,1.1-0.9,1.5-1.2
			C507.8,360.3,507.9,360.4,507.9,360.4z"/>
		<path class="st10" d="M600.4,382.3c0.5-3.7,1-7.5,0.9-11.4c1.2,0.2,1.3,1.5,2.3,1.8c-0.1-4.4-1.5-8.4-2.9-12.4
			c0.1-0.1,0.1-0.1,0.2-0.2c0.4,0.3,0.8,0.7,1.4,1.2c-0.4-2.6-1.4-4.9-2.5-7.1c-0.2-0.5-0.7-0.9-0.5-1.5c2.8-0.2,5.4-1,8-1.5
			c2.5,0.1,4.9-1,7.9-0.9c-4.5,2.6-9.1,3.1-14,4.2c3.9,0.7,7.4,0.5,11,0.7c-2.4,1.4-5,1.6-7.7,1.9c2.2,0.6,4.3,1.2,7,1.3
			c-2.4,1.4-4.8,0.7-6.9,1.5c1.8,0.9,3.9,1.2,6.1,1.7c-1.7,0.9-3.3,1.1-5.1,1.2c1.6,1.1,3.5,1.1,5.3,2.1c-2.1,0.8-3.9,1-5.9,0.6
			c1.8,1.6,4,2.4,6.2,3.3c-1.9,0.3-3.8-0.1-6.1-0.4c2.5,1.7,4.8,3,7.4,3.9c-2.4,0.6-4.7,0.3-7.1-0.1c1.4,1.1,3.1,1.7,4.8,2.4
			c-2.5,0.6-4.8-0.4-7.3-0.5c0.6,1.2,1.8,1.4,2.7,1.8c0.4,0.2,1.1,0.2,1,0.9c-0.1,0.5-0.7,0.2-1,0.3c-0.9,0.4-1.9,0.3-2.8,0.3
			c-0.1-0.1-0.2-0.2-0.3-0.2c0,0.1-0.1,0.1-0.1,0.2c0.1,0,0.2,0.1,0.4,0.1c0.1,0.8,0.8,0.9,1.4,1.2c0.2,0.1,0.5,0.1,0.6,0.4
			c0.1,0.4-0.3,0.4-0.6,0.6c-0.5,0.3-1,0.2-1.5,0.2c-0.3,0-0.8,0.1-0.7,0.3C602.9,382.4,600.9,381.7,600.4,382.3z"/>
		<path class="st10" d="M608.8,350.2c-1.3,0-2.5,0.2-3.8-0.2c0.3-0.6,0.8-0.6,1.2-0.8c2.2-1.2,4.3-2.5,6.2-4.1
			c0.6,0.8,1.3,0.4,2,0.1c1.4-0.6,2.7-1.3,4.4-2.1c-0.4,1.2-1.3,1.6-1.9,2c-1.7,1.4-3.5,2.7-5.5,3.6
			C610.3,349,609.5,349.5,608.8,350.2z"/>
		<path class="st10" d="M496.8,345.7c2.3,1.3,4.3,3.1,7.1,4.1c-1.5,0.7-2.9,0.1-4,0.6c-0.3-0.8-1-1.2-1.7-1.5
			c-3.2-1.2-5.7-3.4-8.5-5.7c1,0,1.5,0.4,2,0.6c0.6,0.3,1.1,0.6,1.7,0.9C494.4,345.2,495.5,345.9,496.8,345.7z"/>
		<path class="st10" d="M586.8,351.8c-1.2-0.1-2.4-0.2-3.5-0.2c-1.3,0.1-1.7-0.3-1.5-1.6c0.1-0.3,0-0.7,0-1c0.4-0.1,0.5-0.3,0.5-0.7
			c4.3,0.4,8.6,0.6,13,0c2.8-0.3,5.6-0.5,8.3-1.3c1.4-0.4,3.1-0.5,4.7-0.7c-1.5,1.2-3.3,2.1-5.1,2.7c-1.9,0.6-3.9,1.2-5.8,1.7
			C593.9,351.5,590.4,351.7,586.8,351.8z"/>
		<path class="st10" d="M526.7,349c0,0.7,0.1,1.3,0.1,2c0,0.1,0,0.2,0,0.3c-1.7,0.5-3.4,0.2-5.1,0.4c-3.6-0.2-7.2-0.4-10.8-1.1
			c-2.1-0.8-4.3-1.1-6.4-2c-1.5-0.6-2.9-1.4-4.3-2.3c4.4,0.6,8.6,1.9,13,1.9c3.8,0.5,7.7,0.5,11.5,0.1c0.5-0.1,1,0,1.4,0.3
			C526.4,348.8,526.5,348.9,526.7,349z"/>
	</g>
	<g>
		<path class="st11" d="M600.4,382.3c-0.2,2.7-0.2,2.7-2.9,2.7c-28.8,0-57.7,0-86.5,0c-2.7,0-2.7,0-2.9-2.7
			c-0.5-3.8-0.9-7.5-0.9-11.4c-1.2,0.3-1.3,1.6-2.3,1.9c0.2-1.1,0.3-2.2,0.4-3.2c0.4-3.2,1.6-6.1,2.6-9.2c0.1-0.1,0.3-0.3,0.1-0.4
			c-0.2-0.1-0.2,0.2-0.3,0.3c-0.4,0.4-0.9,0.7-1.5,1.2c0.5-2.1,1.1-3.8,1.8-5.5c0.4-1,1.3-1.9,1.3-3.1c1-0.4,1.2-1.3,1.6-2.2
			c3.6,0.7,7.2,0.9,10.8,1.1c-0.1,0.9,0.5,0.8,1.1,0.8c1.1,0,2.1,0,3.2,0c0.1,0.6-0.2,0.6-0.4,0.8c-0.5,0.6-1.4,1.3-1.3,1.9
			c0.2,0.7,1.3,0.2,2,0.3c0.4,0.1,0.9,0,1.3,0.2c0.4,0.2,1.1,0.3,0.7,1c-0.7,1.1,0.1,0.9,0.7,0.8c1.8-0.4,3.4,0,5.1,0.6
			c1.9,0.7,3.4,2.1,5.1,3.3c2.3,1.6,4.5,3.5,7.7,3.1c0,0.7,0.2,1.3,0.5,1.8c2.2,3.2,1.7,6.8,1.5,10.3c-0.2,3.6,1.2,6,4.8,6.4
			c3.5,0.4,6.6-2.6,6-6.1c-0.4-2.6-0.4-5.2,0.2-7.9c0.4-1.6,1.8-2.8,1.7-4.6c1.1,0,2.2,0.1,3.2-0.4c2.2-1,4.1-2.4,6-3.9
			c2.6-2,5.3-3.4,8.7-2.7c0.3,0.1,1,0.2,0.8-0.4c-0.8-1.7,0.6-1.4,1.4-1.6c0.8-0.2,2.2,0.4,2.4-0.4c0.2-0.6-0.8-1.6-1.6-2.2
			c-0.1,0-0.1-0.2-0.2-0.5c1.1,0,2.2,0,3.3,0c0.6,0,1.2,0.1,1.1-0.8c3.5-0.1,7-0.3,10.5-1c0.7,0.6,0.8,1.9,1.9,2.2
			c-0.1,0.6,0.3,1,0.5,1.5c1.1,2.2,2.1,4.4,2.5,7.1c-0.6-0.5-1-0.9-1.4-1.2c-0.1-0.1-0.1-0.4-0.3-0.3c-0.2,0.1,0,0.3,0.1,0.4
			c1.4,4,2.8,8,2.9,12.4c-1-0.3-1.1-1.6-2.3-1.8C601.4,374.9,600.9,378.6,600.4,382.3z"/>
		<path class="st11" d="M527.7,340.9c-0.1,0.5-0.2,1-0.3,1.5c-1.7-0.1-3.4-0.2-5.1-0.3c-0.4,0-0.9,0.1-1.2-0.4c0.7-1,1.8-1.4,2.8-2
			C525.2,339.8,526.3,340.8,527.7,340.9z"/>
		<path class="st11" d="M581.2,342.4c-0.1-0.5-0.2-1-0.3-1.5c1.4-0.1,2.5-1.1,3.8-1.2c1,0.6,2.1,1,2.8,2c-1.2,0.8-2.6,0.4-3.9,0.7
			C582.8,342.5,582,342.4,581.2,342.4z"/>
		<path class="st11" d="M595.3,348.3c-4.3,0.6-8.6,0.4-13,0c-0.2,0-0.4,0-0.6,0c0-0.9,0-1.8,0-2.7c3.2,0.1,6.3-0.9,9.5-1.3
			C592.7,345.6,594.1,346.9,595.3,348.3z"/>
		<path class="st11" d="M526.2,348.7c-0.4-0.3-0.9-0.3-1.4-0.3c-3.8,0.5-7.7,0.4-11.5-0.1c1.2-1.4,2.2-2.8,3.7-3.9
			c2.3,0,4.6,0.8,6.9,1c1,0.1,2,0.2,3,0.2c0,0.8,0,1.6,0,2.4C526.4,348.1,526.2,348.3,526.2,348.7z"/>
		<path class="st11" d="M559.6,362.2c-0.3,0.3-0.6,0.3-0.9,0.1c-2.9-1.6-5.8-1.6-8.7,0c-0.4,0.2-0.7,0.2-0.9-0.1l0,0
			c0.1-0.1,0.2-0.2,0.3-0.3l0,0c0.9-0.4,1.8-0.8,2.7-1.1c2.4-0.7,4.6-0.3,6.7,1c0.2,0.1,0.4,0.1,0.6,0.1l0,0
			C559.3,362,559.4,362.1,559.6,362.2L559.6,362.2z"/>
	</g>
	<g>
		<path class="st9" d="M551.2,317.4c1.4-0.2,2.1-1.2,2.7-2.4c0.3,0,0.6,0,0.8,0c0.6,1.2,1.3,2.2,2.7,2.4c0.1,0.4,0.3,0.8,0.7,0.9
			c0.8,0.7,1.5,1.6,2.8,1.5c0.4,0.7,0.8,1.2,1.7,1.2c0.8,0.8,1.8,1.4,3,1.5c1,0.6,1.8,1.3,3,1.4c0.1,0.9,1.3,0.7,1.5,1.4
			c0.1,0.3,0.3,0.4,0.6,0.4l0,0c0,0.5,0,0.9,0.7,0.9l0,0c-0.1,0.5,0.1,0.9,0.4,1.2c2,2.5,3,5.4,3.6,8.4c0.4,1.7,0.3,3.4-1.7,4.2
			c-0.7,0.3-1.3,1-1.7,1.7c-0.3,0.6-1.2,1.2-0.8,1.8c0.8,1.4-0.3,1.8-0.9,2.4c-1.5,1.7-3.7,1.3-5.6,1.6c-3.5,0.5-6.6,3.3-7.2,6.3
			c-0.1,0.4,0.1,0.9-0.3,1.1c-0.6,0.3-0.5-0.7-1-0.6c-0.4,0.4-0.2,0.8-0.1,1.3c0.4,2.3,1.7,4.1,3.2,5.8c-0.2,0-0.4,0-0.6-0.1
			c-2.1-1.3-4.3-1.7-6.7-1c-0.9,0.3-1.8,0.7-2.7,1.1c0-0.5,0.5-0.6,0.7-0.9c1.6-1.7,2.5-3.7,2.5-6.2c-0.7,0-0.6,1-1.2,0.7
			c-0.4-0.2-0.2-0.7-0.3-1.1c-0.3-1.2-0.8-2.3-1.6-3.3c-2.1-2.3-4.8-3.2-7.8-3.3c-1.9-0.1-3.3-1-4.3-2.5c-0.2-0.2-0.5-0.5-0.2-0.8
			c0.8-0.7,0.1-1.1-0.2-1.7c-0.6-1.3-1.7-2.2-2.9-2.9c-0.6-0.4-1-0.8-1-1.5c0-2.6,0.8-5,1.8-7.3c0.7-1.6,2-2.7,2.4-4.4l0,0
			c0.7,0.1,0.7-0.4,0.7-0.9l0,0c0.3,0,0.5-0.1,0.6-0.4c0.2-0.8,1.4-0.5,1.5-1.4c1.1-0.2,2-0.9,3-1.4c1.1-0.3,2.2-0.7,3-1.5
			c0.9,0.1,1.3-0.5,1.7-1.2c1.2,0.1,2-0.8,2.8-1.5C550.9,318.2,551.1,317.9,551.2,317.4z"/>
		<path class="st9" d="M546.9,364.6c0.6-0.8,1.1-1.9,2.1-2.4c0.3,0.3,0.6,0.3,0.9,0.1c2.9-1.6,5.8-1.6,8.7,0
			c0.4,0.2,0.7,0.2,0.9-0.1c1,0.5,1.4,1.6,2.1,2.4c0,1.7-1.3,2.9-1.7,4.6c-0.6,2.6-0.6,5.3-0.2,7.9c0.6,3.6-2.5,6.6-6,6.1
			c-3.5-0.4-5-2.9-4.8-6.4c0.2-3.5,0.7-7.1-1.5-10.3C547.1,365.9,546.9,365.3,546.9,364.6z M554.3,375.1c-2.6,0-4.4,1.5-4.4,3.7
			c0,2,2.1,3.8,4.4,3.8s4.4-1.8,4.4-3.8C558.7,376.6,556.8,375.1,554.3,375.1z"/>
		<path class="st9" d="M563.5,357.1c-1.8,0-2.8-0.9-2.8-2.4c0-1.3,1.4-2.4,3-2.4c1.5,0,2.4,0.9,2.4,2.4S565.2,357.1,563.5,357.1z
			 M562.9,353c0.1,0.6,1,0.8,0.6,1.6c-0.5,0.8-1.2,0.4-1.9,0.3c0.5,1.5,1.4,2,2.6,1.6c1.1-0.3,1.6-1.1,1.3-2.2
			C565.2,353,564.2,352.7,562.9,353z"/>
		<path class="st9" d="M544.9,357.1c-1.7,0-2.5-0.9-2.5-2.4s0.9-2.4,2.4-2.4s2.9,1.2,2.9,2.4C547.8,356.2,546.7,357.1,544.9,357.1z
			 M545.6,353.1c-1.4-0.3-2.4,0.1-2.6,1.2c-0.2,1.1,0.2,1.9,1.3,2.2c1.2,0.4,2.1-0.1,2.6-1.6c-0.7,0.1-1.4,0.5-1.9-0.3
			C544.6,353.8,545.5,353.6,545.6,353.1z"/>
	</g>
	<g>
		<path class="st12" d="M559.2,361.9c-1.5-1.7-2.8-3.5-3.2-5.8c-0.1-0.4-0.3-0.9,0.1-1.3c0.5-0.1,0.4,0.9,1,0.6
			c0.4-0.2,0.2-0.7,0.3-1.1c0.5-3.1,3.7-5.8,7.2-6.3c1.9-0.3,4.1,0.1,5.6-1.6c0.6-0.6,1.8-1.1,0.9-2.4c-0.4-0.6,0.5-1.2,0.8-1.8
			c0.4-0.7,1-1.3,1.7-1.7c2-0.9,2.1-2.5,1.7-4.2c-0.6-3-1.6-5.9-3.6-8.4c-0.3-0.3-0.5-0.7-0.4-1.2c0.9,0.3,1.5,1.2,2.3,1.6
			c0.7,0.8,1.4,1.6,2.1,2.5c0.3,0.7,0.6,1.3,1.5,1.5c-0.1,1.3,0.8,2.1,1.5,3c-0.1,0.9,0.8,1.3,1.2,1.9c-0.2,1.4,0.6,2.5,0.9,3.8
			c0.1,0.5,0.2,1,0.3,1.5c0.2,1.1,0.4,2.2,0.6,3.3c0,0.9,0,1.8,0,2.7c0,0.2,0.1,0.4,0.1,0.7c0,0.3,0,0.7,0,1
			c-0.2,1.2,0.2,1.6,1.5,1.6c1.2-0.1,2.4,0.1,3.5,0.2c0.1,0.9-0.5,0.8-1.1,0.8c-1.1,0-2.1,0-3.3,0c0.1,0.3,0.1,0.5,0.2,0.5
			c0.8,0.6,1.8,1.5,1.6,2.2c-0.3,0.8-1.6,0.1-2.4,0.4c-0.8,0.2-2.2-0.1-1.4,1.6c0.3,0.6-0.4,0.5-0.8,0.4c-3.4-0.7-6.2,0.7-8.7,2.7
			c-1.9,1.5-3.8,2.9-6,3.9c-1.1,0.5-2.1,0.3-3.2,0.4c-0.6-0.8-1.1-1.9-2.1-2.4l0,0C559.4,362.1,559.3,362,559.2,361.9L559.2,361.9z
			 M563.5,357.1c1.7,0,2.6-0.8,2.6-2.4c0-1.5-0.9-2.4-2.4-2.4s-2.9,1.1-3,2.4C560.7,356.2,561.8,357.1,563.5,357.1z"/>
		<path class="st12" d="M537.2,326.7c-0.4,1.7-1.7,2.8-2.4,4.4c-1,2.4-1.8,4.7-1.8,7.3c0,0.8,0.4,1.2,1,1.5c1.2,0.7,2.3,1.6,2.9,2.9
			c0.3,0.5,0.9,1,0.2,1.7c-0.3,0.2,0.1,0.5,0.2,0.8c1.1,1.5,2.4,2.4,4.3,2.5c3,0.1,5.7,0.9,7.8,3.3c0.9,1,1.4,2.1,1.6,3.3
			c0.1,0.4-0.1,0.9,0.3,1.1c0.6,0.3,0.5-0.6,1.2-0.7c-0.1,2.4-0.9,4.5-2.5,6.2c-0.3,0.3-0.7,0.4-0.7,0.9l0,0
			c-0.1,0.1-0.2,0.2-0.3,0.3l0,0c-1,0.5-1.4,1.6-2.1,2.4c-3.1,0.4-5.4-1.4-7.7-3.1c-1.6-1.2-3.1-2.6-5.1-3.3c-1.6-0.6-3.3-1-5.1-0.6
			c-0.6,0.1-1.4,0.3-0.7-0.8c0.4-0.7-0.3-0.9-0.7-1s-0.9-0.1-1.3-0.2c-0.7-0.1-1.8,0.4-2-0.3c-0.2-0.6,0.7-1.3,1.3-1.9
			c0.2-0.2,0.5-0.2,0.4-0.8c-1,0-2.1,0-3.2,0c-0.6,0-1.2,0.1-1.1-0.8c1.7-0.2,3.4,0.1,5.1-0.4c0.3-0.1,0.3-0.2,0-0.3
			c0-0.7-0.1-1.3-0.1-2c0-0.3,0-0.6,0.1-0.9c0-0.8,0-1.6,0-2.4c0.2-1.1,0.4-2.2,0.6-3.3c0.1-0.5,0.2-1,0.3-1.5
			c0.3-1.3,1.1-2.4,0.9-3.8c0.4-0.6,1.2-1,1.2-1.9c0.7-0.9,1.5-1.7,1.5-3c0.9-0.1,1.3-0.7,1.5-1.5c0.8-0.7,1.5-1.5,2.1-2.5
			C535.8,327.9,536.3,327,537.2,326.7z M544.9,357.1c1.8,0,2.8-0.9,2.8-2.4c0-1.3-1.4-2.4-2.9-2.4s-2.4,0.9-2.4,2.4
			S543.3,357.1,544.9,357.1z"/>
		<path class="st12" d="M554.3,375.1c2.6,0,4.4,1.5,4.4,3.6c0,2-2.1,3.8-4.4,3.8s-4.4-1.8-4.4-3.8
			C549.9,376.6,551.7,375.1,554.3,375.1z M556.8,380.2c-0.2-0.4-0.5-1-1.1-0.9c-0.5,0.1-0.9,0.4-0.9,1c0,0.5,0.4,1,0.9,1
			S556.7,381,556.8,380.2z M553.8,380.3c-0.2-0.6-0.5-1-1.1-1c-0.5,0-0.9,0.4-1,1c0,0.7,0.6,0.9,1.1,1
			C553.4,381.3,553.7,380.9,553.8,380.3z"/>
	</g>
	<g>
		<path class="st13" d="M606.1,333.4c-0.9,0.4-1.5,1-2.1,1.8c-1.7,2-3.6,3.9-6.4,4.7c-2.7,0.7-5.5,1.4-8.3,1.9
			c-0.6,0.1-1.2,0.2-1.8,0c-0.7-1-1.8-1.4-2.8-2c3.3-1.8,6.7-3.3,9.8-5.4c1.8-1.3,3.7-2.6,5.2-4.3c1.3-1.4,2.8-2.5,4.6-3.3
			c-2.2,3.2-4.8,6.1-8.3,8.2c1.3,0.2,2.4-0.3,3.4-0.6c2.2-0.6,4.3-1.4,6.4-2.1c0.3-0.1,0.7-0.5,1,0.1
			C606.3,332.4,606,332.8,606.1,333.4z"/>
		<path class="st13" d="M521.1,341.7c-0.5,0.2-1.1,0.2-1.6,0.1c-2.8-0.5-5.7-1.1-8.5-1.9c-2.8-0.8-4.8-2.8-6.6-4.9
			c-0.6-0.7-1.1-1.2-1.9-1.5c0.1-0.6-0.2-0.9-0.7-1.2c0.4-0.7,0.9-0.1,1.3,0c2.7,1,5.4,1.8,8.1,2.6c0.3,0.1,0.7,0.2,1.2,0
			c-3.5-2.1-6-5-8.2-8.4c1.1,0.7,2.4,1.2,3.2,2.1c4.3,4.8,9.8,8,15.6,10.6c0.3,0.1,0.6,0.4,0.9,0.5
			C522.9,340.3,521.7,340.6,521.1,341.7z"/>
		<path class="st13" d="M607.2,351.4c-2.7,0.6-5.3,1.4-8,1.5c-1.1-0.3-1.1-1.5-1.9-2.2c1.9-0.6,3.9-1.1,5.8-1.7
			c1.8-0.6,3.6-1.5,5.1-2.7c-1.6,0.2-3.2,0.3-4.7,0.7c-2.7,0.8-5.5,1-8.3,1.3c-1.2-1.5-2.6-2.7-4.1-3.9c4.4-1.2,8.5-3.2,12.9-4.4
			c-1.1,1.5-2.9,2.1-4.4,3c-1.5,0.8-3.3,1.2-5,1.9c2.3,0,4.6,0.1,7,0c4.1-0.2,8.2-1.1,12.2-2.2c-0.1,1.1-1,1.6-1.5,2.4
			c-1.9,1.6-4,2.9-6.2,4.1c-0.4,0.2-1,0.2-1.2,0.8c1.3,0.4,2.6,0.2,3.8,0.2C608.6,351,607.5,350.6,607.2,351.4z"/>
		<path class="st13" d="M509.3,352.9c-2.7-0.2-5.4-0.9-8-1.5c-0.2-0.7-1.1-0.4-1.4-0.9c1.2-0.6,2.5,0.1,4-0.6
			c-2.8-1-4.8-2.8-7.1-4.1c-0.8-1-1.8-1.9-2.4-3c2.5,0.3,4.8,1.3,7.2,1.7c4,0.6,8.1,0.8,12.2,0.5c-3.6-1-6.7-2.6-9.7-4.8
			c4.4,1.1,8.5,3,12.8,4.5c-1.5,1.1-2.5,2.5-3.7,3.9c-4.4-0.1-8.7-1.3-13-1.9c1.4,0.9,2.8,1.7,4.3,2.3c2.1,0.9,4.3,1.2,6.4,2
			C510.6,351.6,510.3,352.5,509.3,352.9z"/>
		<path class="st13" d="M529.8,335.2c0.1,0.9-0.8,1.3-1.2,1.9c-0.6,0.4-1.1,0.4-1.8,0.1c-2.3-0.8-4.5-1.8-6.8-2.7
			c-5.2-2.2-8.6-6.1-11.1-11c2.9,2.1,5.6,4.4,9.1,5.6c-1.1-1.3-2.2-2.5-3.3-4.3C520.2,328,524.5,332.3,529.8,335.2z"/>
		<path class="st13" d="M579.9,337.1c-0.4-0.6-1.2-1-1.2-1.9c5.2-2.9,9.5-7.1,14.9-10.3c-0.9,1.8-2.1,3-3.3,4.2
			c1.8-0.3,3.3-1.4,4.8-2.4s2.8-2.1,4.3-3.2c0,0.2,0.1,0.3,0.1,0.4c-1.8,3.5-4.1,6.7-7.6,8.8c-3.1,1.9-6.4,3.4-9.9,4.4
			C581.3,337.3,580.6,337.5,579.9,337.1z"/>
		<path class="st13" d="M543,322.5c-1,0.6-1.8,1.3-3,1.4c-2.7-2.9-5.1-6-7.2-9.4c0.1-0.1,0.2-0.1,0.3-0.2c0.8,0.5,1.2,0.2,0.8-0.6
			c-0.8-1.7-0.4-3.5-1-5.3c1.4,1.7,2.4,3.6,3.9,5.3c0.1,0.2,0.3,0.4,0.4,0.6c0.3-0.3,0.1-0.6-0.1-0.9c-1.3-4.6-2.4-9.3-2.1-14.5
			c0.8,1.3,0.8,2.7,1.5,3.8c1.3,2.1,1.4,4.5,1.8,6.9c0.5,2.6,1.3,5,2.4,7.4C541.4,319,542.2,320.8,543,322.5z"/>
		<path class="st13" d="M547.7,319.8c-0.3,0.7-0.8,1.2-1.7,1.2c-2.8-4.1-4.4-8.9-5.9-13.6c-0.9-2.7-0.3-5.5,0-8.2
			c0.3-1.9,0.4-3.9,1.3-5.9c0.5,4.6,1,9,2.2,13.2c0,0.4,0.1,0.8,0.6,1.1c0-0.5-0.1-0.8-0.1-1.1c0.1-2.8,0-5.7,0.9-8.4
			c0.5,0.8,0.6,1.7,0.4,2.6c-0.8,4.7-0.4,9.4,0.6,14C546.4,316.6,547,318.2,547.7,319.8z"/>
		<path class="st13" d="M562.5,321c-0.9,0.1-1.3-0.5-1.7-1.2c2.1-5.1,2.9-10.3,2.6-15.8c-0.1-1.2-0.2-2.3-0.4-3.5
			c-0.1-0.9,0.2-1.6,0.7-2.4c0.2,2.3,0.4,4.6,0.7,6.9c0,0.8,0,1.6,0,2.7c0.7-0.8,0.5-1.6,0.8-2.4c0.9-3.9,1.6-7.8,2-11.8
			c0.8,4.9,2.7,9.6,0.9,14.7c-0.7,2.1-1.4,4.2-2.1,6.3C565.3,316.9,563.7,318.9,562.5,321z"/>
		<path class="st13" d="M568.5,324c-1.1-0.2-2-0.9-3-1.4c2.2-4.5,4.1-9.1,5-14.1c0.2-1.1,0.1-2.3,0.5-3.2c0.9-2,1.4-4.1,2.4-6
			c0.2,4.9-0.7,9.6-2,14.2c-0.2,0.2-0.3,0.3-0.1,0.6c0.1-0.1,0.3-0.2,0.4-0.3c1.5-1.7,2.5-3.8,3.9-5.6c-0.3,1.8-0.4,3.7-1,5.4
			c-0.2,0.6-0.4,1.5,0.8,0.8c0.1,0.1,0.2,0.1,0.3,0.2C573.6,318,571.1,321,568.5,324z"/>
		<path class="st13" d="M537.2,326.7c-0.9,0.3-1.5,1.2-2.3,1.6c-2.1-1.6-4.2-3.3-5.9-5.3c-1.7-1.9-3.6-3.7-5.1-5.8
			c-1-1.5-1-3.2-1.3-4.8c1.1,2.1,3.1,3.5,4.3,5.5c0.3,0.4,0.6,1,1.1,0.6c0.7-0.4-0.1-0.7-0.3-1c-0.6-1.3-1.6-2.6-1.4-4.4
			c1.1,1.2,2.2,2.3,3.2,3.4c0.1,0.1,0.2,0.4,0.4,0.2c0.1-0.1,0.1-0.4-0.1-0.5c-1.4-3-2.7-6-3.3-9.2c0.8,0.6,1.4,1.3,1.7,2.2
			c1.6,6.3,5,11.7,9.1,16.6C537.3,326.1,537.3,326.4,537.2,326.7L537.2,326.7z"/>
		<path class="st13" d="M573.6,328.3c-0.9-0.4-1.4-1.3-2.3-1.6l0,0c0-0.3-0.1-0.6-0.1-0.9c2.3-2.8,4.3-5.8,6.2-9
			c1.8-3.1,2.1-7,4.5-9.8c-0.6,3.3-1.9,6.3-3.3,9.2c-0.1,0.2-0.5,0.3-0.3,0.6c0.2,0.2,0.4-0.2,0.5-0.3c1-1,2-2.1,3.1-3.3
			c0.2,2.3-1.1,3.7-2,5.4c0.6,0.1,1,0.1,1.4-0.4c1.3-2,3.2-3.5,4.4-5.6c-0.1,1.6-0.2,3.3-1.1,4.7c-1,1.4-2.2,2.8-3.6,4
			c-1,0.8-1.6,2-2.5,2.9C577,325.4,575.3,326.8,573.6,328.3z"/>
		<path class="st13" d="M577.3,332.2c-0.9-0.1-1.3-0.7-1.5-1.5c3.2-2.8,6.2-5.8,8.6-9.3c0.8-1.1,2-1.6,3-2.5c-0.3,2-1.3,3.6-2.2,5.2
			c-0.1,0.1-0.3,0.3,0,0.4c0.1,0,0.2-0.1,0.3-0.2c2.5-1.9,4.6-4.3,6.8-7c-0.6,4.1-2.3,6.9-5.6,8.9c-2,1.2-3.7,2.7-5.7,3.9
			C579.8,330.9,578.5,331.5,577.3,332.2z"/>
		<path class="st13" d="M532.8,330.7c-0.3,0.7-0.6,1.3-1.5,1.5c-3.1-1.6-6.3-3.2-8.9-5.7c-0.2-0.2-0.4-0.2-0.7-0.3
			c-3-1.6-5.1-4.8-5.4-8.5c2.2,2.4,4.1,5,6.7,6.8c0.1,0.1,0.3,0.2,0.3,0.2c0.2-0.1,0.1-0.3,0-0.4c-1-1.6-1.9-3.3-2.5-5.4
			c1.5,1.1,2.8,2,3.7,3.3C527,325.3,529.7,328.2,532.8,330.7z"/>
		<path class="st13" d="M551.2,317.4c-0.1,0.4-0.3,0.8-0.7,0.9c-1.8-4.4-2.7-9.1-3.5-13.8c0.8,0.1,0.8,0.9,1.4,1.5
			c-0.2-2.9,0.3-5.5,0.6-8.4c0.5,0.8,0.5,1.5,0.7,2.1c1.4,4.4-0.2,8.8,0.7,13.2C550.7,314.5,551.1,315.9,551.2,317.4z"/>
		<path class="st13" d="M558,318.3c-0.4-0.2-0.6-0.5-0.7-0.9c0.7-3.8,1.4-7.7,0.9-11.6c-0.3-2.4,0.6-4.5,0.5-6.8
			c0-0.4,0.4-0.8,0.8-1.4c0.3,2.9,0.9,5.5,0.8,8.2c0.3-0.4,0.5-0.8,0.8-1.3C560.8,309.4,559.8,313.9,558,318.3z"/>
		<path class="st13" d="M554.7,315c-0.3,0-0.6,0-0.8,0c-0.5-3-1-5.9-1.3-8.9c-0.3-2.3,0.6-4,1.7-5.7c1.7,2.1,2,4.3,1.6,7
			C555.4,309.9,555.1,312.5,554.7,315z"/>
		<path class="st13" d="M562.9,353c1.3-0.3,2.2,0,2.6,1.3c0.3,1.1-0.2,1.9-1.3,2.2c-1.2,0.4-2.1-0.2-2.6-1.6
			c0.7,0.1,1.4,0.5,1.9-0.3S563,353.6,562.9,353z"/>
		<path class="st13" d="M545.6,353.1c-0.1,0.5-1,0.8-0.6,1.5c0.5,0.8,1.2,0.4,1.9,0.3c-0.6,1.5-1.4,2-2.6,1.6
			c-1.1-0.3-1.5-1.1-1.3-2.2C543.2,353.2,544.2,352.8,545.6,353.1z"/>
		<path class="st13" d="M556.8,380.2c-0.1,0.8-0.6,1-1.1,1.1c-0.6,0-0.9-0.4-0.9-1c0-0.5,0.4-0.9,0.9-1
			C556.4,379.3,556.6,379.8,556.8,380.2z"/>
		<path class="st13" d="M553.8,380.3c-0.1,0.5-0.4,1-1,1c-0.5,0-1.1-0.3-1.1-1c0-0.5,0.4-0.9,1-1
			C553.3,379.3,553.7,379.8,553.8,380.3z"/>
	</g>
</g>
<g>
	<g>
		<path class="st10" d="M581.1,351.7c-0.9-1.1-2.1-2-3.2-2.9c-0.2-0.2-0.4-0.3-0.5-0.8c2,1,3.8,2.2,5.9,2.7
			c-1.4-0.9-2.6-2.1-3.8-3.2c-1.5-1.5-3.3-3-4.3-5l0,0c0.9,0.3,1.4,1.1,2.1,1.6c1.2,0.9,2.4,1.8,3.8,2.3c0.1,0,0.1,0.1,0.2,0.1
			c0,0,0-0.1,0.1-0.1c-0.1,0-0.2,0-0.2,0c-0.8-1.1-1.6-2.1-2.4-3.2c-0.4-0.5-0.7-1.1-1-1.7c0.9,0.4,1.6,1.1,2.4,1.7
			c0.8,0.5,1.5,1.3,2.9,1.6c-1.8-2-3.2-3.9-4.1-6.1c1.9,1.3,3.6,2.8,5.9,3.7c-0.3-1.1-1.4-1.7-1.3-2.9c1.2,0.1,2,1.2,3.2,1.2
			c0.1-0.1,0.1-0.2,0-0.3c-1.6-1.4-2.6-3.2-3.7-5c-0.4-0.7-0.6-1.4-1-2.1c-0.1-0.2-0.1-0.3,0-0.4c0.2-0.2,0.3,0,0.5,0.1
			c1.2,1.2,2.5,2.3,3.8,3.4c0.7,0.6,1.4,1.1,2.3,1.8c-0.6-1.6-1.9-2.5-2.1-4c0.5-0.1,0.7,0.3,1,0.5c1.1,0.8,2,1.8,3.4,2
			c0,0.1,0,0.2,0,0.2s0.1,0,0.1-0.1s-0.1-0.1-0.1-0.2c-0.8-1.7-1.5-3.4-1.7-5.2c-0.1-0.9-0.2-1.7-0.4-2.8c1.3,2.1,2.7,3.9,4.3,5.6
			c-1-3-1.7-6.1-2.3-9.2c0.5,1,1.1,1.9,1.6,2.9c0.8,1.2,1.6,2.4,2.4,3.5c0.1,0.1,0.2,0.1,0.3,0.1c0,0.1,0,0.2,0.1,0.2
			c0,0,0.1,0,0.1-0.1s-0.1-0.1-0.1-0.2c-0.6-2.1-1.3-4.2-1.6-6.3c1.2,1.9,2.3,3.9,3.9,5.9c-0.3-1.1-0.5-1.9-0.5-2.9
			c0.6,0.5,1,0.9,1.5,1.3c0,0.1,0.1,0.3,0.1,0.4c0,0,0.1,0,0.1-0.1c0-0.2,0-0.3-0.1-0.4c-0.5-1.8-1.4-3.5-2.4-5.1
			c-0.1-0.2-0.4-0.3-0.1-0.5c0.2-0.2,0.4,0,0.6,0.2c1,0.7,1.7,1.6,2.6,2.5c-0.6-1.8-1.6-3.3-2.6-4.8l0,0c1.5,0.4,2.4,1.5,3.4,2.6
			c0.2,0.3,0.5,0.5,0.8,0.8c-0.6-2.6-0.5-5.2,0.3-8c0.3,1.3,0.6,2.5,1.1,3.6s0.9,2.1,1.7,3.3c0.3-1.9,0.4-3.7,0.7-5.4
			c0.6,1.6,1.1,3.2,1.7,4.9c0.7-1.3,0.9-2.5,0.6-3.9c1.2,0.6,1.3,1.7,1.7,2.7c0.6-1.3,0.6-2.5,0.2-3.7c-0.1-0.3-0.2-0.5,0-0.7
			c0.3-0.2,0.3,0.2,0.5,0.3c0.9,0.8,1,2,1.3,3c0.1,0.4,0.2,0.8,0.3,1.4c0.7-2.3,1.2-4.6,2.2-6.9c0.1,2,0.4,3.7,0.7,5.5
			c0.1-1.1,0.1-2.2,0.2-3.4c0.1-0.5,0.2-1,0.2-1.5c0-0.2,0-0.4,0.3-0.4s0.3,0.2,0.3,0.4c0.1,1.1,0.3,2.2,0.4,3.3
			c0,0.5,0,1.1,0.1,1.6c0.4-1.7,0.6-3.5,0.8-5.4c1,2.3,1.4,4.6,2.1,6.8c0.2-0.9,0.4-1.7,0.7-2.6c0.2-0.9,0.6-1.7,1.7-2.4
			c-0.7,1.6-0.8,3.1-0.2,4.7c0.5-1,0.6-2.2,1.8-2.8c-0.2,1.4-0.1,2.6,0.6,3.9c0.7-1.7,1.3-3.3,1.8-5c0.3,1.8,0.2,3.6,0.6,5.5
			c1.4-2.1,2.2-4.3,2.7-6.9c0.7,2.8,0.9,5.4,0.3,8.1c0.9-1,1.7-2.1,2.8-2.8c0.4-0.3,0.8-0.7,1.3-0.6l0,0c-1,1.5-2,3-2.6,4.8
			c1-0.6,1.5-1.7,2.5-2.3c0.2-0.1,0.4-0.5,0.7-0.3c0.4,0.3-0.1,0.5-0.2,0.7c-0.9,1.6-1.8,3.2-2.3,4.9c-0.2,0.1-0.2,0.2-0.1,0.4
			c0,0,0,0,0.1,0.1c0-0.1,0.1-0.3,0.1-0.4c0.5-0.4,0.9-0.8,1.5-1.4c-0.1,0.8-0.2,1.5-0.3,2.2c1.5-1.5,2.4-3.4,3.7-5.2
			c-0.3,2.3-1,4.3-1.6,6.4c1.7-2,3.1-4.1,4.3-6.4c-0.7,3.1-1.3,6.2-2.3,9.2c1.6-1.7,3.1-3.4,4.3-5.5c-0.1,2.8-0.9,5.4-2.1,7.9
			c0,0.1-0.1,0.1-0.1,0.2c0,0,0.1,0,0.1,0.1c0-0.1,0-0.2,0-0.2c1.4-0.1,2.3-1.2,3.3-1.9c0.3-0.2,0.5-0.6,1-0.6
			c-0.2,1.5-1.5,2.4-2.1,4c2.2-1.6,4-3.1,5.7-4.8c0.2-0.2,0.3-0.7,0.7-0.4c0.3,0.3-0.1,0.6-0.2,0.8c-0.7,2-2,3.6-3.1,5.4
			c-0.4,0.6-1.1,0.9-1.5,1.7c0.9-0.1,1.6-0.4,2.2-0.8c0.3-0.2,0.7-0.5,1-0.2c0.3,0.3,0.1,0.7-0.2,1.1c-0.3,0.4-0.6,0.9-0.8,1.5
			c2.2-0.8,3.9-2.3,5.9-3.7c-1.1,2.4-2.5,4.3-4,6.2c1.9-0.7,3.3-2.1,5.1-3.3c-0.5,1.3-1.4,2.2-2,3.2c-0.4,0.7-1.2,1.1-1.5,1.9
			c-0.1,0-0.2,0-0.2,0s0,0.1,0.1,0.1s0.1-0.1,0.2-0.1c1.4-0.5,2.6-1.5,3.8-2.3c0.7-0.5,1.2-1.3,2.1-1.6l0,0
			c-0.5,0.9-1.1,1.7-1.8,2.5c-1.2,1.3-2.4,2.6-3.7,3.8c-0.5,0.4-1,0.9-1.5,1.2c-0.2,0.1-0.4,0.3-0.4,0.7c1.9-0.5,3.5-1.6,5.3-2.4
			c-1.1,1.3-2.6,2.2-3.6,3.6c-0.2-0.4-0.4-0.1-0.6,0c-1.3,0.4-2.7,0.9-4,1.3c-0.7,0.2-1.4,0.5-2.2,0.4c2.2-1.3,3.9-3.1,5.3-5.2
			c-1.1,0.5-2.1,1.2-2.9,2.1c-0.9,1.1-2.1,1.9-3.3,2.7c-1.9,1.4-4.1,2.3-6.2,3.4c-0.9,0.1-1.6,0.7-2.4,0.8c-0.2-0.8-0.7-1.5-0.6-2.4
			c0.4,0.2,0.8,0.1,1.3,0c2.2-0.6,4.3-1.6,6.3-2.8c2.2-1.3,3.6-3.3,4.8-5.5c0,0,0-0.1-0.1-0.2c-0.9,0.7-1.8,1.4-2.7,2
			s-1.9,1.3-3,1.5c0.8-0.8,1.5-1.5,2.1-2.7c-3.4,2-6.1,4.7-9.4,6.5c-0.4-0.6-1-1.1-0.9-1.9c0.8-0.4,1.6-0.8,2.3-1.3
			c1.3-0.7,2.4-1.7,3.6-2.5c2.1-1.2,3.2-3,3.5-5.6c-1.4,1.7-2.7,3.2-4.3,4.4c-0.1-0.1-0.1-0.1-0.2-0.2c0.6-1,1.2-2.1,1.4-3.3
			c-0.6,0.6-1.4,0.9-1.9,1.6c-1.6,2.2-3.4,4.1-5.5,5.9c-0.4-0.5-0.9-1-1.3-1.6c1-0.9,2.1-1.8,3.1-2.7c0.6-0.6,1-1.3,1.6-1.8
			c0.9-0.7,1.6-1.6,2.2-2.5c0.6-0.9,0.6-1.9,0.7-3c-0.8,1.3-1.9,2.3-2.8,3.6c-0.3,0.4-0.5,0.4-0.9,0.3c0.6-1.1,1.4-2,1.3-3.4
			c-0.7,0.8-1.3,1.4-2,2.1c-0.1-0.1-0.1-0.1-0.2-0.2c0.9-1.9,1.7-3.8,2.1-5.8c-1.5,1.8-1.7,4.2-2.9,6.2s-2.4,3.9-3.9,5.7
			c-0.1,0-0.2,0-0.4,0l0,0c-0.1-0.1-0.3-0.2-0.4-0.3c-0.2-0.5-0.9-0.3-1-0.9c1.7-1.9,3.2-3.8,4.5-5.9c0-0.1,0-0.2,0-0.2
			c-0.1,0-0.1,0.1-0.2,0.1c-0.8,0.4-0.6-0.1-0.5-0.5c0.4-1.1,0.4-2.3,0.6-3.4c-0.9,1.1-1.5,2.4-2.5,3.5c-0.1-0.1-0.1-0.1-0.2-0.2
			c0.9-2.9,1.4-5.9,1.3-9c-0.6,1.2-1,2.5-1.5,3.8c-0.3,0.6-0.2,1.4-0.3,2c-0.6,3.1-1.8,6-3.2,8.9c-0.8,0-1.4-0.4-1.9-1
			c0.8-1.3,1.7-2.6,2.2-4c0.4-1.3,0.9-2.7,1.3-4c1.1-3.2,0-6.2-0.6-9.3c-0.3,2.5-0.7,5-1.3,7.5c-0.2-0.1-0.3-0.1-0.5-0.2
			c-0.1-1.5-0.3-2.9-0.4-4.4c-0.3,0.5-0.5,1-0.4,1.5c0.1,0.7,0.2,1.5,0.2,2.2c0.2,3.4-0.3,6.8-1.7,10c-0.8,0-1.2-0.5-1.8-0.9
			c1.1-2.8,1.7-5.7,1.9-8.7c-0.2,0.3-0.3,0.5-0.5,0.8c0.1-1.7-0.3-3.4-0.5-5.2c-0.2,0.4-0.5,0.6-0.5,0.9c0.1,1.4-0.5,2.8-0.3,4.3
			c0.3,2.4-0.1,4.9-0.6,7.3c-0.9-0.2-1.3-0.8-1.7-1.5c0.2-1.6,0.4-3.2,0.7-4.8c0.3-1.7,0.1-3.1-1-4.4c-0.7,1.1-1.3,2.1-1.1,3.6
			c0.2,1.9,0.5,3.8,0.8,5.6c-0.3,0.7-0.8,1.4-1.7,1.5c0-0.9-0.3-1.9-0.5-2.8c-0.5-2.8,0.5-5.6-0.4-8.3c-0.1-0.4-0.2-0.8-0.5-1.3
			c-0.2,1.8-0.5,3.5-0.4,5.3c-0.4-0.4-0.4-0.9-0.9-1c0.5,3,1.1,5.9,2.2,8.7c-0.5,0.5-1,1-1.8,0.9c-0.5-1-0.8-2-1.1-3.1
			c-0.6-2.9-0.9-5.9-0.4-8.9c0.1-0.6,0-1.2-0.3-1.7c-0.5,1.7-0.5,3.5-0.6,5.3c-0.1,0-0.2,0-0.3,0c-0.8-2.7-1.1-5.5-1.4-8.3
			c-0.6,1.2-0.7,2.5-0.8,3.7c-0.2,1.7-0.6,3.4,0,5.1c1,3,2,5.9,3.7,8.6c-0.5,0.5-1.2,0.8-1.9,1c-0.5-1.1-1-2.3-1.5-3.4
			c-0.6-1.5-1.2-3.1-1.5-4.7c-0.3-1.5-0.4-3-1.1-4.3c-0.4-0.7-0.4-1.6-0.9-2.4c-0.2,3.3,0.5,6.2,1.3,9.1c-0.1,0.1-0.1,0.1-0.2,0.2
			c-0.9-1-1.5-2.3-2.4-3.3c0.4,1.1,0.1,2.3,0.6,3.4c0.2,0.5,0,0.7-0.5,0.4c-0.1,0-0.1-0.1-0.2-0.1c0,0.1,0,0.2,0,0.2
			c1.3,2.1,2.9,4.1,4.5,5.9c-0.1,0.6-0.8,0.4-1,0.9c-0.1,0.1-0.3,0.2-0.4,0.3l0,0c-0.1,0-0.2,0-0.4,0c-2.6-3.1-4.8-6.5-5.8-10.5
			c-0.1-0.6-0.6-1-1.1-1.4c0.4,2,1.2,3.9,2.1,5.8c-0.1,0.1-0.1,0.1-0.2,0.2c-0.7-0.7-1.3-1.4-2-2.2c-0.1,1.2,0.5,1.9,0.9,2.8
			c0.1,0.2,0.6,0.4,0.2,0.6c-0.4,0.2-0.6-0.1-0.7-0.4c-0.8-1.2-2-2.1-2.7-3.5c0.2,1.1,0.2,2.1,0.8,3c0.9,1.4,2.1,2.4,3.2,3.7
			c1.1,1.2,2.4,2.3,3.7,3.3c-0.4,0.6-0.8,1.1-1.3,1.6c-2-1.6-3.7-3.4-5.2-5.5c-0.6-0.8-1.4-1.3-2.3-2.1c0.4,1.4,1,2.4,1.6,3.4
			c-0.1,0.1-0.1,0.1-0.2,0.2c-1.7-1.2-2.8-2.8-4.2-4.3c0.2,2.3,1.5,4.4,3.4,5.4c0.1,0.1,0.3,0.1,0.4,0.2c1.6,1.6,3.6,2.6,5.6,3.6
			c0,0.8-0.5,1.3-0.9,1.9c-3.3-1.8-6-4.6-9.5-6.6c0.7,1.1,1.4,1.9,2.1,2.7c-2.2-0.7-3.9-2.2-5.7-3.5c1.6,3.1,3.7,5.6,7,7
			c1.4,0.6,2.8,1.2,4.3,1.7c0.4,0.2,0.8,0.2,1.1-0.1c0.1,0.9-0.4,1.6-0.6,2.4c-0.9,0-1.6-0.7-2.4-0.8c-0.2-0.1-0.4-0.3-0.5-0.3
			c-3.7-1.7-7.1-3.7-9.8-6.7c-0.5-0.6-1.3-0.9-2-1.3c1.4,2.1,3,4,5.2,5.3c-0.3,0.1-0.5,0.1-0.8,0c-1.7-0.5-3.4-1-5.1-1.6
			C581.7,351.6,581.4,351.2,581.1,351.7z M645.1,344.9C645.2,344.9,645.1,345,645.1,344.9c0,0.1,0.1,0.1,0.1,0.1
			C645.3,344.9,645.3,344.9,645.1,344.9C645.2,344.9,645.2,344.9,645.1,344.9z M583.2,345C583.3,345,583.3,344.9,583.2,345
			c0.1-0.1,0-0.1,0-0.1S583.2,344.9,583.2,345L583.2,345z"/>
		<path class="st10" d="M646.9,352.4c2.1-0.3,3.9-1.3,5.8-2.1c-0.9,2.2-2.5,3.9-4.8,5.3c1.3-0.2,2.3-0.4,3.6-0.6
			c-1.5,1.3-3.2,1.7-5,2.6c1.6,0.2,2.8-0.2,4-0.7c1.1-0.5,2.2-1.1,3.3-1.7c0.1-0.1,0.2-0.3,0.4-0.1c0.1,0.1,0.1,0.3,0,0.4
			c-0.8,0.9-1.4,2-2.3,2.8c-2.5,0.7-5.1,1.3-7.7,1.4c-1.5,0.1-2.9,0-4.4,0c1.1-0.5,2.2-0.7,3.1-1.2c1-0.5,2.1-0.9,2.8-1.9
			c-2.8,0.8-5.4,2-8.2,2.8c-2,0.3-3.9,0.8-6,0.8c-0.1-0.7-0.2-1.4-0.4-2.1c0.5,0,1,0,1.5-0.1c0.8-0.2,1.7,0.1,2.5-0.4
			c0.4,0.1,0.7,0.1,1.1,0c1.8-0.3,3.5-0.7,5.2-1.2c1.7-0.5,2.9-1.7,4-2.9C646,353.1,646.3,352.6,646.9,352.4z"/>
		<path class="st10" d="M576.4,358.3c-0.5-0.9-1.2-1.6-1.8-2.4c-0.2-0.2-0.6-0.5-0.3-0.9c0.2-0.2,0.5,0.2,0.8,0.3
			c1.7,1.1,3.4,2,5.4,2.3c0.6,0.1,0.6,0.1,1.3-0.1c-1.5-0.8-3.2-1.3-4.8-2.5c1.3,0.2,2.3,0.4,3.5,0.6c-2.1-1.4-3.8-3.1-4.7-5.3
			c1.9,0.8,3.8,1.8,5.8,2.1c0.5,0.2,0.8,0.5,1.2,1c1.1,1.3,2.4,2.6,4.2,3.1c1.8,0.5,3.5,0.9,5.3,1.2c0.3,0.1,0.7,0.1,1,0
			c0.2,0.3,0.5,0.2,0.7,0.3c1.1,0.1,2.2,0.1,3.2,0.2c-0.1,0.7-0.2,1.4-0.4,2.1c-0.6,0-1.2-0.1-1.9-0.1c-1.5-0.1-2.9-0.6-4.3-0.6
			c-2.7-0.9-5.3-2.2-8.1-2.8c1.9,1.4,3.9,2.4,6.1,3c-2.6,0.2-5.1,0.1-7.7-0.3C579.4,359.1,578,358.5,576.4,358.3z"/>
		<path class="st10" d="M585,369.5c-0.6,1.9-1.4,3.8-1.6,5.8c-0.1,0.6-0.2,1.3-0.3,2c0.7-0.2,0.7-1,1.5-1.2c0,2.4,0.3,4.8,0.6,7.2
			c-0.3-0.1-0.6-0.2-0.9-0.3c-0.2-0.1-0.5-0.2-0.3-0.4c0.6-0.8-0.1-0.7-0.5-0.7c-0.4,0-0.9-0.1-1-0.4c-0.1-0.4,0.5-0.2,0.7-0.5
			c0.2-0.2,0.5-0.2,0.5-0.6c0.1,0,0.2,0,0.2-0.1c0,0,0-0.1-0.1-0.1s-0.1,0.1-0.2,0.1c-0.6,0-1.3,0-1.9-0.2c-0.2-0.1-0.5,0.1-0.6-0.2
			c-0.1-0.3,0.3-0.4,0.5-0.5c0.7-0.2,1.4-0.5,2.1-1.2c-1.7,0-3.1,0.7-4.8,0.3c1.1-0.4,2.1-0.8,3-1.5c-1.5,0.3-3,0.4-4.5,0.1
			c1.6-0.6,3.1-1.4,4.7-2.5c-1.4,0.2-2.7,0.4-3.9,0.2c1.4-0.5,2.7-1.1,4-2c-1.2,0.1-2.4,0.1-3.8-0.4c1.2-0.5,2.3-0.6,3.5-1.3
			c-1.1-0.1-2.1-0.2-3.2-0.8c1.4-0.4,2.7-0.5,3.9-1.1c-1.4-0.3-2.8-0.2-4.1-0.9c1.4-0.2,2.8-0.5,4.2-1c-1.7-0.2-3.3-0.4-4.8-1.2
			c2.2-0.1,4.5,0,6.9-0.5c-3-0.5-6-1-8.7-2.5c1-0.3,1.7,0.1,2.5,0.2c0.8,0.1,1.6,0.4,2.4,0.3c1.7,0.4,3.3,0.9,5.1,1
			c0,0.8-0.6,1.3-0.8,2c-0.4,1.1-0.8,2.2-1.1,3.5c0.4-0.3,0.7-0.6,1-0.8C584.9,369.4,584.9,369.5,585,369.5z"/>
		<path class="st10" d="M643.3,383.3c0.3-2.4,0.6-4.7,0.5-7.2c0.7,0.2,0.8,0.9,1.4,1.2c-0.1-2.7-0.9-5.3-1.9-7.8l0.1-0.1
			c0.3,0.2,0.5,0.4,0.9,0.8c-0.3-1.7-0.9-3.1-1.6-4.5c-0.2-0.3-0.4-0.6-0.3-1c1.7-0.1,3.4-0.6,5.1-1c1.6,0,3.1-0.6,5-0.5
			c-2.8,1.6-5.8,2-8.8,2.7c2.4,0.4,4.7,0.3,6.9,0.4c-1.5,0.9-3.2,1-4.9,1.2c1.4,0.4,2.7,0.8,4.4,0.9c-1.5,0.9-3,0.5-4.3,1
			c1.2,0.6,2.4,0.7,3.9,1.1c-1.1,0.6-2.1,0.7-3.2,0.8c1,0.7,2.2,0.7,3.4,1.3c-1.3,0.5-2.5,0.6-3.7,0.3c1.1,1,2.5,1.5,3.9,2.1
			c-1.2,0.2-2.4,0-3.9-0.2c1.6,1.1,3,1.9,4.7,2.4c-1.5,0.4-3,0.2-4.5-0.1c0.9,0.7,1.9,1.1,3,1.5c-1.6,0.3-3-0.3-4.6-0.3
			c0.4,0.8,1.1,0.9,1.7,1.2c0.3,0.1,0.7,0.2,0.6,0.6c0,0.3-0.4,0.1-0.6,0.2c-0.6,0.3-1.2,0.2-1.8,0.2c-0.1,0-0.1-0.1-0.2-0.1
			c0,0,0,0.1-0.1,0.1c0.1,0,0.2,0,0.2,0.1c0.1,0.5,0.5,0.6,0.9,0.7c0.1,0.1,0.3,0.1,0.4,0.2c0,0.2-0.2,0.3-0.4,0.4
			c-0.3,0.2-0.6,0.1-0.9,0.1c-0.2,0-0.5,0-0.4,0.2C644.9,383.4,643.7,382.9,643.3,383.3z"/>
		<path class="st10" d="M648.6,363c-0.8,0-1.6,0.1-2.4-0.1c0.2-0.4,0.5-0.4,0.8-0.5c1.4-0.7,2.7-1.6,3.9-2.6c0.4,0.5,0.8,0.2,1.3,0
			c0.9-0.4,1.7-0.8,2.7-1.4c-0.2,0.7-0.8,1-1.2,1.3c-1.1,0.9-2.2,1.7-3.5,2.3C649.6,362.3,649.1,362.6,648.6,363z"/>
		<path class="st10" d="M577.9,360.2c1.5,0.8,2.7,2,4.5,2.6c-1,0.5-1.8,0-2.5,0.4c-0.2-0.5-0.6-0.7-1.1-0.9c-2-0.8-3.6-2.1-5.4-3.6
			c0.6,0,0.9,0.2,1.2,0.4c0.4,0.2,0.7,0.4,1.1,0.5C576.5,359.9,577.1,360.3,577.9,360.2z"/>
		<path class="st10" d="M634.8,364.1c-0.7,0-1.5-0.1-2.2-0.1c-0.8,0.1-1.1-0.2-0.9-1c0-0.2,0-0.4,0-0.7c0.2-0.1,0.3-0.2,0.3-0.4
			c2.7,0.2,5.5,0.4,8.2,0c1.8-0.2,3.5-0.3,5.2-0.8c0.9-0.3,2-0.3,3-0.4c-1,0.8-2.1,1.3-3.2,1.7c-1.2,0.4-2.5,0.7-3.7,1.1
			C639.2,363.8,637,364,634.8,364.1z"/>
		<path class="st10" d="M596.8,362.3c0,0.4,0.1,0.9,0.1,1.3c0,0.1,0,0.1,0,0.2c-1.1,0.3-2.1,0.1-3.2,0.3c-2.3-0.1-4.6-0.2-6.8-0.7
			c-1.3-0.5-2.7-0.7-4-1.3c-1-0.4-1.9-0.9-2.7-1.5c2.7,0.4,5.4,1.2,8.2,1.2c2.4,0.3,4.8,0.3,7.3,0c0.3,0,0.6,0,0.9,0.2
			C596.6,362.2,596.7,362.2,596.8,362.3z"/>
	</g>
	<g>
		<path class="st11" d="M643.3,383.3c-0.1,1.7-0.1,1.7-1.8,1.7c-18.2,0-36.4,0-54.6,0c-1.7,0-1.7,0-1.8-1.7
			c-0.3-2.4-0.6-4.7-0.6-7.2c-0.7,0.2-0.8,1-1.5,1.2c0.1-0.7,0.2-1.4,0.3-2c0.3-2,1-3.9,1.6-5.8c0.1-0.1,0.2-0.2,0.1-0.3
			s-0.1,0.1-0.2,0.2c-0.3,0.2-0.5,0.4-1,0.8c0.3-1.3,0.7-2.4,1.1-3.5c0.3-0.7,0.8-1.2,0.8-2c0.6-0.2,0.8-0.8,1-1.4
			c2.2,0.4,4.5,0.6,6.8,0.7c0,0.5,0.3,0.5,0.7,0.5c0.7,0,1.3,0,2,0c0,0.4-0.2,0.4-0.3,0.5c-0.3,0.4-0.9,0.8-0.8,1.2
			c0.1,0.5,0.8,0.1,1.3,0.2c0.3,0.1,0.6,0,0.8,0.1c0.3,0.1,0.7,0.2,0.5,0.6c-0.4,0.7,0,0.6,0.4,0.5c1.1-0.3,2.2,0,3.2,0.4
			c1.2,0.5,2.2,1.3,3.2,2.1c1.4,1,2.9,2.2,4.8,1.9c0,0.4,0.1,0.8,0.3,1.2c1.4,2,1.1,4.3,0.9,6.5c-0.2,2.2,0.8,3.8,3,4.1
			c2.2,0.3,4.2-1.6,3.8-3.9c-0.3-1.6-0.3-3.3,0.1-5c0.2-1,1.1-1.8,1.1-2.9c0.7,0,1.4,0.1,2-0.2c1.4-0.6,2.6-1.5,3.8-2.4
			c1.6-1.3,3.4-2.2,5.5-1.7c0.2,0,0.6,0.1,0.5-0.3c-0.5-1.1,0.4-0.9,0.9-1s1.4,0.3,1.5-0.2c0.1-0.4-0.5-1-1-1.4c0,0,0-0.1-0.1-0.3
			c0.7,0,1.4,0,2.1,0c0.4,0,0.7,0.1,0.7-0.5c2.2-0.1,4.4-0.2,6.6-0.7c0.5,0.4,0.5,1.2,1.2,1.4c-0.1,0.4,0.2,0.7,0.3,1
			c0.7,1.4,1.3,2.8,1.6,4.5c-0.4-0.3-0.6-0.5-0.9-0.8c-0.1-0.1-0.1-0.3-0.2-0.2c-0.1,0.1,0,0.2,0.1,0.3c0.9,2.5,1.8,5.1,1.9,7.8
			c-0.6-0.2-0.7-1-1.4-1.2C644,378.6,643.6,381,643.3,383.3z"/>
		<path class="st11" d="M597.4,357.2c-0.1,0.3-0.1,0.7-0.2,1c-1.1-0.1-2.2-0.1-3.2-0.2c-0.3,0-0.6,0.1-0.7-0.3
			c0.4-0.7,1.1-0.9,1.8-1.3C595.9,356.5,596.6,357.1,597.4,357.2z"/>
		<path class="st11" d="M631.2,358.1c-0.1-0.3-0.1-0.7-0.2-1c0.9,0,1.6-0.7,2.4-0.8c0.6,0.4,1.3,0.6,1.8,1.3
			c-0.8,0.5-1.7,0.3-2.5,0.4C632.2,358.2,631.7,358.1,631.2,358.1z"/>
		<path class="st11" d="M640.1,361.9c-2.7,0.4-5.5,0.2-8.2,0c-0.1,0-0.2,0-0.4,0c0-0.6,0-1.1,0-1.7c2,0,4-0.5,6-0.8
			C638.4,360.2,639.4,360.9,640.1,361.9z"/>
		<path class="st11" d="M596.5,362.1c-0.3-0.2-0.6-0.2-0.9-0.2c-2.4,0.3-4.8,0.3-7.3,0c0.7-0.9,1.4-1.8,2.3-2.4
			c1.5,0,2.9,0.5,4.3,0.6c0.6,0.1,1.2,0.1,1.9,0.1c0,0.5,0,1,0,1.5C596.6,361.7,596.5,361.8,596.5,362.1z"/>
		<path class="st11" d="M617.6,370.6c-0.2,0.2-0.4,0.2-0.6,0.1c-1.8-1-3.7-1-5.5,0c-0.2,0.1-0.4,0.1-0.6-0.1l0,0
			c0.1-0.1,0.1-0.1,0.2-0.2l0,0c0.6-0.2,1.1-0.5,1.7-0.7c1.5-0.5,2.9-0.2,4.2,0.6c0.1,0.1,0.2,0.1,0.4,0.1l0,0
			C617.4,370.5,617.5,370.5,617.6,370.6L617.6,370.6z"/>
	</g>
	<g>
		<path class="st9" d="M612.3,342.4c0.9-0.2,1.3-0.8,1.7-1.5c0.2,0,0.4,0,0.5,0c0.3,0.7,0.8,1.4,1.7,1.5c0,0.3,0.2,0.5,0.4,0.6
			c0.5,0.5,1,1,1.8,0.9c0.2,0.4,0.5,0.8,1.1,0.7c0.5,0.5,1.1,0.9,1.9,1c0.6,0.4,1.1,0.8,1.9,0.9c0.1,0.6,0.8,0.4,1,0.9
			c0,0.2,0.2,0.3,0.4,0.3l0,0c0,0.3,0,0.6,0.4,0.5l0,0c-0.1,0.3,0.1,0.6,0.3,0.8c1.3,1.6,1.9,3.4,2.3,5.3c0.2,1.1,0.2,2.1-1.1,2.7
			c-0.5,0.2-0.8,0.6-1.1,1c-0.2,0.4-0.8,0.8-0.5,1.1c0.5,0.9-0.2,1.1-0.6,1.5c-1,1.1-2.3,0.8-3.5,1c-2.2,0.3-4.2,2.1-4.5,4
			c0,0.2,0.1,0.5-0.2,0.7c-0.4,0.2-0.3-0.4-0.6-0.4c-0.2,0.2-0.1,0.5-0.1,0.8c0.2,1.5,1.1,2.6,2,3.6c-0.1,0-0.3,0-0.4-0.1
			c-1.3-0.8-2.7-1.1-4.2-0.6c-0.6,0.2-1.1,0.5-1.7,0.7c0-0.3,0.3-0.4,0.5-0.6c1-1.1,1.6-2.4,1.6-3.9c-0.4,0-0.4,0.6-0.7,0.4
			c-0.3-0.1-0.1-0.5-0.2-0.7c-0.2-0.8-0.5-1.5-1-2.1c-1.3-1.5-3-2-4.9-2.1c-1.2,0-2.1-0.6-2.7-1.6c-0.1-0.2-0.3-0.3-0.1-0.5
			c0.5-0.4,0.1-0.7-0.1-1.1c-0.4-0.8-1.1-1.4-1.9-1.8c-0.4-0.2-0.6-0.5-0.6-1c0-1.6,0.5-3.1,1.1-4.6c0.4-1,1.3-1.7,1.5-2.8l0,0
			c0.4,0,0.4-0.3,0.4-0.5l0,0c0.2,0,0.3-0.1,0.4-0.3c0.2-0.5,0.9-0.3,1-0.9c0.7-0.1,1.3-0.6,1.9-0.9c0.7-0.2,1.4-0.4,1.9-1
			c0.6,0,0.9-0.3,1.1-0.7c0.8,0,1.2-0.5,1.8-0.9C612.1,342.8,612.2,342.6,612.3,342.4z"/>
		<path class="st9" d="M609.6,372.1c0.4-0.5,0.7-1.2,1.3-1.5c0.2,0.2,0.4,0.2,0.6,0.1c1.8-1,3.7-1,5.5,0c0.2,0.1,0.4,0.1,0.6-0.1
			c0.6,0.3,0.9,1,1.3,1.5c0,1.1-0.8,1.9-1.1,2.9c-0.4,1.7-0.4,3.3-0.1,5c0.4,2.2-1.6,4.1-3.8,3.9c-2.2-0.3-3.2-1.8-3-4.1
			c0.2-2.2,0.4-4.5-0.9-6.5C609.7,373,609.5,372.6,609.6,372.1z M614.2,378.7c-1.6,0-2.8,1-2.8,2.3c0,1.3,1.3,2.4,2.8,2.4
			s2.7-1.1,2.8-2.4C617,379.7,615.8,378.7,614.2,378.7z"/>
		<path class="st9" d="M620.1,367.4c-1.1,0-1.8-0.6-1.8-1.5c0-0.8,0.9-1.5,1.9-1.5c0.9,0,1.5,0.6,1.5,1.5
			C621.7,366.9,621.1,367.4,620.1,367.4z M619.7,364.8c0,0.4,0.7,0.5,0.4,1c-0.3,0.5-0.8,0.3-1.2,0.2c0.3,0.9,0.9,1.3,1.6,1
			c0.7-0.2,1-0.7,0.8-1.4C621.1,364.8,620.5,364.6,619.7,364.8z"/>
		<path class="st9" d="M608.3,367.4c-1,0-1.6-0.5-1.6-1.5c0-0.9,0.6-1.5,1.5-1.5c1,0,1.8,0.7,1.8,1.5
			C610.1,366.8,609.4,367.4,608.3,367.4z M608.7,364.9c-0.9-0.2-1.5,0.1-1.6,0.7c-0.1,0.7,0.1,1.2,0.8,1.4c0.8,0.2,1.3-0.1,1.7-1
			c-0.4,0-0.9,0.3-1.2-0.2C608.1,365.3,608.7,365.2,608.7,364.9z"/>
	</g>
	<g>
		<path class="st12" d="M617.4,370.4c-1-1.1-1.8-2.2-2-3.6c0-0.3-0.2-0.5,0.1-0.8c0.3-0.1,0.2,0.6,0.6,0.4c0.3-0.1,0.2-0.5,0.2-0.7
			c0.3-1.9,2.3-3.7,4.5-4c1.2-0.2,2.6,0.1,3.5-1c0.4-0.4,1.1-0.7,0.6-1.5c-0.2-0.4,0.3-0.8,0.5-1.1c0.2-0.4,0.6-0.8,1.1-1
			c1.3-0.5,1.3-1.6,1.1-2.7c-0.4-1.9-1-3.8-2.3-5.3c-0.2-0.2-0.3-0.5-0.3-0.8c0.6,0.2,0.9,0.7,1.5,1c0.4,0.5,0.9,1,1.3,1.6
			c0.2,0.5,0.4,0.9,0.9,0.9c0,0.8,0.5,1.3,0.9,1.9c0,0.6,0.5,0.8,0.7,1.2c-0.1,0.9,0.4,1.6,0.6,2.4c0.1,0.3,0.1,0.7,0.2,1
			c0.1,0.7,0.2,1.4,0.4,2.1c0,0.6,0,1.1,0,1.7c0,0.1,0,0.3,0.1,0.4c0,0.2,0,0.4,0,0.7c-0.1,0.8,0.1,1,0.9,1c0.7,0,1.5,0.1,2.2,0.1
			c0,0.5-0.3,0.5-0.7,0.5c-0.7,0-1.3,0-2.1,0c0.1,0.2,0.1,0.3,0.1,0.3c0.5,0.4,1.1,1,1,1.4c-0.2,0.5-1,0.1-1.5,0.2
			c-0.5,0.1-1.4-0.1-0.9,1c0.2,0.4-0.3,0.3-0.5,0.3c-2.2-0.4-3.9,0.5-5.5,1.7c-1.2,0.9-2.4,1.8-3.8,2.4c-0.7,0.3-1.4,0.2-2,0.2
			c-0.4-0.5-0.7-1.2-1.3-1.5l0,0C617.5,370.5,617.4,370.5,617.4,370.4L617.4,370.4z M620.1,367.4c1,0,1.6-0.5,1.6-1.5
			c0-0.9-0.6-1.5-1.5-1.5c-1,0-1.9,0.7-1.9,1.5C618.3,366.8,619,367.4,620.1,367.4z"/>
		<path class="st12" d="M603.5,348.2c-0.2,1.1-1.1,1.8-1.5,2.8c-0.6,1.5-1.1,3-1.1,4.6c0,0.5,0.2,0.7,0.6,1c0.8,0.5,1.5,1,1.9,1.8
			c0.2,0.3,0.6,0.6,0.1,1.1c-0.2,0.1,0,0.3,0.1,0.5c0.7,1,1.5,1.5,2.7,1.6c1.9,0.1,3.6,0.6,4.9,2.1c0.5,0.6,0.9,1.3,1,2.1
			c0.1,0.2-0.1,0.5,0.2,0.7c0.4,0.2,0.3-0.4,0.7-0.4c-0.1,1.5-0.6,2.8-1.6,3.9c-0.2,0.2-0.5,0.2-0.5,0.6l0,0
			c-0.1,0.1-0.1,0.1-0.2,0.2l0,0c-0.6,0.3-0.9,1-1.3,1.5c-2,0.3-3.4-0.9-4.8-1.9c-1-0.7-2-1.6-3.2-2.1c-1-0.4-2.1-0.7-3.2-0.4
			c-0.4,0.1-0.9,0.2-0.4-0.5c0.3-0.4-0.2-0.5-0.5-0.6s-0.6-0.1-0.8-0.1c-0.4-0.1-1.1,0.3-1.3-0.2c-0.1-0.4,0.5-0.8,0.8-1.2
			c0.1-0.1,0.3-0.1,0.3-0.5c-0.7,0-1.3,0-2,0c-0.4,0-0.7,0.1-0.7-0.5c1.1-0.1,2.2,0,3.2-0.3c0.2-0.1,0.2-0.1,0-0.2
			c0-0.4-0.1-0.9-0.1-1.3c0-0.2,0-0.4,0-0.6c0-0.5,0-1,0-1.5c0.1-0.7,0.2-1.4,0.4-2.1c0.1-0.3,0.1-0.7,0.2-1
			c0.2-0.8,0.7-1.5,0.6-2.4c0.3-0.4,0.8-0.6,0.7-1.2c0.4-0.6,1-1.1,0.9-1.9c0.5-0.1,0.8-0.5,0.9-0.9c0.5-0.5,1-1,1.3-1.6
			C602.5,348.9,602.9,348.4,603.5,348.2z M608.3,367.4c1.1,0,1.8-0.5,1.8-1.5c0-0.8-0.9-1.5-1.8-1.5c-1,0-1.5,0.6-1.5,1.5
			C606.7,366.8,607.3,367.4,608.3,367.4z"/>
		<path class="st12" d="M614.2,378.7c1.6,0,2.8,1,2.8,2.3c0,1.3-1.3,2.4-2.8,2.4c-1.4,0-2.8-1.1-2.8-2.4S612.6,378.7,614.2,378.7z
			 M615.8,382c-0.1-0.3-0.3-0.6-0.7-0.6c-0.3,0-0.6,0.3-0.6,0.6c0,0.3,0.2,0.6,0.6,0.6C615.4,382.7,615.8,382.5,615.8,382z
			 M613.9,382.1c-0.1-0.4-0.3-0.6-0.7-0.6c-0.3,0-0.6,0.3-0.6,0.6c0,0.4,0.4,0.6,0.7,0.6C613.7,382.7,613.9,382.4,613.9,382.1z"/>
	</g>
	<g>
		<path class="st13" d="M646.9,352.4c-0.6,0.2-0.9,0.7-1.3,1.1c-1.1,1.3-2.3,2.5-4,2.9c-1.7,0.5-3.5,0.9-5.2,1.2
			c-0.4,0.1-0.7,0.1-1.1,0c-0.4-0.7-1.1-0.9-1.8-1.3c2.1-1.1,4.2-2.1,6.2-3.4c1.1-0.8,2.3-1.6,3.3-2.7c0.8-0.9,1.8-1.6,2.9-2.1
			c-1.4,2-3,3.9-5.3,5.2c0.8,0.1,1.5-0.2,2.2-0.4c1.4-0.4,2.7-0.9,4-1.3c0.2-0.1,0.4-0.3,0.6,0C647.1,351.8,646.8,352.1,646.9,352.4
			z"/>
		<path class="st13" d="M593.3,357.7c-0.3,0.1-0.7,0.1-1,0c-1.8-0.3-3.6-0.7-5.3-1.2c-1.8-0.5-3-1.8-4.2-3.1c-0.4-0.4-0.7-0.8-1.2-1
			c0.1-0.4-0.2-0.6-0.4-0.8c0.3-0.5,0.6-0.1,0.8,0c1.7,0.6,3.4,1.1,5.1,1.6c0.2,0.1,0.4,0.1,0.8,0c-2.2-1.3-3.8-3.2-5.2-5.3
			c0.7,0.4,1.5,0.8,2,1.3c2.7,3,6.2,5,9.8,6.7c0.2,0.1,0.4,0.2,0.5,0.3C594.4,356.8,593.7,357,593.3,357.7z"/>
		<path class="st13" d="M647.6,363.8c-1.7,0.4-3.3,0.9-5.1,1c-0.7-0.2-0.7-1-1.2-1.4c1.2-0.4,2.5-0.7,3.7-1.1s2.3-0.9,3.2-1.7
			c-1,0.2-2,0.2-3,0.4c-1.7,0.5-3.5,0.7-5.2,0.8c-0.8-0.9-1.7-1.7-2.6-2.5c2.8-0.7,5.4-2,8.2-2.8c-0.7,0.9-1.8,1.3-2.8,1.9
			c-1,0.5-2.1,0.8-3.1,1.2c1.5,0,2.9,0,4.4,0c2.6-0.1,5.2-0.7,7.7-1.4c-0.1,0.7-0.6,1-1,1.5c-1.2,1-2.5,1.8-3.9,2.6
			c-0.3,0.1-0.6,0.1-0.8,0.5c0.8,0.2,1.6,0.1,2.4,0.1C648.5,363.6,647.8,363.3,647.6,363.8z"/>
		<path class="st13" d="M585.9,364.8c-1.7-0.1-3.4-0.6-5.1-1c-0.1-0.5-0.7-0.3-0.9-0.6c0.7-0.3,1.6,0.1,2.5-0.4
			c-1.8-0.6-3-1.8-4.5-2.6c-0.5-0.7-1.1-1.2-1.5-1.9c1.6,0.2,3,0.8,4.6,1.1c2.6,0.4,5.1,0.5,7.7,0.3c-2.2-0.6-4.3-1.7-6.1-3
			c2.8,0.7,5.4,1.9,8.1,2.8c-0.9,0.7-1.6,1.6-2.3,2.4c-2.8-0.1-5.5-0.8-8.2-1.2c0.9,0.6,1.8,1.1,2.7,1.5c1.3,0.6,2.7,0.8,4,1.3
			C586.6,363.9,586.5,364.5,585.9,364.8z"/>
		<path class="st13" d="M598.8,353.6c0,0.6-0.5,0.8-0.7,1.2c-0.4,0.2-0.7,0.2-1.1,0.1c-1.5-0.5-2.9-1.1-4.3-1.7
			c-3.3-1.4-5.4-3.8-7-7c1.8,1.3,3.5,2.8,5.7,3.5c-0.7-0.8-1.4-1.6-2.1-2.7C592.7,349,595.4,351.7,598.8,353.6z"/>
		<path class="st13" d="M630.4,354.8c-0.3-0.4-0.8-0.6-0.7-1.2c3.3-1.8,6-4.5,9.4-6.5c-0.6,1.1-1.3,1.9-2.1,2.7
			c1.2-0.2,2.1-0.9,3-1.5c0.9-0.6,1.8-1.3,2.7-2c0,0.1,0.1,0.2,0.1,0.2c-1.1,2.2-2.6,4.2-4.8,5.5c-2,1.2-4.1,2.1-6.3,2.8
			C631.3,354.9,630.8,355,630.4,354.8z"/>
		<path class="st13" d="M607.1,345.6c-0.6,0.4-1.1,0.8-1.9,0.9c-1.7-1.9-3.2-3.8-4.5-5.9c0.1,0,0.1-0.1,0.2-0.1
			c0.5,0.3,0.7,0.1,0.5-0.4c-0.5-1.1-0.3-2.2-0.6-3.4c0.9,1.1,1.5,2.3,2.4,3.3c0.1,0.1,0.2,0.2,0.2,0.4c0.2-0.2,0.1-0.4-0.1-0.5
			c-0.8-2.9-1.5-5.9-1.3-9.1c0.5,0.8,0.5,1.7,0.9,2.4c0.8,1.3,0.9,2.9,1.1,4.3c0.3,1.6,0.8,3.2,1.5,4.7
			C606.1,343.3,606.6,344.5,607.1,345.6z"/>
		<path class="st13" d="M610.1,343.9c-0.2,0.4-0.5,0.8-1.1,0.7c-1.8-2.6-2.8-5.6-3.7-8.6c-0.6-1.7-0.2-3.4,0-5.1
			c0.2-1.2,0.2-2.5,0.8-3.7c0.3,2.9,0.6,5.6,1.4,8.3c0,0.3,0.1,0.5,0.4,0.7c0-0.3,0-0.5-0.1-0.7c0.1-1.8,0-3.6,0.6-5.3
			c0.3,0.5,0.4,1.1,0.3,1.7c-0.5,3-0.2,5.9,0.4,8.9C609.3,341.8,609.6,342.9,610.1,343.9z"/>
		<path class="st13" d="M619.4,344.6c-0.6,0-0.8-0.3-1.1-0.7c1.3-3.2,1.8-6.5,1.7-10c0-0.7-0.1-1.5-0.2-2.2c-0.1-0.6,0.1-1,0.4-1.5
			c0.1,1.5,0.3,2.9,0.4,4.4c0,0.5,0,1,0,1.7c0.4-0.5,0.3-1,0.5-1.5c0.6-2.5,1-4.9,1.3-7.5c0.5,3.1,1.7,6,0.6,9.3
			c-0.5,1.3-0.9,2.7-1.3,4C621.2,342,620.2,343.3,619.4,344.6z"/>
		<path class="st13" d="M623.2,346.5c-0.7-0.1-1.3-0.6-1.9-0.9c1.4-2.8,2.6-5.7,3.2-8.9c0.1-0.7,0.1-1.4,0.3-2
			c0.5-1.2,0.9-2.6,1.5-3.8c0.1,3.1-0.4,6-1.3,9c-0.1,0.1-0.2,0.2-0.1,0.4c0.1-0.1,0.2-0.1,0.3-0.2c0.9-1.1,1.6-2.4,2.5-3.5
			c-0.2,1.2-0.3,2.3-0.6,3.4c-0.1,0.4-0.3,0.9,0.5,0.5c0.1,0,0.1,0.1,0.2,0.1C626.4,342.7,624.8,344.6,623.2,346.5z"/>
		<path class="st13" d="M603.5,348.2c-0.6,0.2-0.9,0.7-1.5,1c-1.3-1-2.6-2.1-3.7-3.3c-1.1-1.2-2.3-2.3-3.2-3.7c-0.6-0.9-0.6-2-0.8-3
			c0.7,1.3,1.9,2.2,2.7,3.5c0.2,0.3,0.4,0.6,0.7,0.4c0.4-0.3-0.1-0.4-0.2-0.6c-0.4-0.8-1-1.6-0.9-2.8c0.7,0.8,1.4,1.5,2,2.2
			c0.1,0.1,0.1,0.3,0.2,0.1c0.1-0.1,0-0.2-0.1-0.3c-0.9-1.9-1.7-3.8-2.1-5.8c0.5,0.4,0.9,0.8,1.1,1.4c1,4,3.2,7.4,5.8,10.5
			C603.5,347.8,603.5,348,603.5,348.2L603.5,348.2z"/>
		<path class="st13" d="M626.4,349.2c-0.5-0.2-0.9-0.8-1.5-1l0,0c0-0.2,0-0.4-0.1-0.6c1.5-1.8,2.7-3.7,3.9-5.7
			c1.2-2,1.3-4.4,2.9-6.2c-0.4,2.1-1.2,3.9-2.1,5.8c-0.1,0.1-0.3,0.2-0.2,0.4c0.1,0.1,0.2-0.1,0.3-0.2c0.6-0.7,1.2-1.3,2-2.1
			c0.2,1.4-0.7,2.3-1.3,3.4c0.4,0.1,0.6,0.1,0.9-0.3c0.8-1.2,2-2.2,2.8-3.6c-0.1,1-0.1,2.1-0.7,3c-0.7,0.9-1.4,1.8-2.2,2.5
			c-0.6,0.5-1,1.3-1.6,1.8C628.5,347.4,627.5,348.3,626.4,349.2z"/>
		<path class="st13" d="M628.7,351.7c-0.5-0.1-0.8-0.5-0.9-0.9c2-1.8,3.9-3.7,5.5-5.9c0.5-0.7,1.3-1,1.9-1.6
			c-0.2,1.2-0.8,2.3-1.4,3.3c-0.1,0.1-0.2,0.2,0,0.3c0,0,0.1-0.1,0.2-0.1c1.6-1.2,2.9-2.7,4.3-4.4c-0.4,2.6-1.4,4.3-3.5,5.6
			c-1.2,0.7-2.3,1.7-3.6,2.5C630.3,350.9,629.5,351.3,628.7,351.7z"/>
		<path class="st13" d="M600.6,350.7c-0.2,0.5-0.4,0.9-0.9,0.9c-2-1-4-2-5.6-3.6c-0.1-0.1-0.3-0.1-0.4-0.2c-1.9-1-3.2-3-3.4-5.4
			c1.4,1.5,2.6,3.1,4.2,4.3c0.1,0,0.2,0.1,0.2,0.1c0.2-0.1,0-0.2,0-0.3c-0.6-1-1.2-2.1-1.6-3.4c0.9,0.7,1.7,1.2,2.3,2.1
			C597,347.3,598.7,349.1,600.6,350.7z"/>
		<path class="st13" d="M612.3,342.4c0,0.3-0.2,0.5-0.4,0.6c-1.1-2.8-1.7-5.7-2.2-8.7c0.5,0.1,0.5,0.6,0.9,1
			c-0.2-1.8,0.2-3.5,0.4-5.3c0.3,0.5,0.3,0.9,0.5,1.3c0.9,2.8-0.1,5.6,0.4,8.3C612,340.5,612.2,341.4,612.3,342.4z"/>
		<path class="st13" d="M616.6,342.9c-0.3-0.1-0.4-0.3-0.4-0.6c0.5-2.4,0.9-4.9,0.6-7.3c-0.2-1.5,0.4-2.9,0.3-4.3
			c0-0.2,0.3-0.5,0.5-0.9c0.2,1.8,0.6,3.4,0.5,5.2c0.2-0.3,0.3-0.5,0.5-0.8C618.3,337.3,617.7,340.2,616.6,342.9z"/>
		<path class="st13" d="M614.5,340.8c-0.2,0-0.4,0-0.5,0c-0.3-1.9-0.6-3.7-0.8-5.6c-0.2-1.4,0.4-2.5,1.1-3.6c1.1,1.3,1.3,2.7,1,4.4
			C614.9,337.6,614.7,339.2,614.5,340.8z"/>
		<path class="st13" d="M619.7,364.8c0.8-0.2,1.4,0,1.6,0.8c0.2,0.7-0.1,1.2-0.8,1.4c-0.8,0.2-1.3-0.1-1.6-1
			c0.4,0.1,0.9,0.3,1.2-0.2C620.3,365.3,619.7,365.2,619.7,364.8z"/>
		<path class="st13" d="M608.7,364.9c-0.1,0.3-0.7,0.5-0.4,1s0.8,0.2,1.2,0.2c-0.4,0.9-0.9,1.3-1.7,1c-0.7-0.2-0.9-0.7-0.8-1.4
			C607.2,364.9,607.9,364.7,608.7,364.9z"/>
		<path class="st13" d="M615.8,382c-0.1,0.5-0.4,0.6-0.7,0.7c-0.3,0-0.6-0.3-0.6-0.6c0-0.3,0.3-0.6,0.6-0.6
			C615.5,381.4,615.7,381.7,615.8,382z"/>
		<path class="st13" d="M613.9,382.1c-0.1,0.3-0.3,0.6-0.6,0.6s-0.7-0.2-0.7-0.6c0-0.3,0.3-0.6,0.6-0.6
			C613.6,381.4,613.8,381.7,613.9,382.1z"/>
	</g>
</g>
</svg>
