<?xml version="1.0" encoding="utf-8"?>
<!-- Generator: Adobe Illustrator 24.2.1, SVG Export Plug-In . SVG Version: 6.00 Build 0)  -->
<svg version="1.1" id="bf987f75-b15a-4b7f-a137-75b4492c4a21"
	 xmlns="http://www.w3.org/2000/svg" xmlns:xlink="http://www.w3.org/1999/xlink" x="0px" y="0px" viewBox="0 0 1150 800"
	 style="enable-background:new 0 0 1150 800;" xml:space="preserve">
<style type="text/css">
	.st0{opacity:0.1;fill:#F9A826;enable-background:new    ;}
	.st1{opacity:0.2;}
	.st2{fill:#3F3D56;}
	.st3{fill:#F9A826;}
	.st4{opacity:0.1;enable-background:new    ;}
	.st5{fill:url(#SVGID_1_);}
	.st6{fill:#FFFFFF;}
	.st7{fill:#E6E6E6;}
	.st8{fill:#F2F2F2;}
	.st9{fill:#F95858;}
	.st10{fill:#F4B056;}
	.st11{fill:#3F3D56;stroke:#3F3D56;stroke-width:0.5;stroke-miterlimit:10;}
	.st12{fill:#A1616A;}
</style>
<g>
	<ellipse class="st0" cx="564.7" cy="769" rx="541" ry="31"/>
	<g class="st1">
		<path class="st2" d="M953.8,575.2c-0.6,1.6-1.3,3.2-2.2,4.7c-10.1-5.4-20.3-10.6-30.6-15.7c0.2-0.4,0.3-0.9,0.5-1.3
			c1.7-4.6,4.5-8.6,8.3-11.7c4.9-3.9,10.8-5.4,16-3.4c5.2,2,8.6,7,9.7,13.1C956.2,565.8,955.6,570.7,953.8,575.2z"/>
		
			<ellipse transform="matrix(0.3558 -0.9346 0.9346 0.3558 102.7975 1235.4637)" class="st2" cx="947.5" cy="543.2" rx="22.7" ry="17.3"/>
		
			<ellipse transform="matrix(0.3558 -0.9346 0.9346 0.3558 133.437 1227.9656)" class="st2" cx="957.4" cy="517.2" rx="22.7" ry="17.3"/>
		
			<ellipse transform="matrix(0.3558 -0.9346 0.9346 0.3558 164.1026 1220.4824)" class="st2" cx="967.3" cy="491.2" rx="22.7" ry="17.3"/>
		
			<ellipse transform="matrix(0.3558 -0.9346 0.9346 0.3558 194.6515 1212.9912)" class="st2" cx="977.2" cy="465.3" rx="22.7" ry="17.3"/>
		<path class="st3" d="M983.9,264.6c-1.1-3.6-2.1-7.4-2.7-11.2l45.3,9.3l-46.2-17.2c-1.5-22.8,6.4-45.3,21.9-62l49.6,55.6
			l-41.1-63.6c35.7-28.8,88-23.3,116.9,12.4s23.3,88-12.4,116.9c-2.9,2.4-6,4.5-9.3,6.5c1.7,5.7,2.9,11.6,3.5,17.6l-66.2,7.7
			l66.5,2.7c-1,28.1-16.2,53.7-40.3,68.1c13.7,43.8-10.8,90.4-54.6,104.1c-43.8,13.7-90.4-10.8-104.1-54.6
			c-11.4-36.6,3.6-76.2,36.5-96C935.9,324,951,284.3,983.9,264.6L983.9,264.6z"/>
		<path class="st4" d="M1104.4,365.4c-6.6,17.4-18.9,32.1-34.9,41.6c13.7,43.8-10.8,90.4-54.6,104.1
			c-43.8,13.7-90.4-10.8-104.1-54.6c-11.4-36.6,3.6-76.2,36.5-96C942,343.4,1107.7,356.7,1104.4,365.4z"/>
	</g>
	<g class="st1">
		<path class="st2" d="M182.3,554.2c0.5,2,1.2,3.9,2,5.8c12.7-4.9,25.5-9.5,38.4-14c-0.1-0.5-0.2-1.1-0.4-1.6
			c-1.3-5.6-4.1-10.8-8.1-15c-5.2-5.3-11.9-7.9-18.3-6.3c-6.4,1.6-11.2,7-13.4,14C181,542.6,180.8,548.5,182.3,554.2z"/>
		
			<ellipse transform="matrix(0.9715 -0.2372 0.2372 0.9715 -117.13 60.8899)" class="st2" cx="194.5" cy="517.2" rx="20.6" ry="27"/>
		
			<ellipse transform="matrix(0.9715 -0.2372 0.2372 0.9715 -109.7623 58.1269)" class="st2" cx="186.7" cy="485.2" rx="20.6" ry="27"/>
		
			<ellipse transform="matrix(0.9715 -0.2372 0.2372 0.9715 -102.3948 55.3639)" class="st2" cx="178.9" cy="453.2" rx="20.6" ry="27"/>
		
			<ellipse transform="matrix(0.9715 -0.2372 0.2372 0.9715 -95.0024 52.5977)" class="st2" cx="171.1" cy="421.1" rx="20.6" ry="27"/>
		<path class="st3" d="M192.5,183.6c1.9-4.2,3.5-8.4,4.8-12.8l-54.7,4.2l57-13.5c5.2-26.7-0.9-54.3-16.7-76.4l-66.7,58.2l57.7-68.9
			C136.2,35.1,73.7,33.8,34.3,71.6s-40.6,100.3-2.8,139.6c3.2,3.3,6.6,6.4,10.2,9.2c-2.9,6.5-5.2,13.2-6.7,20.2l76.9,18.8l-78.8-6.7
			C30.3,286,44.4,318.4,70.7,339c-22.6,49.6-0.6,108.1,49,130.7s108.1,0.6,130.7-49c18.9-41.5,6.9-90.4-28.9-118.6
			C240.3,260.7,228.3,211.7,192.5,183.6L192.5,183.6z"/>
		<path class="st4" d="M35.7,284.7c5.2,21.5,17.6,40.7,35,54.3c-22.6,49.6-0.6,108.1,49,130.7s108.1,0.6,130.7-49
			c18.9-41.5,6.9-90.4-28.9-118.6C230.3,282.8,33,274,35.7,284.7z"/>
	</g>
	
		<linearGradient id="SVGID_1_" gradientUnits="userSpaceOnUse" x1="590.4642" y1="-908.4152" x2="590.4642" y2="-698.6563" gradientTransform="matrix(1 0 0 -1 -16.24 -239.99)">
		<stop  offset="0" style="stop-color:#808080;stop-opacity:0.25"/>
		<stop  offset="0.54" style="stop-color:#808080;stop-opacity:0.12"/>
		<stop  offset="1" style="stop-color:#808080;stop-opacity:0.1"/>
	</linearGradient>
	<path class="st5" d="M630.8,496.3c-0.4,0-0.8,0.1-1.3,0.1c0.1-0.6,0.2-1.2,0.1-1.8c-0.1-2.5-0.8-5-2-7.2c-0.7-1.3-1.6-2.6-2.5-3.8
		c-2.7-3.8-5.2-7.6-8.2-11.1c-1.3-1.4-2.4-3-3.2-4.7c-0.3-0.9-0.7-1.8-1.1-2.7c-1.2-1.8-3.3-2.9-5.5-2.6c-2.1,0.3-4.1,1.3-5.5,2.9
		c-0.8,0.9-1.5,2.3-0.8,3.3s2.2,1.1,2.3,2.3c0,0.6,0,1.6-0.6,1.8c-1.1,0.3-2.1,0.7-3.1,1.3c-0.9,0.6-1.5,1.7-1.6,2.8
		c1.7,0.3,3.2-1.2,4.8-2c2-0.8,4.2-0.9,6.3-0.2c0.8,0.2,1.5,0.6,2.2,1.1c0.6,0.6,1,1.2,1.4,1.9c1.9,2.8,3.1,6,3.5,9.4l0.9,5.6
		c-1.3,0.1-2.6,0.3-3.9,0.5c-3.5,0.5-7,0.3-10.3-0.7c-3.5-1-7-2.8-10.6-2c-1.7,0.4-3.2,1.3-4.9,1.6c-1.3,0.1-2.7,0.1-4-0.2l-2.8-0.4
		c-0.1-0.2-0.2-0.5-0.2-0.7c-0.6-2-0.8-4.1-0.8-6.2c6.1-0.3,10.7-5.5,10.4-11.6c-0.1-1.4-0.4-2.8-1-4c1.5-0.8,2.7-2.1,3.5-3.5
		l-0.7-0.1l0.7-1c-0.6-0.3-0.7-1.1-0.4-1.6c0.1-0.1,0.1-0.2,0.2-0.2c-0.6-0.3-1.2-0.4-1.9-0.4c0.2-0.4-0.1-0.9-0.5-1
		s-0.9-0.1-1.3-0.1c-0.6,0-1.3-0.2-1.9-0.4c-4.3-1.5-8.9-2.8-13.3-1.5c-1.9,0.6-3.7,1.5-5.3,2.8c-3.2,1.8-4.4,5.8-2.8,9.1
		c0.7,1.6,1.1,3.3,1.4,5.1c0.1,1.6-0.1,3.3-0.5,4.8c1,0.3,1.9,0.5,2.9,0.6c-0.6,2.1-1.5,4.2-2.9,5.9c-0.6,0.8-1.3,1.5-2,2.2h-0.1
		c-2,0.4-4,0.6-6,0.7c-2.1,0-4.2-0.8-6.3-0.7c-1.3,0.1-2.5,0.4-3.7,0.8c-5.5,1.6-11.2,2.4-16.9,2.3l-0.7,0.1l0.6-4.1
		c0.3-3.4,1.5-6.6,3.5-9.4c0.4-0.7,0.8-1.3,1.4-1.9c0.6-0.5,1.4-0.9,2.2-1.1c2-0.7,4.3-0.6,6.3,0.2c1.6,0.8,3,2.2,4.8,2
		c-0.1-1.1-0.7-2.2-1.6-2.8c-0.9-0.6-2-1.1-3.1-1.3c-0.6-0.2-0.7-1.2-0.6-1.8c0.1-1.1,1.7-1.4,2.3-2.3s0-2.4-0.8-3.3
		c-1.4-1.6-3.4-2.7-5.5-2.9c-2.2-0.2-4.3,0.8-5.4,2.6c-0.4,0.9-0.8,1.8-1.1,2.7c-0.8,1.7-1.9,3.3-3.2,4.7c-3,3.5-5.5,7.4-8.2,11.1
		c-0.9,1.2-1.7,2.4-2.5,3.8c-1.2,2.2-1.9,4.7-2,7.2c0,0.6,0,1.2,0.1,1.8c-0.1,0.1-0.1,0.3-0.1,0.5c0.1,0.6,0.3,1.1,0.8,1.4
		c1.5,1.5,3.1,3.1,5.2,3.8c1.3,0.3,2.6,0.5,3.9,0.7c3.2,0.6,6.1,2.4,9.3,2.4c2.2,0,4.4-0.9,6.6-0.6c3,0.4,5.2,2.8,7,5.2
		c1.6,1.8,2.7,4,3.5,6.3c0.7,2.8,0.3,5.9,1.8,8.4c0.4,0.5,0.7,1.1,0.9,1.7c0,0.9-0.2,1.9-0.6,2.7c-1.3,3.9,1.5,8,1.2,12
		c-0.1,2-1,3.8-1.1,5.7c-0.2,2.5,0.9,5.3-0.5,7.4c0.8-0.4,1.7-0.8,2.6-1.2c-4.2,12.3-8,25-7.7,37.9c0.2,8.4,2,17.6-2.8,24.5
		c-0.7,0.8-1.2,1.8-1.6,2.8c-0.4,1.3,0,2.8,0.3,4.2c0.9,6-2.3,11.9-2.6,18c0,1.9,0.1,3.8,0.4,5.6l1.2,10.1c-1.2,0.3-2.3,0.8-3.2,1.6
		c-1.2,1-2.3,2.6-1.8,4.1c0.5,1.2,1.8,1.8,3.1,2.1c1.3,0.1,2.5,0.6,3.6,1.4c0.3,0.4,0.7,0.7,1.1,1.1c0.7,0.4,1.6,0.6,2.4,0.5
		c1.5-0.1,3-0.2,4.6-0.4c0.3,0,0.6-0.1,0.9-0.3c0.4-0.4,0.6-1,0.5-1.5c0.1-1.5,0-3.1-0.2-4.6c-0.1-0.3-0.1-0.6-0.2-0.9
		c0.5-1.3,0.9-2.6,1.1-4c0.3-2,0.4-4.1,0.5-6.1c0.3-5.2,1-10.4,1.8-15.6l1-6.7c0.3-2.2,0.6-4.4,1-6.6c1.9-11.9,4.7-23.5,8.6-34.9
		c0.8-2.4,2.3-5.3,4.9-5.3l1.5,3c2,3.8,3.2,7.9,4.7,11.9c2,5.2,1.3,11.3,4,16.1c0.4,0.8,1,1.6,1.3,2.4c0.5,1.3,0.8,2.7,0.8,4.1
		l1.8,18c0.8,8.1,1.7,16.4,5.3,23.7c0.2,0.5,0.5,0.9,0.8,1.3c-0.1,1.2-0.1,2.4,0,3.6c-0.2,0.8,0.3,1.5,1,1.7c0.1,0,0.3,0,0.4,0
		c1.5,0.2,3,0.3,4.5,0.4c0.8,0.1,1.7,0,2.4-0.5c0.4-0.3,0.8-0.7,1.1-1.1c1.1-0.8,2.3-1.2,3.6-1.4c1.3-0.3,2.7-0.9,3.1-2.1
		c0.6-1.5-0.5-3.1-1.8-4.1c-1-0.9-2.2-1.5-3.6-1.7c-0.5,0-1.1,0-1.6-0.1c0.1-0.7,0.2-1.3,0.1-2c-0.1-0.8-0.2-1.6-0.1-2.4
		c0.2-0.8,0.5-1.6,0.8-2.3c1.2-3.5-1.3-7.1-2.2-10.8c-1.2-4.8,0.6-9.9,0.3-14.8c-0.5-7.8-5.9-15.1-4.5-22.7
		c1.2-6.1,0.2-12.4-0.9-18.5l-4-22.8c-0.3-1.9-0.8-3.7-1.5-5.4c0.7-0.1,1.5-0.3,2.2-0.6c1-2.4,0.8-5.1,0.5-7.8s-1-5.2-1.3-7.8
		c-0.3-2.1-0.5-4.2-0.5-6.3c-0.1-2.1,0-4.2,0.4-6.2c0.5-1.8,1.1-3.5,1.9-5.2c1.9-4.9,4.3-9.5,7-14c4.1-0.3,8.1-0.7,12.2-1
		c1,0,2-0.2,2.9-0.4c1.2-0.4,2.5-0.8,3.7-1.1c0.5,0,0.9-0.1,1.4-0.3c0.9-0.4,1.5-1.6,2.4-1.6c0.4,0,0.7,0,1.1,0c0.4-0.1,0.7-0.6,1-1
		c0.6-0.7,1.6-0.8,2.4-1.3C630.9,499.7,631.5,497.9,630.8,496.3z"/>
	<g>
		<rect x="173.5" y="106.6" class="st6" width="828.9" height="614"/>
		<rect x="171.5" y="150.3" class="st7" width="830.6" height="87.6"/>
		<path class="st8" d="M783.7,687.8H535.9c-4.4,0-8,3.6-8,8v24.8h263.8v-24.8C791.7,691.4,788.1,687.8,783.7,687.8z"/>
		<path class="st2" d="M993.8,102H181.5c-6.5,0-11.7,5.7-11.7,12.7v596.1c0,7,5.2,12.7,11.7,12.7h812.2c6.5,0,11.7-5.7,11.7-12.7
			V114.7C1005.5,107.6,1000.3,102,993.8,102z M1002.1,710.7c0,5-3.7,9-8.3,9H181.5c-4.7,0-8.3-4-8.3-9v-596c0-5,3.7-9,8.3-9h812.2
			c4.7,0,8.3,4,8.3,9L1002.1,710.7L1002.1,710.7z"/>
		<rect x="171.5" y="148.7" class="st2" width="832.3" height="3.3"/>
		<circle class="st9" cx="199.9" cy="127" r="10"/>
		<circle class="st10" cx="228.7" cy="127" r="10"/>
		<circle class="st10" cx="257.4" cy="127" r="10"/>
		<g>
			<path class="st11" d="M264.4,169.5c-13.7,0-24.7,11-24.7,24.7s11,24.7,24.7,24.7s24.7-11,24.7-24.7S278.1,169.5,264.4,169.5z
				 M281.1,208.2c-1.5,0-1.5,0-1.5,0h-9.8c0,0-2.2,0-2.2-2.2c0,0,0,0,0-0.2c0.2-1.2,0.3-2,0.5-2.3c0.3-0.3,1.7-1.7,3.2-2.8
				c1.3-1,3.5-2.5,5-3.2c2.7-0.8,2.5-1,3-1c0.2,0,0.5,0,0.5,0v-0.2c-0.2,0-0.2,0-0.3,0c-0.7,0-0.8,0-3.7,1c-3.2,1.2-7.8,5.3-8.5,6
				c-0.5,0.7-0.7,4-0.8,7.2c0,0.5,0,0.7,0,0.8c0,0.7-1.5,1.2-2.2,1.2s-2.2-0.5-2.2-1.2c0-0.2,0-0.5,0-0.8c-0.2-3.2-0.3-6.5-0.8-7.2
				c-0.7-0.7-5.3-4.8-8.5-6c-2.7-1-3-1-3.7-1c-0.2,0-0.2,0-0.3,0v0.2c0.2,0,1,0,1,0.2c0.5,0.2,0,0,2.7,0.8c1.7,0.5,3.7,2,5,3.2
				c1.5,1.2,3,2.5,3.2,2.8c0.2,0.2,0.3,1.2,0.5,2.3c0,0,0,0,0,0.2c0,2.2-2.2,2.2-2.2,2.2h-9.8c0,0,0,0-1.5,0c-0.7,0-1.3-0.5-1.7-1
				c-1.5-2.8-2.7-6.2-3.3-10c0,0,0.3,1.2,1.5,2.7c-0.2-1-0.3-2-0.5-3c0,0,0.3,1.2,1.3,2.7c-0.2-1-0.3-2-0.3-3c0,0,0.3,1.2,1.3,2.7
				c-0.8-2.8-2-5.5-1.8-9.2c0,0,0.3,1,1.2,2.3c0-0.8-0.2-1.7-0.2-2.5c0,0,0.3,1,1.2,2.3c0-0.8-0.2-1.7,0-2.5c0,0,0.3,1,1,2.3
				c-0.7-2.3-1.3-4.7-0.8-7.5c0,0,0.3,0.5,1,1.3c0-0.5,0.2-1,0.2-1.5c0,0,0.3,0.5,0.8,1.3c0-0.5,0.2-1,0.2-1.5c0,0,0.2,0.5,0.8,1.3
				c-0.3-1.7-0.3-3.3,0.3-5.2c0,0,0.2,0.8,0.5,2c0.2-0.7,0.3-1.3,0.5-2c0,0,0,0.8,0.5,2c0.2-0.7,0.3-1.3,0.5-2c0,0,0,0.8,0.5,2
				c0.5-1.7,0.3-3.2,1.5-4.8c0,0,0,0.7,0.2,1.7c0.2-0.5,0.5-1,0.8-1.5c0,0,0,0.7,0.2,1.7c0.2-0.5,0.5-1,0.8-1.5c0,0,0,0.7,0.2,1.5
				c0.2-0.5,0.5-1,0.8-1.5c0,0,0,0.7,0.2,1.5c0-1.2,0.3-2.3,1.7-3.3c0,0,0,0.3,0.2,0.8c0.2-0.2,0.5-0.5,0.7-0.7c0,0,0,0.3,0.2,0.8
				c0.2-0.2,0.5-0.5,0.7-0.7c0,0,0,0.3,0.2,0.8c0.2-0.2,0.5-0.5,0.7-0.7c0,0,0,0.2,0,0.3c0.2-0.7,0.5-1.2,1-1.5c0,0,0,0.5,0.2,1
				c0.2-0.3,0.3-0.5,0.7-0.8c0,0,0,0.5,0.2,1c0.2-0.3,0.3-0.5,0.7-0.8c0,0,0,0.5,0.2,1l0.2-1l0.2,1c0.2-0.7,0.2-1,0.2-1
				c0.3,0.2,0.5,0.5,0.7,0.8c0.2-0.7,0.2-1,0.2-1c0.3,0.2,0.5,0.5,0.7,0.8c0.2-0.7,0.2-1,0.2-1c0.5,0.5,0.8,1,1,1.5
				c0-0.2,0-0.3,0-0.3c0.3,0.2,0.5,0.5,0.7,0.7c0.2-0.5,0.2-0.8,0.2-0.8c0.3,0.2,0.5,0.5,0.7,0.7c0.2-0.5,0.2-0.8,0.2-0.8
				c0.3,0.2,0.5,0.5,0.7,0.7c0.2-0.5,0.2-0.8,0.2-0.8c1.2,1,1.7,2.2,1.7,3.3c0.2-0.8,0.2-1.5,0.2-1.5c0.3,0.5,0.7,1,0.8,1.5
				c0.2-0.8,0.2-1.5,0.2-1.5c0.3,0.5,0.7,1,0.8,1.5c0.2-1,0.2-1.7,0.2-1.7c0.3,0.5,0.7,1,0.8,1.5c0.2-1,0.2-1.7,0.2-1.7
				c1.2,1.5,1,3.2,1.5,4.8c0.3-1.2,0.5-2,0.5-2c0.3,0.7,0.5,1.3,0.5,2c0.5-1.2,0.5-2,0.5-2c0.3,0.7,0.5,1.3,0.5,2
				c0.5-1.2,0.5-2,0.5-2c0.7,1.8,0.7,3.5,0.3,5.2c0.5-0.8,0.8-1.3,0.8-1.3c0.2,0.5,0.2,1,0.2,1.5c0.7-0.8,0.8-1.3,0.8-1.3
				c0.2,0.5,0.2,1,0.2,1.5c0.7-0.8,1-1.3,1-1.3c0.5,2.8-0.2,5.2-0.8,7.5c0.8-1.3,1-2.3,1-2.3c0,0.8,0,1.7,0,2.5
				c0.8-1.3,1.2-2.3,1.2-2.3c0,0.8,0,1.8-0.2,2.5c0.8-1.3,1.2-2.3,1.2-2.3c0.2,3.7-1,6.3-1.8,9.2c1-1.5,1.3-2.7,1.3-2.7
				c-0.2,1-0.2,2-0.3,3c1.2-1.5,1.3-2.7,1.3-2.7c-0.2,1-0.3,2-0.5,3c1.2-1.5,1.5-2.7,1.5-2.7c-0.7,3.8-1.8,7.2-3.3,10
				C282.3,207.7,281.8,208.2,281.1,208.2z"/>
			<path class="st11" d="M267.8,198c-0.7,0.3-0.8,1.5-0.5,2s1.5,0.2,2-0.3l1-0.8C268.9,198.5,269.4,197.4,267.8,198z"/>
			<path class="st11" d="M260.9,198c-1.5-0.7-1.2,0.3-2.5,0.8l1,0.8c0.5,0.5,1.7,0.8,2,0.3C261.8,199.5,261.6,198.4,260.9,198z"/>
		</g>
		<path class="st8" d="M495.6,381.1H247.8c-4.4,0-8-3.6-8-8V269.4c0-4.4,3.6-8,8-8h247.8c4.4,0,8,3.6,8,8v103.7
			C503.6,377.5,500,381.1,495.6,381.1z"/>
		<path class="st8" d="M639.6,381.1H535.9c-4.4,0-8-3.6-8-8V269.4c0-4.4,3.6-8,8-8h103.7c4.4,0,8,3.6,8,8v103.7
			C647.6,377.5,644,381.1,639.6,381.1z"/>
		<path class="st3" d="M783.7,381.1H680c-4.4,0-8-3.6-8-8V269.4c0-4.4,3.6-8,8-8h103.7c4.4,0,8,3.6,8,8v103.7
			C791.7,377.5,788.1,381.1,783.7,381.1z"/>
		<path class="st8" d="M927.7,523.2H824c-4.4,0-8-3.6-8-8V269.4c0-4.4,3.6-8,8-8h103.7c4.4,0,8,3.6,8,8v245.8
			C935.7,519.6,932.1,523.2,927.7,523.2z"/>
		<path class="st8" d="M351.5,665.3H247.8c-4.4,0-8-3.6-8-8V411.5c0-4.4,3.6-8,8-8h103.7c4.4,0,8,3.6,8,8v245.8
			C359.5,661.7,355.9,665.3,351.5,665.3z"/>
		<path class="st3" d="M639.6,523.2H391.9c-4.4,0-8-3.6-8-8V411.5c0-4.4,3.6-8,8-8h247.8c4.4,0,8,3.6,8,8v103.7
			C647.6,519.6,644,523.2,639.6,523.2z"/>
		<path class="st3" d="M783.7,665.3H680c-4.4,0-8-3.6-8-8V411.5c0-4.4,3.6-8,8-8h103.7c4.4,0,8,3.6,8,8v245.8
			C791.7,661.7,788.1,665.3,783.7,665.3z"/>
		<path class="st8" d="M639.6,665.3H391.9c-4.4,0-8-3.6-8-8V553.6c0-4.4,3.6-8,8-8h247.8c4.4,0,8,3.6,8,8v103.7
			C647.6,661.7,644,665.3,639.6,665.3z"/>
		<path class="st8" d="M927.7,665.3H824c-4.4,0-8-3.6-8-8V553.6c0-4.4,3.6-8,8-8h103.7c4.4,0,8,3.6,8,8v103.7
			C935.7,661.7,932.1,665.3,927.7,665.3z"/>
		<path class="st8" d="M927.7,687.8H824c-4.4,0-8,3.6-8,8v23.8h119.7v-23.8C935.7,691.4,932.1,687.8,927.7,687.8z"/>
		<path class="st3" d="M495.6,687.8H391.9c-4.4,0-8,3.6-8,8v23.8h119.7v-23.8C503.6,691.4,500,687.8,495.6,687.8z"/>
		<path class="st3" d="M351.5,687.8H247.8c-4.4,0-8,3.6-8,8v23.8h119.7v-23.8C359.5,691.4,355.9,687.8,351.5,687.8z"/>
	</g>
	<g>
		<ellipse class="st3" cx="190" cy="769.6" rx="45.8" ry="8.8"/>
		<ellipse class="st2" cx="189.6" cy="753.8" rx="12.1" ry="15.8"/>
		<ellipse class="st2" cx="189.6" cy="734.4" rx="12.1" ry="15.8"/>
		<ellipse class="st2" cx="189.6" cy="715.2" rx="12.1" ry="15.8"/>
		<ellipse class="st2" cx="189.6" cy="695.9" rx="12.1" ry="15.8"/>
		<ellipse class="st2" cx="189.6" cy="676.6" rx="12.1" ry="15.8"/>
		<path class="st3" d="M144.6,506.1c-16.4,21.1-16.4,50.6,0.1,71.5c-16.4,20.9-16.4,50.4,0,71.4c19.7,25,56,29.4,81.1,9.7
			c25-19.7,29.4-56,9.7-81.1c12-15.4,15.4-35.8,9.2-54.2L200.8,538l41.1-21.4c-1.8-3.7-4-7.2-6.6-10.5c1.6-2,2.9-4.2,4.3-6.4
			c16.2-27.5,6.9-62.9-20.7-79c-27.5-16.2-62.9-6.9-79,20.7l42.4,31.1l-46-23.9c-6,14.8-5.5,31.3,1.1,45.8l34.3-0.2l-31.6,5.3
			C141.4,501.8,143,504,144.6,506.1L144.6,506.1z"/>
		<path class="st4" d="M144.7,577.5c-16.4,20.9-16.4,50.4,0,71.4c19.7,25,56,29.4,81.1,9.7c25-19.7,29.4-56,9.7-81.1
			c8-10.3,12.2-22.8,12.2-35.8C247.7,535.3,136.9,567.7,144.7,577.5z"/>
	</g>
	<circle class="st12" cx="578.8" cy="474.4" r="11"/>
	<path class="st12" d="M566.1,488c-1.1,1.4-2.4,2.7-3.8,3.8c6.5,3.9,14.1,5.1,21.5,3.5c-0.3-0.8-1.3-0.9-1.9-1.2
		c-0.9-0.6-1.5-1.6-1.7-2.7c-0.7-2.6-1-5.4-0.6-8.1c0.1-0.7,0.1-1.3,0-2c-0.4-1-1.1-1.8-2.1-2.3c-1.6-1-3.2-1.7-5-2.3
		c-1.8-0.5-2.9-0.8-2.9,1.3C569.5,481.7,568.3,485.2,566.1,488z"/>
	<path class="st12" d="M617.1,495l-1.1-7.1c-0.2-1.4-0.5-2.8-0.9-4.2c-0.7-1.8-1.5-3.5-2.6-5.1c-0.4-0.7-0.8-1.3-1.4-1.9
		c-0.6-0.5-1.4-0.9-2.2-1.1c-2-0.7-4.3-0.6-6.3,0.2c-1.6,0.8-3,2.2-4.8,2c0.1-1.1,0.7-2.2,1.6-2.8c0.9-0.6,1.9-1.1,3-1.3
		c0.6-0.2,0.7-1.2,0.6-1.8c-0.1-1.1-1.7-1.4-2.3-2.3s0-2.4,0.8-3.3c1.4-1.6,3.4-2.6,5.5-2.9c2.2-0.2,4.3,0.8,5.4,2.6
		c0.4,0.9,0.8,1.8,1.1,2.7c0.8,1.7,1.9,3.3,3.2,4.6c3,3.5,5.5,7.4,8.2,11.1c0.9,1.2,1.7,2.4,2.5,3.7c1.2,2.2,1.9,4.7,2,7.2
		c0.1,0.8,0,1.6-0.3,2.3c-0.6,1.1-1.8,1.7-3,1.7s-2.4-0.3-3.6-0.7l-4.4-1.5c-0.5-0.1-1-0.4-1.4-0.8C616.6,496,616.7,495.3,617.1,495
		z"/>
	<path class="st12" d="M530,496.5l1.1-7.1c0.2-1.4,0.5-2.8,0.9-4.2c0.7-1.8,1.5-3.5,2.6-5.1c0.4-0.7,0.8-1.3,1.4-1.9
		c0.6-0.5,1.4-0.9,2.2-1.1c2-0.7,4.3-0.6,6.3,0.2c1.6,0.8,3,2.2,4.8,2c-0.1-1.1-0.7-2.2-1.6-2.8c-0.9-0.6-1.9-1.1-3-1.3
		c-0.6-0.2-0.7-1.2-0.6-1.8c0.1-1.1,1.7-1.4,2.3-2.3s0-2.4-0.8-3.3c-1.4-1.6-3.4-2.7-5.5-2.9c-2.2-0.2-4.3,0.8-5.4,2.6
		c-0.4,0.9-0.8,1.8-1.1,2.7c-0.8,1.7-1.9,3.3-3.2,4.6c-3,3.5-5.5,7.4-8.2,11.1c-0.9,1.2-1.7,2.4-2.5,3.7c-1.2,2.2-1.9,4.7-2,7.2
		c-0.1,0.8,0,1.6,0.3,2.3c0.6,1.1,1.8,1.7,3,1.7s2.4-0.3,3.6-0.7l4.4-1.4c0.5-0.1,1-0.4,1.4-0.8C530.6,497.6,530.5,496.9,530,496.5z
		"/>
	<path class="st2" d="M609.2,658.6c1.2,1,2.3,2.6,1.8,4.1c-0.5,1.2-1.8,1.8-3.1,2.1c-1.3,0.1-2.5,0.6-3.6,1.4
		c-0.3,0.4-0.7,0.7-1.1,1c-0.7,0.4-1.6,0.6-2.4,0.5c-1.5-0.1-3-0.2-4.5-0.4c-0.3,0-0.6-0.1-0.9-0.3c-0.4-0.4-0.6-0.9-0.5-1.5
		c-0.1-1.5-0.1-3,0.2-4.5s1-2.9,2.2-3.9c1.2-0.9,4.7-3.6,6-1.9c0.3,0.5,0.2,1.1,0.7,1.5s1.3,0.2,1.8,0.2
		C607,657.1,608.2,657.7,609.2,658.6z"/>
	<path class="st2" d="M541.6,659.1c-1.2,1-2.3,2.6-1.8,4.1c0.5,1.2,1.8,1.8,3.1,2.1c1.3,0.1,2.5,0.6,3.6,1.4
		c0.3,0.4,0.7,0.7,1.1,1.1c0.7,0.4,1.6,0.6,2.4,0.5c1.5-0.1,3-0.2,4.5-0.4c0.3,0,0.6-0.1,0.9-0.3c0.4-0.4,0.6-0.9,0.5-1.5
		c0.1-1.5,0-3-0.2-4.5s-1-2.9-2.2-3.9c-1.2-0.9-4.7-3.6-6-1.9c-0.3,0.5-0.2,1.1-0.7,1.5s-1.3,0.2-1.8,0.2
		C543.8,657.7,542.6,658.3,541.6,659.1z"/>
	<path class="st2" d="M558.6,552.4c-4.5,13-8.9,26.5-8.5,40.2c0.2,8.3,2,17.5-2.8,24.4c-0.7,0.8-1.2,1.7-1.6,2.7
		c-0.4,1.3,0,2.8,0.2,4.1c0.9,6-2.3,11.9-2.6,17.9c0,1.9,0.1,3.7,0.4,5.6L545,658c0.4,3.7,5.1,5.2,8.8,5.7c1.7-2,2.8-4.5,3.1-7.2
		c0.3-2,0.4-4.1,0.5-6.1c0.3-5.2,1.1-10.4,1.8-15.5l1-6.6c0.3-2.2,0.6-4.4,1-6.5c1.9-11.8,4.8-23.4,8.6-34.6
		c0.8-2.4,2.3-5.3,4.9-5.3l1.5,2.9c2,3.7,3.2,7.9,4.7,11.8c2,5.2,1.3,11.2,4,16.1c0.4,0.8,1,1.6,1.3,2.4c0.5,1.3,0.7,2.6,0.8,4
		l1.8,17.9c0.8,8,1.7,16.3,5.3,23.5c0.4,0.9,0.9,1.6,1.7,2.2c1.5,1,3.5,0.5,5-0.5c2.3-1.7,3.6-4.5,3.5-7.4c-0.1-0.8-0.2-1.6-0.1-2.4
		c0.2-0.8,0.5-1.6,0.8-2.3c1.2-3.5-1.3-7.1-2.2-10.7c-1.2-4.8,0.6-9.8,0.3-14.8c-0.5-7.7-5.9-15-4.5-22.6c1.2-6.1,0.2-12.3-0.9-18.5
		l-4-22.7c-0.6-3.6-1.6-7.6-4.8-9.4c-1.8-0.8-3.8-1.2-5.8-1C574.7,550.5,566.8,551.7,558.6,552.4z"/>
	<path class="st9" d="M630.8,497.1c-2.9,0.3-5.8-0.3-8.4-1.7c-1-0.6-2-1.2-3.1-1.6c-2-0.7-4.2-0.1-6.3,0.2c-3.4,0.5-7,0.3-10.3-0.7
		c-3.5-1-7-2.8-10.6-2c-1.7,0.4-3.2,1.3-4.9,1.6c-1.3,0.1-2.7,0.1-4-0.2l-11.4-1.8c-2.6-0.5-5.2-0.7-7.8-0.6c-2,0.4-4,0.6-6,0.8
		c-2.1,0-4.2-0.8-6.3-0.7c-1.2,0.1-2.5,0.4-3.7,0.8c-5.5,1.6-11.2,2.4-16.9,2.3c-4.5,0.3-8.9,1.8-12.7,4.4c-0.5,0.3-0.9,0.8-1,1.4
		c0.1,0.5,0.4,1,0.8,1.4c1.5,1.5,3.1,3.1,5.2,3.8c1.3,0.3,2.6,0.5,3.9,0.7c3.2,0.6,6.1,2.4,9.3,2.4c2.2,0,4.4-0.9,6.6-0.6
		c3,0.4,5.2,2.8,7,5.2c1.6,1.8,2.7,4,3.5,6.3c0.7,2.8,0.3,5.9,1.8,8.3c0.4,0.5,0.7,1.1,0.9,1.7c0,0.9-0.2,1.9-0.6,2.7
		c-1.3,3.8,1.5,7.9,1.2,12c-0.1,1.9-1,3.8-1.1,5.7c-0.1,2.5,0.9,5.3-0.5,7.4c5.4-2.7,11.4-4,17.5-3.8c1,0,2,0.1,3,0.3
		c1.9,0.4,3.8,0.9,5.7,1.6c4.2,1.3,8.8,2.3,12.9,0.8c1-2.4,0.8-5.1,0.5-7.7c-0.3-2.6-1-5.2-1.3-7.8c-0.3-2.1-0.5-4.2-0.5-6.3
		c-0.1-2.1,0-4.2,0.4-6.2c0.5-1.8,1.1-3.5,1.9-5.2c1.9-4.9,4.3-9.5,7-14c4.1-0.3,8.1-0.7,12.2-1c1-0.1,2-0.2,2.9-0.4
		c1.2-0.4,2.5-0.8,3.7-1.1c0.5,0,0.9-0.1,1.4-0.3c0.9-0.4,1.5-1.5,2.4-1.6c0.4,0,0.7,0,1.1,0c0.4-0.1,0.7-0.6,1-1
		c0.6-0.7,1.6-0.8,2.4-1.3C630.7,500.4,631.4,498.7,630.8,497.1z"/>
	<path class="st2" d="M580.7,478.3c0.7,0.5,1.6,0.6,2.3,0.1c0.4-0.4,0.7-1,0.8-1.5c0.4-1.2,0.7-2.5,0.9-3.8c0.1-0.6,0.2-1.1,0.5-1.6
		c0.7-1.1,2.3-1.2,3.5-1.7c1.5-0.8,2.8-2.1,3.6-3.6l-0.7-0.1l0.7-1c-0.5-0.3-0.7-1-0.4-1.6c0.1-0.1,0.1-0.2,0.2-0.3
		c-0.6-0.3-1.2-0.5-1.9-0.4c0.2-0.4-0.1-0.9-0.5-1s-0.9-0.1-1.3-0.1c-0.6-0.1-1.3-0.2-1.9-0.4c-4.3-1.5-8.9-2.8-13.2-1.5
		c-1.9,0.6-3.7,1.5-5.3,2.8c-3.2,1.8-4.4,5.7-2.8,9c0.7,1.6,1.1,3.3,1.4,5c0.1,1.6-0.1,3.2-0.5,4.8c1.2,0.4,2.4,0.6,3.7,0.7
		c1.2,0.1,2.5-0.3,3.5-1c1-0.9,1.6-2.2,2.4-3.3c0.6-1,1.7-1.5,2.9-1.5C579.6,476.6,579.8,477.7,580.7,478.3z"/>
	<path class="st2" d="M553.8,664h-11.7c-0.8,0.2-1.4,1-1.2,1.8c0.1,0.6,0.6,1.1,1.2,1.2h2.3v19.9h-40.1c-0.2-0.3-0.5-0.5-0.9-0.5
		h-11.7c-0.8,0.2-1.4,1-1.2,1.8c0.1,0.6,0.6,1.1,1.2,1.2h2.3v20.4h-38.7c-0.1-0.6-0.5-1-1.1-1.1h-11.7c-0.8,0.1-1.4,0.9-1.3,1.7
		c0.1,0.6,0.6,1.1,1.3,1.3h1.2v21h-39.3c-0.1-0.1-0.3-0.1-0.5-0.1h-11.7c-0.8,0.2-1.4,1-1.2,1.8c0.1,0.6,0.6,1.1,1.2,1.2h1.2v20
		h-38.8c-0.2-0.4-0.6-0.7-1-0.7h-11.7c-0.8,0.2-1.4,1-1.2,1.8c0.1,0.6,0.6,1.1,1.2,1.2h1.2V780h264.5V664H553.8z"/>
	<g>
		<ellipse class="st3" cx="993.8" cy="777.5" rx="47.8" ry="9.2"/>
		<ellipse class="st2" cx="994.1" cy="761.1" rx="12.6" ry="16.5"/>
		<ellipse class="st2" cx="994.1" cy="740.9" rx="12.6" ry="16.5"/>
		<ellipse class="st2" cx="994.1" cy="720.8" rx="12.6" ry="16.5"/>
		<ellipse class="st2" cx="994.1" cy="700.7" rx="12.6" ry="16.5"/>
		<ellipse class="st2" cx="994.1" cy="680.5" rx="12.6" ry="16.5"/>
		<path class="st3" d="M1041.3,502.5c1.7-2.2,3.3-4.5,4.7-6.9l-33-5.4l35.8,0.3c7-15.1,7.4-32.4,1.2-47.8l-48,24.9l44.3-32.5
			c-16.8-28.8-53.7-38.4-82.5-21.7s-38.4,53.7-21.7,82.5c1.4,2.3,2.9,4.6,4.5,6.7c-2.7,3.4-5,7.1-6.9,11l42.9,22.4l-45.8-15.4
			c-6.5,19.3-2.9,40.6,9.6,56.6c-20.6,26.2-16,64.1,10.1,84.6c26.2,20.6,64.1,16,84.6-10.1c17.2-21.9,17.2-52.6,0-74.5
			C1058.3,555.2,1058.3,524.4,1041.3,502.5L1041.3,502.5z"/>
		<path class="st4" d="M933.6,539.7c0,13.5,4.5,26.6,12.8,37.3c-20.6,26.2-16,64.1,10.1,84.6c26.2,20.6,64.1,16,84.6-10.1
			c17.2-21.9,17.2-52.6,0-74.5C1049.3,566.7,933.6,533,933.6,539.7z"/>
	</g>
	<g>
		<path class="st4" d="M164,525.3c-4.9-8.4-12.1-14.4-20.4-17.9c-8.9,12.1-12.5,26.7-10.9,40.9L164,525.3z"/>
		<path class="st4" d="M144.7,649c6.2,7.9,14,13.7,22.6,17.3c1.5-4.4,2.2-9,2.2-13.6c0-9.3-3-18.7-9.1-26.5
			c12.2-15.5,12.2-37.4,0.1-53c1.2-1.5,2.4-3.2,3.4-4.9l-23.4-3.9l25.4,0.2c4.9-10.7,5.3-23,0.8-33.9l-34,17.7
			c1.2,10.4,5.2,20.5,12,29.2c-8.2,10.5-12.3,23.1-12.3,35.7S136.5,638.5,144.7,649z"/>
		<path class="st4" d="M160.8,768.6c0-1.6-2.9-3-7.8-4.2c-5.5,1.5-8.8,3.3-8.8,5.2c0,1.4,1.7,2.7,4.8,3.9
			C156.2,772.3,160.8,770.5,160.8,768.6z"/>
	</g>
	<g>
		<ellipse class="st3" cx="123" cy="768.6" rx="33.9" ry="6.5"/>
		<ellipse class="st2" cx="123.3" cy="756.8" rx="9" ry="11.7"/>
		<ellipse class="st2" cx="123.3" cy="742.5" rx="9" ry="11.7"/>
		<ellipse class="st2" cx="123.3" cy="728.3" rx="9" ry="11.7"/>
		<ellipse class="st2" cx="123.3" cy="713.9" rx="9" ry="11.7"/>
		<ellipse class="st2" cx="123.3" cy="699.7" rx="9" ry="11.7"/>
		<path class="st3" d="M156.7,573.3c1.2-1.5,2.4-3.2,3.4-4.9l-23.4-3.9l25.4,0.2c4.9-10.7,5.3-23,0.8-33.9l-34.1,17.7l31.4-23.1
			c-11.9-20.4-38.1-27.3-58.5-15.3c-20.4,11.9-27.3,38.1-15.3,58.5c1,1.6,2,3.3,3.2,4.7c-1.9,2.5-3.5,5.1-4.9,7.8l30.5,15.9
			l-32.7-11c-4.6,13.7-2.1,28.8,6.8,40.2c-14.6,18.6-11.3,45.5,7.2,60.1c18.6,14.6,45.5,11.3,60.1-7.2c12.2-15.5,12.2-37.4,0-52.9
			C168.8,610.7,168.8,588.9,156.7,573.3L156.7,573.3z"/>
		<path class="st4" d="M80.3,599.7c0,9.6,3.2,18.9,9.1,26.5c-14.6,18.6-11.3,45.5,7.2,60.1c18.6,14.6,45.5,11.3,60.1-7.2
			c12.2-15.5,12.2-37.4,0-52.9C162.4,618.9,80.3,594.9,80.3,599.7z"/>
	</g>
</g>
</svg>
