<?xml version="1.0" encoding="utf-8"?>
<!-- Generator: Adobe Illustrator 24.2.1, SVG Export Plug-In . SVG Version: 6.00 Build 0)  -->
<svg version="1.1" id="fe1bd44d-772d-49e6-8ede-d714f2b892c4"
	 xmlns="http://www.w3.org/2000/svg" xmlns:xlink="http://www.w3.org/1999/xlink" x="0px" y="0px" viewBox="0 0 222.2 160.2"
	 style="enable-background:new 0 0 222.2 160.2;" xml:space="preserve">
<style type="text/css">
	.st0{fill:#E6E6E6;}
	.st1{fill:#FFFFFF;}
	.st2{fill:#F4B056;}
	.st3{opacity:0.2;enable-background:new    ;}
</style>
<path class="st0" d="M1.2,0C0.5,0,0,0.5,0,1.2V159c0,0.7,0.5,1.2,1.2,1.2H221c0.7,0,1.2-0.5,1.2-1.2V1.2c0-0.7-0.5-1.2-1.2-1.2H1.2z
	"/>
<path class="st1" d="M208.9,13v112.1c0,1.6-1.3,2.8-2.8,2.8H15.7c-0.1,0-0.3,0-0.4,0c-1.4-0.2-2.4-1.4-2.4-2.8V13
	c0-1.6,1.3-2.8,2.8-2.8h190.4C207.6,10.1,208.9,11.4,208.9,13L208.9,13L208.9,13z"/>
<path class="st2" d="M138.6,128.4H17c-0.2,0-0.3,0-0.5,0L74,28.9c1.1-1.9,3.5-2.6,5.5-1.5c0.6,0.4,1.2,0.9,1.5,1.5l38.6,66.8
	l1.8,3.2L138.6,128.4z"/>
<polygon class="st3" points="138.6,128.4 97.1,128.4 117.4,98.8 118.9,96.7 119.6,95.6 121.5,98.8 "/>
<path class="st2" d="M206.2,128.4H101.1l20.4-29.6l1.5-2.1l26.5-38.5c1.8-2.3,5.2-2.7,7.5-0.9c0.1,0.1,0.3,0.2,0.4,0.4
	c0.1,0.2,0.3,0.3,0.4,0.5L206.2,128.4z"/>
</svg>
