<?xml version="1.0" encoding="utf-8"?>
<!-- Generator: Adobe Illustrator 24.2.1, SVG Export Plug-In . SVG Version: 6.00 Build 0)  -->
<svg version="1.1" id="a0b12775-6e5f-4473-9cb3-a305020561f5"
	 xmlns="http://www.w3.org/2000/svg" xmlns:xlink="http://www.w3.org/1999/xlink" x="0px" y="0px" viewBox="0 0 1150 800"
	 style="enable-background:new 0 0 1150 800;" xml:space="preserve">
<style type="text/css">
	.st0{fill:#F95858;}
	.st1{fill:#F9A826;}
	.st2{fill:#3F3D56;}
	.st3{fill:#F2F2F2;}
	.st4{fill:#FFFFFF;}
	.st5{fill:#2F2E41;}
	.st6{fill:#FFB8B8;}
	.st7{opacity:4.000000e-02;enable-background:new    ;}
	.st8{fill:#D0CDE1;}
	.st9{opacity:0.1;enable-background:new    ;}
</style>
<g>
	<path class="st0" d="M107.9,629c12,22.3,37.5,31.8,37.5,31.8s6-26.5-6-48.8c-12.1-22.3-37.5-31.8-37.5-31.8S95.9,606.8,107.9,629z"
		/>
	<path class="st1" d="M116.2,621.7c21.7,13,30,38.9,30,38.9s-26.8,4.7-48.5-8.2s-30-38.9-30-38.9S94.5,608.7,116.2,621.7z"/>
	<rect x="143.3" y="99.3" class="st2" width="877" height="561.1"/>
	<rect x="600.5" y="200.6" class="st3" width="394.9" height="459.3"/>
	<rect x="734" y="243.4" class="st4" width="239.5" height="9.6"/>
	<rect x="734" y="264.7" class="st4" width="239.5" height="9.6"/>
	<rect x="734" y="285.8" class="st4" width="81.1" height="9.6"/>
	<rect x="242.3" y="533.3" class="st4" width="239.5" height="9.6"/>
	<rect x="242.3" y="554.6" class="st4" width="239.5" height="9.6"/>
	<rect x="242.3" y="575.7" class="st4" width="81.1" height="9.6"/>
	<rect x="677.9" y="361.8" class="st4" width="244.2" height="9.6"/>
	<rect x="677.9" y="383.1" class="st4" width="239.5" height="9.6"/>
	<rect x="677.9" y="403.9" class="st4" width="239.5" height="9.6"/>
	<rect x="677.9" y="424.6" class="st4" width="239.5" height="9.6"/>
	<rect x="677.9" y="445.5" class="st4" width="239.5" height="9.6"/>
	<rect x="677.9" y="466.2" class="st4" width="239.5" height="9.6"/>
	<rect x="677.9" y="487" class="st4" width="239.5" height="9.6"/>
	<rect x="677.9" y="507.8" class="st4" width="239.5" height="9.6"/>
	<rect x="677.9" y="528.6" class="st4" width="239.5" height="9.6"/>
	<rect x="677.9" y="549.3" class="st4" width="239.5" height="9.6"/>
	<rect x="677.9" y="570.1" class="st4" width="239.5" height="9.6"/>
	<path class="st0" d="M449.3,379.8c0,26.3-11.8,51.3-32.3,67.9c-3.7,3.1-7.8,5.8-12,8.1c-2.5,1.4-5.2,2.7-7.8,3.9
		c-8.9,3.9-18.3,6.3-28,7.1c-2.4,0.2-4.7,0.3-7.1,0.3c-4.8,0-9.5-0.4-14.3-1.2c-1.6-0.2-3.3-0.5-4.9-1c-2.9-0.7-5.6-1.4-8.3-2.3
		c-11.3-3.7-21.7-9.9-30.6-17.8c-2.3-2-4.5-4.2-6.5-6.5c-32.3-35.7-29.6-90.9,6.1-123.2s90.9-29.6,123.2,6.1
		C441.3,337.3,449.3,358.1,449.3,379.8z"/>
	<path class="st2" d="M1019.8,345c-80.4,0-145.5,65.1-145.5,145.5l0,0c0,23.6-19.1,42.7-42.7,42.7l0,0H761
		C691,533.2,634.3,590,634.3,660l0,0l0,0h385.5L1019.8,345L1019.8,345z"/>
	<rect x="571.9" y="99.3" class="st5" width="18.8" height="561.1"/>
	<path class="st1" d="M399.9,91V76.5c0-16.7-13.5-30.2-30.2-30.2c-16.7,0-30.2,13.5-30.2,30.2v14.6h-57.1v32.2h174.6V91H399.9z
		 M369.8,54.7c9.8,0,17.7,7.9,17.7,17.7S379.5,90,369.8,90c-9.8,0-17.7-7.9-17.7-17.7l0,0C352.1,62.6,360,54.7,369.8,54.7
		L369.8,54.7L369.8,54.7z"/>
	<path class="st6" d="M377.6,374c0,0-8.7,24.7-3.3,28.5s-18,34.9-18,34.9l-28.1-7.6l15.4-26c0,0,2-26,2-29.8S377.6,374,377.6,374z"
		/>
	<path class="st7" d="M377.6,374c0,0-8.7,24.7-3.3,28.5s-18,34.9-18,34.9l-28.1-7.6l15.4-26c0,0,2-26,2-29.8S377.6,374,377.6,374z"
		/>
	<circle class="st6" cx="359.8" cy="369.6" r="22.8"/>
	<path class="st8" d="M342.8,464.9c-2.9-0.7-5.6-1.4-8.3-2.3l4.4-29.9l1.3-9.2l6.9,2.6c1,0.3,2,0.8,3.2,1.2c1.9,0.8,3.9,0.7,5.8-0.2
		c6.7-3.1,10.6-15,10.6-15s0.2,3.4,0.7,9c0.7,10,1.5,27.1,1.9,45.7c-2.4,0.2-4.7,0.3-7.1,0.3c-4.8,0-9.5-0.4-14.3-1.2
		C346.1,465.5,344.5,465.2,342.8,464.9z"/>
	<path class="st8" d="M349.1,408.2l-2,17.8l-1,8.7l-3.3,30.3c-2.9-0.7-5.6-1.4-8.3-2.3c-11.3-3.7-21.7-9.9-30.6-17.8l-4.2-15
		c0-0.9,0.1-1.8,0.2-2.6l0,0c0.1-0.8,0.3-1.5,0.5-2.3l0,0c0.8-2.9,2.2-5.5,4.3-7.6c5-5,38.6-20.9,38.6-20.9l0.7,1.3L349.1,408.2z"/>
	<path class="st5" d="M359.3,337.4c5-0.2,10.4-0.2,14.7,2.4c2,1.3,3.7,3.1,5,4.9c4.2,5.3,7.8,11.8,6.3,18.3l-1.8-0.7
		c0,1.8,0.4,3.5,1.1,5c-0.2-0.8-1.1,0.4-0.9,1.2l2,6.5c-3.2-1-6.6,0.8-7.6,4.1c-0.1,0.2-0.1,0.4-0.1,0.7c-0.2-7.6-1-16.1-7.1-20.5
		c-3.1-2.2-7-2.9-10.7-3.5c-3.5-0.5-7.1-1.1-10.4,0c-3.3,1.1-6.1,4.5-5.4,7.9c-1.6-0.3-3.3,0.4-3.9,2c-0.7,1.5-0.9,3.1-0.8,4.7
		c-1.6,1.1-3.5-1.1-4.2-3c-1.5-4.4-3-9.1-2.1-13.7s4.6-9,9.2-9c-0.5-0.7-0.9-1.4-0.9-2.3l3.8-0.3c-1-0.1-1.9-0.7-2.5-1.3
		C344.7,342.4,356.9,337.5,359.3,337.4z"/>
	<path class="st8" d="M412.3,424.6c-0.5,4.7-3.9,18.2-7.3,31c-2.5,1.4-5.2,2.7-7.8,3.9c-8.9,3.9-18.3,6.3-28,7.1
		c-2.4,0.2-4.7,0.3-7.1,0.3c-4.8,0-9.5-0.4-14.3-1.2c1.8-6.8,4.2-18.1,6.4-29.1c0.7-3.3,1.3-6.7,2-9.8c2.4-12.5,4.4-22.6,4.4-22.6
		s7.6-7.5,12.1-9.2c0.7-0.2,1.3-0.3,2-0.3c3.7,0.7,8.8,9.5,8.8,9.5s22.8,7.6,28.1,16.2C412.1,421.8,412.4,423.2,412.3,424.6z"/>
	<path class="st8" d="M316.1,424.6l-1.3,28.4c-3.8-2.5-7.6-5.3-11-8.3c-2.3-2-4.5-4.2-6.5-6.5c1.1-4.8,2-8.8,2.5-11.2l0,0
		c0.3-1.3,0.4-2.2,0.5-2.3l0,0L316.1,424.6L316.1,424.6z"/>
	<path class="st8" d="M416.9,447.6c-3.7,3.1-7.8,5.8-12,8.1c-2.5,1.4-5.2,2.7-7.8,3.9l-2.5-14.7l2.5-27.9l14.1,3.5l1.1,0.2
		L416.9,447.6z"/>
	<path class="st8" d="M1062.6,296.9h-11c0,0-12.1,8.8-11,18.6c1.1,9.9-19.7,95.4-19.7,106.4s-4.4,14.3-4.4,20.8c0,6.6,2.2,11,0,14.3
		c-2.2,3.3-6.6,23-5.5,30.7c0.7,5,0.7,10.3,0,15.4h27.4c0,0,19.7-66.9,24.1-70.2c4.4-3.3,6.6-8.8,6.6-12.1s-2.2-3.3,3.3-7.7
		c5.5-4.4,2.2-24.1,2.2-24.1l7.7-19.7L1062.6,296.9z"/>
	<path class="st9" d="M1062.6,296.9h-11c0,0-12.1,8.8-11,18.6c1.1,9.9-19.7,95.4-19.7,106.4s-4.4,14.3-4.4,20.8c0,6.6,2.2,11,0,14.3
		c-2.2,3.3-6.6,23-5.5,30.7c0.7,5,0.7,10.3,0,15.4h27.4c0,0,19.7-66.9,24.1-70.2c4.4-3.3,6.6-8.8,6.6-12.1s-2.2-3.3,3.3-7.7
		c5.5-4.4,2.2-24.1,2.2-24.1l7.7-19.7L1062.6,296.9z"/>
	<path class="st6" d="M909,469.6c0,0-9.9,48.2,6.6,43.9c16.4-4.4,9.9-46.1,9.9-46.1L909,469.6z"/>
	<polygon class="st6" points="912.3,694.4 905.8,721.8 929.9,737.1 936.5,704.3 	"/>
	<polygon class="st6" points="1026.4,728.4 1014.3,744.8 1028.6,761.3 1048.3,761.3 1048.3,728.4 	"/>
	<path class="st5" d="M1051.6,747h-6.6c-3.3-0.7-6.6-0.7-9.9,0c-6.6,1.1-15.5-9.4-15.5-9.4l-8.7,7.2c0,0-17.5,4.4-8.8,25.2
		l19.7,12.1c0,0,9.9,20.8,29.6,17.5s5.5-25.2,5.5-25.2L1051.6,747z"/>
	<path class="st5" d="M912.3,708.6l-1.6-7.3l-14.8,4.1c0,0-30.7-19.7-30.7,6.6c0,26.3,24.1,35.1,24.1,35.1s8.8-1.1,8.8,6.6
		c0,7.7,23,19.7,31.8,15.4c8.8-4.4,8.8-15.4,8.8-15.4l-2.2-30.7l-9.9,2.2c0,0-18.6-1.1-15.4-5.5
		C914.5,715.2,912.3,708.6,912.3,708.6z"/>
	<path class="st5" d="M944.1,456.4c0,0-13.2,17.5-13.2,27.4s-4.4,97.6-4.4,97.6S902.5,693.3,909,699.9c6.6,6.6,26.3,16.4,29.6,13.2
		c3.3-3.3,26.3-122.8,26.3-122.8l27.4-73.5l25.2,105.3c0,0-1.1,91,3.3,92.1c4.4,1.1,6.6,2.2,4.4,6.6s-5.5,13.2-5.5,13.2
		s27.4,6.6,32.9,2.2c5.5-4.4,6.6-110.7,0-148c-6.6-37.3,1.1-122.8,1.1-122.8L944.1,456.4z"/>
	<circle class="st6" cx="984.2" cy="211.4" r="32.9"/>
	<path class="st6" d="M976.6,229c0,0,4.2,25.2,0,32.5c-4.2,7.2,56.9,2.4,56.9,2.4s-29.5-38.5-26.3-45.7
		C1010.3,210.9,976.6,229,976.6,229z"/>
	<path class="st7" d="M976.6,229c0,0,4.2,25.2,0,32.5c-4.2,7.2,56.9,2.4,56.9,2.4s-29.5-38.5-26.3-45.7
		C1010.3,210.9,976.6,229,976.6,229z"/>
	<path class="st8" d="M946.3,270c0,0,21.9-28.5,49.3-23c7.3,1.4,14.1,3,20.1,4.4c20.8,4.8,38.3,19.7,45.4,39.9
		c1.9,5.3,2.7,10.3,2,14.4c-3.3,16.4-1.6,146.4-1.6,146.4s-8.8,3.3-7.7,7.7c1.1,4.4,8.8,9.9,1.1,9.9s-123.9-4.4-121.7-7.7
		C935.4,458.6,946.3,270,946.3,270z"/>
	<rect x="677.9" y="340.7" class="st4" width="248.8" height="9.6"/>
	<path class="st8" d="M957.3,270h-11c0,0-12.1,8.8-11,18.6s-19.7,95.4-19.7,106.4s-4.4,14.3-4.4,20.8s2.2,11,0,14.3
		s-6.6,23-5.5,30.7c0.7,5,0.7,10.3,0,15.4h27.4c0,0,19.7-66.9,24.1-70.2c4.4-3.3,6.6-8.8,6.6-12.1c0-3.3-2.2-3.3,3.3-7.7
		c5.5-4.4,2.2-24.1,2.2-24.1l7.7-19.7L957.3,270z"/>
	<polygon class="st9" points="941.3,460.5 974.3,387.9 957.7,465.1 	"/>
	<path class="st5" d="M972.6,161.6v-2.7c2.3-0.3,4.6-0.2,6.8,0.2c0-1.6-0.3-3.3-1-4.7c2.3,0.3,4.5,1,6.5,2l0.8-5l19.6,6.9
		c7,2.5,14.5,5.3,19.1,11.1c5.2,6.6,5.5,15.8,3.5,23.9c-2,8.1-5.9,15.6-8.9,23.4c-1.1,3.3-2.5,6.6-4.2,9.5
		c-5.9,9.5-19.3,12.9-29.8,8.9c-3.8-1.5-7.6-3.9-9.5-7.7c-1-2.3-1.9-4.6-2.5-7c-1.9-4.8-4.5-14.9-8.9-17.7c-2-1.2-4.9,3.8-6.6,2.3
		c-4.3-3.9-4.4-10.7-2.6-16.3c1.6-5.6,3.6-11.1,6-16.3C961.9,170.1,972.6,161.3,972.6,161.6z"/>
	<g>
		<path class="st2" d="M679.1,229.4c-22.1,0-40,18-40,40c0,22,18,40,40,40c22.1,0,40-18,40-40C719.1,247.3,701.2,229.4,679.1,229.4z
			 M706.1,292.2c-2.5,0-2.5,0-2.5,0h-15.9c0,0-3.6,0-3.6-3.4c0-0.1,0-0.1,0-0.2c0.2-1.8,0.4-3.3,0.8-3.6c0.5-0.7,2.7-2.6,5.3-4.6
			c2.3-1.8,5.6-4.2,8.2-5c4.3-1.4,4.2-1.5,4.9-1.5c0.1,0,0.7,0,0.9,0v-0.2c-0.2,0-0.3,0-0.4,0c-1,0-1.4-0.1-5.8,1.5
			c-5.3,1.8-12.8,8.6-13.8,9.8c-0.8,1-1.2,6.4-1.4,11.6c0,0.7-0.1,1.2-0.1,1.4c-0.1,1-2.4,1.8-3.5,1.8s-3.4-0.9-3.5-1.8
			c0-0.2,0-0.7-0.1-1.4c-0.2-5.2-0.7-10.6-1.4-11.6c-1-1.2-8.6-7.9-13.8-9.8c-4.5-1.5-4.8-1.5-5.8-1.5c-0.1,0-0.3,0-0.4,0v0.2
			c0.2,0,1.5,0.1,1.6,0.1c0.7,0.1,0.1-0.1,4.3,1.4c2.6,0.9,5.9,3.3,8.1,5c2.5,2,4.7,3.9,5.3,4.6c0.3,0.4,0.5,1.9,0.8,3.6
			c0,0.1,0,0.1,0,0.2c0,3.4-3.6,3.4-3.6,3.4h-15.9c0,0,0,0-2.5,0c-1.1,0-2.1-0.8-2.6-1.5c-2.4-4.6-4.4-10-5.5-16.2
			c0,0,0.5,2,2.4,4.4c-0.3-1.5-0.5-3.2-0.8-4.9c0,0,0.4,2,2.3,4.4c-0.2-1.5-0.4-3.2-0.7-4.9c0,0,0.4,2,2.1,4.4
			c-1.3-4.6-3.3-8.9-3.1-14.8c0,0,0.5,1.6,2,3.8c-0.1-1.3-0.2-2.7-0.2-4.2c0,0,0.4,1.6,1.9,3.8c-0.1-1.3-0.1-2.7-0.1-4.2
			c0,0,0.4,1.6,1.8,3.8c-1.1-3.7-2.1-7.6-1.3-12.1c0,0,0.5,0.9,1.5,2.2c0-0.8,0.1-1.6,0.3-2.4c0,0,0.4,0.9,1.4,2.2
			c0.1-0.8,0.2-1.5,0.3-2.4c0,0,0.4,0.8,1.2,2.1c-0.7-2.6-0.5-5.5,0.5-8.3c0,0,0.1,1.4,0.9,3.3c0.1-1.1,0.4-2.2,0.9-3.3
			c0,0,0.1,1.4,0.9,3.2c0.2-1.1,0.4-2.1,0.9-3.2c0,0,0.1,1.4,0.8,3.2c0.8-2.6,0.5-5.3,2.4-7.7c0,0,0,1.1,0.3,2.6
			c0.3-0.9,0.8-1.6,1.3-2.4c0,0,0,1.1,0.3,2.6c0.3-0.8,0.8-1.6,1.3-2.4c0,0,0,1.1,0.2,2.5c0.3-0.8,0.8-1.5,1.3-2.4c0,0,0,1,0.2,2.4
			c-0.1-2,0.7-3.8,2.6-5.5c0,0,0.1,0.7,0.2,1.4c0.3-0.4,0.8-0.8,1.2-1.2c0,0,0,0.7,0.2,1.4c0.3-0.4,0.8-0.8,1.2-1.1
			c0,0,0,0.7,0.2,1.4c0.3-0.3,0.8-0.8,1.2-1.1c0,0,0,0.2,0,0.5c0.3-1,0.9-1.9,1.6-2.5c0,0,0,0.7,0.2,1.8c0.3-0.4,0.7-0.9,1.1-1.3
			c0,0,0,0.7,0.2,1.6c0.3-0.4,0.7-0.9,1.1-1.3c0,0,0,0.7,0.1,1.6c0-0.1,0.3-1.8,0.3-1.8s0.2,1.6,0.3,1.8c0.1-1,0.1-1.6,0.1-1.6
			c0.4,0.3,0.8,0.8,1.1,1.3c0.2-1,0.2-1.6,0.2-1.6c0.4,0.3,0.8,0.8,1.1,1.3c0.2-1,0.2-1.8,0.2-1.8c0.8,0.7,1.3,1.5,1.6,2.5
			c0-0.3,0-0.5,0-0.5c0.4,0.3,0.9,0.8,1.2,1.1c0.2-0.8,0.2-1.4,0.2-1.4c0.4,0.3,0.9,0.8,1.2,1.1c0.2-0.9,0.2-1.4,0.2-1.4
			c0.4,0.3,0.9,0.8,1.2,1.2c0.2-0.9,0.2-1.4,0.2-1.4c2,1.6,2.7,3.5,2.6,5.5c0.2-1.4,0.2-2.4,0.2-2.4c0.5,0.8,1,1.5,1.3,2.4
			c0.3-1.5,0.2-2.5,0.2-2.5c0.5,0.8,1,1.6,1.3,2.4c0.3-1.5,0.3-2.6,0.3-2.6c0.5,0.8,1,1.6,1.3,2.4c0.3-1.5,0.3-2.6,0.3-2.6
			c1.9,2.5,1.6,5,2.4,7.7c0.7-1.9,0.8-3.2,0.8-3.2c0.4,1.1,0.8,2.2,0.9,3.2c0.8-1.9,0.9-3.2,0.9-3.2c0.4,1.1,0.7,2.2,0.9,3.3
			c0.8-1.9,0.9-3.3,0.9-3.3c1.1,3,1.2,5.7,0.5,8.3c0.9-1.3,1.2-2.1,1.2-2.1c0.1,0.8,0.2,1.6,0.3,2.4c1-1.4,1.4-2.2,1.4-2.2
			c0.1,0.8,0.2,1.6,0.3,2.4c1.1-1.4,1.5-2.2,1.5-2.2c0.9,4.6-0.2,8.3-1.3,12.1c1.3-2.2,1.8-3.8,1.8-3.8c0,1.4,0,2.9-0.1,4.2
			c1.4-2.2,1.9-3.8,1.9-3.8c0,1.4,0,2.9-0.2,4.2c1.4-2.2,2-3.8,2-3.8c0.2,5.9-1.8,10.2-3.1,14.8c1.6-2.5,2.1-4.4,2.1-4.4
			c-0.1,1.8-0.3,3.3-0.7,4.9c1.8-2.5,2.3-4.4,2.3-4.4c-0.2,1.8-0.4,3.4-0.8,4.9c1.9-2.5,2.4-4.4,2.4-4.4c-1.1,6.3-3,11.6-5.5,16.2
			C708.2,291.5,707.3,292.2,706.1,292.2z"/>
		<path class="st2" d="M684.6,275.7c-1,0.4-1.3,2.4-0.8,3.2c0.7,0.8,2.4,0.2,3.2-0.5l1.5-1.4C686.6,276.4,687.1,274.6,684.6,275.7z"
			/>
		<path class="st2" d="M673.5,275.7c-2.5-1.1-2,0.7-4.1,1.2l1.5,1.4c0.8,0.8,2.5,1.3,3.2,0.5C674.9,278.3,674.5,276.2,673.5,275.7z"
			/>
	</g>
</g>
</svg>
