<?xml version="1.0" encoding="utf-8"?>
<!-- Generator: Adobe Illustrator 24.2.1, SVG Export Plug-In . SVG Version: 6.00 Build 0)  -->
<svg version="1.1" id="f8e7fb86-f4c5-45a2-a9d6-6001fa0cc87b"
	 xmlns="http://www.w3.org/2000/svg" xmlns:xlink="http://www.w3.org/1999/xlink" x="0px" y="0px" viewBox="0 0 1150 800"
	 style="enable-background:new 0 0 1150 800;" xml:space="preserve">
<style type="text/css">
	.st0{fill:#F4B056;}
	.st1{fill:#F2F2F2;}
	.st2{fill:#F9A826;}
	.st3{fill:#3F3D56;}
	.st4{fill:#FFFFFF;}
	.st5{fill:#F0F0F0;}
	.st6{fill:#2F2E41;}
	.st7{fill:#E6E6E6;}
	.st8{fill:#3F3D56;stroke:#000000;stroke-miterlimit:10;}
	.st9{opacity:0.5;fill:#D0CDE1;enable-background:new    ;}
	.st10{fill:#FFB8B8;}
	.st11{opacity:0.4;fill:#F95858;enable-background:new    ;}
	.st12{fill:#DECBAF;}
	.st13{fill:#9D816B;}
	.st14{fill:#B19482;}
	.st15{fill:#85664F;}
	.st16{fill:#FEFEFE;}
	.st17{fill:#433020;}
	.st18{fill:#7A5E4B;}
</style>
<path class="st0" d="M220.8,106.3v138.9c2.7-0.2,67.5-4.1,145.1-3.5c34.4-0.9,71.9,0,109.1,4.3c48.3,3.9,93,10.8,122.9,22.7
	c102.4,40.5,333.4,25.7,333.3,25.7v6.3c0.1,0,0.1,0,0.1,0V106.3H220.8z"/>
<rect x="197.6" y="238.4" class="st1" width="1.9" height="18"/>
<rect x="198.6" y="399.5" class="st1" width="1.9" height="18"/>
<rect x="886.7" y="381.5" class="st1" width="1.9" height="18"/>
<rect x="576.2" y="77.9" class="st1" width="136.2" height="1.9"/>
<rect x="877" y="264.2" class="st1" width="1.9" height="18"/>
<path class="st2" d="M597.8,320.8c-102.3-40.6-377.1-23.6-377.1-23.6V459h710.4V346.5C931.2,346.5,700.2,361.2,597.8,320.8z"/>
<rect x="877.9" y="410.6" class="st3" width="1.3" height="47.9"/>
<circle class="st3" cx="878.5" cy="410.6" r="6.8"/>
<path class="st3" d="M878.5,440.1c0,0-1-20.8-20.8-18.4"/>
<path class="st4" d="M259,435.8c3.9,14.4,17.3,23.4,17.3,23.4s7-14.5,3.1-28.9s-17.3-23.4-17.3-23.4S255.1,421.3,259,435.8z"/>
<path class="st3" d="M264.7,432.7c10.7,10.4,12.1,26.5,12.1,26.5s-16.1-0.9-26.8-11.3c-10.7-10.4-12.1-26.5-12.1-26.5
	S254,422.2,264.7,432.7z"/>
<path class="st4" d="M553.9,410.2c-8.2,30.2-36.1,48.9-36.1,48.9s-14.7-30.2-6.5-60.3c8.2-30.2,36.1-48.9,36.1-48.9
	S562,380,553.9,410.2z"/>
<path class="st4" d="M479.7,410.2c8.2,30.2,36.1,48.9,36.1,48.9s14.7-30.2,6.5-60.3c-8.2-30.2-36.1-48.9-36.1-48.9
	S471.5,380,479.7,410.2z"/>
<path class="st3" d="M491.6,403.8c22.4,21.8,25.1,55.3,25.1,55.3s-33.6-1.8-56-23.6c-22.4-21.8-25.1-55.3-25.1-55.3
	S469.3,382,491.6,403.8z"/>
<path class="st3" d="M542,403.8c-22.4,21.8-25.1,55.3-25.1,55.3s33.6-1.8,56-23.6c22.4-21.8,25.1-55.3,25.1-55.3
	S564.3,382,542,403.8z"/>
<path class="st5" d="M632.8,459.1c-4.3,0-7.7-3.5-7.7-7.7s3.5-7.7,7.7-7.7c4.3,0,7.7,3.5,7.7,7.7l0,0
	C640.4,455.7,636.9,459.1,632.8,459.1z M632.8,445c-3.6,0-6.4,2.9-6.4,6.4c0,3.6,2.9,6.4,6.4,6.4c3.6,0,6.4-2.9,6.4-6.4l0,0
	C639.2,447.9,636.3,445,632.8,445z"/>
<path class="st3" d="M293.5,332.6h-12.7v-12.7h12.7V332.6z M281.7,331.7h10.7V321h-10.7V331.7z"/>
<circle class="st5" cx="811" cy="440.3" r="6.5"/>
<path class="st6" d="M811,459.1c-10.3,0-18.8-8.4-18.8-18.8c0-10.3,8.4-18.8,18.8-18.8c10.3,0,18.8,8.4,18.8,18.8l0,0
	C829.7,450.7,821.4,459.1,811,459.1z M811,423c-9.5,0-17.3,7.8-17.3,17.3s7.8,17.3,17.3,17.3s17.3-7.8,17.3-17.3
	C828.4,430.7,820.6,423,811,423z"/>
<path class="st3" d="M728.1,458.5c-0.2-0.3-4.2-7-5.5-20.8c-1.3-12.7-0.5-34.2,10.7-64.1c21.1-56.7-4.9-102.5-5.2-103l1.3-0.8
	c0.1,0.1,6.7,11.8,10.7,30.4c5.3,24.6,3.3,50.2-5.4,73.9c-21,56.6-5.4,83.4-5.3,83.7L728.1,458.5z"/>
<circle class="st4" cx="719.9" cy="257.6" r="9.6"/>
<circle class="st3" cx="750.2" cy="293.1" r="9.6"/>
<circle class="st3" cx="729.5" cy="316.8" r="9.6"/>
<circle class="st3" cx="754.6" cy="336.8" r="9.6"/>
<circle class="st4" cx="722.1" cy="367.9" r="9.6"/>
<path class="st3" d="M734,458.9c0,0-9.6-23.6,19.3-41.5L734,458.9z"/>
<path class="st3" d="M722.1,458.5c0,0-4.4-25.2-38.2-24.9L722.1,458.5z"/>
<path class="st3" d="M360.1,458.5c-0.2-0.3-4.2-7-5.5-20.8c-1.3-12.7-0.5-34.2,10.7-64.1c21.1-56.7-4.9-102.5-5.2-103l1.3-0.8
	c0.1,0.1,6.7,11.8,10.7,30.4c5.3,24.6,3.3,50.2-5.4,73.9c-21,56.6-5.4,83.4-5.3,83.7L360.1,458.5z"/>
<circle class="st3" cx="351.8" cy="257.6" r="9.6"/>
<circle class="st3" cx="382.2" cy="293.1" r="9.6"/>
<circle class="st4" cx="361.4" cy="316.8" r="9.6"/>
<circle class="st4" cx="386.5" cy="336.8" r="9.6"/>
<circle class="st3" cx="354" cy="367.9" r="9.6"/>
<path class="st3" d="M365.8,458.9c0,0-9.6-23.6,19.3-41.5L365.8,458.9z"/>
<path class="st3" d="M354,458.5c0,0-4.4-25.2-38.2-24.9L354,458.5z"/>
<path class="st7" d="M551.1,149.6H447.2l0.4-1.3c0.1-0.2,7.7-22.3,41.4-18c3.2-1.1,34.2-11.2,52.7,0.2c8.3,5.1,12.5,9.7,12.5,13.9
	c0,2-1.1,3.9-2.7,5.1L551.1,149.6z M450,147.6h100.5c1.1-0.8,1.7-2,1.7-3.3c0-2.4-2-6.4-11.5-12.3c-18.4-11.3-51,0-51.3,0.1
	l-0.2,0.1H489C461.5,128.7,452.2,143.2,450,147.6z"/>
<path class="st7" d="M897.1,193.9h-70.5l0.4-1.3c0.1-0.2,5.3-15.3,28.1-12.4c2.5-0.9,23.3-7.5,35.7,0.2c5.6,3.5,8.5,6.7,8.5,9.6
	c0,1.5-0.8,2.8-2,3.7L897.1,193.9z M829.4,191.9h67.1c0.6-0.5,0.9-1.2,0.9-1.9c0-1.3-1-4-7.6-8c-12.3-7.5-34.1,0-34.3,0.1l-0.2,0.1
	h-0.2C837.6,179.8,831.2,188.5,829.4,191.9z"/>
<path class="st7" d="M601.7,219.4h-70.5l0.4-1.3c0.1-0.2,5.3-15.3,28.1-12.4c2.5-0.9,23.3-7.5,35.7,0.2c5.6,3.5,8.5,6.7,8.5,9.6
	c0,1.5-0.8,2.8-2,3.7L601.7,219.4z M534.1,217.4h67.1c0.6-0.5,0.9-1.2,0.9-1.9c0-1.3-1-4-7.6-8c-12.3-7.5-34.1,0-34.3,0.1l-0.2,0.1
	h-0.2C542.2,205.4,535.8,214.1,534.1,217.4L534.1,217.4z"/>
<path class="st8" d="M186.7,69.7V495h776.6V69.7H186.7z M926.4,458H223.7V106.7h702.6V458H926.4z"/>
<path class="st9" d="M367.9,458l17.8,37H218.5l3.3-388.3h264.6c0,0-67.8,146.2-179,225.8L367.9,458z"/>
<path class="st9" d="M780.2,458l-17.8,37h167.3l-3.2-388.3H661.8c0,0,67.8,146.2,179,225.8L780.2,458z"/>
<rect x="211.1" y="324.3" class="st3" width="109" height="18.5"/>
<rect x="831" y="324.3" class="st3" width="109" height="18.5"/>
<path class="st10" d="M891.9,341.2l-3.9,91.5l-24.3,91.5c0,0-25.3,44.8-5.8,44.8s25.3-41.8,25.3-41.8l31.1-85.6l5.8-78.8
	L891.9,341.2z"/>
<path class="st10" d="M836.4,682.8l1.9,70.1h19.5l7.8-44.8c0,0,6.8-18.5,6.8-19.5C872.4,687.7,836.4,682.8,836.4,682.8z"/>
<path class="st6" d="M860.7,749h-24.3c0,0-9.7,14.6-11.7,14.6c-1.9,0-30.2,1-12.7,13.6c17.5,12.7,34.1,6.8,34.1,6.8v11.7
	c0,0,19.5,9.7,20.4,0c0-0.1,0-0.2,0-0.3c1-10.5-0.5-21.1-4.3-30.9C860,758.3,858.1,751.1,860.7,749z"/>
<path class="st10" d="M899.1,677.4l22.4,66.5l18.6-5.7l-5.6-45.1c0,0,1.1-19.7,0.8-20.6C934.9,671.5,899.1,677.4,899.1,677.4z"/>
<path class="st6" d="M941.8,733.6l-23.3,7.1c0,0-5.1,16.8-6.9,17.4c-1.8,0.6-28.5,9.7-8.1,16.7s34.5-3.5,34.5-3.5l3.4,11.2
	c0,0,21.5,3.6,19.6-6c0-0.1,0-0.2-0.1-0.3c-2.1-10.3-6.7-20-13.1-28.3C943.8,742.7,939.9,736.4,941.8,733.6z"/>
<circle class="st10" cx="857.3" cy="289.1" r="28.2"/>
<path class="st10" d="M852,309.1c0,0,17.5,24.3,13.6,30.2c-3.9,5.8,41.8-4.9,41.8-4.9s-28.2-32.1-27.2-38
	C881.2,290.6,852,309.1,852,309.1z"/>
<path class="st6" d="M889,325.6c0,0-23.4,0-31.1,9.7s-16.5,30.2-16.5,30.2s-8.3,3.1-11.3,19.5c-2,11.8-0.3,23.9,5.1,34.6
	c4.9,10.1,10.6,24.4,5.7,28.1c-7.8,5.8-30.2,53.5-30.2,133.3c0,44.5-12.8,75.2-24.2,93.7c-9.5,15.5,3.9,34.8,21.7,31.5
	c0.4-0.1,0.7-0.1,1.1-0.2c35-6.8,137.2-19.5,137.2-19.5l-28.2-69.1c0,0-13.6-22.4-4.9-57.4c8.8-35-15.6-99.3-15.6-99.3
	s32.6-73.5,26.8-90s-13.1-50.1-20-49.1C899.2,322.6,894,324,889,325.6z"/>
<path class="st10" d="M857.8,341.2l-3.9,91.5l-24.3,91.5c0,0-25.3,44.8-5.8,44.8s25.3-41.8,25.3-41.8l31.1-85.6l5.8-78.8
	L857.8,341.2z"/>
<path class="st6" d="M875.3,331.5c0,0-21.4,0-24.3,9.7c-2.9,9.7-3.5,11.2-3.5,11.2s8.4-11.2,19.1,5.4c10.7,16.5,24.3,20.4,24.3,20.4
	S893.8,339.3,875.3,331.5z"/>
<circle class="st6" cx="876.8" cy="272.6" r="38.9"/>
<path class="st6" d="M869.9,302.1c-19.8-5.7-31.6-25.9-27.1-45.9c-0.3,0.8-0.5,1.6-0.8,2.3c-6,20.6,5.8,42.2,26.5,48.3
	c20.6,6,42.2-5.8,48.3-26.5c0.2-0.8,0.4-1.6,0.6-2.3C910.4,297.2,889.5,307.8,869.9,302.1z"/>
<ellipse class="st10" cx="847.6" cy="294" rx="2.9" ry="4.9"/>
<circle class="st6" cx="891.4" cy="233.7" r="13.6"/>
<path class="st6" d="M878.3,232c0-7,5.3-12.8,12.2-13.5c-7.5-0.8-14.2,4.6-15,12.1s4.6,14.2,12.1,15c1,0.1,1.9,0.1,2.9,0
	C883.5,244.8,878.3,238.9,878.3,232z"/>
<path class="st6" d="M844.7,257c-9.6,0-17.5,7.9-17.5,17.5h35C862.2,264.9,854.3,257,844.7,257z"/>
<circle class="st11" cx="293.9" cy="158.9" r="33.2"/>
<path class="st4" d="M684.8,198L684.8,198c-1.6,0.8-3.1,1.7-4.7,2.5l0.5,0.8c1.5-0.9,3-1.8,4.6-2.5L684.8,198z"/>
<path class="st4" d="M675.7,203.5c-1.5,1-2.9,2-4.3,3.2l0.6,0.7c1.4-1.1,2.8-2.1,4.2-3.1L675.7,203.5z"/>
<path class="st4" d="M694.6,194L694.6,194c-1.7,0.6-3.3,1.2-5,1.9l0.3,0.8c1.7-0.7,3.3-1.3,5-1.8L694.6,194z"/>
<path class="st4" d="M710.2,190.4l0.1,0.9c1.8-0.2,3.5-0.4,5.3-0.5v-0.9l0,0C713.8,190,712,190.2,710.2,190.4z"/>
<path class="st4" d="M705,191.1c-1.8,0.3-3.5,0.8-5.2,1.2l0.2,0.9c1.7-0.5,3.4-0.9,5.2-1.2L705,191.1z"/>
<path class="st4" d="M726.2,190c-1.8-0.1-3.6-0.2-5.4-0.3v0.9c1.8,0,3.5,0.1,5.3,0.3L726.2,190L726.2,190z"/>
<path class="st4" d="M660,217.9c-1.2,1.4-2.2,2.8-3.3,4.2l0.7,0.5c1.1-1.5,2.1-2.8,3.2-4.2L660,217.9z"/>
<path class="st4" d="M646,246.1l-0.9-0.2c-0.5,1.7-1,3.4-1.3,5.2l0.9,0.2C645,249.5,645.5,247.9,646,246.1z"/>
<path class="st4" d="M642.3,261.6l0.9,0.1c0.1-1.8,0.3-3.5,0.6-5.3l-0.9-0.1C642.7,258.1,642.5,259.8,642.3,261.6z"/>
<path class="st4" d="M642.7,277.6c0.2,1.8,0.5,3.5,0.9,5.3l0.9-0.2c-0.4-1.8-0.6-3.5-0.9-5.2L642.7,277.6z"/>
<path class="st4" d="M653.8,226.5c-1,1.5-1.8,3-2.6,4.6l0.8,0.4c0.8-1.6,1.7-3.1,2.6-4.6L653.8,226.5z"/>
<path class="st4" d="M642.2,272.3l0.9-0.1c-0.1-1.8-0.2-3.5-0.1-5.3h-0.9C642.1,268.7,642.1,270.5,642.2,272.3z"/>
<path class="st4" d="M731.5,190.6l-0.1,0.9c1.8,0.3,3.5,0.6,5.2,1l0.2-0.9C735,191.2,733.3,190.9,731.5,190.6z"/>
<path class="st4" d="M648.8,235.9c-0.7,1.7-1.4,3.3-1.9,5l0.8,0.3c0.6-1.7,1.3-3.3,1.9-4.9L648.8,235.9z"/>
<path class="st4" d="M668,210.8l-0.6-0.7c-1.3,1.2-2.6,2.4-3.8,3.7l0.6,0.6C665.4,213.2,666.6,212,668,210.8z"/>
<path class="st4" d="M796.7,279.6c0.3-1.8,0.5-3.5,0.7-5.3l-0.9-0.1c-0.2,1.8-0.4,3.5-0.7,5.3L796.7,279.6z"/>
<path class="st4" d="M796.3,253.1l-0.9,0.2c0.3,1.8,0.6,3.5,0.8,5.3l0.9-0.1C796.9,256.6,796.6,254.9,796.3,253.1z"/>
<path class="st4" d="M790.6,299.9c0.8-1.7,1.5-3.3,2-5l-0.8-0.3c-0.6,1.7-1.3,3.3-2,4.9L790.6,299.9z"/>
<path class="st4" d="M788.8,233.3c0.8,1.6,1.6,3.2,2.1,4.8l0.8-0.3c-0.7-1.7-1.5-3.3-2.2-4.9L788.8,233.3z"/>
<path class="st4" d="M796.6,263.7c0.1,1.8,0.1,3.5,0.1,5.3h0.9c0-1.8,0-3.6-0.1-5.4L796.6,263.7z"/>
<path class="st4" d="M741.9,193l-0.3,0.9c1.7,0.5,3.4,1.1,5,1.7l0.3-0.8C745.4,194,743.6,193.5,741.9,193z"/>
<path class="st4" d="M792.7,243c0.6,1.7,1.1,3.4,1.5,5.1l0.9-0.2c-0.5-1.8-1-3.4-1.6-5.2L792.7,243z"/>
<path class="st4" d="M793.5,289.7l0.9,0.3c0.5-1.7,1-3.4,1.4-5.2l-0.9-0.2C794.5,286.4,794,288.1,793.5,289.7z"/>
<path class="st4" d="M761.3,201.6l-0.5,0.8c1.5,1,2.9,1.9,4.4,2.9l0.5-0.7C764.2,203.6,762.8,202.6,761.3,201.6z"/>
<path class="st4" d="M756.6,199L756.6,199L756.6,199z"/>
<path class="st4" d="M751.9,196.7l-0.4,0.8c1.6,0.7,3.2,1.5,4.8,2.3l0.4-0.8C755.1,198.1,753.5,197.4,751.9,196.7z"/>
<path class="st4" d="M778.7,216.7c-0.4-0.5-0.8-0.9-1.2-1.4l-0.7,0.6c1.2,1.3,2.3,2.6,3.4,4l0.7-0.6
	C780.3,218.5,779.5,217.6,778.7,216.7z"/>
<path class="st4" d="M784.2,223.7l-0.7,0.5c1,1.5,1.9,2.9,2.8,4.5l0.8-0.5C786.1,226.8,785.2,225.2,784.2,223.7z"/>
<path class="st4" d="M769.9,208l-0.6,0.7c1.4,1.2,2.6,2.3,3.9,3.5l0.6-0.6C772.6,210.3,771.2,209.1,769.9,208z"/>
<path class="st12" d="M475.9,416.5c-1.2-1.5-2.5-2.5-4-3.7c-0.3-0.2-0.5-0.4-0.7-1.1c2.5,1.3,4.8,2.7,7.4,3.4
	c-1.8-1.2-3.2-2.5-4.7-4c-1.9-1.9-4.1-3.7-5.4-6.2l0,0c1.1,0.4,1.8,1.4,2.6,2c1.5,1.1,2.9,2.2,4.7,2.9c0.1,0.1,0.2,0.1,0.2,0.2
	c0,0,0-0.1,0.1-0.1c-0.1,0-0.2,0-0.3-0.1c-1-1.4-1.9-2.6-2.9-4c-0.5-0.7-0.9-1.4-1.3-2.1c1.1,0.6,1.9,1.4,3,2c1,0.7,1.8,1.7,3.5,1.9
	c-2.1-2.4-4-4.9-5.2-7.6c2.3,1.6,4.5,3.4,7.3,4.7c-0.4-1.4-1.8-2.1-1.6-3.6c1.5,0.1,2.5,1.5,4,1.5c0.1-0.2,0.1-0.3,0-0.4
	c-1.9-1.8-3.2-4-4.6-6.2c-0.5-0.8-0.8-1.8-1.2-2.6c-0.1-0.2-0.1-0.4,0.1-0.5c0.3-0.3,0.4,0,0.6,0.2c1.5,1.5,3,2.9,4.7,4.2
	c0.9,0.7,1.7,1.4,2.8,2.1c-0.8-1.9-2.3-3.1-2.6-5c0.6-0.1,0.9,0.4,1.3,0.6c1.4,1,2.4,2.2,4.3,2.4c0,0.1,0,0.2,0,0.3
	c0,0,0.1,0,0.1-0.1c-0.1-0.1-0.1-0.2-0.2-0.2c-1-2-1.8-4.2-2.1-6.4c-0.2-1.1-0.3-2.1-0.5-3.4c1.6,2.6,3.3,4.9,5.4,6.9
	c-1.3-3.8-2.1-7.6-2.8-11.5c0.7,1.2,1.4,2.4,2,3.5c1,1.5,1.9,2.9,3,4.4c0.1,0.1,0.3,0.1,0.4,0.2c0,0.1,0.1,0.2,0.1,0.3l0.1-0.1
	c-0.1-0.1-0.1-0.2-0.2-0.2c-0.8-2.6-1.7-5.2-2-7.9c1.6,2.3,2.9,4.9,4.9,7.3c-0.3-1.4-0.6-2.4-0.7-3.7c0.7,0.7,1.3,1.2,1.8,1.7
	c0.1,0.2,0.1,0.3,0.2,0.5c0,0,0.1,0,0.1-0.1c0.1-0.2,0-0.4-0.2-0.5c-0.6-2.2-1.8-4.3-2.9-6.3c-0.1-0.2-0.6-0.4-0.2-0.7
	c0.3-0.2,0.5,0.1,0.7,0.2c1.2,0.9,2.1,2,3.2,3.1c-0.7-2.2-2-4.1-3.2-6l0,0c1.8,0.5,3,1.8,4.2,3.2c0.3,0.3,0.6,0.7,1,1.1
	c-0.7-3.3-0.6-6.5,0.3-9.9c0.4,1.7,0.7,3.1,1.3,4.5c0.6,1.4,1.2,2.6,2,4.1c0.4-2.3,0.5-4.6,0.8-6.7c0.7,1.9,1.4,3.9,2.1,6
	c0.9-1.6,1.1-3.1,0.8-4.9c1.5,0.8,1.7,2.1,2.1,3.4c0.8-1.6,0.8-3.1,0.2-4.7c-0.1-0.3-0.3-0.6,0-0.8c0.4-0.3,0.4,0.2,0.6,0.4
	c1.1,1,1.3,2.4,1.7,3.8c0.2,0.5,0.2,1.1,0.3,1.7c1-2.9,1.5-5.7,2.7-8.7c0.1,2.4,0.5,4.6,0.9,6.8c0.2-1.4,0.1-2.8,0.3-4.2
	c0.1-0.6,0.2-1.3,0.3-1.8c0-0.2,0-0.5,0.3-0.5s0.3,0.3,0.3,0.5c0.2,1.4,0.3,2.7,0.5,4.1c0.1,0.7,0,1.4,0.1,2c0.5-2.1,0.8-4.4,1-6.8
	c1.2,2.8,1.8,5.6,2.6,8.5c0.3-1.1,0.5-2.1,0.8-3.2s0.8-2.1,2.1-2.9c-0.9,2-1,3.8-0.3,5.8c0.6-1.3,0.7-2.7,2.1-3.5
	c-0.3,1.8-0.1,3.3,0.8,4.9c0.9-2.1,1.6-4.1,2.2-6.1c0.4,2.2,0.3,4.5,0.8,6.9c1.7-2.6,2.7-5.4,3.4-8.6c0.9,3.5,1.1,6.7,0.3,10
	c1.2-1.2,2.1-2.5,3.5-3.5c0.5-0.3,1-0.9,1.7-0.8l0,0c-1.2,1.9-2.4,3.8-3.2,5.9c1.2-0.8,1.8-2.1,3.1-2.9c0.3-0.2,0.5-0.7,0.9-0.4
	c0.5,0.4-0.2,0.6-0.3,0.9c-1.1,1.9-2.2,3.9-2.8,6.1c-0.2,0.1-0.2,0.3-0.2,0.5l0.1,0.1c0.1-0.2,0.1-0.3,0.2-0.5
	c0.6-0.5,1.2-1.1,1.8-1.7c-0.1,1.1-0.2,1.8-0.3,2.7c1.9-1.8,3-4.2,4.6-6.5c-0.4,2.8-1.3,5.4-1.9,8c2.1-2.4,3.8-5.2,5.4-8
	c-0.8,3.9-1.6,7.7-2.9,11.5c2-2,3.8-4.3,5.4-6.8c-0.2,3.5-1.1,6.7-2.5,9.8c-0.1,0.1-0.1,0.2-0.2,0.2c0,0,0.1,0,0.1,0.1
	c0-0.1,0-0.2,0-0.3c1.8-0.2,2.8-1.5,4.2-2.4c0.4-0.3,0.6-0.7,1.3-0.8c-0.2,1.9-1.8,3-2.6,5c2.7-1.9,5-3.9,7.1-6
	c0.2-0.2,0.4-0.9,0.9-0.5c0.4,0.3-0.1,0.7-0.2,1.1c-0.9,2.4-2.5,4.5-3.9,6.6c-0.5,0.8-1.4,1.2-1.8,2.1c1.1-0.1,1.9-0.5,2.7-1
	c0.4-0.2,0.9-0.6,1.3-0.3c0.4,0.4,0.1,0.9-0.2,1.4c-0.4,0.6-0.8,1.2-1.1,1.8c2.7-1,4.8-2.9,7.3-4.7c-1.4,3-3.1,5.4-5.1,7.7
	c2.3-0.9,4.1-2.6,6.3-4.1c-0.7,1.7-1.7,2.7-2.4,4c-0.5,0.9-1.5,1.4-1.8,2.3c-0.1,0-0.2,0-0.3,0.1c0,0,0,0.1,0.1,0.1
	c0.1-0.1,0.2-0.1,0.2-0.2c1.8-0.7,3.2-1.8,4.7-2.9c0.9-0.7,1.6-1.7,2.6-2l0,0c-0.6,1.2-1.4,2.1-2.2,3.1c-1.6,1.6-3,3.2-4.7,4.7
	c-0.6,0.5-1.2,1.1-1.9,1.5c-0.3,0.2-0.5,0.4-0.6,0.8c2.4-0.6,4.4-2,6.6-3c-1.4,1.7-3.2,2.8-4.5,4.5c-0.2-0.5-0.5-0.2-0.8-0.1
	c-1.7,0.6-3.3,1.2-5.1,1.7c-0.9,0.3-1.7,0.7-2.7,0.5c2.8-1.6,4.8-3.9,6.5-6.4c-1.5,0.6-2.6,1.5-3.6,2.6c-1.2,1.3-2.6,2.3-4.1,3.3
	c-2.4,1.8-5.2,2.8-7.7,4.3c-1.1,0.1-1.9,0.9-3,1c-0.2-1-0.9-1.8-0.7-3c0.5,0.3,1.1,0.1,1.6,0c2.7-0.8,5.4-1.9,7.8-3.5
	c2.7-1.7,4.5-4.1,5.9-6.9c0-0.1,0-0.1-0.1-0.3c-1.2,0.9-2.2,1.8-3.3,2.5c-1.2,0.8-2.3,1.7-3.8,1.8c1-1,1.9-1.8,2.6-3.3
	c-4.3,2.4-7.6,5.8-11.7,8.1c-0.5-0.7-1.2-1.4-1.2-2.3c1-0.5,1.9-1,2.9-1.6c1.6-0.9,2.9-2.1,4.5-3.1c2.6-1.6,3.9-3.8,4.4-6.9
	c-1.8,2.1-3.4,4-5.4,5.5c-0.1-0.1-0.2-0.1-0.2-0.2c0.8-1.3,1.6-2.5,1.8-4.1c-0.8,0.7-1.8,1.1-2.3,1.9c-1.9,2.7-4.3,5.1-6.8,7.3
	c-0.6-0.7-1.1-1.3-1.7-1.9c1.3-1.2,2.6-2.2,3.9-3.4c0.7-0.7,1.3-1.7,2-2.2c1.1-0.9,1.9-2,2.8-3.1c0.8-1.1,0.8-2.3,0.9-3.7
	c-1,1.7-2.4,2.9-3.4,4.4c-0.3,0.5-0.6,0.5-1.1,0.4c0.7-1.4,1.8-2.4,1.6-4.2c-0.9,1-1.7,1.8-2.4,2.6c-0.1-0.1-0.1-0.1-0.2-0.2
	c1.1-2.3,2.1-4.7,2.5-7.2c-1.9,2.2-2.1,5.3-3.6,7.7c-1.5,2.5-3,4.9-4.9,7.1c-0.2,0-0.3,0-0.5,0l0,0c-0.2-0.1-0.3-0.2-0.5-0.3
	c-0.2-0.6-1.1-0.4-1.2-1.2c2-2.3,4-4.8,5.6-7.4c0-0.1,0-0.2,0-0.3c-0.1,0-0.2,0.1-0.2,0.1c-1,0.6-0.8-0.2-0.6-0.6
	c0.5-1.4,0.6-2.8,0.8-4.3c-1.1,1.5-1.9,3-3.1,4.4c-0.1-0.1-0.1-0.2-0.2-0.2c1.1-3.6,1.8-7.3,1.6-11.2c-0.8,1.6-1.3,3.1-1.9,4.7
	c-0.3,0.8-0.3,1.7-0.4,2.5c-0.7,3.9-2.1,7.5-3.9,11c-1-0.1-1.8-0.5-2.3-1.2c1-1.7,2.1-3.2,2.7-5.1c0.5-1.7,1.1-3.3,1.7-5
	c1.4-4-0.1-7.7-0.7-11.6c-0.4,3.1-0.9,6.2-1.6,9.2c-0.2-0.1-0.4-0.2-0.6-0.2c-0.2-1.8-0.4-3.6-0.5-5.4c-0.4,0.6-0.6,1.2-0.5,1.8
	c0.1,0.9,0.3,1.8,0.3,2.7c0.2,4.3-0.4,8.4-2,12.4c-1,0-1.6-0.6-2.1-1.2c1.4-3.5,2.1-7,2.4-10.8c-0.2,0.3-0.4,0.7-0.7,1
	c0.1-2.1-0.4-4.2-0.6-6.4c-0.3,0.5-0.7,0.8-0.6,1.1c0.1,1.8-0.7,3.5-0.4,5.4c0.4,3-0.1,6-0.7,9.1c-1.1-0.2-1.7-1-2.1-1.8
	c0.3-2,0.6-4,0.9-6c0.4-2.1,0.1-3.8-1.3-5.4c-0.9,1.4-1.6,2.6-1.4,4.5c0.3,2.3,0.6,4.7,1.1,7c-0.4,0.9-1,1.8-2.1,1.8
	c0-1.2-0.4-2.3-0.6-3.4c-0.7-3.4,0.6-6.9-0.5-10.4c-0.2-0.5-0.2-1.1-0.6-1.7c-0.3,2.2-0.7,4.3-0.5,6.6c-0.5-0.5-0.5-1.1-1.2-1.2
	c0.6,3.7,1.4,7.4,2.7,10.9c-0.6,0.6-1.2,1.3-2.1,1.2c-0.6-1.3-1-2.5-1.3-3.9c-0.8-3.6-1.1-7.3-0.5-11c0.1-0.8,0-1.5-0.4-2
	c-0.7,2.1-0.6,4.4-0.7,6.6c-0.1,0-0.3,0-0.4,0c-1-3.3-1.4-6.8-1.8-10.4c-0.7,1.6-0.8,3.1-1,4.7c-0.3,2.1-0.7,4.3,0,6.4
	c1.2,3.7,2.4,7.4,4.7,10.6c-0.7,0.7-1.5,1-2.3,1.2c-0.7-1.4-1.3-2.8-1.8-4.3c-0.8-1.9-1.5-3.8-1.8-5.8c-0.4-1.8-0.5-3.7-1.5-5.4
	c-0.5-0.9-0.5-1.9-1.2-3c-0.3,4.1,0.6,7.7,1.7,11.4c-0.1,0.1-0.1,0.2-0.2,0.2c-1.1-1.3-1.9-2.8-3-4.2c0.5,1.4,0.1,2.8,0.8,4.2
	c0.3,0.6,0,0.9-0.6,0.5c-0.1,0-0.2-0.1-0.2-0.1c0,0.1,0,0.2,0,0.3c1.7,2.6,3.5,5.1,5.6,7.4c-0.1,0.7-1,0.5-1.2,1.2
	c-0.2,0.1-0.3,0.2-0.5,0.3l0,0c-0.2,0-0.3,0-0.5,0c-3.2-3.9-5.9-8.1-7.2-13c-0.2-0.7-0.7-1.3-1.3-1.8c0.5,2.5,1.6,4.9,2.6,7.2
	c-0.1,0.1-0.1,0.1-0.2,0.2c-0.8-0.9-1.7-1.8-2.5-2.7c-0.1,1.5,0.7,2.4,1.1,3.5c0.1,0.3,0.8,0.5,0.2,0.8c-0.4,0.3-0.7-0.2-0.9-0.5
	c-1-1.6-2.5-2.6-3.4-4.3c0.2,1.4,0.2,2.6,1,3.8c1.2,1.7,2.6,3,4,4.6s2.9,2.9,4.7,4.2c-0.5,0.7-1.1,1.4-1.7,1.9
	c-2.4-2-4.6-4.3-6.4-6.8c-0.8-1-1.8-1.7-2.9-2.5c0.5,1.8,1.2,3,1.9,4.3c-0.1,0.1-0.2,0.1-0.2,0.2c-2-1.5-3.5-3.4-5.3-5.4
	c0.3,2.9,1.8,5.4,4.2,6.7c0.2,0.1,0.4,0.1,0.5,0.2c2,1.9,4.5,3.2,6.9,4.5c0.1,1-0.7,1.7-1.2,2.3c-4.2-2.2-7.5-5.6-11.9-8.2
	c0.9,1.4,1.8,2.3,2.6,3.3c-2.7-0.9-4.9-2.8-7.1-4.4c1.9,3.9,4.7,6.9,8.8,8.7c1.8,0.8,3.5,1.5,5.4,2.1c0.5,0.2,1,0.2,1.4-0.1
	c0.1,1.1-0.5,1.9-0.7,3c-1.1-0.1-1.9-0.9-3-1c-0.2-0.1-0.5-0.3-0.7-0.4c-4.6-2-8.8-4.6-12.3-8.4c-0.7-0.7-1.7-1.2-2.5-1.7
	c1.8,2.6,3.7,5,6.4,6.6c-0.4,0.2-0.7,0.1-1,0c-2.1-0.6-4.3-1.3-6.4-2C476.6,416.4,476.3,415.9,475.9,416.5z M555.5,408.1
	C555.5,408.2,555.5,408.2,555.5,408.1C555.6,408.2,555.6,408.2,555.5,408.1C555.7,408.1,555.7,408.1,555.5,408.1
	C555.6,408.1,555.6,408.1,555.5,408.1z M478.5,408.2C478.6,408.2,478.6,408.2,478.5,408.2C478.6,408.1,478.5,408.1,478.5,408.2
	L478.5,408.2L478.5,408.2z"/>
<path class="st12" d="M557.7,417.5c2.5-0.4,4.9-1.6,7.2-2.6c-1.2,2.7-3.1,4.8-5.9,6.6c1.7-0.3,2.9-0.5,4.5-0.8
	c-1.8,1.6-4,2.1-6.1,3.3c1.9,0.3,3.5-0.2,5-0.9c1.4-0.7,2.7-1.5,4.1-2.1c0.1-0.1,0.2-0.4,0.5-0.2c0.2,0.2,0.2,0.3,0,0.5
	c-1,1.2-1.8,2.4-2.9,3.5c-3.1,0.9-6.3,1.7-9.5,1.8c-1.8,0.1-3.6,0-5.4,0c1.3-0.6,2.7-0.9,3.9-1.6c1.2-0.7,2.5-1.2,3.4-2.3
	c-3.5,1-6.7,2.5-10.1,3.5c-2.4,0.3-4.9,1.1-7.4,1c-0.2-0.9-0.3-1.8-0.5-2.5c0.6,0,1.3,0,1.8-0.1c1.1-0.2,2.1,0.1,3.1-0.5
	c0.5,0.2,0.9,0.1,1.4,0c2.1-0.4,4.4-0.9,6.5-1.5c2.1-0.6,3.7-2.1,5.1-3.7C556.6,418.3,556.9,417.7,557.7,417.5z"/>
<path class="st12" d="M470,424.8c-0.7-1.1-1.5-1.9-2.3-2.9c-0.2-0.3-0.8-0.7-0.4-1.1c0.3-0.3,0.7,0.2,1,0.4c2,1.4,4.2,2.4,6.6,2.8
	c0.7,0.1,0.7,0.1,1.7-0.2c-1.9-1.1-4-1.6-5.9-3.1c1.6,0.3,2.8,0.5,4.4,0.8c-2.6-1.8-4.8-3.8-5.9-6.6c2.4,1.1,4.7,2.2,7.3,2.6
	c0.6,0.2,1.1,0.7,1.5,1.2c1.5,1.7,2.9,3.2,5.2,3.9c2.2,0.6,4.4,1.1,6.6,1.5c0.4,0.1,0.9,0.1,1.3-0.1c0.2,0.4,0.6,0.3,0.9,0.3
	c1.4,0.1,2.7,0.2,4,0.3c-0.2,0.9-0.3,1.8-0.5,2.5c-0.8,0-1.6-0.1-2.3-0.2c-1.8-0.2-3.6-0.8-5.4-0.8c-3.4-1.2-6.6-2.6-10-3.5
	c2.3,1.8,4.8,3,7.6,3.8c-3.2,0.2-6.4,0.1-9.5-0.4C473.8,425.8,472,425,470,424.8z"/>
<path class="st12" d="M480.7,438.7c-0.8,2.3-1.8,4.7-2,7.2c-0.1,0.8-0.2,1.7-0.3,2.5c0.8-0.2,0.9-1.2,1.8-1.5c0,3,0.3,5.9,0.7,9
	c-0.4-0.1-0.8-0.2-1.1-0.4c-0.2-0.1-0.6-0.2-0.4-0.5c0.8-1.1-0.1-0.8-0.7-0.9c-0.5,0-1.1-0.1-1.2-0.5c-0.1-0.5,0.6-0.3,0.9-0.6
	c0.2-0.3,0.7-0.3,0.7-0.8c0.1,0,0.2-0.1,0.3-0.1l-0.1-0.1c-0.1,0.1-0.2,0.1-0.2,0.2c-0.8,0-1.6,0-2.3-0.2c-0.2-0.1-0.6,0.1-0.7-0.3
	s0.3-0.5,0.6-0.6c0.9-0.3,1.8-0.6,2.6-1.6c-2.1,0.1-3.9,0.9-5.9,0.4c1.4-0.6,2.6-1.1,3.8-1.9c-1.8,0.4-3.7,0.5-5.6,0.1
	c2-0.7,3.9-1.8,5.8-3c-1.8,0.2-3.3,0.6-4.9,0.3c1.8-0.7,3.4-1.4,5-2.5c-1.6,0.2-3,0.2-4.7-0.6c1.5-0.7,2.9-0.8,4.4-1.7
	c-1.5-0.1-2.6-0.3-4-1c1.8-0.5,3.3-0.7,4.8-1.4c-1.8-0.4-3.5-0.2-5.2-1.1c1.8-0.3,3.5-0.7,5.3-1.2c-2-0.2-4.1-0.5-6-1.5
	c2.8-0.2,5.6,0.1,8.6-0.7c-3.8-0.7-7.4-1.3-10.8-3.1c1.2-0.3,2.1,0.1,3.1,0.2s1.9,0.4,3,0.4c2,0.5,4.2,1.1,6.3,1.2
	c0,1-0.7,1.7-1.1,2.4c-0.6,1.4-1,2.7-1.4,4.3c0.5-0.4,0.9-0.7,1.2-1C480.6,438.6,480.6,438.6,480.7,438.7z"/>
<path class="st12" d="M553.2,455.8c0.4-2.9,0.8-5.8,0.7-9c0.9,0.2,1,1.2,1.8,1.5c-0.1-3.4-1.2-6.5-2.3-9.7l0.1-0.1
	c0.3,0.3,0.7,0.6,1.1,1c-0.3-2-1.1-3.8-1.9-5.5c-0.2-0.4-0.5-0.7-0.4-1.2c2.1-0.1,4.2-0.8,6.3-1.2c1.9,0.1,3.9-0.8,6.2-0.7
	c-3.5,2-7.2,2.4-11,3.3c3,0.6,5.8,0.4,8.6,0.6c-1.8,1.1-4,1.3-6,1.6c1.8,0.5,3.4,1,5.5,1.1c-1.8,1.2-3.7,0.6-5.4,1.2
	c1.5,0.7,3,0.9,4.8,1.4c-1.4,0.7-2.6,0.9-4,1c1.3,0.9,2.7,0.9,4.2,1.7c-1.7,0.6-3,0.8-4.6,0.4c1.5,1.3,3.1,1.8,4.9,2.6
	c-1.6,0.2-3,0-4.8-0.3c1.9,1.4,3.8,2.3,5.7,3c-1.8,0.5-3.7,0.2-5.5-0.1c1.2,0.9,2.4,1.4,3.8,1.9c-1.9,0.4-3.7-0.3-5.6-0.4
	c0.5,1,1.4,1.1,2.1,1.5c0.4,0.2,0.9,0.2,0.8,0.7c-0.1,0.4-0.5,0.2-0.8,0.3c-0.7,0.3-1.5,0.2-2.2,0.2c-0.1-0.1-0.2-0.1-0.2-0.2
	l-0.1,0.1c0.1,0,0.2,0.1,0.3,0.1c0.1,0.6,0.7,0.7,1.1,1c0.2,0.1,0.4,0.1,0.5,0.3c0,0.3-0.3,0.3-0.4,0.5c-0.4,0.2-0.8,0.2-1.2,0.2
	c-0.2,0-0.7,0.1-0.6,0.3C555.2,455.9,553.6,455.4,553.2,455.8z"/>
<path class="st12" d="M559.9,430.6c-1,0-1.9,0.2-3-0.1c0.2-0.5,0.7-0.5,1-0.7c1.8-0.9,3.4-1.9,4.9-3.2c0.5,0.7,1.1,0.3,1.6,0
	c1.1-0.5,2.1-1.1,3.4-1.7c-0.3,0.9-1,1.3-1.5,1.6c-1.4,1.1-2.7,2.1-4.4,2.8C561,429.8,560.4,430,559.9,430.6z"/>
<path class="st12" d="M472,427.1c1.8,1,3.4,2.4,5.6,3.2c-1.2,0.6-2.2,0.1-3.1,0.5c-0.2-0.7-0.8-0.9-1.4-1.2c-2.4-1-4.5-2.6-6.7-4.5
	c0.8,0,1.2,0.3,1.6,0.5c0.5,0.2,0.9,0.5,1.4,0.7C470.1,426.7,470.9,427.3,472,427.1z"/>
<path class="st12" d="M542.6,431.9c-1-0.1-1.8-0.2-2.8-0.1s-1.4-0.3-1.2-1.3c0-0.3,0-0.6,0-0.8c0.3-0.1,0.4-0.3,0.4-0.5
	c3.4,0.3,6.8,0.5,10.1,0c2.2-0.2,4.4-0.4,6.5-1.1c1.2-0.3,2.4-0.4,3.7-0.6c-1.2,1-2.5,1.7-4,2.1c-1.6,0.5-3,0.9-4.6,1.4
	C548.2,431.6,545.4,431.8,542.6,431.9z"/>
<path class="st12" d="M495.4,429.8c0,0.5,0.1,1.1,0.1,1.6c0,0.1,0,0.2,0,0.3c-1.3,0.4-2.6,0.2-4,0.3c-2.8-0.1-5.6-0.3-8.5-0.8
	c-1.7-0.6-3.4-0.9-5-1.6c-1.2-0.5-2.3-1.1-3.4-1.8c3.4,0.5,6.7,1.5,10.2,1.6c3,0.4,6,0.4,9.1,0.1c0.4,0,0.8,0,1.2,0.2
	C495.1,429.6,495.3,429.7,495.4,429.8z"/>
<path class="st12" d="M525.6,395.5c-0.2,0.6-0.1,1.3-0.6,1.8c0-0.8,0-1.5,0-2C525.2,395.3,525.4,395.4,525.6,395.5z"/>
<path class="st13" d="M553.2,455.8c-0.2,2.1-0.2,2.1-2.2,2.1c-22.7,0-45.3,0-67.9,0c-2,0-2,0-2.2-2.1c-0.4-2.9-0.8-5.9-0.7-9
	c-0.9,0.3-1,1.3-1.8,1.5c0.1-0.9,0.2-1.8,0.3-2.5c0.3-2.5,1.3-4.9,2-7.2c0.1-0.1,0.2-0.3,0.1-0.4c-0.2-0.1-0.2,0.1-0.2,0.2
	c-0.3,0.3-0.7,0.6-1.2,1c0.4-1.7,0.9-3,1.4-4.3c0.3-0.8,1.1-1.5,1.1-2.4c0.8-0.3,1-1.1,1.3-1.8c2.8,0.6,5.6,0.7,8.5,0.8
	c-0.1,0.7,0.4,0.6,0.9,0.6c0.9,0,1.7,0,2.5,0c0,0.5-0.2,0.5-0.3,0.6c-0.4,0.5-1.1,1.1-1,1.5c0.2,0.6,1.1,0.2,1.6,0.3
	c0.4,0.1,0.7,0,1.1,0.1c0.3,0.1,0.9,0.3,0.6,0.8c-0.5,0.9,0.1,0.8,0.6,0.6c1.4-0.3,2.7,0,4,0.5c1.6,0.6,2.7,1.7,4,2.6
	c1.8,1.3,3.6,2.7,6,2.4c0,0.5,0.1,1.1,0.4,1.5c1.7,2.5,1.4,5.4,1.2,8.1c-0.2,2.8,1,4.7,3.7,5.1c2.7,0.3,5.2-2,4.8-4.9
	c-0.3-2-0.3-4.1,0.2-6.1c0.3-1.3,1.4-2.2,1.4-3.6c0.9,0,1.7,0.1,2.5-0.3c1.8-0.8,3.2-1.8,4.7-3c2-1.6,4.2-2.7,6.9-2.1
	c0.3,0.1,0.8,0.1,0.6-0.4c-0.6-1.4,0.5-1.1,1.1-1.3c0.7-0.2,1.8,0.4,1.9-0.3c0.2-0.5-0.6-1.3-1.3-1.7c0,0,0-0.1-0.1-0.4
	c0.9,0,1.8,0,2.5,0c0.5,0,0.9,0.1,0.9-0.6c2.7-0.1,5.5-0.3,8.3-0.8c0.6,0.5,0.6,1.5,1.5,1.8c-0.1,0.5,0.2,0.8,0.4,1.2
	c0.9,1.8,1.7,3.5,1.9,5.5c-0.5-0.4-0.8-0.7-1.1-1c-0.1-0.1-0.1-0.3-0.2-0.2c-0.1,0.1,0,0.3,0.1,0.4c1.2,3.1,2.2,6.3,2.3,9.7
	c-0.8-0.3-0.9-1.3-1.8-1.5C554,450,553.6,452.9,553.2,455.8z"/>
<path class="st13" d="M496.2,423.3c-0.1,0.4-0.2,0.8-0.3,1.2c-1.4-0.1-2.7-0.2-4-0.3c-0.3,0-0.7,0.1-0.9-0.3
	c0.5-0.8,1.5-1.1,2.1-1.6C494.3,422.5,495.1,423.2,496.2,423.3z"/>
<path class="st13" d="M538.2,424.6c-0.1-0.4-0.2-0.8-0.3-1.2c1.1-0.1,1.9-0.9,3-1c0.8,0.5,1.7,0.8,2.1,1.6c-1,0.6-2,0.3-3.1,0.5
	C539.4,424.6,538.8,424.5,538.2,424.6z"/>
<path class="st13" d="M549.3,429.2c-3.4,0.5-6.8,0.3-10.1,0c-0.2,0-0.3,0-0.5,0c0-0.7,0-1.5,0-2.1c2.5,0.1,5-0.7,7.4-1
	C547.2,427,548.3,428,549.3,429.2z"/>
<path class="st13" d="M495,429.5c-0.4-0.2-0.8-0.3-1.2-0.2c-3,0.4-6,0.3-9.1-0.1c0.9-1.1,1.8-2.2,2.9-3c1.8,0,3.6,0.7,5.4,0.8
	c0.8,0.1,1.6,0.2,2.3,0.2c0,0.7,0,1.3,0,1.9C495.1,429,495,429.2,495,429.5z"/>
<path class="st13" d="M521.2,440.1c-0.2,0.3-0.5,0.3-0.7,0.1c-2.2-1.3-4.6-1.3-6.8,0c-0.3,0.2-0.5,0.2-0.7-0.1l0,0
	c0.1-0.1,0.2-0.2,0.2-0.2l0,0c0.7-0.3,1.4-0.7,2.1-0.9c1.8-0.6,3.6-0.3,5.3,0.8c0.1,0.1,0.3,0.1,0.5,0.1l0,0
	C521,439.9,521.1,440,521.2,440.1L521.2,440.1z"/>
<path class="st14" d="M514.6,404.9c1.1-0.2,1.7-1,2.1-1.8c0.2,0,0.5,0,0.7,0c0.4,0.9,1,1.8,2.1,1.8c0,0.4,0.2,0.6,0.6,0.7
	c0.6,0.6,1.2,1.3,2.1,1.2c0.3,0.6,0.7,1,1.4,1c0.7,0.7,1.4,1.2,2.3,1.2c0.8,0.5,1.5,1,2.3,1.2c0.1,0.7,1,0.5,1.2,1.2
	c0.1,0.3,0.3,0.3,0.5,0.3l0,0c0,0.4,0,0.7,0.5,0.7l0,0c-0.1,0.4,0.1,0.7,0.3,1c1.6,1.9,2.3,4.2,2.8,6.6c0.3,1.4,0.3,2.6-1.4,3.3
	c-0.6,0.3-1.1,0.8-1.4,1.3s-1,1-0.7,1.4c0.7,1.1-0.3,1.4-0.7,1.9c-1.2,1.4-2.9,1-4.4,1.3c-2.7,0.4-5.3,2.5-5.6,5
	c-0.1,0.3,0.1,0.7-0.2,0.9c-0.5,0.3-0.4-0.6-0.8-0.5c-0.3,0.3-0.1,0.7-0.1,1c0.3,1.8,1.3,3.2,2.5,4.5c-0.2,0-0.3,0-0.5-0.1
	c-1.7-1.1-3.4-1.4-5.3-0.8c-0.7,0.2-1.5,0.6-2.1,0.9c0-0.4,0.4-0.5,0.6-0.7c1.3-1.4,1.9-2.9,2-4.9c-0.5,0-0.5,0.8-0.9,0.5
	c-0.3-0.2-0.2-0.6-0.2-0.9c-0.2-1-0.6-1.8-1.3-2.6c-1.7-1.8-3.8-2.5-6.1-2.5c-1.5-0.1-2.6-0.8-3.4-1.9c-0.1-0.2-0.4-0.4-0.2-0.6
	c0.6-0.5,0.1-0.9-0.1-1.3c-0.5-1.1-1.4-1.7-2.3-2.2c-0.5-0.3-0.8-0.6-0.8-1.2c0-2,0.6-3.9,1.4-5.7c0.5-1.3,1.6-2.1,1.8-3.4l0,0
	c0.6,0.1,0.5-0.3,0.5-0.7l0,0c0.2,0,0.4-0.1,0.5-0.3c0.2-0.6,1.1-0.4,1.2-1.2c0.9-0.1,1.6-0.7,2.3-1.2c0.9-0.2,1.7-0.6,2.3-1.2
	c0.7,0,1.1-0.4,1.4-1c1,0.1,1.6-0.6,2.1-1.2C514.4,405.5,514.6,405.2,514.6,404.9z"/>
<path class="st14" d="M511.3,441.9c0.5-0.7,0.9-1.5,1.7-1.8c0.2,0.3,0.5,0.3,0.7,0.1c2.2-1.3,4.6-1.3,6.8,0c0.3,0.2,0.5,0.2,0.7-0.1
	c0.8,0.4,1.2,1.3,1.7,1.8c0,1.4-1.1,2.3-1.4,3.6c-0.5,2-0.5,4.2-0.2,6.1c0.5,2.8-1.9,5.2-4.8,4.9c-2.7-0.3-3.9-2.2-3.7-5.1
	c0.2-2.7,0.5-5.5-1.2-8.1C511.4,443,511.3,442.5,511.3,441.9z M517,450.2c-2,0-3.4,1.2-3.4,2.9c0,1.6,1.7,3,3.5,3s3.4-1.5,3.4-3
	C520.5,451.4,519.1,450.2,517,450.2z"/>
<path class="st13" d="M524.5,432.3c-1.2,0-2.3,0.9-2.3,1.8c0,1.2,0.8,1.9,2.1,1.9c1.3,0,2-0.7,2-1.8
	C526.4,433.1,525.7,432.3,524.5,432.3z M522.9,434.3L522.9,434.3L522.9,434.3L522.9,434.3z"/>
<path class="st13" d="M509.6,432.3c-1.2,0-1.9,0.7-1.9,1.8c0,1.3,0.7,1.9,1.9,1.9c1.4,0,2.2-0.7,2.2-1.8
	C512,433.2,510.9,432.3,509.6,432.3z"/>
<path class="st15" d="M520.9,439.8c-1.2-1.3-2.2-2.7-2.5-4.5c-0.1-0.3-0.2-0.7,0.1-1c0.4-0.1,0.3,0.8,0.8,0.5
	c0.3-0.2,0.2-0.6,0.2-0.9c0.4-2.4,2.9-4.6,5.6-5c1.6-0.2,3.2,0.1,4.4-1.3c0.5-0.5,1.4-0.9,0.7-1.9c-0.3-0.5,0.4-1,0.7-1.4
	c0.3-0.6,0.8-1.1,1.4-1.3c1.6-0.7,1.7-1.9,1.4-3.3c-0.5-2.4-1.3-4.7-2.8-6.6c-0.2-0.3-0.4-0.6-0.3-1c0.8,0.2,1.2,0.9,1.8,1.3
	c0.6,0.7,1.1,1.3,1.7,1.9c0.2,0.6,0.5,1.1,1.2,1.2c-0.1,1,0.7,1.7,1.2,2.3c0,0.7,0.6,1,1,1.5c-0.1,1.1,0.5,1.9,0.7,3
	c0.1,0.4,0.2,0.8,0.3,1.2c0.2,0.9,0.3,1.8,0.5,2.5c0,0.7,0,1.5,0,2.1c0,0.2,0,0.4,0.1,0.5c0,0.3,0,0.6,0,0.8c-0.2,1,0.2,1.3,1.2,1.3
	c0.9-0.1,1.8,0.1,2.8,0.1c0.1,0.7-0.4,0.6-0.9,0.6c-0.9,0-1.7,0-2.5,0c0.1,0.3,0.1,0.4,0.1,0.4c0.6,0.5,1.4,1.2,1.3,1.7
	c-0.2,0.6-1.3,0.1-1.9,0.3c-0.6,0.2-1.8-0.1-1.1,1.3c0.2,0.5-0.3,0.4-0.6,0.4c-2.7-0.6-4.9,0.6-6.9,2.1c-1.5,1.2-3,2.2-4.7,3
	c-0.9,0.4-1.7,0.3-2.5,0.3c-0.5-0.7-0.9-1.5-1.7-1.8l0,0C521.1,440,521,439.9,520.9,439.8C520.9,439.9,520.9,439.8,520.9,439.8z
	 M524.3,436.1c1.3,0,2-0.7,2-1.8c0-1.2-0.7-1.8-1.8-1.9c-1.2,0-2.3,0.9-2.3,1.8C522.1,435.3,523,436.1,524.3,436.1z"/>
<path class="st15" d="M503.7,412.2c-0.3,1.4-1.4,2.2-1.8,3.4c-0.8,1.8-1.4,3.7-1.4,5.7c0,0.6,0.3,0.9,0.8,1.2c1,0.6,1.8,1.3,2.3,2.2
	c0.2,0.4,0.8,0.8,0.1,1.3c-0.2,0.2,0.1,0.4,0.2,0.6c0.8,1.2,1.9,1.8,3.4,1.9c2.3,0.1,4.5,0.8,6.1,2.5c0.7,0.8,1.1,1.7,1.3,2.6
	c0.1,0.3-0.1,0.7,0.2,0.9c0.5,0.3,0.4-0.5,0.9-0.5c-0.1,1.9-0.7,3.5-2,4.9c-0.2,0.2-0.6,0.3-0.6,0.7l0,0c-0.1,0.1-0.2,0.2-0.2,0.2
	l0,0c-0.8,0.4-1.2,1.3-1.7,1.8c-2.4,0.3-4.2-1.2-6-2.4c-1.3-0.9-2.4-2-4-2.6c-1.3-0.5-2.6-0.8-4-0.5c-0.5,0.1-1.1,0.3-0.6-0.6
	c0.3-0.6-0.2-0.7-0.6-0.8c-0.3-0.1-0.7-0.1-1.1-0.1c-0.6-0.1-1.5,0.3-1.6-0.3c-0.1-0.5,0.6-1.1,1-1.5c0.1-0.1,0.4-0.2,0.3-0.6
	c-0.8,0-1.7,0-2.5,0c-0.5,0-0.9,0.1-0.9-0.6c1.4-0.2,2.7,0,4-0.3c0.2-0.1,0.2-0.2,0-0.3c0-0.5-0.1-1.1-0.1-1.6c0-0.3,0-0.5,0-0.8
	c0-0.7,0-1.3,0-1.9c0.2-0.9,0.3-1.8,0.5-2.5c0.1-0.4,0.2-0.8,0.3-1.2c0.2-1,0.9-1.8,0.7-3c0.3-0.5,1-0.8,1-1.5
	c0.5-0.7,1.2-1.4,1.2-2.3c0.7-0.1,1-0.6,1.2-1.2c0.7-0.6,1.2-1.2,1.7-1.9C502.5,413.1,502.9,412.4,503.7,412.2z M509.7,436.1
	c1.4,0,2.2-0.7,2.2-1.8c0-1-1.1-1.9-2.3-1.9c-1.2,0-1.9,0.7-1.9,1.8C507.7,435.4,508.5,436.1,509.7,436.1z"/>
<path class="st15" d="M517,450.2c2,0,3.5,1.2,3.5,2.8c0,1.6-1.7,3-3.4,3c-1.8,0-3.4-1.4-3.5-3C513.6,451.4,515,450.2,517,450.2z
	 M519.1,454.3c-0.2-0.3-0.4-0.8-0.9-0.7c-0.4,0-0.8,0.4-0.8,0.8s0.3,0.8,0.7,0.8C518.6,455.1,519,454.9,519.1,454.3z M516.8,454.3
	c-0.1-0.5-0.4-0.8-0.9-0.8c-0.4,0-0.8,0.4-0.8,0.8c0,0.5,0.5,0.8,0.9,0.8C516.4,455.1,516.7,454.8,516.8,454.3z"/>
<path class="st12" d="M565.5,404.9c0-0.1,0-0.2,0.1-0.3l0.1,0.1C565.6,404.8,565.6,404.8,565.5,404.9L565.5,404.9z"/>
<path class="st12" d="M468.7,404.9c-0.1-0.1-0.1-0.1-0.2-0.2l0.1-0.1C468.6,404.7,468.6,404.8,468.7,404.9L468.7,404.9z"/>
<path class="st12" d="M539.1,379.1c0-0.1,0-0.2,0.1-0.3C539.4,378.9,539.1,379,539.1,379.1L539.1,379.1z"/>
<path class="st12" d="M495,379.1c-0.1-0.1-0.1-0.2-0.2-0.3C495.1,378.7,495,379,495,379.1L495,379.1z"/>
<polygon class="st12" points="565.3,414.5 565.4,414.5 565.4,414.6 "/>
<polygon class="st12" points="468.8,414.6 468.8,414.5 468.8,414.5 "/>
<path class="st15" d="M503.7,412.2c0-0.2,0-0.5,0.1-0.7c0.2,0,0.3,0,0.5,0C504.2,411.9,504.3,412.2,503.7,412.2z"/>
<path class="st15" d="M530.4,411.6c0,0.2,0,0.5,0.1,0.7c-0.6,0.1-0.5-0.3-0.5-0.7C530.1,411.6,530.2,411.6,530.4,411.6z"/>
<path class="st12" d="M509.1,396.5c0,0.3,0.1,0.5,0.1,0.9c-0.4-0.3-0.5-0.5-0.5-0.9C508.9,396.5,509,396.5,509.1,396.5z"/>
<path class="st16" d="M497.4,388.7c0.2,0.1,0.2,0.3,0.2,0.5l-0.1,0.1C497.5,389.1,497.4,388.9,497.4,388.7L497.4,388.7z"/>
<path class="st16" d="M536.8,388.7c-0.1,0.2-0.1,0.3-0.2,0.5c0,0-0.1,0-0.1-0.1S536.5,388.8,536.8,388.7
	C536.7,388.7,536.8,388.7,536.8,388.7z"/>
<path class="st16" d="M558.2,409.9c-0.1,0.1-0.2,0.1-0.2,0.2c0,0,0-0.1-0.1-0.1C558,409.9,558.1,409.9,558.2,409.9L558.2,409.9z"/>
<path class="st16" d="M476,409.9c0.1,0,0.2,0,0.3,0.1c0,0,0,0.1-0.1,0.1C476.1,410,476,410,476,409.9L476,409.9z"/>
<path class="st16" d="M555.5,408.1L555.5,408.1C555.7,408.1,555.7,408.2,555.5,408.1C555.7,408.3,555.6,408.2,555.5,408.1
	C555.5,408.2,555.5,408.2,555.5,408.1z"/>
<path class="st16" d="M478.5,408.2L478.5,408.2L478.5,408.2C478.6,408.1,478.6,408.2,478.5,408.2
	C478.6,408.2,478.6,408.2,478.5,408.2z"/>
<path class="st15" d="M529.9,411.6c-0.2,0-0.4-0.1-0.5-0.3C529.6,411.4,529.8,411.5,529.9,411.6z"/>
<path class="st16" d="M546.1,397.6c0,0.1,0,0.2,0,0.3c0,0-0.1,0-0.1-0.1C546,397.8,546.1,397.7,546.1,397.6L546.1,397.6z"/>
<path class="st16" d="M487.9,397.6c0.1,0.1,0.1,0.2,0.2,0.2c0,0-0.1,0-0.1,0.1C487.9,397.8,487.9,397.7,487.9,397.6L487.9,397.6z"/>
<path class="st16" d="M493.4,391.3c0.1,0.1,0.1,0.2,0.2,0.2l-0.1,0.1C493.4,391.5,493.4,391.4,493.4,391.3L493.4,391.3z"/>
<path class="st15" d="M504.7,411.3c-0.1,0.3-0.3,0.3-0.5,0.3C504.4,411.5,504.5,411.4,504.7,411.3z"/>
<path class="st17" d="M533.7,402.6c0.1,0,0.2-0.1,0.2-0.1c0,0.1,0,0.2,0,0.3C533.8,402.7,533.7,402.6,533.7,402.6z"/>
<path class="st17" d="M500.3,402.7c0-0.1,0-0.2,0-0.3c0.1,0,0.2,0.1,0.2,0.1C500.4,402.6,500.3,402.7,500.3,402.7z"/>
<path class="st12" d="M480.5,438.6c0.1-0.1,0.1-0.3,0.2-0.2c0.1,0.1,0,0.3-0.1,0.4C480.6,438.6,480.6,438.6,480.5,438.6z"/>
<path class="st12" d="M553.4,438.7c-0.1-0.1-0.2-0.3-0.1-0.4c0.2-0.1,0.2,0.1,0.2,0.2S553.4,438.6,553.4,438.7z"/>
<path class="st16" d="M479,452.3c0.1-0.1,0.2-0.1,0.2-0.2l0.1,0.1C479.2,452.2,479.1,452.3,479,452.3L479,452.3z"/>
<path class="st16" d="M555.1,452.3c-0.1,0-0.2-0.1-0.3-0.1l0.1-0.1C555,452.2,555.1,452.2,555.1,452.3L555.1,452.3z"/>
<path class="st14" d="M538.6,429.3c0.2,0,0.3,0,0.5,0c0,0.3-0.1,0.5-0.4,0.5C538.6,429.6,538.6,429.4,538.6,429.3z"/>
<path class="st14" d="M521.2,440.1c-0.1-0.1-0.2-0.2-0.2-0.2S521.1,440,521.2,440.1z"/>
<path class="st14" d="M495,429.5c0-0.3,0.1-0.5,0.4-0.5c0,0.3,0,0.5,0,0.8C495.3,429.7,495.1,429.6,495,429.5z"/>
<path class="st14" d="M513.2,439.9c-0.1,0.1-0.2,0.2-0.2,0.2C513.1,440,513.1,439.9,513.2,439.9z"/>
<path class="st14" d="M495.5,431.6c0-0.1,0-0.2,0-0.3C495.7,431.4,495.7,431.5,495.5,431.6z"/>
<path class="st12" d="M503.6,401.8c0.2,0.2,0.3,0.4,0.1,0.7c-0.1-0.2-0.2-0.3-0.3-0.5C503.4,402,503.5,401.9,503.6,401.8z"/>
<path class="st12" d="M530.8,402.1c-0.1,0.1-0.2,0.1-0.3,0.2c-0.1-0.2,0-0.3,0.1-0.5C530.7,401.9,530.7,402,530.8,402.1z"/>
<path class="st12" d="M497.9,404c0.2,0.1,0.2,0.3,0.1,0.4c-0.2,0.1-0.2-0.1-0.3-0.2C497.8,404.1,497.9,404.1,497.9,404z"/>
<path class="st12" d="M536.4,404.2c-0.1,0.1-0.3,0.4-0.4,0.3c-0.2-0.2,0.1-0.3,0.2-0.5C536.3,404.1,536.3,404.1,536.4,404.2z"/>
<path class="st12" d="M541.6,410.5c-0.1,0.1-0.2,0.2-0.3,0.1c-0.2-0.1-0.1-0.2,0-0.4C541.4,410.3,541.5,410.4,541.6,410.5z"/>
<path class="st12" d="M492.8,410.3c0.1,0.1,0.2,0.2,0,0.4c0,0-0.2-0.1-0.3-0.1C492.6,410.4,492.7,410.3,492.8,410.3z"/>
<path class="st17" d="M557.7,417.5c-0.7,0.3-1.2,0.8-1.7,1.5c-1.4,1.6-2.8,3.1-5.1,3.7c-2.1,0.6-4.3,1.1-6.5,1.5
	c-0.5,0.1-1,0.1-1.4,0c-0.5-0.8-1.5-1.1-2.1-1.6c2.5-1.5,5.3-2.5,7.7-4.3c1.5-1.1,2.9-2,4.1-3.3c1-1.2,2.2-2,3.6-2.6
	c-1.8,2.5-3.8,4.8-6.5,6.4c1.1,0.2,1.8-0.3,2.7-0.5c1.7-0.5,3.3-1.1,5.1-1.7c0.3-0.1,0.6-0.4,0.8,0.1
	C557.9,416.7,557.6,417,557.7,417.5z"/>
<path class="st17" d="M491,424c-0.4,0.2-0.9,0.1-1.3,0.1c-2.2-0.4-4.5-0.9-6.6-1.5c-2.2-0.6-3.8-2.2-5.2-3.9c-0.5-0.5-0.9-1-1.5-1.2
	c0.1-0.5-0.2-0.7-0.5-1c0.4-0.6,0.7-0.1,1,0c2.1,0.8,4.3,1.4,6.4,2c0.3,0.1,0.5,0.2,1,0c-2.7-1.7-4.7-4-6.4-6.6
	c0.9,0.6,1.8,1,2.5,1.7c3.4,3.8,7.7,6.2,12.3,8.4c0.2,0.1,0.5,0.3,0.7,0.4C492.4,422.8,491.5,423.1,491,424z"/>
<path class="st17" d="M558.6,431.6c-2.1,0.5-4.2,1.1-6.3,1.2c-0.9-0.3-0.9-1.2-1.5-1.8c1.6-0.5,3.1-0.9,4.6-1.4s2.8-1.2,4-2.1
	c-1.3,0.2-2.5,0.2-3.7,0.6c-2.1,0.7-4.3,0.8-6.5,1.1c-1-1.2-2-2.1-3.2-3.1c3.5-0.9,6.7-2.5,10.1-3.5c-0.9,1.2-2.2,1.7-3.4,2.3
	c-1.2,0.7-2.6,1-3.9,1.6c1.8,0,3.6,0.1,5.4,0c3.2-0.1,6.4-0.9,9.5-1.8c-0.1,0.9-0.8,1.3-1.2,1.8c-1.5,1.3-3.1,2.3-4.9,3.2
	c-0.3,0.2-0.8,0.2-1,0.7c1,0.3,2,0.2,3,0.1C559.8,431.3,558.8,430.9,558.6,431.6z"/>
<path class="st17" d="M481.8,432.8c-2.1-0.2-4.2-0.7-6.3-1.2c-0.2-0.6-0.9-0.3-1.1-0.8c0.9-0.4,1.9,0.1,3.1-0.5
	c-2.2-0.8-3.8-2.2-5.6-3.2c-0.6-0.8-1.4-1.5-1.8-2.4c1.9,0.3,3.7,1.1,5.6,1.3c3.2,0.5,6.3,0.6,9.5,0.4c-2.8-0.8-5.3-2-7.6-3.8
	c3.5,0.9,6.7,2.3,10,3.5c-1.2,0.8-2,1.9-2.9,3c-3.5-0.1-6.8-1.1-10.2-1.6c1.1,0.8,2.2,1.4,3.4,1.8c1.7,0.7,3.4,1,5,1.6
	C482.8,431.8,482.6,432.5,481.8,432.8z"/>
<path class="st17" d="M497.9,418.9c0,0.7-0.6,1-1,1.5c-0.5,0.3-0.9,0.3-1.4,0.1c-1.8-0.7-3.6-1.4-5.4-2.1c-4.1-1.8-6.7-4.8-8.8-8.7
	c2.2,1.7,4.4,3.5,7.1,4.4c-0.9-1-1.8-1.9-2.6-3.3C490.4,413.2,493.7,416.6,497.9,418.9z"/>
<path class="st17" d="M537.2,420.3c-0.3-0.5-1-0.8-1-1.5c4.1-2.2,7.4-5.5,11.7-8.1c-0.7,1.5-1.7,2.3-2.6,3.3
	c1.5-0.3,2.6-1.1,3.8-1.8c1.2-0.8,2.2-1.7,3.3-2.5c0,0.1,0.1,0.2,0.1,0.3c-1.5,2.7-3.2,5.3-5.9,6.9c-2.4,1.5-5.1,2.6-7.8,3.5
	C538.3,420.5,537.8,420.6,537.2,420.3z"/>
<path class="st17" d="M508.3,408.9c-0.8,0.5-1.5,1-2.3,1.2c-2-2.3-4-4.8-5.6-7.4c0.1,0,0.1-0.1,0.2-0.1c0.7,0.4,1,0.1,0.6-0.5
	c-0.7-1.3-0.3-2.8-0.8-4.2c1.1,1.4,1.9,2.8,3,4.2c0.1,0.2,0.2,0.3,0.3,0.5c0.2-0.3,0.1-0.5-0.1-0.7c-1.1-3.6-1.9-7.3-1.7-11.4
	c0.7,1.1,0.7,2.1,1.2,3c1,1.7,1.1,3.6,1.5,5.4c0.4,2,1.1,3.9,1.8,5.8C506.9,406.1,507.6,407.6,508.3,408.9z"/>
<path class="st17" d="M511.9,406.8c-0.3,0.6-0.7,1-1.4,1c-2.2-3.2-3.4-6.9-4.7-10.6c-0.7-2.1-0.3-4.3,0-6.4c0.2-1.6,0.3-3.1,1-4.7
	c0.4,3.6,0.8,7,1.8,10.4c0,0.3,0.1,0.6,0.5,0.9c0-0.4-0.1-0.6-0.1-0.9c0.1-2.2,0-4.5,0.7-6.6c0.4,0.6,0.5,1.3,0.4,2
	c-0.6,3.7-0.3,7.4,0.5,11C510.9,404.3,511.3,405.6,511.9,406.8z"/>
<path class="st17" d="M523.6,407.8c-0.7,0-1.1-0.4-1.4-1c1.7-4,2.2-8.1,2-12.4c0-0.9-0.2-1.8-0.3-2.7c-0.1-0.7,0.1-1.3,0.5-1.8
	c0.2,1.8,0.4,3.6,0.5,5.4c0,0.7,0,1.3,0,2c0.6-0.6,0.4-1.3,0.6-1.8c0.7-3,1.3-6.1,1.6-9.2c0.7,3.8,2,7.5,0.7,11.6
	c-0.6,1.7-1.2,3.3-1.7,5C525.7,404.6,524.4,406.1,523.6,407.8z"/>
<path class="st17" d="M528.2,410.1c-0.9-0.1-1.6-0.7-2.3-1.2c1.8-3.5,3.2-7.1,3.9-11c0.2-0.9,0.1-1.8,0.4-2.5
	c0.7-1.6,1.2-3.2,1.9-4.7c0.1,3.8-0.5,7.5-1.6,11.2c-0.1,0.1-0.2,0.3-0.1,0.5c0.1-0.1,0.2-0.1,0.3-0.2c1.2-1.4,1.9-2.9,3.1-4.4
	c-0.3,1.5-0.3,2.9-0.8,4.3c-0.2,0.5-0.3,1.2,0.6,0.6c0.1,0,0.1,0.1,0.2,0.1C532.2,405.3,530.3,407.8,528.2,410.1z"/>
<path class="st17" d="M503.7,412.2c-0.8,0.2-1.2,0.9-1.8,1.3c-1.7-1.3-3.3-2.6-4.7-4.2c-1.4-1.6-2.8-2.8-4-4.6
	c-0.8-1.2-0.8-2.4-1-3.8c0.9,1.7,2.4,2.7,3.4,4.3c0.2,0.3,0.5,0.8,0.9,0.5c0.5-0.4-0.1-0.6-0.2-0.8c-0.5-1.1-1.3-2-1.1-3.5
	c0.9,1,1.8,1.8,2.5,2.7c0.1,0.1,0.2,0.3,0.3,0.2s0.1-0.3-0.1-0.4c-1.1-2.3-2-4.7-2.6-7.2c0.6,0.5,1.2,1,1.3,1.8
	c1.3,5,3.9,9.1,7.2,13C503.7,411.8,503.7,411.9,503.7,412.2L503.7,412.2z"/>
<path class="st17" d="M532.2,413.4c-0.7-0.3-1.1-1-1.8-1.3l0,0c0-0.2,0-0.5-0.1-0.7c1.8-2.2,3.4-4.6,4.9-7.1
	c1.5-2.4,1.7-5.4,3.6-7.7c-0.5,2.5-1.5,4.9-2.5,7.2c-0.1,0.1-0.4,0.3-0.2,0.5c0.1,0.1,0.3-0.1,0.4-0.3c0.8-0.8,1.6-1.7,2.4-2.6
	c0.2,1.8-0.9,2.9-1.6,4.2c0.5,0.1,0.8,0.1,1.1-0.4c1.1-1.6,2.5-2.7,3.4-4.4c-0.1,1.3-0.1,2.6-0.9,3.7c-0.8,1.2-1.7,2.2-2.8,3.1
	c-0.8,0.6-1.3,1.6-2,2.2C534.9,411.3,533.6,412.3,532.2,413.4z"/>
<path class="st17" d="M535.1,416.5c-0.7-0.1-1-0.6-1.2-1.2c2.5-2.1,4.9-4.6,6.8-7.3c0.6-0.9,1.6-1.3,2.3-1.9c-0.2,1.6-1,2.8-1.8,4.1
	c-0.1,0.1-0.2,0.2,0,0.4c0,0,0.2-0.1,0.3-0.1c1.9-1.5,3.6-3.4,5.4-5.5c-0.5,3.2-1.8,5.4-4.4,6.9c-1.6,0.9-2.9,2.1-4.5,3.1
	C537.1,415.5,536.1,416,535.1,416.5z"/>
<path class="st17" d="M500.2,415.4c-0.2,0.6-0.5,1.1-1.2,1.2c-2.4-1.3-5-2.5-6.9-4.5c-0.1-0.1-0.4-0.1-0.5-0.2
	c-2.3-1.3-4-3.8-4.2-6.7c1.8,1.9,3.2,3.9,5.3,5.4c0.1,0.1,0.2,0.2,0.3,0.1c0.2-0.1,0.1-0.2,0-0.4c-0.8-1.3-1.5-2.5-1.9-4.3
	c1.2,0.9,2.1,1.6,2.9,2.5C495.6,411.1,497.8,413.4,500.2,415.4z"/>
<path class="st17" d="M514.6,404.9c0,0.4-0.2,0.6-0.6,0.7c-1.4-3.5-2.1-7.1-2.7-10.9c0.7,0.1,0.6,0.7,1.2,1.2
	c-0.2-2.2,0.2-4.3,0.5-6.6c0.4,0.6,0.4,1.2,0.6,1.7c1.1,3.4-0.1,6.9,0.5,10.4C514.2,402.6,514.6,403.8,514.6,404.9z"/>
<path class="st17" d="M520.1,405.6c-0.4-0.1-0.5-0.4-0.6-0.7c0.6-3,1.2-6,0.7-9.1c-0.3-1.8,0.5-3.6,0.4-5.4c0-0.3,0.4-0.6,0.6-1.1
	c0.2,2.2,0.7,4.3,0.6,6.4c0.2-0.3,0.4-0.7,0.7-1C522.2,398.6,521.4,402.2,520.1,405.6z"/>
<path class="st17" d="M517.4,403c-0.2,0-0.5,0-0.7,0c-0.4-2.3-0.8-4.7-1.1-7c-0.2-1.8,0.5-3.1,1.4-4.5c1.4,1.7,1.6,3.4,1.3,5.4
	C517.9,399,517.7,401,517.4,403z"/>
<path class="st17" d="M519.1,454.3c-0.1,0.6-0.5,0.8-0.9,0.9c-0.4,0-0.7-0.3-0.7-0.8c0-0.4,0.3-0.7,0.8-0.8
	C518.7,453.5,518.9,453.9,519.1,454.3z"/>
<path class="st17" d="M516.8,454.3c-0.1,0.4-0.3,0.8-0.8,0.8c-0.4,0-0.9-0.2-0.9-0.8c0-0.4,0.3-0.8,0.8-0.8S516.6,453.9,516.8,454.3
	z"/>
<ellipse class="st18" cx="509.8" cy="433.7" rx="2.1" ry="1.8"/>
<ellipse class="st18" cx="524.2" cy="433.7" rx="2.1" ry="1.8"/>
<path class="st6" d="M836.9,265.6c6.5-2.5,13.9,0.2,17,6.4c-1.9-7.3-9.4-11.6-16.6-9.5c-7.3,1.9-11.6,9.4-9.5,16.6
	c0.3,1,0.6,1.8,1.1,2.7C826.9,275,830.4,268.1,836.9,265.6z"/>
</svg>
